G04 #@! TF.FileFunction,Soldermask,Top*
%FSLAX46Y46*%
G04 Gerber Fmt 4.6, Leading zero omitted, Abs format (unit mm)*
G04 Created by KiCad (PCBNEW 4.0.2-stable) date 23-Jul-16 5:25:39 PM*
%MOMM*%
G01*
G04 APERTURE LIST*
%ADD10C,0.100000*%
G04 APERTURE END LIST*
D10*
G36*
X178816722Y-127943806D02*
X179050325Y-127991757D01*
X179270159Y-128084167D01*
X179467863Y-128217520D01*
X179635896Y-128386730D01*
X179767862Y-128585356D01*
X179858738Y-128805836D01*
X179904920Y-129039075D01*
X179904920Y-129039097D01*
X179905052Y-129039765D01*
X179901249Y-129312143D01*
X179901098Y-129312806D01*
X179901098Y-129312830D01*
X179848421Y-129544685D01*
X179751423Y-129762547D01*
X179613965Y-129957405D01*
X179441271Y-130121860D01*
X179239918Y-130249642D01*
X179009286Y-130339098D01*
X178994222Y-130344020D01*
X178970967Y-130359864D01*
X178953047Y-130381560D01*
X178941881Y-130407389D01*
X178938353Y-130435306D01*
X178942742Y-130463101D01*
X178954701Y-130488572D01*
X178973282Y-130509704D01*
X179006651Y-130528272D01*
X179173917Y-130581331D01*
X179381884Y-130695662D01*
X179563683Y-130848209D01*
X179712389Y-131033163D01*
X179822340Y-131243478D01*
X179889345Y-131471144D01*
X179889351Y-131471205D01*
X179889359Y-131471234D01*
X179910859Y-131707484D01*
X179886062Y-131943413D01*
X179886056Y-131943431D01*
X179886048Y-131943511D01*
X179815870Y-132170219D01*
X179702994Y-132378979D01*
X179551719Y-132561838D01*
X179367808Y-132711832D01*
X179158266Y-132823248D01*
X178931073Y-132891841D01*
X178694884Y-132915000D01*
X178683042Y-132915000D01*
X178670194Y-132914910D01*
X178670189Y-132914909D01*
X178666138Y-132914881D01*
X178430295Y-132888427D01*
X178204083Y-132816669D01*
X177996116Y-132702338D01*
X177814317Y-132549791D01*
X177665611Y-132364837D01*
X177555660Y-132154522D01*
X177555589Y-132154282D01*
X177553620Y-132150515D01*
X177537205Y-132127660D01*
X177515072Y-132110283D01*
X177488974Y-132099760D01*
X177460978Y-132096925D01*
X177433301Y-132102001D01*
X177408133Y-132114587D01*
X177387468Y-132133687D01*
X177372943Y-132157787D01*
X177365000Y-132196844D01*
X177365000Y-132915000D01*
X174933000Y-132915000D01*
X174933000Y-130483000D01*
X175669655Y-130483000D01*
X175697514Y-130479041D01*
X175723168Y-130467477D01*
X175744584Y-130449224D01*
X175760067Y-130425728D01*
X175768391Y-130398848D01*
X175768435Y-130396366D01*
X176533585Y-130396366D01*
X176541233Y-130423446D01*
X176556121Y-130447324D01*
X176577073Y-130466108D01*
X176602428Y-130478312D01*
X176632688Y-130483000D01*
X177365000Y-130483000D01*
X177365000Y-131203437D01*
X177368959Y-131231296D01*
X177380523Y-131256950D01*
X177398776Y-131278366D01*
X177422272Y-131293849D01*
X177449152Y-131302173D01*
X177477287Y-131302679D01*
X177504449Y-131295327D01*
X177528487Y-131280699D01*
X177547498Y-131259953D01*
X177560483Y-131233100D01*
X177562130Y-131227781D01*
X177675006Y-131019021D01*
X177826281Y-130836162D01*
X178010192Y-130686168D01*
X178219734Y-130574752D01*
X178379846Y-130526412D01*
X178403201Y-130515577D01*
X178424417Y-130497092D01*
X178439644Y-130473428D01*
X178447675Y-130446459D01*
X178447875Y-130418321D01*
X178440227Y-130391241D01*
X178425338Y-130367363D01*
X178404387Y-130348579D01*
X178370245Y-130334020D01*
X178311416Y-130321086D01*
X178092890Y-130225614D01*
X177897071Y-130089516D01*
X177731415Y-129917974D01*
X177602232Y-129717522D01*
X177513518Y-129493455D01*
X177505697Y-129470065D01*
X177489693Y-129446920D01*
X177467874Y-129429151D01*
X177441969Y-129418163D01*
X177414028Y-129414828D01*
X177386264Y-129419409D01*
X177360875Y-129431543D01*
X177339873Y-129450270D01*
X177320772Y-129485164D01*
X177275870Y-129630219D01*
X177162994Y-129838979D01*
X177011719Y-130021838D01*
X176827808Y-130171832D01*
X176618266Y-130283248D01*
X176601612Y-130288276D01*
X176578259Y-130299110D01*
X176557043Y-130317595D01*
X176541816Y-130341259D01*
X176533785Y-130368228D01*
X176533585Y-130396366D01*
X175768435Y-130396366D01*
X175768897Y-130370713D01*
X175761545Y-130343551D01*
X175746917Y-130319513D01*
X175726171Y-130300502D01*
X175701926Y-130288673D01*
X175664083Y-130276669D01*
X175456116Y-130162338D01*
X175274317Y-130009791D01*
X175125611Y-129824837D01*
X175015660Y-129614522D01*
X174948655Y-129386856D01*
X174948649Y-129386795D01*
X174948641Y-129386766D01*
X174927141Y-129150516D01*
X174951938Y-128914587D01*
X174951944Y-128914569D01*
X174951952Y-128914489D01*
X175022130Y-128687781D01*
X175135006Y-128479021D01*
X175286281Y-128296162D01*
X175470192Y-128146168D01*
X175679734Y-128034752D01*
X175906927Y-127966159D01*
X176143116Y-127943000D01*
X176154958Y-127943000D01*
X176167806Y-127943090D01*
X176167811Y-127943091D01*
X176171862Y-127943119D01*
X176407705Y-127969573D01*
X176633917Y-128041331D01*
X176841884Y-128155662D01*
X177023683Y-128308209D01*
X177172389Y-128493163D01*
X177282340Y-128703478D01*
X177321912Y-128837933D01*
X177333537Y-128863458D01*
X177351874Y-128884803D01*
X177375430Y-128900194D01*
X177402343Y-128908413D01*
X177430479Y-128908810D01*
X177457612Y-128901352D01*
X177481593Y-128886630D01*
X177500523Y-128865810D01*
X177515620Y-128830408D01*
X177524307Y-128789538D01*
X177618252Y-128570348D01*
X177752980Y-128373584D01*
X177923357Y-128206738D01*
X178122906Y-128076157D01*
X178344008Y-127986826D01*
X178578256Y-127942140D01*
X178816722Y-127943806D01*
X178816722Y-127943806D01*
G37*
G36*
X165626806Y-127054090D02*
X165626811Y-127054091D01*
X165630862Y-127054119D01*
X165866705Y-127080573D01*
X166092917Y-127152331D01*
X166300884Y-127266662D01*
X166482683Y-127419209D01*
X166631389Y-127604163D01*
X166741340Y-127814478D01*
X166808345Y-128042144D01*
X166808351Y-128042205D01*
X166808359Y-128042234D01*
X166829859Y-128278484D01*
X166805062Y-128514413D01*
X166805056Y-128514431D01*
X166805048Y-128514511D01*
X166734870Y-128741219D01*
X166621994Y-128949979D01*
X166470719Y-129132838D01*
X166286808Y-129282832D01*
X166077266Y-129394248D01*
X166060612Y-129399276D01*
X166037259Y-129410110D01*
X166016043Y-129428595D01*
X166000816Y-129452259D01*
X165992785Y-129479228D01*
X165992585Y-129507366D01*
X166000233Y-129534446D01*
X166015121Y-129558324D01*
X166036073Y-129577108D01*
X166061428Y-129589312D01*
X166091688Y-129594000D01*
X166824000Y-129594000D01*
X166824000Y-132026000D01*
X164392000Y-132026000D01*
X164392000Y-129594000D01*
X165128655Y-129594000D01*
X165156514Y-129590041D01*
X165182168Y-129578477D01*
X165203584Y-129560224D01*
X165219067Y-129536728D01*
X165227391Y-129509848D01*
X165227897Y-129481713D01*
X165220545Y-129454551D01*
X165205917Y-129430513D01*
X165185171Y-129411502D01*
X165160926Y-129399673D01*
X165123083Y-129387669D01*
X164915116Y-129273338D01*
X164733317Y-129120791D01*
X164584611Y-128935837D01*
X164474660Y-128725522D01*
X164407655Y-128497856D01*
X164407649Y-128497795D01*
X164407641Y-128497766D01*
X164386141Y-128261516D01*
X164410938Y-128025587D01*
X164410944Y-128025569D01*
X164410952Y-128025489D01*
X164481130Y-127798781D01*
X164594006Y-127590021D01*
X164745281Y-127407162D01*
X164929192Y-127257168D01*
X165138734Y-127145752D01*
X165365927Y-127077159D01*
X165602116Y-127054000D01*
X165613958Y-127054000D01*
X165626806Y-127054090D01*
X165626806Y-127054090D01*
G37*
G36*
X141084383Y-129721722D02*
X141293588Y-129764665D01*
X141490462Y-129847423D01*
X141667518Y-129966849D01*
X141818001Y-130118386D01*
X141936184Y-130296267D01*
X142017570Y-130493723D01*
X142058914Y-130702526D01*
X142058914Y-130702550D01*
X142059046Y-130703218D01*
X142055640Y-130947148D01*
X142055489Y-130947811D01*
X142055489Y-130947835D01*
X142008329Y-131155407D01*
X141921464Y-131350511D01*
X141798361Y-131525019D01*
X141643703Y-131672298D01*
X141463379Y-131786735D01*
X141264276Y-131863962D01*
X141053949Y-131901049D01*
X140840434Y-131896576D01*
X140631851Y-131850716D01*
X140436148Y-131765216D01*
X140260781Y-131643332D01*
X140112426Y-131489706D01*
X139996735Y-131310189D01*
X139918117Y-131111622D01*
X139879564Y-130901565D01*
X139882546Y-130688025D01*
X139926949Y-130479126D01*
X140011082Y-130282827D01*
X140131739Y-130106614D01*
X140284321Y-129957194D01*
X140463030Y-129840250D01*
X140661039Y-129760249D01*
X140870822Y-129720230D01*
X141084383Y-129721722D01*
X141084383Y-129721722D01*
G37*
G36*
X156324383Y-129721722D02*
X156533588Y-129764665D01*
X156730462Y-129847423D01*
X156907518Y-129966849D01*
X157058001Y-130118386D01*
X157176184Y-130296267D01*
X157257570Y-130493723D01*
X157298914Y-130702526D01*
X157298914Y-130702550D01*
X157299046Y-130703218D01*
X157295640Y-130947148D01*
X157295489Y-130947811D01*
X157295489Y-130947835D01*
X157248329Y-131155407D01*
X157161464Y-131350511D01*
X157038361Y-131525019D01*
X156883703Y-131672298D01*
X156703379Y-131786735D01*
X156504276Y-131863962D01*
X156293949Y-131901049D01*
X156080434Y-131896576D01*
X155871851Y-131850716D01*
X155676148Y-131765216D01*
X155500781Y-131643332D01*
X155352426Y-131489706D01*
X155236735Y-131310189D01*
X155158117Y-131111622D01*
X155119564Y-130901565D01*
X155122546Y-130688025D01*
X155166949Y-130479126D01*
X155251082Y-130282827D01*
X155371739Y-130106614D01*
X155524321Y-129957194D01*
X155703030Y-129840250D01*
X155901039Y-129760249D01*
X156110822Y-129720230D01*
X156324383Y-129721722D01*
X156324383Y-129721722D01*
G37*
G36*
X137842600Y-131873600D02*
X135715400Y-131873600D01*
X135715400Y-129746400D01*
X137842600Y-129746400D01*
X137842600Y-131873600D01*
X137842600Y-131873600D01*
G37*
G36*
X162448940Y-129746475D02*
X162448946Y-129746476D01*
X162452996Y-129746504D01*
X162659281Y-129769642D01*
X162857143Y-129832408D01*
X163039045Y-129932409D01*
X163198059Y-130065838D01*
X163328129Y-130227612D01*
X163424299Y-130411568D01*
X163482907Y-130610701D01*
X163482913Y-130610767D01*
X163482920Y-130610791D01*
X163501725Y-130817421D01*
X163480037Y-131023768D01*
X163480030Y-131023791D01*
X163480022Y-131023866D01*
X163418640Y-131222162D01*
X163319910Y-131404758D01*
X163187595Y-131564699D01*
X163026733Y-131695895D01*
X162843452Y-131793347D01*
X162644734Y-131853344D01*
X162438146Y-131873600D01*
X162427778Y-131873600D01*
X162417060Y-131873525D01*
X162417054Y-131873524D01*
X162413004Y-131873496D01*
X162206719Y-131850358D01*
X162008857Y-131787592D01*
X161826955Y-131687591D01*
X161667941Y-131554162D01*
X161537871Y-131392388D01*
X161441701Y-131208432D01*
X161383093Y-131009299D01*
X161383087Y-131009233D01*
X161383080Y-131009209D01*
X161364275Y-130802579D01*
X161385963Y-130596232D01*
X161385970Y-130596209D01*
X161385978Y-130596134D01*
X161447360Y-130397838D01*
X161546090Y-130215242D01*
X161678405Y-130055301D01*
X161839267Y-129924105D01*
X162022548Y-129826653D01*
X162221266Y-129766656D01*
X162427854Y-129746400D01*
X162438222Y-129746400D01*
X162448940Y-129746475D01*
X162448940Y-129746475D01*
G37*
G36*
X159908940Y-129746475D02*
X159908946Y-129746476D01*
X159912996Y-129746504D01*
X160119281Y-129769642D01*
X160317143Y-129832408D01*
X160499045Y-129932409D01*
X160658059Y-130065838D01*
X160788129Y-130227612D01*
X160884299Y-130411568D01*
X160942907Y-130610701D01*
X160942913Y-130610767D01*
X160942920Y-130610791D01*
X160961725Y-130817421D01*
X160940037Y-131023768D01*
X160940030Y-131023791D01*
X160940022Y-131023866D01*
X160878640Y-131222162D01*
X160779910Y-131404758D01*
X160647595Y-131564699D01*
X160486733Y-131695895D01*
X160303452Y-131793347D01*
X160104734Y-131853344D01*
X159898146Y-131873600D01*
X159887778Y-131873600D01*
X159877060Y-131873525D01*
X159877054Y-131873524D01*
X159873004Y-131873496D01*
X159666719Y-131850358D01*
X159468857Y-131787592D01*
X159286955Y-131687591D01*
X159127941Y-131554162D01*
X158997871Y-131392388D01*
X158901701Y-131208432D01*
X158843093Y-131009299D01*
X158843087Y-131009233D01*
X158843080Y-131009209D01*
X158824275Y-130802579D01*
X158845963Y-130596232D01*
X158845970Y-130596209D01*
X158845978Y-130596134D01*
X158907360Y-130397838D01*
X159006090Y-130215242D01*
X159138405Y-130055301D01*
X159299267Y-129924105D01*
X159482548Y-129826653D01*
X159681266Y-129766656D01*
X159887854Y-129746400D01*
X159898222Y-129746400D01*
X159908940Y-129746475D01*
X159908940Y-129746475D01*
G37*
G36*
X134254940Y-129746475D02*
X134254946Y-129746476D01*
X134258996Y-129746504D01*
X134465281Y-129769642D01*
X134663143Y-129832408D01*
X134845045Y-129932409D01*
X135004059Y-130065838D01*
X135134129Y-130227612D01*
X135230299Y-130411568D01*
X135288907Y-130610701D01*
X135288913Y-130610767D01*
X135288920Y-130610791D01*
X135307725Y-130817421D01*
X135286037Y-131023768D01*
X135286030Y-131023791D01*
X135286022Y-131023866D01*
X135224640Y-131222162D01*
X135125910Y-131404758D01*
X134993595Y-131564699D01*
X134832733Y-131695895D01*
X134649452Y-131793347D01*
X134450734Y-131853344D01*
X134244146Y-131873600D01*
X134233778Y-131873600D01*
X134223060Y-131873525D01*
X134223054Y-131873524D01*
X134219004Y-131873496D01*
X134012719Y-131850358D01*
X133814857Y-131787592D01*
X133632955Y-131687591D01*
X133473941Y-131554162D01*
X133343871Y-131392388D01*
X133247701Y-131208432D01*
X133189093Y-131009299D01*
X133189087Y-131009233D01*
X133189080Y-131009209D01*
X133170275Y-130802579D01*
X133191963Y-130596232D01*
X133191970Y-130596209D01*
X133191978Y-130596134D01*
X133253360Y-130397838D01*
X133352090Y-130215242D01*
X133484405Y-130055301D01*
X133645267Y-129924105D01*
X133828548Y-129826653D01*
X134027266Y-129766656D01*
X134233854Y-129746400D01*
X134244222Y-129746400D01*
X134254940Y-129746475D01*
X134254940Y-129746475D01*
G37*
G36*
X141084383Y-127181722D02*
X141293588Y-127224665D01*
X141490462Y-127307423D01*
X141667518Y-127426849D01*
X141818001Y-127578386D01*
X141936184Y-127756267D01*
X142017570Y-127953723D01*
X142058914Y-128162526D01*
X142058914Y-128162550D01*
X142059046Y-128163218D01*
X142055640Y-128407148D01*
X142055489Y-128407811D01*
X142055489Y-128407835D01*
X142008329Y-128615407D01*
X141921464Y-128810511D01*
X141798361Y-128985019D01*
X141643703Y-129132298D01*
X141463379Y-129246735D01*
X141264276Y-129323962D01*
X141053949Y-129361049D01*
X140840434Y-129356576D01*
X140631851Y-129310716D01*
X140436148Y-129225216D01*
X140260781Y-129103332D01*
X140112426Y-128949706D01*
X139996735Y-128770189D01*
X139918117Y-128571622D01*
X139879564Y-128361565D01*
X139882546Y-128148025D01*
X139926949Y-127939126D01*
X140011082Y-127742827D01*
X140131739Y-127566614D01*
X140284321Y-127417194D01*
X140463030Y-127300250D01*
X140661039Y-127220249D01*
X140870822Y-127180230D01*
X141084383Y-127181722D01*
X141084383Y-127181722D01*
G37*
G36*
X156324383Y-127181722D02*
X156533588Y-127224665D01*
X156730462Y-127307423D01*
X156907518Y-127426849D01*
X157058001Y-127578386D01*
X157176184Y-127756267D01*
X157257570Y-127953723D01*
X157298914Y-128162526D01*
X157298914Y-128162550D01*
X157299046Y-128163218D01*
X157295640Y-128407148D01*
X157295489Y-128407811D01*
X157295489Y-128407835D01*
X157248329Y-128615407D01*
X157161464Y-128810511D01*
X157038361Y-128985019D01*
X156883703Y-129132298D01*
X156703379Y-129246735D01*
X156504276Y-129323962D01*
X156293949Y-129361049D01*
X156080434Y-129356576D01*
X155871851Y-129310716D01*
X155676148Y-129225216D01*
X155500781Y-129103332D01*
X155352426Y-128949706D01*
X155236735Y-128770189D01*
X155158117Y-128571622D01*
X155119564Y-128361565D01*
X155122546Y-128148025D01*
X155166949Y-127939126D01*
X155251082Y-127742827D01*
X155371739Y-127566614D01*
X155524321Y-127417194D01*
X155703030Y-127300250D01*
X155901039Y-127220249D01*
X156110822Y-127180230D01*
X156324383Y-127181722D01*
X156324383Y-127181722D01*
G37*
G36*
X134254940Y-127206475D02*
X134254946Y-127206476D01*
X134258996Y-127206504D01*
X134465281Y-127229642D01*
X134663143Y-127292408D01*
X134845045Y-127392409D01*
X135004059Y-127525838D01*
X135134129Y-127687612D01*
X135230299Y-127871568D01*
X135288907Y-128070701D01*
X135288913Y-128070767D01*
X135288920Y-128070791D01*
X135307725Y-128277421D01*
X135286037Y-128483768D01*
X135286030Y-128483791D01*
X135286022Y-128483866D01*
X135224640Y-128682162D01*
X135125910Y-128864758D01*
X134993595Y-129024699D01*
X134832733Y-129155895D01*
X134649452Y-129253347D01*
X134450734Y-129313344D01*
X134244146Y-129333600D01*
X134233778Y-129333600D01*
X134223060Y-129333525D01*
X134223054Y-129333524D01*
X134219004Y-129333496D01*
X134012719Y-129310358D01*
X133814857Y-129247592D01*
X133632955Y-129147591D01*
X133473941Y-129014162D01*
X133343871Y-128852388D01*
X133247701Y-128668432D01*
X133189093Y-128469299D01*
X133189087Y-128469233D01*
X133189080Y-128469209D01*
X133170275Y-128262579D01*
X133191963Y-128056232D01*
X133191970Y-128056209D01*
X133191978Y-128056134D01*
X133253360Y-127857838D01*
X133352090Y-127675242D01*
X133484405Y-127515301D01*
X133645267Y-127384105D01*
X133828548Y-127286653D01*
X134027266Y-127226656D01*
X134233854Y-127206400D01*
X134244222Y-127206400D01*
X134254940Y-127206475D01*
X134254940Y-127206475D01*
G37*
G36*
X162448940Y-127206475D02*
X162448946Y-127206476D01*
X162452996Y-127206504D01*
X162659281Y-127229642D01*
X162857143Y-127292408D01*
X163039045Y-127392409D01*
X163198059Y-127525838D01*
X163328129Y-127687612D01*
X163424299Y-127871568D01*
X163482907Y-128070701D01*
X163482913Y-128070767D01*
X163482920Y-128070791D01*
X163501725Y-128277421D01*
X163480037Y-128483768D01*
X163480030Y-128483791D01*
X163480022Y-128483866D01*
X163418640Y-128682162D01*
X163319910Y-128864758D01*
X163187595Y-129024699D01*
X163026733Y-129155895D01*
X162843452Y-129253347D01*
X162644734Y-129313344D01*
X162438146Y-129333600D01*
X162427778Y-129333600D01*
X162417060Y-129333525D01*
X162417054Y-129333524D01*
X162413004Y-129333496D01*
X162206719Y-129310358D01*
X162008857Y-129247592D01*
X161826955Y-129147591D01*
X161667941Y-129014162D01*
X161537871Y-128852388D01*
X161441701Y-128668432D01*
X161383093Y-128469299D01*
X161383087Y-128469233D01*
X161383080Y-128469209D01*
X161364275Y-128262579D01*
X161385963Y-128056232D01*
X161385970Y-128056209D01*
X161385978Y-128056134D01*
X161447360Y-127857838D01*
X161546090Y-127675242D01*
X161678405Y-127515301D01*
X161839267Y-127384105D01*
X162022548Y-127286653D01*
X162221266Y-127226656D01*
X162427854Y-127206400D01*
X162438222Y-127206400D01*
X162448940Y-127206475D01*
X162448940Y-127206475D01*
G37*
G36*
X159908940Y-127206475D02*
X159908946Y-127206476D01*
X159912996Y-127206504D01*
X160119281Y-127229642D01*
X160317143Y-127292408D01*
X160499045Y-127392409D01*
X160658059Y-127525838D01*
X160788129Y-127687612D01*
X160884299Y-127871568D01*
X160942907Y-128070701D01*
X160942913Y-128070767D01*
X160942920Y-128070791D01*
X160961725Y-128277421D01*
X160940037Y-128483768D01*
X160940030Y-128483791D01*
X160940022Y-128483866D01*
X160878640Y-128682162D01*
X160779910Y-128864758D01*
X160647595Y-129024699D01*
X160486733Y-129155895D01*
X160303452Y-129253347D01*
X160104734Y-129313344D01*
X159898146Y-129333600D01*
X159887778Y-129333600D01*
X159877060Y-129333525D01*
X159877054Y-129333524D01*
X159873004Y-129333496D01*
X159666719Y-129310358D01*
X159468857Y-129247592D01*
X159286955Y-129147591D01*
X159127941Y-129014162D01*
X158997871Y-128852388D01*
X158901701Y-128668432D01*
X158843093Y-128469299D01*
X158843087Y-128469233D01*
X158843080Y-128469209D01*
X158824275Y-128262579D01*
X158845963Y-128056232D01*
X158845970Y-128056209D01*
X158845978Y-128056134D01*
X158907360Y-127857838D01*
X159006090Y-127675242D01*
X159138405Y-127515301D01*
X159299267Y-127384105D01*
X159482548Y-127286653D01*
X159681266Y-127226656D01*
X159887854Y-127206400D01*
X159898222Y-127206400D01*
X159908940Y-127206475D01*
X159908940Y-127206475D01*
G37*
G36*
X136794940Y-127206475D02*
X136794946Y-127206476D01*
X136798996Y-127206504D01*
X137005281Y-127229642D01*
X137203143Y-127292408D01*
X137385045Y-127392409D01*
X137544059Y-127525838D01*
X137674129Y-127687612D01*
X137770299Y-127871568D01*
X137828907Y-128070701D01*
X137828913Y-128070767D01*
X137828920Y-128070791D01*
X137847725Y-128277421D01*
X137826037Y-128483768D01*
X137826030Y-128483791D01*
X137826022Y-128483866D01*
X137764640Y-128682162D01*
X137665910Y-128864758D01*
X137533595Y-129024699D01*
X137372733Y-129155895D01*
X137189452Y-129253347D01*
X136990734Y-129313344D01*
X136784146Y-129333600D01*
X136773778Y-129333600D01*
X136763060Y-129333525D01*
X136763054Y-129333524D01*
X136759004Y-129333496D01*
X136552719Y-129310358D01*
X136354857Y-129247592D01*
X136172955Y-129147591D01*
X136013941Y-129014162D01*
X135883871Y-128852388D01*
X135787701Y-128668432D01*
X135729093Y-128469299D01*
X135729087Y-128469233D01*
X135729080Y-128469209D01*
X135710275Y-128262579D01*
X135731963Y-128056232D01*
X135731970Y-128056209D01*
X135731978Y-128056134D01*
X135793360Y-127857838D01*
X135892090Y-127675242D01*
X136024405Y-127515301D01*
X136185267Y-127384105D01*
X136368548Y-127286653D01*
X136567266Y-127226656D01*
X136773854Y-127206400D01*
X136784222Y-127206400D01*
X136794940Y-127206475D01*
X136794940Y-127206475D01*
G37*
G36*
X156324383Y-124641722D02*
X156533588Y-124684665D01*
X156730462Y-124767423D01*
X156907518Y-124886849D01*
X157058001Y-125038386D01*
X157176184Y-125216267D01*
X157257570Y-125413723D01*
X157298914Y-125622526D01*
X157298914Y-125622550D01*
X157299046Y-125623218D01*
X157295640Y-125867148D01*
X157295489Y-125867811D01*
X157295489Y-125867835D01*
X157248329Y-126075407D01*
X157161464Y-126270511D01*
X157038361Y-126445019D01*
X156883703Y-126592298D01*
X156703379Y-126706735D01*
X156504276Y-126783962D01*
X156293949Y-126821049D01*
X156080434Y-126816576D01*
X155871851Y-126770716D01*
X155676148Y-126685216D01*
X155500781Y-126563332D01*
X155352426Y-126409706D01*
X155236735Y-126230189D01*
X155158117Y-126031622D01*
X155119564Y-125821565D01*
X155122546Y-125608025D01*
X155166949Y-125399126D01*
X155251082Y-125202827D01*
X155371739Y-125026614D01*
X155524321Y-124877194D01*
X155703030Y-124760250D01*
X155901039Y-124680249D01*
X156110822Y-124640230D01*
X156324383Y-124641722D01*
X156324383Y-124641722D01*
G37*
G36*
X141084383Y-124641722D02*
X141293588Y-124684665D01*
X141490462Y-124767423D01*
X141667518Y-124886849D01*
X141818001Y-125038386D01*
X141936184Y-125216267D01*
X142017570Y-125413723D01*
X142058914Y-125622526D01*
X142058914Y-125622550D01*
X142059046Y-125623218D01*
X142055640Y-125867148D01*
X142055489Y-125867811D01*
X142055489Y-125867835D01*
X142008329Y-126075407D01*
X141921464Y-126270511D01*
X141798361Y-126445019D01*
X141643703Y-126592298D01*
X141463379Y-126706735D01*
X141264276Y-126783962D01*
X141053949Y-126821049D01*
X140840434Y-126816576D01*
X140631851Y-126770716D01*
X140436148Y-126685216D01*
X140260781Y-126563332D01*
X140112426Y-126409706D01*
X139996735Y-126230189D01*
X139918117Y-126031622D01*
X139879564Y-125821565D01*
X139882546Y-125608025D01*
X139926949Y-125399126D01*
X140011082Y-125202827D01*
X140131739Y-125026614D01*
X140284321Y-124877194D01*
X140463030Y-124760250D01*
X140661039Y-124680249D01*
X140870822Y-124640230D01*
X141084383Y-124641722D01*
X141084383Y-124641722D01*
G37*
G36*
X134254940Y-124666475D02*
X134254946Y-124666476D01*
X134258996Y-124666504D01*
X134465281Y-124689642D01*
X134663143Y-124752408D01*
X134845045Y-124852409D01*
X135004059Y-124985838D01*
X135134129Y-125147612D01*
X135230299Y-125331568D01*
X135288907Y-125530701D01*
X135288913Y-125530767D01*
X135288920Y-125530791D01*
X135307725Y-125737421D01*
X135286037Y-125943768D01*
X135286030Y-125943791D01*
X135286022Y-125943866D01*
X135224640Y-126142162D01*
X135125910Y-126324758D01*
X134993595Y-126484699D01*
X134832733Y-126615895D01*
X134649452Y-126713347D01*
X134450734Y-126773344D01*
X134244146Y-126793600D01*
X134233778Y-126793600D01*
X134223060Y-126793525D01*
X134223054Y-126793524D01*
X134219004Y-126793496D01*
X134012719Y-126770358D01*
X133814857Y-126707592D01*
X133632955Y-126607591D01*
X133473941Y-126474162D01*
X133343871Y-126312388D01*
X133247701Y-126128432D01*
X133189093Y-125929299D01*
X133189087Y-125929233D01*
X133189080Y-125929209D01*
X133170275Y-125722579D01*
X133191963Y-125516232D01*
X133191970Y-125516209D01*
X133191978Y-125516134D01*
X133253360Y-125317838D01*
X133352090Y-125135242D01*
X133484405Y-124975301D01*
X133645267Y-124844105D01*
X133828548Y-124746653D01*
X134027266Y-124686656D01*
X134233854Y-124666400D01*
X134244222Y-124666400D01*
X134254940Y-124666475D01*
X134254940Y-124666475D01*
G37*
G36*
X136794940Y-124666475D02*
X136794946Y-124666476D01*
X136798996Y-124666504D01*
X137005281Y-124689642D01*
X137203143Y-124752408D01*
X137385045Y-124852409D01*
X137544059Y-124985838D01*
X137674129Y-125147612D01*
X137770299Y-125331568D01*
X137828907Y-125530701D01*
X137828913Y-125530767D01*
X137828920Y-125530791D01*
X137847725Y-125737421D01*
X137826037Y-125943768D01*
X137826030Y-125943791D01*
X137826022Y-125943866D01*
X137764640Y-126142162D01*
X137665910Y-126324758D01*
X137533595Y-126484699D01*
X137372733Y-126615895D01*
X137189452Y-126713347D01*
X136990734Y-126773344D01*
X136784146Y-126793600D01*
X136773778Y-126793600D01*
X136763060Y-126793525D01*
X136763054Y-126793524D01*
X136759004Y-126793496D01*
X136552719Y-126770358D01*
X136354857Y-126707592D01*
X136172955Y-126607591D01*
X136013941Y-126474162D01*
X135883871Y-126312388D01*
X135787701Y-126128432D01*
X135729093Y-125929299D01*
X135729087Y-125929233D01*
X135729080Y-125929209D01*
X135710275Y-125722579D01*
X135731963Y-125516232D01*
X135731970Y-125516209D01*
X135731978Y-125516134D01*
X135793360Y-125317838D01*
X135892090Y-125135242D01*
X136024405Y-124975301D01*
X136185267Y-124844105D01*
X136368548Y-124746653D01*
X136567266Y-124686656D01*
X136773854Y-124666400D01*
X136784222Y-124666400D01*
X136794940Y-124666475D01*
X136794940Y-124666475D01*
G37*
G36*
X162448940Y-124666475D02*
X162448946Y-124666476D01*
X162452996Y-124666504D01*
X162659281Y-124689642D01*
X162857143Y-124752408D01*
X163039045Y-124852409D01*
X163198059Y-124985838D01*
X163328129Y-125147612D01*
X163424299Y-125331568D01*
X163482907Y-125530701D01*
X163482913Y-125530767D01*
X163482920Y-125530791D01*
X163501725Y-125737421D01*
X163480037Y-125943768D01*
X163480030Y-125943791D01*
X163480022Y-125943866D01*
X163418640Y-126142162D01*
X163319910Y-126324758D01*
X163187595Y-126484699D01*
X163026733Y-126615895D01*
X162843452Y-126713347D01*
X162644734Y-126773344D01*
X162438146Y-126793600D01*
X162427778Y-126793600D01*
X162417060Y-126793525D01*
X162417054Y-126793524D01*
X162413004Y-126793496D01*
X162206719Y-126770358D01*
X162008857Y-126707592D01*
X161826955Y-126607591D01*
X161667941Y-126474162D01*
X161537871Y-126312388D01*
X161441701Y-126128432D01*
X161383093Y-125929299D01*
X161383087Y-125929233D01*
X161383080Y-125929209D01*
X161364275Y-125722579D01*
X161385963Y-125516232D01*
X161385970Y-125516209D01*
X161385978Y-125516134D01*
X161447360Y-125317838D01*
X161546090Y-125135242D01*
X161678405Y-124975301D01*
X161839267Y-124844105D01*
X162022548Y-124746653D01*
X162221266Y-124686656D01*
X162427854Y-124666400D01*
X162438222Y-124666400D01*
X162448940Y-124666475D01*
X162448940Y-124666475D01*
G37*
G36*
X159908940Y-124666475D02*
X159908946Y-124666476D01*
X159912996Y-124666504D01*
X160119281Y-124689642D01*
X160317143Y-124752408D01*
X160499045Y-124852409D01*
X160658059Y-124985838D01*
X160788129Y-125147612D01*
X160884299Y-125331568D01*
X160942907Y-125530701D01*
X160942913Y-125530767D01*
X160942920Y-125530791D01*
X160961725Y-125737421D01*
X160940037Y-125943768D01*
X160940030Y-125943791D01*
X160940022Y-125943866D01*
X160878640Y-126142162D01*
X160779910Y-126324758D01*
X160647595Y-126484699D01*
X160486733Y-126615895D01*
X160303452Y-126713347D01*
X160104734Y-126773344D01*
X159898146Y-126793600D01*
X159887778Y-126793600D01*
X159877060Y-126793525D01*
X159877054Y-126793524D01*
X159873004Y-126793496D01*
X159666719Y-126770358D01*
X159468857Y-126707592D01*
X159286955Y-126607591D01*
X159127941Y-126474162D01*
X158997871Y-126312388D01*
X158901701Y-126128432D01*
X158843093Y-125929299D01*
X158843087Y-125929233D01*
X158843080Y-125929209D01*
X158824275Y-125722579D01*
X158845963Y-125516232D01*
X158845970Y-125516209D01*
X158845978Y-125516134D01*
X158907360Y-125317838D01*
X159006090Y-125135242D01*
X159138405Y-124975301D01*
X159299267Y-124844105D01*
X159482548Y-124746653D01*
X159681266Y-124686656D01*
X159887854Y-124666400D01*
X159898222Y-124666400D01*
X159908940Y-124666475D01*
X159908940Y-124666475D01*
G37*
G36*
X171063285Y-124880562D02*
X171226568Y-124914079D01*
X171380238Y-124978676D01*
X171518437Y-125071892D01*
X171635894Y-125190172D01*
X171728139Y-125329014D01*
X171791662Y-125483132D01*
X171823904Y-125645965D01*
X171823904Y-125645980D01*
X171824037Y-125646653D01*
X171821378Y-125837049D01*
X171821227Y-125837712D01*
X171821227Y-125837736D01*
X171784451Y-125999604D01*
X171716652Y-126151881D01*
X171620561Y-126288099D01*
X171499847Y-126403054D01*
X171359101Y-126492374D01*
X171203693Y-126552653D01*
X171039526Y-126581601D01*
X170872868Y-126578109D01*
X170710063Y-126542315D01*
X170557311Y-126475579D01*
X170420431Y-126380444D01*
X170304635Y-126260534D01*
X170214332Y-126120411D01*
X170152969Y-125965428D01*
X170122878Y-125801471D01*
X170125205Y-125634795D01*
X170159863Y-125471742D01*
X170225532Y-125318523D01*
X170319709Y-125180983D01*
X170438804Y-125064356D01*
X170578293Y-124973077D01*
X170732845Y-124910634D01*
X170896588Y-124879398D01*
X171063285Y-124880562D01*
X171063285Y-124880562D01*
G37*
G36*
X173824000Y-126580000D02*
X172124000Y-126580000D01*
X172124000Y-124880000D01*
X173824000Y-124880000D01*
X173824000Y-126580000D01*
X173824000Y-126580000D01*
G37*
G36*
X177660383Y-122863722D02*
X177869588Y-122906665D01*
X178066462Y-122989423D01*
X178243518Y-123108849D01*
X178394001Y-123260386D01*
X178512184Y-123438267D01*
X178593570Y-123635723D01*
X178634914Y-123844526D01*
X178634914Y-123844550D01*
X178635046Y-123845218D01*
X178631640Y-124089148D01*
X178631489Y-124089811D01*
X178631489Y-124089835D01*
X178584329Y-124297407D01*
X178497464Y-124492511D01*
X178374361Y-124667019D01*
X178219703Y-124814298D01*
X178039379Y-124928735D01*
X177840276Y-125005962D01*
X177629949Y-125043049D01*
X177416434Y-125038576D01*
X177207851Y-124992716D01*
X177012148Y-124907216D01*
X176836781Y-124785332D01*
X176688426Y-124631706D01*
X176572735Y-124452189D01*
X176494117Y-124253622D01*
X176455564Y-124043565D01*
X176458546Y-123830025D01*
X176502949Y-123621126D01*
X176587082Y-123424827D01*
X176707739Y-123248614D01*
X176860321Y-123099194D01*
X177039030Y-122982250D01*
X177237039Y-122902249D01*
X177446822Y-122862230D01*
X177660383Y-122863722D01*
X177660383Y-122863722D01*
G37*
G36*
X141084383Y-122101722D02*
X141293588Y-122144665D01*
X141490462Y-122227423D01*
X141667518Y-122346849D01*
X141818001Y-122498386D01*
X141936184Y-122676267D01*
X142017570Y-122873723D01*
X142058914Y-123082526D01*
X142058914Y-123082550D01*
X142059046Y-123083218D01*
X142055640Y-123327148D01*
X142055489Y-123327811D01*
X142055489Y-123327835D01*
X142008329Y-123535407D01*
X141921464Y-123730511D01*
X141798361Y-123905019D01*
X141643703Y-124052298D01*
X141463379Y-124166735D01*
X141264276Y-124243962D01*
X141053949Y-124281049D01*
X140840434Y-124276576D01*
X140631851Y-124230716D01*
X140436148Y-124145216D01*
X140260781Y-124023332D01*
X140112426Y-123869706D01*
X139996735Y-123690189D01*
X139918117Y-123491622D01*
X139879564Y-123281565D01*
X139882546Y-123068025D01*
X139926949Y-122859126D01*
X140011082Y-122662827D01*
X140131739Y-122486614D01*
X140284321Y-122337194D01*
X140463030Y-122220250D01*
X140661039Y-122140249D01*
X140870822Y-122100230D01*
X141084383Y-122101722D01*
X141084383Y-122101722D01*
G37*
G36*
X156324383Y-122101722D02*
X156533588Y-122144665D01*
X156730462Y-122227423D01*
X156907518Y-122346849D01*
X157058001Y-122498386D01*
X157176184Y-122676267D01*
X157257570Y-122873723D01*
X157298914Y-123082526D01*
X157298914Y-123082550D01*
X157299046Y-123083218D01*
X157295640Y-123327148D01*
X157295489Y-123327811D01*
X157295489Y-123327835D01*
X157248329Y-123535407D01*
X157161464Y-123730511D01*
X157038361Y-123905019D01*
X156883703Y-124052298D01*
X156703379Y-124166735D01*
X156504276Y-124243962D01*
X156293949Y-124281049D01*
X156080434Y-124276576D01*
X155871851Y-124230716D01*
X155676148Y-124145216D01*
X155500781Y-124023332D01*
X155352426Y-123869706D01*
X155236735Y-123690189D01*
X155158117Y-123491622D01*
X155119564Y-123281565D01*
X155122546Y-123068025D01*
X155166949Y-122859126D01*
X155251082Y-122662827D01*
X155371739Y-122486614D01*
X155524321Y-122337194D01*
X155703030Y-122220250D01*
X155901039Y-122140249D01*
X156110822Y-122100230D01*
X156324383Y-122101722D01*
X156324383Y-122101722D01*
G37*
G36*
X162448940Y-122126475D02*
X162448946Y-122126476D01*
X162452996Y-122126504D01*
X162659281Y-122149642D01*
X162857143Y-122212408D01*
X163039045Y-122312409D01*
X163198059Y-122445838D01*
X163328129Y-122607612D01*
X163424299Y-122791568D01*
X163482907Y-122990701D01*
X163482913Y-122990767D01*
X163482920Y-122990791D01*
X163501725Y-123197421D01*
X163480037Y-123403768D01*
X163480030Y-123403791D01*
X163480022Y-123403866D01*
X163418640Y-123602162D01*
X163319910Y-123784758D01*
X163187595Y-123944699D01*
X163026733Y-124075895D01*
X162843452Y-124173347D01*
X162644734Y-124233344D01*
X162438146Y-124253600D01*
X162427778Y-124253600D01*
X162417060Y-124253525D01*
X162417054Y-124253524D01*
X162413004Y-124253496D01*
X162206719Y-124230358D01*
X162008857Y-124167592D01*
X161826955Y-124067591D01*
X161667941Y-123934162D01*
X161537871Y-123772388D01*
X161441701Y-123588432D01*
X161383093Y-123389299D01*
X161383087Y-123389233D01*
X161383080Y-123389209D01*
X161364275Y-123182579D01*
X161385963Y-122976232D01*
X161385970Y-122976209D01*
X161385978Y-122976134D01*
X161447360Y-122777838D01*
X161546090Y-122595242D01*
X161678405Y-122435301D01*
X161839267Y-122304105D01*
X162022548Y-122206653D01*
X162221266Y-122146656D01*
X162427854Y-122126400D01*
X162438222Y-122126400D01*
X162448940Y-122126475D01*
X162448940Y-122126475D01*
G37*
G36*
X159908940Y-122126475D02*
X159908946Y-122126476D01*
X159912996Y-122126504D01*
X160119281Y-122149642D01*
X160317143Y-122212408D01*
X160499045Y-122312409D01*
X160658059Y-122445838D01*
X160788129Y-122607612D01*
X160884299Y-122791568D01*
X160942907Y-122990701D01*
X160942913Y-122990767D01*
X160942920Y-122990791D01*
X160961725Y-123197421D01*
X160940037Y-123403768D01*
X160940030Y-123403791D01*
X160940022Y-123403866D01*
X160878640Y-123602162D01*
X160779910Y-123784758D01*
X160647595Y-123944699D01*
X160486733Y-124075895D01*
X160303452Y-124173347D01*
X160104734Y-124233344D01*
X159898146Y-124253600D01*
X159887778Y-124253600D01*
X159877060Y-124253525D01*
X159877054Y-124253524D01*
X159873004Y-124253496D01*
X159666719Y-124230358D01*
X159468857Y-124167592D01*
X159286955Y-124067591D01*
X159127941Y-123934162D01*
X158997871Y-123772388D01*
X158901701Y-123588432D01*
X158843093Y-123389299D01*
X158843087Y-123389233D01*
X158843080Y-123389209D01*
X158824275Y-123182579D01*
X158845963Y-122976232D01*
X158845970Y-122976209D01*
X158845978Y-122976134D01*
X158907360Y-122777838D01*
X159006090Y-122595242D01*
X159138405Y-122435301D01*
X159299267Y-122304105D01*
X159482548Y-122206653D01*
X159681266Y-122146656D01*
X159887854Y-122126400D01*
X159898222Y-122126400D01*
X159908940Y-122126475D01*
X159908940Y-122126475D01*
G37*
G36*
X136794940Y-122126475D02*
X136794946Y-122126476D01*
X136798996Y-122126504D01*
X137005281Y-122149642D01*
X137203143Y-122212408D01*
X137385045Y-122312409D01*
X137544059Y-122445838D01*
X137674129Y-122607612D01*
X137770299Y-122791568D01*
X137828907Y-122990701D01*
X137828913Y-122990767D01*
X137828920Y-122990791D01*
X137847725Y-123197421D01*
X137826037Y-123403768D01*
X137826030Y-123403791D01*
X137826022Y-123403866D01*
X137764640Y-123602162D01*
X137665910Y-123784758D01*
X137533595Y-123944699D01*
X137372733Y-124075895D01*
X137189452Y-124173347D01*
X136990734Y-124233344D01*
X136784146Y-124253600D01*
X136773778Y-124253600D01*
X136763060Y-124253525D01*
X136763054Y-124253524D01*
X136759004Y-124253496D01*
X136552719Y-124230358D01*
X136354857Y-124167592D01*
X136172955Y-124067591D01*
X136013941Y-123934162D01*
X135883871Y-123772388D01*
X135787701Y-123588432D01*
X135729093Y-123389299D01*
X135729087Y-123389233D01*
X135729080Y-123389209D01*
X135710275Y-123182579D01*
X135731963Y-122976232D01*
X135731970Y-122976209D01*
X135731978Y-122976134D01*
X135793360Y-122777838D01*
X135892090Y-122595242D01*
X136024405Y-122435301D01*
X136185267Y-122304105D01*
X136368548Y-122206653D01*
X136567266Y-122146656D01*
X136773854Y-122126400D01*
X136784222Y-122126400D01*
X136794940Y-122126475D01*
X136794940Y-122126475D01*
G37*
G36*
X134254940Y-122126475D02*
X134254946Y-122126476D01*
X134258996Y-122126504D01*
X134465281Y-122149642D01*
X134663143Y-122212408D01*
X134845045Y-122312409D01*
X135004059Y-122445838D01*
X135134129Y-122607612D01*
X135230299Y-122791568D01*
X135288907Y-122990701D01*
X135288913Y-122990767D01*
X135288920Y-122990791D01*
X135307725Y-123197421D01*
X135286037Y-123403768D01*
X135286030Y-123403791D01*
X135286022Y-123403866D01*
X135224640Y-123602162D01*
X135125910Y-123784758D01*
X134993595Y-123944699D01*
X134832733Y-124075895D01*
X134649452Y-124173347D01*
X134450734Y-124233344D01*
X134244146Y-124253600D01*
X134233778Y-124253600D01*
X134223060Y-124253525D01*
X134223054Y-124253524D01*
X134219004Y-124253496D01*
X134012719Y-124230358D01*
X133814857Y-124167592D01*
X133632955Y-124067591D01*
X133473941Y-123934162D01*
X133343871Y-123772388D01*
X133247701Y-123588432D01*
X133189093Y-123389299D01*
X133189087Y-123389233D01*
X133189080Y-123389209D01*
X133170275Y-123182579D01*
X133191963Y-122976232D01*
X133191970Y-122976209D01*
X133191978Y-122976134D01*
X133253360Y-122777838D01*
X133352090Y-122595242D01*
X133484405Y-122435301D01*
X133645267Y-122304105D01*
X133828548Y-122206653D01*
X134027266Y-122146656D01*
X134233854Y-122126400D01*
X134244222Y-122126400D01*
X134254940Y-122126475D01*
X134254940Y-122126475D01*
G37*
G36*
X141084383Y-119561722D02*
X141293588Y-119604665D01*
X141490462Y-119687423D01*
X141667518Y-119806849D01*
X141818001Y-119958386D01*
X141936184Y-120136267D01*
X142017570Y-120333723D01*
X142058914Y-120542526D01*
X142058914Y-120542550D01*
X142059046Y-120543218D01*
X142055640Y-120787148D01*
X142055489Y-120787811D01*
X142055489Y-120787835D01*
X142008329Y-120995407D01*
X141921464Y-121190511D01*
X141798361Y-121365019D01*
X141643703Y-121512298D01*
X141463379Y-121626735D01*
X141264276Y-121703962D01*
X141053949Y-121741049D01*
X140840434Y-121736576D01*
X140631851Y-121690716D01*
X140436148Y-121605216D01*
X140260781Y-121483332D01*
X140112426Y-121329706D01*
X139996735Y-121150189D01*
X139918117Y-120951622D01*
X139879564Y-120741565D01*
X139882546Y-120528025D01*
X139926949Y-120319126D01*
X140011082Y-120122827D01*
X140131739Y-119946614D01*
X140284321Y-119797194D01*
X140463030Y-119680250D01*
X140661039Y-119600249D01*
X140870822Y-119560230D01*
X141084383Y-119561722D01*
X141084383Y-119561722D01*
G37*
G36*
X156324383Y-119561722D02*
X156533588Y-119604665D01*
X156730462Y-119687423D01*
X156907518Y-119806849D01*
X157058001Y-119958386D01*
X157176184Y-120136267D01*
X157257570Y-120333723D01*
X157298914Y-120542526D01*
X157298914Y-120542550D01*
X157299046Y-120543218D01*
X157295640Y-120787148D01*
X157295489Y-120787811D01*
X157295489Y-120787835D01*
X157248329Y-120995407D01*
X157161464Y-121190511D01*
X157038361Y-121365019D01*
X156883703Y-121512298D01*
X156703379Y-121626735D01*
X156504276Y-121703962D01*
X156293949Y-121741049D01*
X156080434Y-121736576D01*
X155871851Y-121690716D01*
X155676148Y-121605216D01*
X155500781Y-121483332D01*
X155352426Y-121329706D01*
X155236735Y-121150189D01*
X155158117Y-120951622D01*
X155119564Y-120741565D01*
X155122546Y-120528025D01*
X155166949Y-120319126D01*
X155251082Y-120122827D01*
X155371739Y-119946614D01*
X155524321Y-119797194D01*
X155703030Y-119680250D01*
X155901039Y-119600249D01*
X156110822Y-119560230D01*
X156324383Y-119561722D01*
X156324383Y-119561722D01*
G37*
G36*
X159908940Y-119586475D02*
X159908946Y-119586476D01*
X159912996Y-119586504D01*
X160119281Y-119609642D01*
X160317143Y-119672408D01*
X160499045Y-119772409D01*
X160658059Y-119905838D01*
X160788129Y-120067612D01*
X160884299Y-120251568D01*
X160942907Y-120450701D01*
X160942913Y-120450767D01*
X160942920Y-120450791D01*
X160961725Y-120657421D01*
X160940037Y-120863768D01*
X160940030Y-120863791D01*
X160940022Y-120863866D01*
X160878640Y-121062162D01*
X160779910Y-121244758D01*
X160647595Y-121404699D01*
X160486733Y-121535895D01*
X160303452Y-121633347D01*
X160104734Y-121693344D01*
X159898146Y-121713600D01*
X159887778Y-121713600D01*
X159877060Y-121713525D01*
X159877054Y-121713524D01*
X159873004Y-121713496D01*
X159666719Y-121690358D01*
X159468857Y-121627592D01*
X159286955Y-121527591D01*
X159127941Y-121394162D01*
X158997871Y-121232388D01*
X158901701Y-121048432D01*
X158843093Y-120849299D01*
X158843087Y-120849233D01*
X158843080Y-120849209D01*
X158824275Y-120642579D01*
X158845963Y-120436232D01*
X158845970Y-120436209D01*
X158845978Y-120436134D01*
X158907360Y-120237838D01*
X159006090Y-120055242D01*
X159138405Y-119895301D01*
X159299267Y-119764105D01*
X159482548Y-119666653D01*
X159681266Y-119606656D01*
X159887854Y-119586400D01*
X159898222Y-119586400D01*
X159908940Y-119586475D01*
X159908940Y-119586475D01*
G37*
G36*
X162448940Y-119586475D02*
X162448946Y-119586476D01*
X162452996Y-119586504D01*
X162659281Y-119609642D01*
X162857143Y-119672408D01*
X163039045Y-119772409D01*
X163198059Y-119905838D01*
X163328129Y-120067612D01*
X163424299Y-120251568D01*
X163482907Y-120450701D01*
X163482913Y-120450767D01*
X163482920Y-120450791D01*
X163501725Y-120657421D01*
X163480037Y-120863768D01*
X163480030Y-120863791D01*
X163480022Y-120863866D01*
X163418640Y-121062162D01*
X163319910Y-121244758D01*
X163187595Y-121404699D01*
X163026733Y-121535895D01*
X162843452Y-121633347D01*
X162644734Y-121693344D01*
X162438146Y-121713600D01*
X162427778Y-121713600D01*
X162417060Y-121713525D01*
X162417054Y-121713524D01*
X162413004Y-121713496D01*
X162206719Y-121690358D01*
X162008857Y-121627592D01*
X161826955Y-121527591D01*
X161667941Y-121394162D01*
X161537871Y-121232388D01*
X161441701Y-121048432D01*
X161383093Y-120849299D01*
X161383087Y-120849233D01*
X161383080Y-120849209D01*
X161364275Y-120642579D01*
X161385963Y-120436232D01*
X161385970Y-120436209D01*
X161385978Y-120436134D01*
X161447360Y-120237838D01*
X161546090Y-120055242D01*
X161678405Y-119895301D01*
X161839267Y-119764105D01*
X162022548Y-119666653D01*
X162221266Y-119606656D01*
X162427854Y-119586400D01*
X162438222Y-119586400D01*
X162448940Y-119586475D01*
X162448940Y-119586475D01*
G37*
G36*
X134254940Y-119586475D02*
X134254946Y-119586476D01*
X134258996Y-119586504D01*
X134465281Y-119609642D01*
X134663143Y-119672408D01*
X134845045Y-119772409D01*
X135004059Y-119905838D01*
X135134129Y-120067612D01*
X135230299Y-120251568D01*
X135288907Y-120450701D01*
X135288913Y-120450767D01*
X135288920Y-120450791D01*
X135307725Y-120657421D01*
X135286037Y-120863768D01*
X135286030Y-120863791D01*
X135286022Y-120863866D01*
X135224640Y-121062162D01*
X135125910Y-121244758D01*
X134993595Y-121404699D01*
X134832733Y-121535895D01*
X134649452Y-121633347D01*
X134450734Y-121693344D01*
X134244146Y-121713600D01*
X134233778Y-121713600D01*
X134223060Y-121713525D01*
X134223054Y-121713524D01*
X134219004Y-121713496D01*
X134012719Y-121690358D01*
X133814857Y-121627592D01*
X133632955Y-121527591D01*
X133473941Y-121394162D01*
X133343871Y-121232388D01*
X133247701Y-121048432D01*
X133189093Y-120849299D01*
X133189087Y-120849233D01*
X133189080Y-120849209D01*
X133170275Y-120642579D01*
X133191963Y-120436232D01*
X133191970Y-120436209D01*
X133191978Y-120436134D01*
X133253360Y-120237838D01*
X133352090Y-120055242D01*
X133484405Y-119895301D01*
X133645267Y-119764105D01*
X133828548Y-119666653D01*
X134027266Y-119606656D01*
X134233854Y-119586400D01*
X134244222Y-119586400D01*
X134254940Y-119586475D01*
X134254940Y-119586475D01*
G37*
G36*
X136794940Y-119586475D02*
X136794946Y-119586476D01*
X136798996Y-119586504D01*
X137005281Y-119609642D01*
X137203143Y-119672408D01*
X137385045Y-119772409D01*
X137544059Y-119905838D01*
X137674129Y-120067612D01*
X137770299Y-120251568D01*
X137828907Y-120450701D01*
X137828913Y-120450767D01*
X137828920Y-120450791D01*
X137847725Y-120657421D01*
X137826037Y-120863768D01*
X137826030Y-120863791D01*
X137826022Y-120863866D01*
X137764640Y-121062162D01*
X137665910Y-121244758D01*
X137533595Y-121404699D01*
X137372733Y-121535895D01*
X137189452Y-121633347D01*
X136990734Y-121693344D01*
X136784146Y-121713600D01*
X136773778Y-121713600D01*
X136763060Y-121713525D01*
X136763054Y-121713524D01*
X136759004Y-121713496D01*
X136552719Y-121690358D01*
X136354857Y-121627592D01*
X136172955Y-121527591D01*
X136013941Y-121394162D01*
X135883871Y-121232388D01*
X135787701Y-121048432D01*
X135729093Y-120849299D01*
X135729087Y-120849233D01*
X135729080Y-120849209D01*
X135710275Y-120642579D01*
X135731963Y-120436232D01*
X135731970Y-120436209D01*
X135731978Y-120436134D01*
X135793360Y-120237838D01*
X135892090Y-120055242D01*
X136024405Y-119895301D01*
X136185267Y-119764105D01*
X136368548Y-119666653D01*
X136567266Y-119606656D01*
X136773854Y-119586400D01*
X136784222Y-119586400D01*
X136794940Y-119586475D01*
X136794940Y-119586475D01*
G37*
G36*
X174412000Y-119316000D02*
X172512000Y-119316000D01*
X172512000Y-117666000D01*
X174412000Y-117666000D01*
X174412000Y-119316000D01*
X174412000Y-119316000D01*
G37*
G36*
X171912000Y-119316000D02*
X170012000Y-119316000D01*
X170012000Y-117666000D01*
X171912000Y-117666000D01*
X171912000Y-119316000D01*
X171912000Y-119316000D01*
G37*
G36*
X179492000Y-119316000D02*
X177592000Y-119316000D01*
X177592000Y-117666000D01*
X179492000Y-117666000D01*
X179492000Y-119316000D01*
X179492000Y-119316000D01*
G37*
G36*
X176992000Y-119316000D02*
X175092000Y-119316000D01*
X175092000Y-117666000D01*
X176992000Y-117666000D01*
X176992000Y-119316000D01*
X176992000Y-119316000D01*
G37*
G36*
X141084383Y-117021722D02*
X141293588Y-117064665D01*
X141490462Y-117147423D01*
X141667518Y-117266849D01*
X141818001Y-117418386D01*
X141936184Y-117596267D01*
X142017570Y-117793723D01*
X142058914Y-118002526D01*
X142058914Y-118002550D01*
X142059046Y-118003218D01*
X142055640Y-118247148D01*
X142055489Y-118247811D01*
X142055489Y-118247835D01*
X142008329Y-118455407D01*
X141921464Y-118650511D01*
X141798361Y-118825019D01*
X141643703Y-118972298D01*
X141463379Y-119086735D01*
X141264276Y-119163962D01*
X141053949Y-119201049D01*
X140840434Y-119196576D01*
X140631851Y-119150716D01*
X140436148Y-119065216D01*
X140260781Y-118943332D01*
X140112426Y-118789706D01*
X139996735Y-118610189D01*
X139918117Y-118411622D01*
X139879564Y-118201565D01*
X139882546Y-117988025D01*
X139926949Y-117779126D01*
X140011082Y-117582827D01*
X140131739Y-117406614D01*
X140284321Y-117257194D01*
X140463030Y-117140250D01*
X140661039Y-117060249D01*
X140870822Y-117020230D01*
X141084383Y-117021722D01*
X141084383Y-117021722D01*
G37*
G36*
X156324383Y-117021722D02*
X156533588Y-117064665D01*
X156730462Y-117147423D01*
X156907518Y-117266849D01*
X157058001Y-117418386D01*
X157176184Y-117596267D01*
X157257570Y-117793723D01*
X157298914Y-118002526D01*
X157298914Y-118002550D01*
X157299046Y-118003218D01*
X157295640Y-118247148D01*
X157295489Y-118247811D01*
X157295489Y-118247835D01*
X157248329Y-118455407D01*
X157161464Y-118650511D01*
X157038361Y-118825019D01*
X156883703Y-118972298D01*
X156703379Y-119086735D01*
X156504276Y-119163962D01*
X156293949Y-119201049D01*
X156080434Y-119196576D01*
X155871851Y-119150716D01*
X155676148Y-119065216D01*
X155500781Y-118943332D01*
X155352426Y-118789706D01*
X155236735Y-118610189D01*
X155158117Y-118411622D01*
X155119564Y-118201565D01*
X155122546Y-117988025D01*
X155166949Y-117779126D01*
X155251082Y-117582827D01*
X155371739Y-117406614D01*
X155524321Y-117257194D01*
X155703030Y-117140250D01*
X155901039Y-117060249D01*
X156110822Y-117020230D01*
X156324383Y-117021722D01*
X156324383Y-117021722D01*
G37*
G36*
X159908940Y-117046475D02*
X159908946Y-117046476D01*
X159912996Y-117046504D01*
X160119281Y-117069642D01*
X160317143Y-117132408D01*
X160499045Y-117232409D01*
X160658059Y-117365838D01*
X160788129Y-117527612D01*
X160884299Y-117711568D01*
X160942907Y-117910701D01*
X160942913Y-117910767D01*
X160942920Y-117910791D01*
X160961725Y-118117421D01*
X160940037Y-118323768D01*
X160940030Y-118323791D01*
X160940022Y-118323866D01*
X160878640Y-118522162D01*
X160779910Y-118704758D01*
X160647595Y-118864699D01*
X160486733Y-118995895D01*
X160303452Y-119093347D01*
X160104734Y-119153344D01*
X159898146Y-119173600D01*
X159887778Y-119173600D01*
X159877060Y-119173525D01*
X159877054Y-119173524D01*
X159873004Y-119173496D01*
X159666719Y-119150358D01*
X159468857Y-119087592D01*
X159286955Y-118987591D01*
X159127941Y-118854162D01*
X158997871Y-118692388D01*
X158901701Y-118508432D01*
X158843093Y-118309299D01*
X158843087Y-118309233D01*
X158843080Y-118309209D01*
X158824275Y-118102579D01*
X158845963Y-117896232D01*
X158845970Y-117896209D01*
X158845978Y-117896134D01*
X158907360Y-117697838D01*
X159006090Y-117515242D01*
X159138405Y-117355301D01*
X159299267Y-117224105D01*
X159482548Y-117126653D01*
X159681266Y-117066656D01*
X159887854Y-117046400D01*
X159898222Y-117046400D01*
X159908940Y-117046475D01*
X159908940Y-117046475D01*
G37*
G36*
X136794940Y-117046475D02*
X136794946Y-117046476D01*
X136798996Y-117046504D01*
X137005281Y-117069642D01*
X137203143Y-117132408D01*
X137385045Y-117232409D01*
X137544059Y-117365838D01*
X137674129Y-117527612D01*
X137770299Y-117711568D01*
X137828907Y-117910701D01*
X137828913Y-117910767D01*
X137828920Y-117910791D01*
X137847725Y-118117421D01*
X137826037Y-118323768D01*
X137826030Y-118323791D01*
X137826022Y-118323866D01*
X137764640Y-118522162D01*
X137665910Y-118704758D01*
X137533595Y-118864699D01*
X137372733Y-118995895D01*
X137189452Y-119093347D01*
X136990734Y-119153344D01*
X136784146Y-119173600D01*
X136773778Y-119173600D01*
X136763060Y-119173525D01*
X136763054Y-119173524D01*
X136759004Y-119173496D01*
X136552719Y-119150358D01*
X136354857Y-119087592D01*
X136172955Y-118987591D01*
X136013941Y-118854162D01*
X135883871Y-118692388D01*
X135787701Y-118508432D01*
X135729093Y-118309299D01*
X135729087Y-118309233D01*
X135729080Y-118309209D01*
X135710275Y-118102579D01*
X135731963Y-117896232D01*
X135731970Y-117896209D01*
X135731978Y-117896134D01*
X135793360Y-117697838D01*
X135892090Y-117515242D01*
X136024405Y-117355301D01*
X136185267Y-117224105D01*
X136368548Y-117126653D01*
X136567266Y-117066656D01*
X136773854Y-117046400D01*
X136784222Y-117046400D01*
X136794940Y-117046475D01*
X136794940Y-117046475D01*
G37*
G36*
X162448940Y-117046475D02*
X162448946Y-117046476D01*
X162452996Y-117046504D01*
X162659281Y-117069642D01*
X162857143Y-117132408D01*
X163039045Y-117232409D01*
X163198059Y-117365838D01*
X163328129Y-117527612D01*
X163424299Y-117711568D01*
X163482907Y-117910701D01*
X163482913Y-117910767D01*
X163482920Y-117910791D01*
X163501725Y-118117421D01*
X163480037Y-118323768D01*
X163480030Y-118323791D01*
X163480022Y-118323866D01*
X163418640Y-118522162D01*
X163319910Y-118704758D01*
X163187595Y-118864699D01*
X163026733Y-118995895D01*
X162843452Y-119093347D01*
X162644734Y-119153344D01*
X162438146Y-119173600D01*
X162427778Y-119173600D01*
X162417060Y-119173525D01*
X162417054Y-119173524D01*
X162413004Y-119173496D01*
X162206719Y-119150358D01*
X162008857Y-119087592D01*
X161826955Y-118987591D01*
X161667941Y-118854162D01*
X161537871Y-118692388D01*
X161441701Y-118508432D01*
X161383093Y-118309299D01*
X161383087Y-118309233D01*
X161383080Y-118309209D01*
X161364275Y-118102579D01*
X161385963Y-117896232D01*
X161385970Y-117896209D01*
X161385978Y-117896134D01*
X161447360Y-117697838D01*
X161546090Y-117515242D01*
X161678405Y-117355301D01*
X161839267Y-117224105D01*
X162022548Y-117126653D01*
X162221266Y-117066656D01*
X162427854Y-117046400D01*
X162438222Y-117046400D01*
X162448940Y-117046475D01*
X162448940Y-117046475D01*
G37*
G36*
X134254940Y-117046475D02*
X134254946Y-117046476D01*
X134258996Y-117046504D01*
X134465281Y-117069642D01*
X134663143Y-117132408D01*
X134845045Y-117232409D01*
X135004059Y-117365838D01*
X135134129Y-117527612D01*
X135230299Y-117711568D01*
X135288907Y-117910701D01*
X135288913Y-117910767D01*
X135288920Y-117910791D01*
X135307725Y-118117421D01*
X135286037Y-118323768D01*
X135286030Y-118323791D01*
X135286022Y-118323866D01*
X135224640Y-118522162D01*
X135125910Y-118704758D01*
X134993595Y-118864699D01*
X134832733Y-118995895D01*
X134649452Y-119093347D01*
X134450734Y-119153344D01*
X134244146Y-119173600D01*
X134233778Y-119173600D01*
X134223060Y-119173525D01*
X134223054Y-119173524D01*
X134219004Y-119173496D01*
X134012719Y-119150358D01*
X133814857Y-119087592D01*
X133632955Y-118987591D01*
X133473941Y-118854162D01*
X133343871Y-118692388D01*
X133247701Y-118508432D01*
X133189093Y-118309299D01*
X133189087Y-118309233D01*
X133189080Y-118309209D01*
X133170275Y-118102579D01*
X133191963Y-117896232D01*
X133191970Y-117896209D01*
X133191978Y-117896134D01*
X133253360Y-117697838D01*
X133352090Y-117515242D01*
X133484405Y-117355301D01*
X133645267Y-117224105D01*
X133828548Y-117126653D01*
X134027266Y-117066656D01*
X134233854Y-117046400D01*
X134244222Y-117046400D01*
X134254940Y-117046475D01*
X134254940Y-117046475D01*
G37*
G36*
X141084383Y-114481722D02*
X141293588Y-114524665D01*
X141490462Y-114607423D01*
X141667518Y-114726849D01*
X141818001Y-114878386D01*
X141936184Y-115056267D01*
X142017570Y-115253723D01*
X142058914Y-115462526D01*
X142058914Y-115462550D01*
X142059046Y-115463218D01*
X142055640Y-115707148D01*
X142055489Y-115707811D01*
X142055489Y-115707835D01*
X142008329Y-115915407D01*
X141921464Y-116110511D01*
X141798361Y-116285019D01*
X141643703Y-116432298D01*
X141463379Y-116546735D01*
X141264276Y-116623962D01*
X141053949Y-116661049D01*
X140840434Y-116656576D01*
X140631851Y-116610716D01*
X140436148Y-116525216D01*
X140260781Y-116403332D01*
X140112426Y-116249706D01*
X139996735Y-116070189D01*
X139918117Y-115871622D01*
X139879564Y-115661565D01*
X139882546Y-115448025D01*
X139926949Y-115239126D01*
X140011082Y-115042827D01*
X140131739Y-114866614D01*
X140284321Y-114717194D01*
X140463030Y-114600250D01*
X140661039Y-114520249D01*
X140870822Y-114480230D01*
X141084383Y-114481722D01*
X141084383Y-114481722D01*
G37*
G36*
X156324383Y-114481722D02*
X156533588Y-114524665D01*
X156730462Y-114607423D01*
X156907518Y-114726849D01*
X157058001Y-114878386D01*
X157176184Y-115056267D01*
X157257570Y-115253723D01*
X157298914Y-115462526D01*
X157298914Y-115462550D01*
X157299046Y-115463218D01*
X157295640Y-115707148D01*
X157295489Y-115707811D01*
X157295489Y-115707835D01*
X157248329Y-115915407D01*
X157161464Y-116110511D01*
X157038361Y-116285019D01*
X156883703Y-116432298D01*
X156703379Y-116546735D01*
X156504276Y-116623962D01*
X156293949Y-116661049D01*
X156080434Y-116656576D01*
X155871851Y-116610716D01*
X155676148Y-116525216D01*
X155500781Y-116403332D01*
X155352426Y-116249706D01*
X155236735Y-116070189D01*
X155158117Y-115871622D01*
X155119564Y-115661565D01*
X155122546Y-115448025D01*
X155166949Y-115239126D01*
X155251082Y-115042827D01*
X155371739Y-114866614D01*
X155524321Y-114717194D01*
X155703030Y-114600250D01*
X155901039Y-114520249D01*
X156110822Y-114480230D01*
X156324383Y-114481722D01*
X156324383Y-114481722D01*
G37*
G36*
X134254940Y-114506475D02*
X134254946Y-114506476D01*
X134258996Y-114506504D01*
X134465281Y-114529642D01*
X134663143Y-114592408D01*
X134845045Y-114692409D01*
X135004059Y-114825838D01*
X135134129Y-114987612D01*
X135230299Y-115171568D01*
X135288907Y-115370701D01*
X135288913Y-115370767D01*
X135288920Y-115370791D01*
X135307725Y-115577421D01*
X135286037Y-115783768D01*
X135286030Y-115783791D01*
X135286022Y-115783866D01*
X135224640Y-115982162D01*
X135125910Y-116164758D01*
X134993595Y-116324699D01*
X134832733Y-116455895D01*
X134649452Y-116553347D01*
X134450734Y-116613344D01*
X134244146Y-116633600D01*
X134233778Y-116633600D01*
X134223060Y-116633525D01*
X134223054Y-116633524D01*
X134219004Y-116633496D01*
X134012719Y-116610358D01*
X133814857Y-116547592D01*
X133632955Y-116447591D01*
X133473941Y-116314162D01*
X133343871Y-116152388D01*
X133247701Y-115968432D01*
X133189093Y-115769299D01*
X133189087Y-115769233D01*
X133189080Y-115769209D01*
X133170275Y-115562579D01*
X133191963Y-115356232D01*
X133191970Y-115356209D01*
X133191978Y-115356134D01*
X133253360Y-115157838D01*
X133352090Y-114975242D01*
X133484405Y-114815301D01*
X133645267Y-114684105D01*
X133828548Y-114586653D01*
X134027266Y-114526656D01*
X134233854Y-114506400D01*
X134244222Y-114506400D01*
X134254940Y-114506475D01*
X134254940Y-114506475D01*
G37*
G36*
X159908940Y-114506475D02*
X159908946Y-114506476D01*
X159912996Y-114506504D01*
X160119281Y-114529642D01*
X160317143Y-114592408D01*
X160499045Y-114692409D01*
X160658059Y-114825838D01*
X160788129Y-114987612D01*
X160884299Y-115171568D01*
X160942907Y-115370701D01*
X160942913Y-115370767D01*
X160942920Y-115370791D01*
X160961725Y-115577421D01*
X160940037Y-115783768D01*
X160940030Y-115783791D01*
X160940022Y-115783866D01*
X160878640Y-115982162D01*
X160779910Y-116164758D01*
X160647595Y-116324699D01*
X160486733Y-116455895D01*
X160303452Y-116553347D01*
X160104734Y-116613344D01*
X159898146Y-116633600D01*
X159887778Y-116633600D01*
X159877060Y-116633525D01*
X159877054Y-116633524D01*
X159873004Y-116633496D01*
X159666719Y-116610358D01*
X159468857Y-116547592D01*
X159286955Y-116447591D01*
X159127941Y-116314162D01*
X158997871Y-116152388D01*
X158901701Y-115968432D01*
X158843093Y-115769299D01*
X158843087Y-115769233D01*
X158843080Y-115769209D01*
X158824275Y-115562579D01*
X158845963Y-115356232D01*
X158845970Y-115356209D01*
X158845978Y-115356134D01*
X158907360Y-115157838D01*
X159006090Y-114975242D01*
X159138405Y-114815301D01*
X159299267Y-114684105D01*
X159482548Y-114586653D01*
X159681266Y-114526656D01*
X159887854Y-114506400D01*
X159898222Y-114506400D01*
X159908940Y-114506475D01*
X159908940Y-114506475D01*
G37*
G36*
X136794940Y-114506475D02*
X136794946Y-114506476D01*
X136798996Y-114506504D01*
X137005281Y-114529642D01*
X137203143Y-114592408D01*
X137385045Y-114692409D01*
X137544059Y-114825838D01*
X137674129Y-114987612D01*
X137770299Y-115171568D01*
X137828907Y-115370701D01*
X137828913Y-115370767D01*
X137828920Y-115370791D01*
X137847725Y-115577421D01*
X137826037Y-115783768D01*
X137826030Y-115783791D01*
X137826022Y-115783866D01*
X137764640Y-115982162D01*
X137665910Y-116164758D01*
X137533595Y-116324699D01*
X137372733Y-116455895D01*
X137189452Y-116553347D01*
X136990734Y-116613344D01*
X136784146Y-116633600D01*
X136773778Y-116633600D01*
X136763060Y-116633525D01*
X136763054Y-116633524D01*
X136759004Y-116633496D01*
X136552719Y-116610358D01*
X136354857Y-116547592D01*
X136172955Y-116447591D01*
X136013941Y-116314162D01*
X135883871Y-116152388D01*
X135787701Y-115968432D01*
X135729093Y-115769299D01*
X135729087Y-115769233D01*
X135729080Y-115769209D01*
X135710275Y-115562579D01*
X135731963Y-115356232D01*
X135731970Y-115356209D01*
X135731978Y-115356134D01*
X135793360Y-115157838D01*
X135892090Y-114975242D01*
X136024405Y-114815301D01*
X136185267Y-114684105D01*
X136368548Y-114586653D01*
X136567266Y-114526656D01*
X136773854Y-114506400D01*
X136784222Y-114506400D01*
X136794940Y-114506475D01*
X136794940Y-114506475D01*
G37*
G36*
X162448940Y-114506475D02*
X162448946Y-114506476D01*
X162452996Y-114506504D01*
X162659281Y-114529642D01*
X162857143Y-114592408D01*
X163039045Y-114692409D01*
X163198059Y-114825838D01*
X163328129Y-114987612D01*
X163424299Y-115171568D01*
X163482907Y-115370701D01*
X163482913Y-115370767D01*
X163482920Y-115370791D01*
X163501725Y-115577421D01*
X163480037Y-115783768D01*
X163480030Y-115783791D01*
X163480022Y-115783866D01*
X163418640Y-115982162D01*
X163319910Y-116164758D01*
X163187595Y-116324699D01*
X163026733Y-116455895D01*
X162843452Y-116553347D01*
X162644734Y-116613344D01*
X162438146Y-116633600D01*
X162427778Y-116633600D01*
X162417060Y-116633525D01*
X162417054Y-116633524D01*
X162413004Y-116633496D01*
X162206719Y-116610358D01*
X162008857Y-116547592D01*
X161826955Y-116447591D01*
X161667941Y-116314162D01*
X161537871Y-116152388D01*
X161441701Y-115968432D01*
X161383093Y-115769299D01*
X161383087Y-115769233D01*
X161383080Y-115769209D01*
X161364275Y-115562579D01*
X161385963Y-115356232D01*
X161385970Y-115356209D01*
X161385978Y-115356134D01*
X161447360Y-115157838D01*
X161546090Y-114975242D01*
X161678405Y-114815301D01*
X161839267Y-114684105D01*
X162022548Y-114586653D01*
X162221266Y-114526656D01*
X162427854Y-114506400D01*
X162438222Y-114506400D01*
X162448940Y-114506475D01*
X162448940Y-114506475D01*
G37*
G36*
X179492000Y-116141000D02*
X177592000Y-116141000D01*
X177592000Y-114491000D01*
X179492000Y-114491000D01*
X179492000Y-116141000D01*
X179492000Y-116141000D01*
G37*
G36*
X176992000Y-116141000D02*
X175092000Y-116141000D01*
X175092000Y-114491000D01*
X176992000Y-114491000D01*
X176992000Y-116141000D01*
X176992000Y-116141000D01*
G37*
G36*
X171912000Y-116141000D02*
X170012000Y-116141000D01*
X170012000Y-114491000D01*
X171912000Y-114491000D01*
X171912000Y-116141000D01*
X171912000Y-116141000D01*
G37*
G36*
X174412000Y-116141000D02*
X172512000Y-116141000D01*
X172512000Y-114491000D01*
X174412000Y-114491000D01*
X174412000Y-116141000D01*
X174412000Y-116141000D01*
G37*
G36*
X141084383Y-111941722D02*
X141293588Y-111984665D01*
X141490462Y-112067423D01*
X141667518Y-112186849D01*
X141818001Y-112338386D01*
X141936184Y-112516267D01*
X142017570Y-112713723D01*
X142058914Y-112922526D01*
X142058914Y-112922550D01*
X142059046Y-112923218D01*
X142055640Y-113167148D01*
X142055489Y-113167811D01*
X142055489Y-113167835D01*
X142008329Y-113375407D01*
X141921464Y-113570511D01*
X141798361Y-113745019D01*
X141643703Y-113892298D01*
X141463379Y-114006735D01*
X141264276Y-114083962D01*
X141053949Y-114121049D01*
X140840434Y-114116576D01*
X140631851Y-114070716D01*
X140436148Y-113985216D01*
X140260781Y-113863332D01*
X140112426Y-113709706D01*
X139996735Y-113530189D01*
X139918117Y-113331622D01*
X139879564Y-113121565D01*
X139882546Y-112908025D01*
X139926949Y-112699126D01*
X140011082Y-112502827D01*
X140131739Y-112326614D01*
X140284321Y-112177194D01*
X140463030Y-112060250D01*
X140661039Y-111980249D01*
X140870822Y-111940230D01*
X141084383Y-111941722D01*
X141084383Y-111941722D01*
G37*
G36*
X156324383Y-111941722D02*
X156533588Y-111984665D01*
X156730462Y-112067423D01*
X156907518Y-112186849D01*
X157058001Y-112338386D01*
X157176184Y-112516267D01*
X157257570Y-112713723D01*
X157298914Y-112922526D01*
X157298914Y-112922550D01*
X157299046Y-112923218D01*
X157295640Y-113167148D01*
X157295489Y-113167811D01*
X157295489Y-113167835D01*
X157248329Y-113375407D01*
X157161464Y-113570511D01*
X157038361Y-113745019D01*
X156883703Y-113892298D01*
X156703379Y-114006735D01*
X156504276Y-114083962D01*
X156293949Y-114121049D01*
X156080434Y-114116576D01*
X155871851Y-114070716D01*
X155676148Y-113985216D01*
X155500781Y-113863332D01*
X155352426Y-113709706D01*
X155236735Y-113530189D01*
X155158117Y-113331622D01*
X155119564Y-113121565D01*
X155122546Y-112908025D01*
X155166949Y-112699126D01*
X155251082Y-112502827D01*
X155371739Y-112326614D01*
X155524321Y-112177194D01*
X155703030Y-112060250D01*
X155901039Y-111980249D01*
X156110822Y-111940230D01*
X156324383Y-111941722D01*
X156324383Y-111941722D01*
G37*
G36*
X136794940Y-111966475D02*
X136794946Y-111966476D01*
X136798996Y-111966504D01*
X137005281Y-111989642D01*
X137203143Y-112052408D01*
X137385045Y-112152409D01*
X137544059Y-112285838D01*
X137674129Y-112447612D01*
X137770299Y-112631568D01*
X137828907Y-112830701D01*
X137828913Y-112830767D01*
X137828920Y-112830791D01*
X137847725Y-113037421D01*
X137826037Y-113243768D01*
X137826030Y-113243791D01*
X137826022Y-113243866D01*
X137764640Y-113442162D01*
X137665910Y-113624758D01*
X137533595Y-113784699D01*
X137372733Y-113915895D01*
X137189452Y-114013347D01*
X136990734Y-114073344D01*
X136784146Y-114093600D01*
X136773778Y-114093600D01*
X136763060Y-114093525D01*
X136763054Y-114093524D01*
X136759004Y-114093496D01*
X136552719Y-114070358D01*
X136354857Y-114007592D01*
X136172955Y-113907591D01*
X136013941Y-113774162D01*
X135883871Y-113612388D01*
X135787701Y-113428432D01*
X135729093Y-113229299D01*
X135729087Y-113229233D01*
X135729080Y-113229209D01*
X135710275Y-113022579D01*
X135731963Y-112816232D01*
X135731970Y-112816209D01*
X135731978Y-112816134D01*
X135793360Y-112617838D01*
X135892090Y-112435242D01*
X136024405Y-112275301D01*
X136185267Y-112144105D01*
X136368548Y-112046653D01*
X136567266Y-111986656D01*
X136773854Y-111966400D01*
X136784222Y-111966400D01*
X136794940Y-111966475D01*
X136794940Y-111966475D01*
G37*
G36*
X134254940Y-111966475D02*
X134254946Y-111966476D01*
X134258996Y-111966504D01*
X134465281Y-111989642D01*
X134663143Y-112052408D01*
X134845045Y-112152409D01*
X135004059Y-112285838D01*
X135134129Y-112447612D01*
X135230299Y-112631568D01*
X135288907Y-112830701D01*
X135288913Y-112830767D01*
X135288920Y-112830791D01*
X135307725Y-113037421D01*
X135286037Y-113243768D01*
X135286030Y-113243791D01*
X135286022Y-113243866D01*
X135224640Y-113442162D01*
X135125910Y-113624758D01*
X134993595Y-113784699D01*
X134832733Y-113915895D01*
X134649452Y-114013347D01*
X134450734Y-114073344D01*
X134244146Y-114093600D01*
X134233778Y-114093600D01*
X134223060Y-114093525D01*
X134223054Y-114093524D01*
X134219004Y-114093496D01*
X134012719Y-114070358D01*
X133814857Y-114007592D01*
X133632955Y-113907591D01*
X133473941Y-113774162D01*
X133343871Y-113612388D01*
X133247701Y-113428432D01*
X133189093Y-113229299D01*
X133189087Y-113229233D01*
X133189080Y-113229209D01*
X133170275Y-113022579D01*
X133191963Y-112816232D01*
X133191970Y-112816209D01*
X133191978Y-112816134D01*
X133253360Y-112617838D01*
X133352090Y-112435242D01*
X133484405Y-112275301D01*
X133645267Y-112144105D01*
X133828548Y-112046653D01*
X134027266Y-111986656D01*
X134233854Y-111966400D01*
X134244222Y-111966400D01*
X134254940Y-111966475D01*
X134254940Y-111966475D01*
G37*
G36*
X162448940Y-111966475D02*
X162448946Y-111966476D01*
X162452996Y-111966504D01*
X162659281Y-111989642D01*
X162857143Y-112052408D01*
X163039045Y-112152409D01*
X163198059Y-112285838D01*
X163328129Y-112447612D01*
X163424299Y-112631568D01*
X163482907Y-112830701D01*
X163482913Y-112830767D01*
X163482920Y-112830791D01*
X163501725Y-113037421D01*
X163480037Y-113243768D01*
X163480030Y-113243791D01*
X163480022Y-113243866D01*
X163418640Y-113442162D01*
X163319910Y-113624758D01*
X163187595Y-113784699D01*
X163026733Y-113915895D01*
X162843452Y-114013347D01*
X162644734Y-114073344D01*
X162438146Y-114093600D01*
X162427778Y-114093600D01*
X162417060Y-114093525D01*
X162417054Y-114093524D01*
X162413004Y-114093496D01*
X162206719Y-114070358D01*
X162008857Y-114007592D01*
X161826955Y-113907591D01*
X161667941Y-113774162D01*
X161537871Y-113612388D01*
X161441701Y-113428432D01*
X161383093Y-113229299D01*
X161383087Y-113229233D01*
X161383080Y-113229209D01*
X161364275Y-113022579D01*
X161385963Y-112816232D01*
X161385970Y-112816209D01*
X161385978Y-112816134D01*
X161447360Y-112617838D01*
X161546090Y-112435242D01*
X161678405Y-112275301D01*
X161839267Y-112144105D01*
X162022548Y-112046653D01*
X162221266Y-111986656D01*
X162427854Y-111966400D01*
X162438222Y-111966400D01*
X162448940Y-111966475D01*
X162448940Y-111966475D01*
G37*
G36*
X159908940Y-111966475D02*
X159908946Y-111966476D01*
X159912996Y-111966504D01*
X160119281Y-111989642D01*
X160317143Y-112052408D01*
X160499045Y-112152409D01*
X160658059Y-112285838D01*
X160788129Y-112447612D01*
X160884299Y-112631568D01*
X160942907Y-112830701D01*
X160942913Y-112830767D01*
X160942920Y-112830791D01*
X160961725Y-113037421D01*
X160940037Y-113243768D01*
X160940030Y-113243791D01*
X160940022Y-113243866D01*
X160878640Y-113442162D01*
X160779910Y-113624758D01*
X160647595Y-113784699D01*
X160486733Y-113915895D01*
X160303452Y-114013347D01*
X160104734Y-114073344D01*
X159898146Y-114093600D01*
X159887778Y-114093600D01*
X159877060Y-114093525D01*
X159877054Y-114093524D01*
X159873004Y-114093496D01*
X159666719Y-114070358D01*
X159468857Y-114007592D01*
X159286955Y-113907591D01*
X159127941Y-113774162D01*
X158997871Y-113612388D01*
X158901701Y-113428432D01*
X158843093Y-113229299D01*
X158843087Y-113229233D01*
X158843080Y-113229209D01*
X158824275Y-113022579D01*
X158845963Y-112816232D01*
X158845970Y-112816209D01*
X158845978Y-112816134D01*
X158907360Y-112617838D01*
X159006090Y-112435242D01*
X159138405Y-112275301D01*
X159299267Y-112144105D01*
X159482548Y-112046653D01*
X159681266Y-111986656D01*
X159887854Y-111966400D01*
X159898222Y-111966400D01*
X159908940Y-111966475D01*
X159908940Y-111966475D01*
G37*
G36*
X172158000Y-112722000D02*
X170742000Y-112722000D01*
X170742000Y-110290000D01*
X172158000Y-110290000D01*
X172158000Y-112722000D01*
X172158000Y-112722000D01*
G37*
G36*
X176730000Y-112722000D02*
X175314000Y-112722000D01*
X175314000Y-110290000D01*
X176730000Y-110290000D01*
X176730000Y-112722000D01*
X176730000Y-112722000D01*
G37*
G36*
X174444000Y-112722000D02*
X173028000Y-112722000D01*
X173028000Y-110290000D01*
X174444000Y-110290000D01*
X174444000Y-112722000D01*
X174444000Y-112722000D01*
G37*
G36*
X156324383Y-109401722D02*
X156533588Y-109444665D01*
X156730462Y-109527423D01*
X156907518Y-109646849D01*
X157058001Y-109798386D01*
X157176184Y-109976267D01*
X157257570Y-110173723D01*
X157298914Y-110382526D01*
X157298914Y-110382550D01*
X157299046Y-110383218D01*
X157295640Y-110627148D01*
X157295489Y-110627811D01*
X157295489Y-110627835D01*
X157248329Y-110835407D01*
X157161464Y-111030511D01*
X157038361Y-111205019D01*
X156883703Y-111352298D01*
X156703379Y-111466735D01*
X156504276Y-111543962D01*
X156293949Y-111581049D01*
X156080434Y-111576576D01*
X155871851Y-111530716D01*
X155676148Y-111445216D01*
X155500781Y-111323332D01*
X155352426Y-111169706D01*
X155236735Y-110990189D01*
X155158117Y-110791622D01*
X155119564Y-110581565D01*
X155122546Y-110368025D01*
X155166949Y-110159126D01*
X155251082Y-109962827D01*
X155371739Y-109786614D01*
X155524321Y-109637194D01*
X155703030Y-109520250D01*
X155901039Y-109440249D01*
X156110822Y-109400230D01*
X156324383Y-109401722D01*
X156324383Y-109401722D01*
G37*
G36*
X141084383Y-109401722D02*
X141293588Y-109444665D01*
X141490462Y-109527423D01*
X141667518Y-109646849D01*
X141818001Y-109798386D01*
X141936184Y-109976267D01*
X142017570Y-110173723D01*
X142058914Y-110382526D01*
X142058914Y-110382550D01*
X142059046Y-110383218D01*
X142055640Y-110627148D01*
X142055489Y-110627811D01*
X142055489Y-110627835D01*
X142008329Y-110835407D01*
X141921464Y-111030511D01*
X141798361Y-111205019D01*
X141643703Y-111352298D01*
X141463379Y-111466735D01*
X141264276Y-111543962D01*
X141053949Y-111581049D01*
X140840434Y-111576576D01*
X140631851Y-111530716D01*
X140436148Y-111445216D01*
X140260781Y-111323332D01*
X140112426Y-111169706D01*
X139996735Y-110990189D01*
X139918117Y-110791622D01*
X139879564Y-110581565D01*
X139882546Y-110368025D01*
X139926949Y-110159126D01*
X140011082Y-109962827D01*
X140131739Y-109786614D01*
X140284321Y-109637194D01*
X140463030Y-109520250D01*
X140661039Y-109440249D01*
X140870822Y-109400230D01*
X141084383Y-109401722D01*
X141084383Y-109401722D01*
G37*
G36*
X162448940Y-109426475D02*
X162448946Y-109426476D01*
X162452996Y-109426504D01*
X162659281Y-109449642D01*
X162857143Y-109512408D01*
X163039045Y-109612409D01*
X163198059Y-109745838D01*
X163328129Y-109907612D01*
X163424299Y-110091568D01*
X163482907Y-110290701D01*
X163482913Y-110290767D01*
X163482920Y-110290791D01*
X163501725Y-110497421D01*
X163480037Y-110703768D01*
X163480030Y-110703791D01*
X163480022Y-110703866D01*
X163418640Y-110902162D01*
X163319910Y-111084758D01*
X163187595Y-111244699D01*
X163026733Y-111375895D01*
X162843452Y-111473347D01*
X162644734Y-111533344D01*
X162438146Y-111553600D01*
X162427778Y-111553600D01*
X162417060Y-111553525D01*
X162417054Y-111553524D01*
X162413004Y-111553496D01*
X162206719Y-111530358D01*
X162008857Y-111467592D01*
X161826955Y-111367591D01*
X161667941Y-111234162D01*
X161537871Y-111072388D01*
X161441701Y-110888432D01*
X161383093Y-110689299D01*
X161383087Y-110689233D01*
X161383080Y-110689209D01*
X161364275Y-110482579D01*
X161385963Y-110276232D01*
X161385970Y-110276209D01*
X161385978Y-110276134D01*
X161447360Y-110077838D01*
X161546090Y-109895242D01*
X161678405Y-109735301D01*
X161839267Y-109604105D01*
X162022548Y-109506653D01*
X162221266Y-109446656D01*
X162427854Y-109426400D01*
X162438222Y-109426400D01*
X162448940Y-109426475D01*
X162448940Y-109426475D01*
G37*
G36*
X159908940Y-109426475D02*
X159908946Y-109426476D01*
X159912996Y-109426504D01*
X160119281Y-109449642D01*
X160317143Y-109512408D01*
X160499045Y-109612409D01*
X160658059Y-109745838D01*
X160788129Y-109907612D01*
X160884299Y-110091568D01*
X160942907Y-110290701D01*
X160942913Y-110290767D01*
X160942920Y-110290791D01*
X160961725Y-110497421D01*
X160940037Y-110703768D01*
X160940030Y-110703791D01*
X160940022Y-110703866D01*
X160878640Y-110902162D01*
X160779910Y-111084758D01*
X160647595Y-111244699D01*
X160486733Y-111375895D01*
X160303452Y-111473347D01*
X160104734Y-111533344D01*
X159898146Y-111553600D01*
X159887778Y-111553600D01*
X159877060Y-111553525D01*
X159877054Y-111553524D01*
X159873004Y-111553496D01*
X159666719Y-111530358D01*
X159468857Y-111467592D01*
X159286955Y-111367591D01*
X159127941Y-111234162D01*
X158997871Y-111072388D01*
X158901701Y-110888432D01*
X158843093Y-110689299D01*
X158843087Y-110689233D01*
X158843080Y-110689209D01*
X158824275Y-110482579D01*
X158845963Y-110276232D01*
X158845970Y-110276209D01*
X158845978Y-110276134D01*
X158907360Y-110077838D01*
X159006090Y-109895242D01*
X159138405Y-109735301D01*
X159299267Y-109604105D01*
X159482548Y-109506653D01*
X159681266Y-109446656D01*
X159887854Y-109426400D01*
X159898222Y-109426400D01*
X159908940Y-109426475D01*
X159908940Y-109426475D01*
G37*
G36*
X136794940Y-109426475D02*
X136794946Y-109426476D01*
X136798996Y-109426504D01*
X137005281Y-109449642D01*
X137203143Y-109512408D01*
X137385045Y-109612409D01*
X137544059Y-109745838D01*
X137674129Y-109907612D01*
X137770299Y-110091568D01*
X137828907Y-110290701D01*
X137828913Y-110290767D01*
X137828920Y-110290791D01*
X137847725Y-110497421D01*
X137826037Y-110703768D01*
X137826030Y-110703791D01*
X137826022Y-110703866D01*
X137764640Y-110902162D01*
X137665910Y-111084758D01*
X137533595Y-111244699D01*
X137372733Y-111375895D01*
X137189452Y-111473347D01*
X136990734Y-111533344D01*
X136784146Y-111553600D01*
X136773778Y-111553600D01*
X136763060Y-111553525D01*
X136763054Y-111553524D01*
X136759004Y-111553496D01*
X136552719Y-111530358D01*
X136354857Y-111467592D01*
X136172955Y-111367591D01*
X136013941Y-111234162D01*
X135883871Y-111072388D01*
X135787701Y-110888432D01*
X135729093Y-110689299D01*
X135729087Y-110689233D01*
X135729080Y-110689209D01*
X135710275Y-110482579D01*
X135731963Y-110276232D01*
X135731970Y-110276209D01*
X135731978Y-110276134D01*
X135793360Y-110077838D01*
X135892090Y-109895242D01*
X136024405Y-109735301D01*
X136185267Y-109604105D01*
X136368548Y-109506653D01*
X136567266Y-109446656D01*
X136773854Y-109426400D01*
X136784222Y-109426400D01*
X136794940Y-109426475D01*
X136794940Y-109426475D01*
G37*
G36*
X134254940Y-109426475D02*
X134254946Y-109426476D01*
X134258996Y-109426504D01*
X134465281Y-109449642D01*
X134663143Y-109512408D01*
X134845045Y-109612409D01*
X135004059Y-109745838D01*
X135134129Y-109907612D01*
X135230299Y-110091568D01*
X135288907Y-110290701D01*
X135288913Y-110290767D01*
X135288920Y-110290791D01*
X135307725Y-110497421D01*
X135286037Y-110703768D01*
X135286030Y-110703791D01*
X135286022Y-110703866D01*
X135224640Y-110902162D01*
X135125910Y-111084758D01*
X134993595Y-111244699D01*
X134832733Y-111375895D01*
X134649452Y-111473347D01*
X134450734Y-111533344D01*
X134244146Y-111553600D01*
X134233778Y-111553600D01*
X134223060Y-111553525D01*
X134223054Y-111553524D01*
X134219004Y-111553496D01*
X134012719Y-111530358D01*
X133814857Y-111467592D01*
X133632955Y-111367591D01*
X133473941Y-111234162D01*
X133343871Y-111072388D01*
X133247701Y-110888432D01*
X133189093Y-110689299D01*
X133189087Y-110689233D01*
X133189080Y-110689209D01*
X133170275Y-110482579D01*
X133191963Y-110276232D01*
X133191970Y-110276209D01*
X133191978Y-110276134D01*
X133253360Y-110077838D01*
X133352090Y-109895242D01*
X133484405Y-109735301D01*
X133645267Y-109604105D01*
X133828548Y-109506653D01*
X134027266Y-109446656D01*
X134233854Y-109426400D01*
X134244222Y-109426400D01*
X134254940Y-109426475D01*
X134254940Y-109426475D01*
G37*
G36*
X156324383Y-106861722D02*
X156533588Y-106904665D01*
X156730462Y-106987423D01*
X156907518Y-107106849D01*
X157058001Y-107258386D01*
X157176184Y-107436267D01*
X157257570Y-107633723D01*
X157298914Y-107842526D01*
X157298914Y-107842550D01*
X157299046Y-107843218D01*
X157295640Y-108087148D01*
X157295489Y-108087811D01*
X157295489Y-108087835D01*
X157248329Y-108295407D01*
X157161464Y-108490511D01*
X157038361Y-108665019D01*
X156883703Y-108812298D01*
X156703379Y-108926735D01*
X156504276Y-109003962D01*
X156293949Y-109041049D01*
X156080434Y-109036576D01*
X155871851Y-108990716D01*
X155676148Y-108905216D01*
X155500781Y-108783332D01*
X155352426Y-108629706D01*
X155236735Y-108450189D01*
X155158117Y-108251622D01*
X155119564Y-108041565D01*
X155122546Y-107828025D01*
X155166949Y-107619126D01*
X155251082Y-107422827D01*
X155371739Y-107246614D01*
X155524321Y-107097194D01*
X155703030Y-106980250D01*
X155901039Y-106900249D01*
X156110822Y-106860230D01*
X156324383Y-106861722D01*
X156324383Y-106861722D01*
G37*
G36*
X141084383Y-106861722D02*
X141293588Y-106904665D01*
X141490462Y-106987423D01*
X141667518Y-107106849D01*
X141818001Y-107258386D01*
X141936184Y-107436267D01*
X142017570Y-107633723D01*
X142058914Y-107842526D01*
X142058914Y-107842550D01*
X142059046Y-107843218D01*
X142055640Y-108087148D01*
X142055489Y-108087811D01*
X142055489Y-108087835D01*
X142008329Y-108295407D01*
X141921464Y-108490511D01*
X141798361Y-108665019D01*
X141643703Y-108812298D01*
X141463379Y-108926735D01*
X141264276Y-109003962D01*
X141053949Y-109041049D01*
X140840434Y-109036576D01*
X140631851Y-108990716D01*
X140436148Y-108905216D01*
X140260781Y-108783332D01*
X140112426Y-108629706D01*
X139996735Y-108450189D01*
X139918117Y-108251622D01*
X139879564Y-108041565D01*
X139882546Y-107828025D01*
X139926949Y-107619126D01*
X140011082Y-107422827D01*
X140131739Y-107246614D01*
X140284321Y-107097194D01*
X140463030Y-106980250D01*
X140661039Y-106900249D01*
X140870822Y-106860230D01*
X141084383Y-106861722D01*
X141084383Y-106861722D01*
G37*
G36*
X162448940Y-106886475D02*
X162448946Y-106886476D01*
X162452996Y-106886504D01*
X162659281Y-106909642D01*
X162857143Y-106972408D01*
X163039045Y-107072409D01*
X163198059Y-107205838D01*
X163328129Y-107367612D01*
X163424299Y-107551568D01*
X163482907Y-107750701D01*
X163482913Y-107750767D01*
X163482920Y-107750791D01*
X163501725Y-107957421D01*
X163480037Y-108163768D01*
X163480030Y-108163791D01*
X163480022Y-108163866D01*
X163418640Y-108362162D01*
X163319910Y-108544758D01*
X163187595Y-108704699D01*
X163026733Y-108835895D01*
X162843452Y-108933347D01*
X162644734Y-108993344D01*
X162438146Y-109013600D01*
X162427778Y-109013600D01*
X162417060Y-109013525D01*
X162417054Y-109013524D01*
X162413004Y-109013496D01*
X162206719Y-108990358D01*
X162008857Y-108927592D01*
X161826955Y-108827591D01*
X161667941Y-108694162D01*
X161537871Y-108532388D01*
X161441701Y-108348432D01*
X161383093Y-108149299D01*
X161383087Y-108149233D01*
X161383080Y-108149209D01*
X161364275Y-107942579D01*
X161385963Y-107736232D01*
X161385970Y-107736209D01*
X161385978Y-107736134D01*
X161447360Y-107537838D01*
X161546090Y-107355242D01*
X161678405Y-107195301D01*
X161839267Y-107064105D01*
X162022548Y-106966653D01*
X162221266Y-106906656D01*
X162427854Y-106886400D01*
X162438222Y-106886400D01*
X162448940Y-106886475D01*
X162448940Y-106886475D01*
G37*
G36*
X159908940Y-106886475D02*
X159908946Y-106886476D01*
X159912996Y-106886504D01*
X160119281Y-106909642D01*
X160317143Y-106972408D01*
X160499045Y-107072409D01*
X160658059Y-107205838D01*
X160788129Y-107367612D01*
X160884299Y-107551568D01*
X160942907Y-107750701D01*
X160942913Y-107750767D01*
X160942920Y-107750791D01*
X160961725Y-107957421D01*
X160940037Y-108163768D01*
X160940030Y-108163791D01*
X160940022Y-108163866D01*
X160878640Y-108362162D01*
X160779910Y-108544758D01*
X160647595Y-108704699D01*
X160486733Y-108835895D01*
X160303452Y-108933347D01*
X160104734Y-108993344D01*
X159898146Y-109013600D01*
X159887778Y-109013600D01*
X159877060Y-109013525D01*
X159877054Y-109013524D01*
X159873004Y-109013496D01*
X159666719Y-108990358D01*
X159468857Y-108927592D01*
X159286955Y-108827591D01*
X159127941Y-108694162D01*
X158997871Y-108532388D01*
X158901701Y-108348432D01*
X158843093Y-108149299D01*
X158843087Y-108149233D01*
X158843080Y-108149209D01*
X158824275Y-107942579D01*
X158845963Y-107736232D01*
X158845970Y-107736209D01*
X158845978Y-107736134D01*
X158907360Y-107537838D01*
X159006090Y-107355242D01*
X159138405Y-107195301D01*
X159299267Y-107064105D01*
X159482548Y-106966653D01*
X159681266Y-106906656D01*
X159887854Y-106886400D01*
X159898222Y-106886400D01*
X159908940Y-106886475D01*
X159908940Y-106886475D01*
G37*
G36*
X136794940Y-106886475D02*
X136794946Y-106886476D01*
X136798996Y-106886504D01*
X137005281Y-106909642D01*
X137203143Y-106972408D01*
X137385045Y-107072409D01*
X137544059Y-107205838D01*
X137674129Y-107367612D01*
X137770299Y-107551568D01*
X137828907Y-107750701D01*
X137828913Y-107750767D01*
X137828920Y-107750791D01*
X137847725Y-107957421D01*
X137826037Y-108163768D01*
X137826030Y-108163791D01*
X137826022Y-108163866D01*
X137764640Y-108362162D01*
X137665910Y-108544758D01*
X137533595Y-108704699D01*
X137372733Y-108835895D01*
X137189452Y-108933347D01*
X136990734Y-108993344D01*
X136784146Y-109013600D01*
X136773778Y-109013600D01*
X136763060Y-109013525D01*
X136763054Y-109013524D01*
X136759004Y-109013496D01*
X136552719Y-108990358D01*
X136354857Y-108927592D01*
X136172955Y-108827591D01*
X136013941Y-108694162D01*
X135883871Y-108532388D01*
X135787701Y-108348432D01*
X135729093Y-108149299D01*
X135729087Y-108149233D01*
X135729080Y-108149209D01*
X135710275Y-107942579D01*
X135731963Y-107736232D01*
X135731970Y-107736209D01*
X135731978Y-107736134D01*
X135793360Y-107537838D01*
X135892090Y-107355242D01*
X136024405Y-107195301D01*
X136185267Y-107064105D01*
X136368548Y-106966653D01*
X136567266Y-106906656D01*
X136773854Y-106886400D01*
X136784222Y-106886400D01*
X136794940Y-106886475D01*
X136794940Y-106886475D01*
G37*
G36*
X134254940Y-106886475D02*
X134254946Y-106886476D01*
X134258996Y-106886504D01*
X134465281Y-106909642D01*
X134663143Y-106972408D01*
X134845045Y-107072409D01*
X135004059Y-107205838D01*
X135134129Y-107367612D01*
X135230299Y-107551568D01*
X135288907Y-107750701D01*
X135288913Y-107750767D01*
X135288920Y-107750791D01*
X135307725Y-107957421D01*
X135286037Y-108163768D01*
X135286030Y-108163791D01*
X135286022Y-108163866D01*
X135224640Y-108362162D01*
X135125910Y-108544758D01*
X134993595Y-108704699D01*
X134832733Y-108835895D01*
X134649452Y-108933347D01*
X134450734Y-108993344D01*
X134244146Y-109013600D01*
X134233778Y-109013600D01*
X134223060Y-109013525D01*
X134223054Y-109013524D01*
X134219004Y-109013496D01*
X134012719Y-108990358D01*
X133814857Y-108927592D01*
X133632955Y-108827591D01*
X133473941Y-108694162D01*
X133343871Y-108532388D01*
X133247701Y-108348432D01*
X133189093Y-108149299D01*
X133189087Y-108149233D01*
X133189080Y-108149209D01*
X133170275Y-107942579D01*
X133191963Y-107736232D01*
X133191970Y-107736209D01*
X133191978Y-107736134D01*
X133253360Y-107537838D01*
X133352090Y-107355242D01*
X133484405Y-107195301D01*
X133645267Y-107064105D01*
X133828548Y-106966653D01*
X134027266Y-106906656D01*
X134233854Y-106886400D01*
X134244222Y-106886400D01*
X134254940Y-106886475D01*
X134254940Y-106886475D01*
G37*
G36*
X156324383Y-104321722D02*
X156533588Y-104364665D01*
X156730462Y-104447423D01*
X156907518Y-104566849D01*
X157058001Y-104718386D01*
X157176184Y-104896267D01*
X157257570Y-105093723D01*
X157298914Y-105302526D01*
X157298914Y-105302550D01*
X157299046Y-105303218D01*
X157295640Y-105547148D01*
X157295489Y-105547811D01*
X157295489Y-105547835D01*
X157248329Y-105755407D01*
X157161464Y-105950511D01*
X157038361Y-106125019D01*
X156883703Y-106272298D01*
X156703379Y-106386735D01*
X156504276Y-106463962D01*
X156293949Y-106501049D01*
X156080434Y-106496576D01*
X155871851Y-106450716D01*
X155676148Y-106365216D01*
X155500781Y-106243332D01*
X155352426Y-106089706D01*
X155236735Y-105910189D01*
X155158117Y-105711622D01*
X155119564Y-105501565D01*
X155122546Y-105288025D01*
X155166949Y-105079126D01*
X155251082Y-104882827D01*
X155371739Y-104706614D01*
X155524321Y-104557194D01*
X155703030Y-104440250D01*
X155901039Y-104360249D01*
X156110822Y-104320230D01*
X156324383Y-104321722D01*
X156324383Y-104321722D01*
G37*
G36*
X141084383Y-104321722D02*
X141293588Y-104364665D01*
X141490462Y-104447423D01*
X141667518Y-104566849D01*
X141818001Y-104718386D01*
X141936184Y-104896267D01*
X142017570Y-105093723D01*
X142058914Y-105302526D01*
X142058914Y-105302550D01*
X142059046Y-105303218D01*
X142055640Y-105547148D01*
X142055489Y-105547811D01*
X142055489Y-105547835D01*
X142008329Y-105755407D01*
X141921464Y-105950511D01*
X141798361Y-106125019D01*
X141643703Y-106272298D01*
X141463379Y-106386735D01*
X141264276Y-106463962D01*
X141053949Y-106501049D01*
X140840434Y-106496576D01*
X140631851Y-106450716D01*
X140436148Y-106365216D01*
X140260781Y-106243332D01*
X140112426Y-106089706D01*
X139996735Y-105910189D01*
X139918117Y-105711622D01*
X139879564Y-105501565D01*
X139882546Y-105288025D01*
X139926949Y-105079126D01*
X140011082Y-104882827D01*
X140131739Y-104706614D01*
X140284321Y-104557194D01*
X140463030Y-104440250D01*
X140661039Y-104360249D01*
X140870822Y-104320230D01*
X141084383Y-104321722D01*
X141084383Y-104321722D01*
G37*
G36*
X134254940Y-104346475D02*
X134254946Y-104346476D01*
X134258996Y-104346504D01*
X134465281Y-104369642D01*
X134663143Y-104432408D01*
X134845045Y-104532409D01*
X135004059Y-104665838D01*
X135134129Y-104827612D01*
X135230299Y-105011568D01*
X135288907Y-105210701D01*
X135288913Y-105210767D01*
X135288920Y-105210791D01*
X135307725Y-105417421D01*
X135286037Y-105623768D01*
X135286030Y-105623791D01*
X135286022Y-105623866D01*
X135224640Y-105822162D01*
X135125910Y-106004758D01*
X134993595Y-106164699D01*
X134832733Y-106295895D01*
X134649452Y-106393347D01*
X134450734Y-106453344D01*
X134244146Y-106473600D01*
X134233778Y-106473600D01*
X134223060Y-106473525D01*
X134223054Y-106473524D01*
X134219004Y-106473496D01*
X134012719Y-106450358D01*
X133814857Y-106387592D01*
X133632955Y-106287591D01*
X133473941Y-106154162D01*
X133343871Y-105992388D01*
X133247701Y-105808432D01*
X133189093Y-105609299D01*
X133189087Y-105609233D01*
X133189080Y-105609209D01*
X133170275Y-105402579D01*
X133191963Y-105196232D01*
X133191970Y-105196209D01*
X133191978Y-105196134D01*
X133253360Y-104997838D01*
X133352090Y-104815242D01*
X133484405Y-104655301D01*
X133645267Y-104524105D01*
X133828548Y-104426653D01*
X134027266Y-104366656D01*
X134233854Y-104346400D01*
X134244222Y-104346400D01*
X134254940Y-104346475D01*
X134254940Y-104346475D01*
G37*
G36*
X136794940Y-104346475D02*
X136794946Y-104346476D01*
X136798996Y-104346504D01*
X137005281Y-104369642D01*
X137203143Y-104432408D01*
X137385045Y-104532409D01*
X137544059Y-104665838D01*
X137674129Y-104827612D01*
X137770299Y-105011568D01*
X137828907Y-105210701D01*
X137828913Y-105210767D01*
X137828920Y-105210791D01*
X137847725Y-105417421D01*
X137826037Y-105623768D01*
X137826030Y-105623791D01*
X137826022Y-105623866D01*
X137764640Y-105822162D01*
X137665910Y-106004758D01*
X137533595Y-106164699D01*
X137372733Y-106295895D01*
X137189452Y-106393347D01*
X136990734Y-106453344D01*
X136784146Y-106473600D01*
X136773778Y-106473600D01*
X136763060Y-106473525D01*
X136763054Y-106473524D01*
X136759004Y-106473496D01*
X136552719Y-106450358D01*
X136354857Y-106387592D01*
X136172955Y-106287591D01*
X136013941Y-106154162D01*
X135883871Y-105992388D01*
X135787701Y-105808432D01*
X135729093Y-105609299D01*
X135729087Y-105609233D01*
X135729080Y-105609209D01*
X135710275Y-105402579D01*
X135731963Y-105196232D01*
X135731970Y-105196209D01*
X135731978Y-105196134D01*
X135793360Y-104997838D01*
X135892090Y-104815242D01*
X136024405Y-104655301D01*
X136185267Y-104524105D01*
X136368548Y-104426653D01*
X136567266Y-104366656D01*
X136773854Y-104346400D01*
X136784222Y-104346400D01*
X136794940Y-104346475D01*
X136794940Y-104346475D01*
G37*
G36*
X159908940Y-104346475D02*
X159908946Y-104346476D01*
X159912996Y-104346504D01*
X160119281Y-104369642D01*
X160317143Y-104432408D01*
X160499045Y-104532409D01*
X160658059Y-104665838D01*
X160788129Y-104827612D01*
X160884299Y-105011568D01*
X160942907Y-105210701D01*
X160942913Y-105210767D01*
X160942920Y-105210791D01*
X160961725Y-105417421D01*
X160940037Y-105623768D01*
X160940030Y-105623791D01*
X160940022Y-105623866D01*
X160878640Y-105822162D01*
X160779910Y-106004758D01*
X160647595Y-106164699D01*
X160486733Y-106295895D01*
X160303452Y-106393347D01*
X160104734Y-106453344D01*
X159898146Y-106473600D01*
X159887778Y-106473600D01*
X159877060Y-106473525D01*
X159877054Y-106473524D01*
X159873004Y-106473496D01*
X159666719Y-106450358D01*
X159468857Y-106387592D01*
X159286955Y-106287591D01*
X159127941Y-106154162D01*
X158997871Y-105992388D01*
X158901701Y-105808432D01*
X158843093Y-105609299D01*
X158843087Y-105609233D01*
X158843080Y-105609209D01*
X158824275Y-105402579D01*
X158845963Y-105196232D01*
X158845970Y-105196209D01*
X158845978Y-105196134D01*
X158907360Y-104997838D01*
X159006090Y-104815242D01*
X159138405Y-104655301D01*
X159299267Y-104524105D01*
X159482548Y-104426653D01*
X159681266Y-104366656D01*
X159887854Y-104346400D01*
X159898222Y-104346400D01*
X159908940Y-104346475D01*
X159908940Y-104346475D01*
G37*
G36*
X162448940Y-104346475D02*
X162448946Y-104346476D01*
X162452996Y-104346504D01*
X162659281Y-104369642D01*
X162857143Y-104432408D01*
X163039045Y-104532409D01*
X163198059Y-104665838D01*
X163328129Y-104827612D01*
X163424299Y-105011568D01*
X163482907Y-105210701D01*
X163482913Y-105210767D01*
X163482920Y-105210791D01*
X163501725Y-105417421D01*
X163480037Y-105623768D01*
X163480030Y-105623791D01*
X163480022Y-105623866D01*
X163418640Y-105822162D01*
X163319910Y-106004758D01*
X163187595Y-106164699D01*
X163026733Y-106295895D01*
X162843452Y-106393347D01*
X162644734Y-106453344D01*
X162438146Y-106473600D01*
X162427778Y-106473600D01*
X162417060Y-106473525D01*
X162417054Y-106473524D01*
X162413004Y-106473496D01*
X162206719Y-106450358D01*
X162008857Y-106387592D01*
X161826955Y-106287591D01*
X161667941Y-106154162D01*
X161537871Y-105992388D01*
X161441701Y-105808432D01*
X161383093Y-105609299D01*
X161383087Y-105609233D01*
X161383080Y-105609209D01*
X161364275Y-105402579D01*
X161385963Y-105196232D01*
X161385970Y-105196209D01*
X161385978Y-105196134D01*
X161447360Y-104997838D01*
X161546090Y-104815242D01*
X161678405Y-104655301D01*
X161839267Y-104524105D01*
X162022548Y-104426653D01*
X162221266Y-104366656D01*
X162427854Y-104346400D01*
X162438222Y-104346400D01*
X162448940Y-104346475D01*
X162448940Y-104346475D01*
G37*
G36*
X175764800Y-106118000D02*
X171707200Y-106118000D01*
X171707200Y-103686000D01*
X175764800Y-103686000D01*
X175764800Y-106118000D01*
X175764800Y-106118000D01*
G37*
G36*
X177660383Y-102797722D02*
X177869588Y-102840665D01*
X178066462Y-102923423D01*
X178243518Y-103042849D01*
X178394001Y-103194386D01*
X178512184Y-103372267D01*
X178593570Y-103569723D01*
X178634914Y-103778526D01*
X178634914Y-103778550D01*
X178635046Y-103779218D01*
X178631640Y-104023148D01*
X178631489Y-104023811D01*
X178631489Y-104023835D01*
X178584329Y-104231407D01*
X178497464Y-104426511D01*
X178374361Y-104601019D01*
X178219703Y-104748298D01*
X178039379Y-104862735D01*
X177840276Y-104939962D01*
X177629949Y-104977049D01*
X177416434Y-104972576D01*
X177207851Y-104926716D01*
X177012148Y-104841216D01*
X176836781Y-104719332D01*
X176688426Y-104565706D01*
X176572735Y-104386189D01*
X176494117Y-104187622D01*
X176455564Y-103977565D01*
X176458546Y-103764025D01*
X176502949Y-103555126D01*
X176587082Y-103358827D01*
X176707739Y-103182614D01*
X176860321Y-103033194D01*
X177039030Y-102916250D01*
X177237039Y-102836249D01*
X177446822Y-102796230D01*
X177660383Y-102797722D01*
X177660383Y-102797722D01*
G37*
G36*
X141084383Y-101781722D02*
X141293588Y-101824665D01*
X141490462Y-101907423D01*
X141667518Y-102026849D01*
X141818001Y-102178386D01*
X141936184Y-102356267D01*
X142017570Y-102553723D01*
X142058914Y-102762526D01*
X142058914Y-102762550D01*
X142059046Y-102763218D01*
X142055640Y-103007148D01*
X142055489Y-103007811D01*
X142055489Y-103007835D01*
X142008329Y-103215407D01*
X141921464Y-103410511D01*
X141798361Y-103585019D01*
X141643703Y-103732298D01*
X141463379Y-103846735D01*
X141264276Y-103923962D01*
X141053949Y-103961049D01*
X140840434Y-103956576D01*
X140631851Y-103910716D01*
X140436148Y-103825216D01*
X140260781Y-103703332D01*
X140112426Y-103549706D01*
X139996735Y-103370189D01*
X139918117Y-103171622D01*
X139879564Y-102961565D01*
X139882546Y-102748025D01*
X139926949Y-102539126D01*
X140011082Y-102342827D01*
X140131739Y-102166614D01*
X140284321Y-102017194D01*
X140463030Y-101900250D01*
X140661039Y-101820249D01*
X140870822Y-101780230D01*
X141084383Y-101781722D01*
X141084383Y-101781722D01*
G37*
G36*
X156324383Y-101781722D02*
X156533588Y-101824665D01*
X156730462Y-101907423D01*
X156907518Y-102026849D01*
X157058001Y-102178386D01*
X157176184Y-102356267D01*
X157257570Y-102553723D01*
X157298914Y-102762526D01*
X157298914Y-102762550D01*
X157299046Y-102763218D01*
X157295640Y-103007148D01*
X157295489Y-103007811D01*
X157295489Y-103007835D01*
X157248329Y-103215407D01*
X157161464Y-103410511D01*
X157038361Y-103585019D01*
X156883703Y-103732298D01*
X156703379Y-103846735D01*
X156504276Y-103923962D01*
X156293949Y-103961049D01*
X156080434Y-103956576D01*
X155871851Y-103910716D01*
X155676148Y-103825216D01*
X155500781Y-103703332D01*
X155352426Y-103549706D01*
X155236735Y-103370189D01*
X155158117Y-103171622D01*
X155119564Y-102961565D01*
X155122546Y-102748025D01*
X155166949Y-102539126D01*
X155251082Y-102342827D01*
X155371739Y-102166614D01*
X155524321Y-102017194D01*
X155703030Y-101900250D01*
X155901039Y-101820249D01*
X156110822Y-101780230D01*
X156324383Y-101781722D01*
X156324383Y-101781722D01*
G37*
G36*
X162448940Y-101806475D02*
X162448946Y-101806476D01*
X162452996Y-101806504D01*
X162659281Y-101829642D01*
X162857143Y-101892408D01*
X163039045Y-101992409D01*
X163198059Y-102125838D01*
X163328129Y-102287612D01*
X163424299Y-102471568D01*
X163482907Y-102670701D01*
X163482913Y-102670767D01*
X163482920Y-102670791D01*
X163501725Y-102877421D01*
X163480037Y-103083768D01*
X163480030Y-103083791D01*
X163480022Y-103083866D01*
X163418640Y-103282162D01*
X163319910Y-103464758D01*
X163187595Y-103624699D01*
X163026733Y-103755895D01*
X162843452Y-103853347D01*
X162644734Y-103913344D01*
X162438146Y-103933600D01*
X162427778Y-103933600D01*
X162417060Y-103933525D01*
X162417054Y-103933524D01*
X162413004Y-103933496D01*
X162206719Y-103910358D01*
X162008857Y-103847592D01*
X161826955Y-103747591D01*
X161667941Y-103614162D01*
X161537871Y-103452388D01*
X161441701Y-103268432D01*
X161383093Y-103069299D01*
X161383087Y-103069233D01*
X161383080Y-103069209D01*
X161364275Y-102862579D01*
X161385963Y-102656232D01*
X161385970Y-102656209D01*
X161385978Y-102656134D01*
X161447360Y-102457838D01*
X161546090Y-102275242D01*
X161678405Y-102115301D01*
X161839267Y-101984105D01*
X162022548Y-101886653D01*
X162221266Y-101826656D01*
X162427854Y-101806400D01*
X162438222Y-101806400D01*
X162448940Y-101806475D01*
X162448940Y-101806475D01*
G37*
G36*
X159908940Y-101806475D02*
X159908946Y-101806476D01*
X159912996Y-101806504D01*
X160119281Y-101829642D01*
X160317143Y-101892408D01*
X160499045Y-101992409D01*
X160658059Y-102125838D01*
X160788129Y-102287612D01*
X160884299Y-102471568D01*
X160942907Y-102670701D01*
X160942913Y-102670767D01*
X160942920Y-102670791D01*
X160961725Y-102877421D01*
X160940037Y-103083768D01*
X160940030Y-103083791D01*
X160940022Y-103083866D01*
X160878640Y-103282162D01*
X160779910Y-103464758D01*
X160647595Y-103624699D01*
X160486733Y-103755895D01*
X160303452Y-103853347D01*
X160104734Y-103913344D01*
X159898146Y-103933600D01*
X159887778Y-103933600D01*
X159877060Y-103933525D01*
X159877054Y-103933524D01*
X159873004Y-103933496D01*
X159666719Y-103910358D01*
X159468857Y-103847592D01*
X159286955Y-103747591D01*
X159127941Y-103614162D01*
X158997871Y-103452388D01*
X158901701Y-103268432D01*
X158843093Y-103069299D01*
X158843087Y-103069233D01*
X158843080Y-103069209D01*
X158824275Y-102862579D01*
X158845963Y-102656232D01*
X158845970Y-102656209D01*
X158845978Y-102656134D01*
X158907360Y-102457838D01*
X159006090Y-102275242D01*
X159138405Y-102115301D01*
X159299267Y-101984105D01*
X159482548Y-101886653D01*
X159681266Y-101826656D01*
X159887854Y-101806400D01*
X159898222Y-101806400D01*
X159908940Y-101806475D01*
X159908940Y-101806475D01*
G37*
G36*
X136794940Y-101806475D02*
X136794946Y-101806476D01*
X136798996Y-101806504D01*
X137005281Y-101829642D01*
X137203143Y-101892408D01*
X137385045Y-101992409D01*
X137544059Y-102125838D01*
X137674129Y-102287612D01*
X137770299Y-102471568D01*
X137828907Y-102670701D01*
X137828913Y-102670767D01*
X137828920Y-102670791D01*
X137847725Y-102877421D01*
X137826037Y-103083768D01*
X137826030Y-103083791D01*
X137826022Y-103083866D01*
X137764640Y-103282162D01*
X137665910Y-103464758D01*
X137533595Y-103624699D01*
X137372733Y-103755895D01*
X137189452Y-103853347D01*
X136990734Y-103913344D01*
X136784146Y-103933600D01*
X136773778Y-103933600D01*
X136763060Y-103933525D01*
X136763054Y-103933524D01*
X136759004Y-103933496D01*
X136552719Y-103910358D01*
X136354857Y-103847592D01*
X136172955Y-103747591D01*
X136013941Y-103614162D01*
X135883871Y-103452388D01*
X135787701Y-103268432D01*
X135729093Y-103069299D01*
X135729087Y-103069233D01*
X135729080Y-103069209D01*
X135710275Y-102862579D01*
X135731963Y-102656232D01*
X135731970Y-102656209D01*
X135731978Y-102656134D01*
X135793360Y-102457838D01*
X135892090Y-102275242D01*
X136024405Y-102115301D01*
X136185267Y-101984105D01*
X136368548Y-101886653D01*
X136567266Y-101826656D01*
X136773854Y-101806400D01*
X136784222Y-101806400D01*
X136794940Y-101806475D01*
X136794940Y-101806475D01*
G37*
G36*
X134254940Y-101806475D02*
X134254946Y-101806476D01*
X134258996Y-101806504D01*
X134465281Y-101829642D01*
X134663143Y-101892408D01*
X134845045Y-101992409D01*
X135004059Y-102125838D01*
X135134129Y-102287612D01*
X135230299Y-102471568D01*
X135288907Y-102670701D01*
X135288913Y-102670767D01*
X135288920Y-102670791D01*
X135307725Y-102877421D01*
X135286037Y-103083768D01*
X135286030Y-103083791D01*
X135286022Y-103083866D01*
X135224640Y-103282162D01*
X135125910Y-103464758D01*
X134993595Y-103624699D01*
X134832733Y-103755895D01*
X134649452Y-103853347D01*
X134450734Y-103913344D01*
X134244146Y-103933600D01*
X134233778Y-103933600D01*
X134223060Y-103933525D01*
X134223054Y-103933524D01*
X134219004Y-103933496D01*
X134012719Y-103910358D01*
X133814857Y-103847592D01*
X133632955Y-103747591D01*
X133473941Y-103614162D01*
X133343871Y-103452388D01*
X133247701Y-103268432D01*
X133189093Y-103069299D01*
X133189087Y-103069233D01*
X133189080Y-103069209D01*
X133170275Y-102862579D01*
X133191963Y-102656232D01*
X133191970Y-102656209D01*
X133191978Y-102656134D01*
X133253360Y-102457838D01*
X133352090Y-102275242D01*
X133484405Y-102115301D01*
X133645267Y-101984105D01*
X133828548Y-101886653D01*
X134027266Y-101826656D01*
X134233854Y-101806400D01*
X134244222Y-101806400D01*
X134254940Y-101806475D01*
X134254940Y-101806475D01*
G37*
G36*
X156324383Y-99241722D02*
X156533588Y-99284665D01*
X156730462Y-99367423D01*
X156907518Y-99486849D01*
X157058001Y-99638386D01*
X157176184Y-99816267D01*
X157257570Y-100013723D01*
X157298914Y-100222526D01*
X157298914Y-100222550D01*
X157299046Y-100223218D01*
X157295640Y-100467148D01*
X157295489Y-100467811D01*
X157295489Y-100467835D01*
X157248329Y-100675407D01*
X157161464Y-100870511D01*
X157038361Y-101045019D01*
X156883703Y-101192298D01*
X156703379Y-101306735D01*
X156504276Y-101383962D01*
X156293949Y-101421049D01*
X156080434Y-101416576D01*
X155871851Y-101370716D01*
X155676148Y-101285216D01*
X155500781Y-101163332D01*
X155352426Y-101009706D01*
X155236735Y-100830189D01*
X155158117Y-100631622D01*
X155119564Y-100421565D01*
X155122546Y-100208025D01*
X155166949Y-99999126D01*
X155251082Y-99802827D01*
X155371739Y-99626614D01*
X155524321Y-99477194D01*
X155703030Y-99360250D01*
X155901039Y-99280249D01*
X156110822Y-99240230D01*
X156324383Y-99241722D01*
X156324383Y-99241722D01*
G37*
G36*
X141084383Y-99241722D02*
X141293588Y-99284665D01*
X141490462Y-99367423D01*
X141667518Y-99486849D01*
X141818001Y-99638386D01*
X141936184Y-99816267D01*
X142017570Y-100013723D01*
X142058914Y-100222526D01*
X142058914Y-100222550D01*
X142059046Y-100223218D01*
X142055640Y-100467148D01*
X142055489Y-100467811D01*
X142055489Y-100467835D01*
X142008329Y-100675407D01*
X141921464Y-100870511D01*
X141798361Y-101045019D01*
X141643703Y-101192298D01*
X141463379Y-101306735D01*
X141264276Y-101383962D01*
X141053949Y-101421049D01*
X140840434Y-101416576D01*
X140631851Y-101370716D01*
X140436148Y-101285216D01*
X140260781Y-101163332D01*
X140112426Y-101009706D01*
X139996735Y-100830189D01*
X139918117Y-100631622D01*
X139879564Y-100421565D01*
X139882546Y-100208025D01*
X139926949Y-99999126D01*
X140011082Y-99802827D01*
X140131739Y-99626614D01*
X140284321Y-99477194D01*
X140463030Y-99360250D01*
X140661039Y-99280249D01*
X140870822Y-99240230D01*
X141084383Y-99241722D01*
X141084383Y-99241722D01*
G37*
G36*
X134254940Y-99266475D02*
X134254946Y-99266476D01*
X134258996Y-99266504D01*
X134465281Y-99289642D01*
X134663143Y-99352408D01*
X134845045Y-99452409D01*
X135004059Y-99585838D01*
X135134129Y-99747612D01*
X135230299Y-99931568D01*
X135288907Y-100130701D01*
X135288913Y-100130767D01*
X135288920Y-100130791D01*
X135307725Y-100337421D01*
X135286037Y-100543768D01*
X135286030Y-100543791D01*
X135286022Y-100543866D01*
X135224640Y-100742162D01*
X135125910Y-100924758D01*
X134993595Y-101084699D01*
X134832733Y-101215895D01*
X134649452Y-101313347D01*
X134450734Y-101373344D01*
X134244146Y-101393600D01*
X134233778Y-101393600D01*
X134223060Y-101393525D01*
X134223054Y-101393524D01*
X134219004Y-101393496D01*
X134012719Y-101370358D01*
X133814857Y-101307592D01*
X133632955Y-101207591D01*
X133473941Y-101074162D01*
X133343871Y-100912388D01*
X133247701Y-100728432D01*
X133189093Y-100529299D01*
X133189087Y-100529233D01*
X133189080Y-100529209D01*
X133170275Y-100322579D01*
X133191963Y-100116232D01*
X133191970Y-100116209D01*
X133191978Y-100116134D01*
X133253360Y-99917838D01*
X133352090Y-99735242D01*
X133484405Y-99575301D01*
X133645267Y-99444105D01*
X133828548Y-99346653D01*
X134027266Y-99286656D01*
X134233854Y-99266400D01*
X134244222Y-99266400D01*
X134254940Y-99266475D01*
X134254940Y-99266475D01*
G37*
G36*
X162448940Y-99266475D02*
X162448946Y-99266476D01*
X162452996Y-99266504D01*
X162659281Y-99289642D01*
X162857143Y-99352408D01*
X163039045Y-99452409D01*
X163198059Y-99585838D01*
X163328129Y-99747612D01*
X163424299Y-99931568D01*
X163482907Y-100130701D01*
X163482913Y-100130767D01*
X163482920Y-100130791D01*
X163501725Y-100337421D01*
X163480037Y-100543768D01*
X163480030Y-100543791D01*
X163480022Y-100543866D01*
X163418640Y-100742162D01*
X163319910Y-100924758D01*
X163187595Y-101084699D01*
X163026733Y-101215895D01*
X162843452Y-101313347D01*
X162644734Y-101373344D01*
X162438146Y-101393600D01*
X162427778Y-101393600D01*
X162417060Y-101393525D01*
X162417054Y-101393524D01*
X162413004Y-101393496D01*
X162206719Y-101370358D01*
X162008857Y-101307592D01*
X161826955Y-101207591D01*
X161667941Y-101074162D01*
X161537871Y-100912388D01*
X161441701Y-100728432D01*
X161383093Y-100529299D01*
X161383087Y-100529233D01*
X161383080Y-100529209D01*
X161364275Y-100322579D01*
X161385963Y-100116232D01*
X161385970Y-100116209D01*
X161385978Y-100116134D01*
X161447360Y-99917838D01*
X161546090Y-99735242D01*
X161678405Y-99575301D01*
X161839267Y-99444105D01*
X162022548Y-99346653D01*
X162221266Y-99286656D01*
X162427854Y-99266400D01*
X162438222Y-99266400D01*
X162448940Y-99266475D01*
X162448940Y-99266475D01*
G37*
G36*
X159908940Y-99266475D02*
X159908946Y-99266476D01*
X159912996Y-99266504D01*
X160119281Y-99289642D01*
X160317143Y-99352408D01*
X160499045Y-99452409D01*
X160658059Y-99585838D01*
X160788129Y-99747612D01*
X160884299Y-99931568D01*
X160942907Y-100130701D01*
X160942913Y-100130767D01*
X160942920Y-100130791D01*
X160961725Y-100337421D01*
X160940037Y-100543768D01*
X160940030Y-100543791D01*
X160940022Y-100543866D01*
X160878640Y-100742162D01*
X160779910Y-100924758D01*
X160647595Y-101084699D01*
X160486733Y-101215895D01*
X160303452Y-101313347D01*
X160104734Y-101373344D01*
X159898146Y-101393600D01*
X159887778Y-101393600D01*
X159877060Y-101393525D01*
X159877054Y-101393524D01*
X159873004Y-101393496D01*
X159666719Y-101370358D01*
X159468857Y-101307592D01*
X159286955Y-101207591D01*
X159127941Y-101074162D01*
X158997871Y-100912388D01*
X158901701Y-100728432D01*
X158843093Y-100529299D01*
X158843087Y-100529233D01*
X158843080Y-100529209D01*
X158824275Y-100322579D01*
X158845963Y-100116232D01*
X158845970Y-100116209D01*
X158845978Y-100116134D01*
X158907360Y-99917838D01*
X159006090Y-99735242D01*
X159138405Y-99575301D01*
X159299267Y-99444105D01*
X159482548Y-99346653D01*
X159681266Y-99286656D01*
X159887854Y-99266400D01*
X159898222Y-99266400D01*
X159908940Y-99266475D01*
X159908940Y-99266475D01*
G37*
G36*
X136794940Y-99266475D02*
X136794946Y-99266476D01*
X136798996Y-99266504D01*
X137005281Y-99289642D01*
X137203143Y-99352408D01*
X137385045Y-99452409D01*
X137544059Y-99585838D01*
X137674129Y-99747612D01*
X137770299Y-99931568D01*
X137828907Y-100130701D01*
X137828913Y-100130767D01*
X137828920Y-100130791D01*
X137847725Y-100337421D01*
X137826037Y-100543768D01*
X137826030Y-100543791D01*
X137826022Y-100543866D01*
X137764640Y-100742162D01*
X137665910Y-100924758D01*
X137533595Y-101084699D01*
X137372733Y-101215895D01*
X137189452Y-101313347D01*
X136990734Y-101373344D01*
X136784146Y-101393600D01*
X136773778Y-101393600D01*
X136763060Y-101393525D01*
X136763054Y-101393524D01*
X136759004Y-101393496D01*
X136552719Y-101370358D01*
X136354857Y-101307592D01*
X136172955Y-101207591D01*
X136013941Y-101074162D01*
X135883871Y-100912388D01*
X135787701Y-100728432D01*
X135729093Y-100529299D01*
X135729087Y-100529233D01*
X135729080Y-100529209D01*
X135710275Y-100322579D01*
X135731963Y-100116232D01*
X135731970Y-100116209D01*
X135731978Y-100116134D01*
X135793360Y-99917838D01*
X135892090Y-99735242D01*
X136024405Y-99575301D01*
X136185267Y-99444105D01*
X136368548Y-99346653D01*
X136567266Y-99286656D01*
X136773854Y-99266400D01*
X136784222Y-99266400D01*
X136794940Y-99266475D01*
X136794940Y-99266475D01*
G37*
G36*
X141084383Y-96701722D02*
X141293588Y-96744665D01*
X141490462Y-96827423D01*
X141667518Y-96946849D01*
X141818001Y-97098386D01*
X141936184Y-97276267D01*
X142017570Y-97473723D01*
X142058914Y-97682526D01*
X142058914Y-97682550D01*
X142059046Y-97683218D01*
X142055640Y-97927148D01*
X142055489Y-97927811D01*
X142055489Y-97927835D01*
X142008329Y-98135407D01*
X141921464Y-98330511D01*
X141798361Y-98505019D01*
X141643703Y-98652298D01*
X141463379Y-98766735D01*
X141264276Y-98843962D01*
X141053949Y-98881049D01*
X140840434Y-98876576D01*
X140631851Y-98830716D01*
X140436148Y-98745216D01*
X140260781Y-98623332D01*
X140112426Y-98469706D01*
X139996735Y-98290189D01*
X139918117Y-98091622D01*
X139879564Y-97881565D01*
X139882546Y-97668025D01*
X139926949Y-97459126D01*
X140011082Y-97262827D01*
X140131739Y-97086614D01*
X140284321Y-96937194D01*
X140463030Y-96820250D01*
X140661039Y-96740249D01*
X140870822Y-96700230D01*
X141084383Y-96701722D01*
X141084383Y-96701722D01*
G37*
G36*
X156324383Y-96701722D02*
X156533588Y-96744665D01*
X156730462Y-96827423D01*
X156907518Y-96946849D01*
X157058001Y-97098386D01*
X157176184Y-97276267D01*
X157257570Y-97473723D01*
X157298914Y-97682526D01*
X157298914Y-97682550D01*
X157299046Y-97683218D01*
X157295640Y-97927148D01*
X157295489Y-97927811D01*
X157295489Y-97927835D01*
X157248329Y-98135407D01*
X157161464Y-98330511D01*
X157038361Y-98505019D01*
X156883703Y-98652298D01*
X156703379Y-98766735D01*
X156504276Y-98843962D01*
X156293949Y-98881049D01*
X156080434Y-98876576D01*
X155871851Y-98830716D01*
X155676148Y-98745216D01*
X155500781Y-98623332D01*
X155352426Y-98469706D01*
X155236735Y-98290189D01*
X155158117Y-98091622D01*
X155119564Y-97881565D01*
X155122546Y-97668025D01*
X155166949Y-97459126D01*
X155251082Y-97262827D01*
X155371739Y-97086614D01*
X155524321Y-96937194D01*
X155703030Y-96820250D01*
X155901039Y-96740249D01*
X156110822Y-96700230D01*
X156324383Y-96701722D01*
X156324383Y-96701722D01*
G37*
G36*
X162448940Y-96726475D02*
X162448946Y-96726476D01*
X162452996Y-96726504D01*
X162659281Y-96749642D01*
X162857143Y-96812408D01*
X163039045Y-96912409D01*
X163198059Y-97045838D01*
X163328129Y-97207612D01*
X163424299Y-97391568D01*
X163482907Y-97590701D01*
X163482913Y-97590767D01*
X163482920Y-97590791D01*
X163501725Y-97797421D01*
X163480037Y-98003768D01*
X163480030Y-98003791D01*
X163480022Y-98003866D01*
X163418640Y-98202162D01*
X163319910Y-98384758D01*
X163187595Y-98544699D01*
X163026733Y-98675895D01*
X162843452Y-98773347D01*
X162644734Y-98833344D01*
X162438146Y-98853600D01*
X162427778Y-98853600D01*
X162417060Y-98853525D01*
X162417054Y-98853524D01*
X162413004Y-98853496D01*
X162206719Y-98830358D01*
X162008857Y-98767592D01*
X161826955Y-98667591D01*
X161667941Y-98534162D01*
X161537871Y-98372388D01*
X161441701Y-98188432D01*
X161383093Y-97989299D01*
X161383087Y-97989233D01*
X161383080Y-97989209D01*
X161364275Y-97782579D01*
X161385963Y-97576232D01*
X161385970Y-97576209D01*
X161385978Y-97576134D01*
X161447360Y-97377838D01*
X161546090Y-97195242D01*
X161678405Y-97035301D01*
X161839267Y-96904105D01*
X162022548Y-96806653D01*
X162221266Y-96746656D01*
X162427854Y-96726400D01*
X162438222Y-96726400D01*
X162448940Y-96726475D01*
X162448940Y-96726475D01*
G37*
G36*
X159908940Y-96726475D02*
X159908946Y-96726476D01*
X159912996Y-96726504D01*
X160119281Y-96749642D01*
X160317143Y-96812408D01*
X160499045Y-96912409D01*
X160658059Y-97045838D01*
X160788129Y-97207612D01*
X160884299Y-97391568D01*
X160942907Y-97590701D01*
X160942913Y-97590767D01*
X160942920Y-97590791D01*
X160961725Y-97797421D01*
X160940037Y-98003768D01*
X160940030Y-98003791D01*
X160940022Y-98003866D01*
X160878640Y-98202162D01*
X160779910Y-98384758D01*
X160647595Y-98544699D01*
X160486733Y-98675895D01*
X160303452Y-98773347D01*
X160104734Y-98833344D01*
X159898146Y-98853600D01*
X159887778Y-98853600D01*
X159877060Y-98853525D01*
X159877054Y-98853524D01*
X159873004Y-98853496D01*
X159666719Y-98830358D01*
X159468857Y-98767592D01*
X159286955Y-98667591D01*
X159127941Y-98534162D01*
X158997871Y-98372388D01*
X158901701Y-98188432D01*
X158843093Y-97989299D01*
X158843087Y-97989233D01*
X158843080Y-97989209D01*
X158824275Y-97782579D01*
X158845963Y-97576232D01*
X158845970Y-97576209D01*
X158845978Y-97576134D01*
X158907360Y-97377838D01*
X159006090Y-97195242D01*
X159138405Y-97035301D01*
X159299267Y-96904105D01*
X159482548Y-96806653D01*
X159681266Y-96746656D01*
X159887854Y-96726400D01*
X159898222Y-96726400D01*
X159908940Y-96726475D01*
X159908940Y-96726475D01*
G37*
G36*
X136794940Y-96726475D02*
X136794946Y-96726476D01*
X136798996Y-96726504D01*
X137005281Y-96749642D01*
X137203143Y-96812408D01*
X137385045Y-96912409D01*
X137544059Y-97045838D01*
X137674129Y-97207612D01*
X137770299Y-97391568D01*
X137828907Y-97590701D01*
X137828913Y-97590767D01*
X137828920Y-97590791D01*
X137847725Y-97797421D01*
X137826037Y-98003768D01*
X137826030Y-98003791D01*
X137826022Y-98003866D01*
X137764640Y-98202162D01*
X137665910Y-98384758D01*
X137533595Y-98544699D01*
X137372733Y-98675895D01*
X137189452Y-98773347D01*
X136990734Y-98833344D01*
X136784146Y-98853600D01*
X136773778Y-98853600D01*
X136763060Y-98853525D01*
X136763054Y-98853524D01*
X136759004Y-98853496D01*
X136552719Y-98830358D01*
X136354857Y-98767592D01*
X136172955Y-98667591D01*
X136013941Y-98534162D01*
X135883871Y-98372388D01*
X135787701Y-98188432D01*
X135729093Y-97989299D01*
X135729087Y-97989233D01*
X135729080Y-97989209D01*
X135710275Y-97782579D01*
X135731963Y-97576232D01*
X135731970Y-97576209D01*
X135731978Y-97576134D01*
X135793360Y-97377838D01*
X135892090Y-97195242D01*
X136024405Y-97035301D01*
X136185267Y-96904105D01*
X136368548Y-96806653D01*
X136567266Y-96746656D01*
X136773854Y-96726400D01*
X136784222Y-96726400D01*
X136794940Y-96726475D01*
X136794940Y-96726475D01*
G37*
G36*
X134254940Y-96726475D02*
X134254946Y-96726476D01*
X134258996Y-96726504D01*
X134465281Y-96749642D01*
X134663143Y-96812408D01*
X134845045Y-96912409D01*
X135004059Y-97045838D01*
X135134129Y-97207612D01*
X135230299Y-97391568D01*
X135288907Y-97590701D01*
X135288913Y-97590767D01*
X135288920Y-97590791D01*
X135307725Y-97797421D01*
X135286037Y-98003768D01*
X135286030Y-98003791D01*
X135286022Y-98003866D01*
X135224640Y-98202162D01*
X135125910Y-98384758D01*
X134993595Y-98544699D01*
X134832733Y-98675895D01*
X134649452Y-98773347D01*
X134450734Y-98833344D01*
X134244146Y-98853600D01*
X134233778Y-98853600D01*
X134223060Y-98853525D01*
X134223054Y-98853524D01*
X134219004Y-98853496D01*
X134012719Y-98830358D01*
X133814857Y-98767592D01*
X133632955Y-98667591D01*
X133473941Y-98534162D01*
X133343871Y-98372388D01*
X133247701Y-98188432D01*
X133189093Y-97989299D01*
X133189087Y-97989233D01*
X133189080Y-97989209D01*
X133170275Y-97782579D01*
X133191963Y-97576232D01*
X133191970Y-97576209D01*
X133191978Y-97576134D01*
X133253360Y-97377838D01*
X133352090Y-97195242D01*
X133484405Y-97035301D01*
X133645267Y-96904105D01*
X133828548Y-96806653D01*
X134027266Y-96746656D01*
X134233854Y-96726400D01*
X134244222Y-96726400D01*
X134254940Y-96726475D01*
X134254940Y-96726475D01*
G37*
G36*
X171310383Y-94923722D02*
X171519588Y-94966665D01*
X171716462Y-95049423D01*
X171893518Y-95168849D01*
X172044001Y-95320386D01*
X172162184Y-95498267D01*
X172243570Y-95695723D01*
X172284914Y-95904526D01*
X172284914Y-95904550D01*
X172285046Y-95905218D01*
X172281640Y-96149148D01*
X172281489Y-96149811D01*
X172281489Y-96149835D01*
X172234329Y-96357407D01*
X172147464Y-96552511D01*
X172024361Y-96727019D01*
X171869703Y-96874298D01*
X171689379Y-96988735D01*
X171490276Y-97065962D01*
X171279949Y-97103049D01*
X171066434Y-97098576D01*
X170857851Y-97052716D01*
X170662148Y-96967216D01*
X170486781Y-96845332D01*
X170338426Y-96691706D01*
X170222735Y-96512189D01*
X170144117Y-96313622D01*
X170105564Y-96103565D01*
X170108546Y-95890025D01*
X170152949Y-95681126D01*
X170237082Y-95484827D01*
X170357739Y-95308614D01*
X170510321Y-95159194D01*
X170689030Y-95042250D01*
X170887039Y-94962249D01*
X171096822Y-94922230D01*
X171310383Y-94923722D01*
X171310383Y-94923722D01*
G37*
G36*
X173850383Y-94923722D02*
X174059588Y-94966665D01*
X174256462Y-95049423D01*
X174433518Y-95168849D01*
X174584001Y-95320386D01*
X174702184Y-95498267D01*
X174783570Y-95695723D01*
X174824914Y-95904526D01*
X174824914Y-95904550D01*
X174825046Y-95905218D01*
X174821640Y-96149148D01*
X174821489Y-96149811D01*
X174821489Y-96149835D01*
X174774329Y-96357407D01*
X174687464Y-96552511D01*
X174564361Y-96727019D01*
X174409703Y-96874298D01*
X174229379Y-96988735D01*
X174030276Y-97065962D01*
X173819949Y-97103049D01*
X173606434Y-97098576D01*
X173397851Y-97052716D01*
X173202148Y-96967216D01*
X173026781Y-96845332D01*
X172878426Y-96691706D01*
X172762735Y-96512189D01*
X172684117Y-96313622D01*
X172645564Y-96103565D01*
X172648546Y-95890025D01*
X172692949Y-95681126D01*
X172777082Y-95484827D01*
X172897739Y-95308614D01*
X173050321Y-95159194D01*
X173229030Y-95042250D01*
X173427039Y-94962249D01*
X173636822Y-94922230D01*
X173850383Y-94923722D01*
X173850383Y-94923722D01*
G37*
G36*
X176390383Y-94923722D02*
X176599588Y-94966665D01*
X176796462Y-95049423D01*
X176973518Y-95168849D01*
X177124001Y-95320386D01*
X177242184Y-95498267D01*
X177323570Y-95695723D01*
X177364914Y-95904526D01*
X177364914Y-95904550D01*
X177365046Y-95905218D01*
X177361640Y-96149148D01*
X177361489Y-96149811D01*
X177361489Y-96149835D01*
X177314329Y-96357407D01*
X177227464Y-96552511D01*
X177104361Y-96727019D01*
X176949703Y-96874298D01*
X176769379Y-96988735D01*
X176570276Y-97065962D01*
X176359949Y-97103049D01*
X176146434Y-97098576D01*
X175937851Y-97052716D01*
X175742148Y-96967216D01*
X175566781Y-96845332D01*
X175418426Y-96691706D01*
X175302735Y-96512189D01*
X175224117Y-96313622D01*
X175185564Y-96103565D01*
X175188546Y-95890025D01*
X175232949Y-95681126D01*
X175317082Y-95484827D01*
X175437739Y-95308614D01*
X175590321Y-95159194D01*
X175769030Y-95042250D01*
X175967039Y-94962249D01*
X176176822Y-94922230D01*
X176390383Y-94923722D01*
X176390383Y-94923722D01*
G37*
G36*
X178930383Y-94923722D02*
X179139588Y-94966665D01*
X179336462Y-95049423D01*
X179513518Y-95168849D01*
X179664001Y-95320386D01*
X179782184Y-95498267D01*
X179863570Y-95695723D01*
X179904914Y-95904526D01*
X179904914Y-95904550D01*
X179905046Y-95905218D01*
X179901640Y-96149148D01*
X179901489Y-96149811D01*
X179901489Y-96149835D01*
X179854329Y-96357407D01*
X179767464Y-96552511D01*
X179644361Y-96727019D01*
X179489703Y-96874298D01*
X179309379Y-96988735D01*
X179110276Y-97065962D01*
X178899949Y-97103049D01*
X178686434Y-97098576D01*
X178477851Y-97052716D01*
X178282148Y-96967216D01*
X178106781Y-96845332D01*
X177958426Y-96691706D01*
X177842735Y-96512189D01*
X177764117Y-96313622D01*
X177725564Y-96103565D01*
X177728546Y-95890025D01*
X177772949Y-95681126D01*
X177857082Y-95484827D01*
X177977739Y-95308614D01*
X178130321Y-95159194D01*
X178309030Y-95042250D01*
X178507039Y-94962249D01*
X178716822Y-94922230D01*
X178930383Y-94923722D01*
X178930383Y-94923722D01*
G37*
G36*
X156324383Y-94161722D02*
X156533588Y-94204665D01*
X156730462Y-94287423D01*
X156907518Y-94406849D01*
X157058001Y-94558386D01*
X157176184Y-94736267D01*
X157257570Y-94933723D01*
X157298914Y-95142526D01*
X157298914Y-95142550D01*
X157299046Y-95143218D01*
X157295640Y-95387148D01*
X157295489Y-95387811D01*
X157295489Y-95387835D01*
X157248329Y-95595407D01*
X157161464Y-95790511D01*
X157038361Y-95965019D01*
X156883703Y-96112298D01*
X156703379Y-96226735D01*
X156504276Y-96303962D01*
X156293949Y-96341049D01*
X156080434Y-96336576D01*
X155871851Y-96290716D01*
X155676148Y-96205216D01*
X155500781Y-96083332D01*
X155352426Y-95929706D01*
X155236735Y-95750189D01*
X155158117Y-95551622D01*
X155119564Y-95341565D01*
X155122546Y-95128025D01*
X155166949Y-94919126D01*
X155251082Y-94722827D01*
X155371739Y-94546614D01*
X155524321Y-94397194D01*
X155703030Y-94280250D01*
X155901039Y-94200249D01*
X156110822Y-94160230D01*
X156324383Y-94161722D01*
X156324383Y-94161722D01*
G37*
G36*
X141084383Y-94161722D02*
X141293588Y-94204665D01*
X141490462Y-94287423D01*
X141667518Y-94406849D01*
X141818001Y-94558386D01*
X141936184Y-94736267D01*
X142017570Y-94933723D01*
X142058914Y-95142526D01*
X142058914Y-95142550D01*
X142059046Y-95143218D01*
X142055640Y-95387148D01*
X142055489Y-95387811D01*
X142055489Y-95387835D01*
X142008329Y-95595407D01*
X141921464Y-95790511D01*
X141798361Y-95965019D01*
X141643703Y-96112298D01*
X141463379Y-96226735D01*
X141264276Y-96303962D01*
X141053949Y-96341049D01*
X140840434Y-96336576D01*
X140631851Y-96290716D01*
X140436148Y-96205216D01*
X140260781Y-96083332D01*
X140112426Y-95929706D01*
X139996735Y-95750189D01*
X139918117Y-95551622D01*
X139879564Y-95341565D01*
X139882546Y-95128025D01*
X139926949Y-94919126D01*
X140011082Y-94722827D01*
X140131739Y-94546614D01*
X140284321Y-94397194D01*
X140463030Y-94280250D01*
X140661039Y-94200249D01*
X140870822Y-94160230D01*
X141084383Y-94161722D01*
X141084383Y-94161722D01*
G37*
G36*
X136794940Y-94186475D02*
X136794946Y-94186476D01*
X136798996Y-94186504D01*
X137005281Y-94209642D01*
X137203143Y-94272408D01*
X137385045Y-94372409D01*
X137544059Y-94505838D01*
X137674129Y-94667612D01*
X137770299Y-94851568D01*
X137828907Y-95050701D01*
X137828913Y-95050767D01*
X137828920Y-95050791D01*
X137847725Y-95257421D01*
X137826037Y-95463768D01*
X137826030Y-95463791D01*
X137826022Y-95463866D01*
X137764640Y-95662162D01*
X137665910Y-95844758D01*
X137533595Y-96004699D01*
X137372733Y-96135895D01*
X137189452Y-96233347D01*
X136990734Y-96293344D01*
X136784146Y-96313600D01*
X136773778Y-96313600D01*
X136763060Y-96313525D01*
X136763054Y-96313524D01*
X136759004Y-96313496D01*
X136552719Y-96290358D01*
X136354857Y-96227592D01*
X136172955Y-96127591D01*
X136013941Y-95994162D01*
X135883871Y-95832388D01*
X135787701Y-95648432D01*
X135729093Y-95449299D01*
X135729087Y-95449233D01*
X135729080Y-95449209D01*
X135710275Y-95242579D01*
X135731963Y-95036232D01*
X135731970Y-95036209D01*
X135731978Y-95036134D01*
X135793360Y-94837838D01*
X135892090Y-94655242D01*
X136024405Y-94495301D01*
X136185267Y-94364105D01*
X136368548Y-94266653D01*
X136567266Y-94206656D01*
X136773854Y-94186400D01*
X136784222Y-94186400D01*
X136794940Y-94186475D01*
X136794940Y-94186475D01*
G37*
G36*
X160956600Y-96313600D02*
X158829400Y-96313600D01*
X158829400Y-94186400D01*
X160956600Y-94186400D01*
X160956600Y-96313600D01*
X160956600Y-96313600D01*
G37*
G36*
X134254940Y-94186475D02*
X134254946Y-94186476D01*
X134258996Y-94186504D01*
X134465281Y-94209642D01*
X134663143Y-94272408D01*
X134845045Y-94372409D01*
X135004059Y-94505838D01*
X135134129Y-94667612D01*
X135230299Y-94851568D01*
X135288907Y-95050701D01*
X135288913Y-95050767D01*
X135288920Y-95050791D01*
X135307725Y-95257421D01*
X135286037Y-95463768D01*
X135286030Y-95463791D01*
X135286022Y-95463866D01*
X135224640Y-95662162D01*
X135125910Y-95844758D01*
X134993595Y-96004699D01*
X134832733Y-96135895D01*
X134649452Y-96233347D01*
X134450734Y-96293344D01*
X134244146Y-96313600D01*
X134233778Y-96313600D01*
X134223060Y-96313525D01*
X134223054Y-96313524D01*
X134219004Y-96313496D01*
X134012719Y-96290358D01*
X133814857Y-96227592D01*
X133632955Y-96127591D01*
X133473941Y-95994162D01*
X133343871Y-95832388D01*
X133247701Y-95648432D01*
X133189093Y-95449299D01*
X133189087Y-95449233D01*
X133189080Y-95449209D01*
X133170275Y-95242579D01*
X133191963Y-95036232D01*
X133191970Y-95036209D01*
X133191978Y-95036134D01*
X133253360Y-94837838D01*
X133352090Y-94655242D01*
X133484405Y-94495301D01*
X133645267Y-94364105D01*
X133828548Y-94266653D01*
X134027266Y-94206656D01*
X134233854Y-94186400D01*
X134244222Y-94186400D01*
X134254940Y-94186475D01*
X134254940Y-94186475D01*
G37*
G36*
X162448940Y-94186475D02*
X162448946Y-94186476D01*
X162452996Y-94186504D01*
X162659281Y-94209642D01*
X162857143Y-94272408D01*
X163039045Y-94372409D01*
X163198059Y-94505838D01*
X163328129Y-94667612D01*
X163424299Y-94851568D01*
X163482907Y-95050701D01*
X163482913Y-95050767D01*
X163482920Y-95050791D01*
X163501725Y-95257421D01*
X163480037Y-95463768D01*
X163480030Y-95463791D01*
X163480022Y-95463866D01*
X163418640Y-95662162D01*
X163319910Y-95844758D01*
X163187595Y-96004699D01*
X163026733Y-96135895D01*
X162843452Y-96233347D01*
X162644734Y-96293344D01*
X162438146Y-96313600D01*
X162427778Y-96313600D01*
X162417060Y-96313525D01*
X162417054Y-96313524D01*
X162413004Y-96313496D01*
X162206719Y-96290358D01*
X162008857Y-96227592D01*
X161826955Y-96127591D01*
X161667941Y-95994162D01*
X161537871Y-95832388D01*
X161441701Y-95648432D01*
X161383093Y-95449299D01*
X161383087Y-95449233D01*
X161383080Y-95449209D01*
X161364275Y-95242579D01*
X161385963Y-95036232D01*
X161385970Y-95036209D01*
X161385978Y-95036134D01*
X161447360Y-94837838D01*
X161546090Y-94655242D01*
X161678405Y-94495301D01*
X161839267Y-94364105D01*
X162022548Y-94266653D01*
X162221266Y-94206656D01*
X162427854Y-94186400D01*
X162438222Y-94186400D01*
X162448940Y-94186475D01*
X162448940Y-94186475D01*
G37*
G36*
X171310383Y-92383722D02*
X171519588Y-92426665D01*
X171716462Y-92509423D01*
X171893518Y-92628849D01*
X172044001Y-92780386D01*
X172162184Y-92958267D01*
X172243570Y-93155723D01*
X172284914Y-93364526D01*
X172284914Y-93364550D01*
X172285046Y-93365218D01*
X172281640Y-93609148D01*
X172281489Y-93609811D01*
X172281489Y-93609835D01*
X172234329Y-93817407D01*
X172147464Y-94012511D01*
X172024361Y-94187019D01*
X171869703Y-94334298D01*
X171689379Y-94448735D01*
X171490276Y-94525962D01*
X171279949Y-94563049D01*
X171066434Y-94558576D01*
X170857851Y-94512716D01*
X170662148Y-94427216D01*
X170486781Y-94305332D01*
X170338426Y-94151706D01*
X170222735Y-93972189D01*
X170144117Y-93773622D01*
X170105564Y-93563565D01*
X170108546Y-93350025D01*
X170152949Y-93141126D01*
X170237082Y-92944827D01*
X170357739Y-92768614D01*
X170510321Y-92619194D01*
X170689030Y-92502250D01*
X170887039Y-92422249D01*
X171096822Y-92382230D01*
X171310383Y-92383722D01*
X171310383Y-92383722D01*
G37*
G36*
X173850383Y-92383722D02*
X174059588Y-92426665D01*
X174256462Y-92509423D01*
X174433518Y-92628849D01*
X174584001Y-92780386D01*
X174702184Y-92958267D01*
X174783570Y-93155723D01*
X174824914Y-93364526D01*
X174824914Y-93364550D01*
X174825046Y-93365218D01*
X174821640Y-93609148D01*
X174821489Y-93609811D01*
X174821489Y-93609835D01*
X174774329Y-93817407D01*
X174687464Y-94012511D01*
X174564361Y-94187019D01*
X174409703Y-94334298D01*
X174229379Y-94448735D01*
X174030276Y-94525962D01*
X173819949Y-94563049D01*
X173606434Y-94558576D01*
X173397851Y-94512716D01*
X173202148Y-94427216D01*
X173026781Y-94305332D01*
X172878426Y-94151706D01*
X172762735Y-93972189D01*
X172684117Y-93773622D01*
X172645564Y-93563565D01*
X172648546Y-93350025D01*
X172692949Y-93141126D01*
X172777082Y-92944827D01*
X172897739Y-92768614D01*
X173050321Y-92619194D01*
X173229030Y-92502250D01*
X173427039Y-92422249D01*
X173636822Y-92382230D01*
X173850383Y-92383722D01*
X173850383Y-92383722D01*
G37*
G36*
X176390383Y-92383722D02*
X176599588Y-92426665D01*
X176796462Y-92509423D01*
X176973518Y-92628849D01*
X177124001Y-92780386D01*
X177242184Y-92958267D01*
X177323570Y-93155723D01*
X177364914Y-93364526D01*
X177364914Y-93364550D01*
X177365046Y-93365218D01*
X177361640Y-93609148D01*
X177361489Y-93609811D01*
X177361489Y-93609835D01*
X177314329Y-93817407D01*
X177227464Y-94012511D01*
X177104361Y-94187019D01*
X176949703Y-94334298D01*
X176769379Y-94448735D01*
X176570276Y-94525962D01*
X176359949Y-94563049D01*
X176146434Y-94558576D01*
X175937851Y-94512716D01*
X175742148Y-94427216D01*
X175566781Y-94305332D01*
X175418426Y-94151706D01*
X175302735Y-93972189D01*
X175224117Y-93773622D01*
X175185564Y-93563565D01*
X175188546Y-93350025D01*
X175232949Y-93141126D01*
X175317082Y-92944827D01*
X175437739Y-92768614D01*
X175590321Y-92619194D01*
X175769030Y-92502250D01*
X175967039Y-92422249D01*
X176176822Y-92382230D01*
X176390383Y-92383722D01*
X176390383Y-92383722D01*
G37*
G36*
X179778000Y-94434000D02*
X177854000Y-94434000D01*
X177854000Y-92510000D01*
X179778000Y-92510000D01*
X179778000Y-94434000D01*
X179778000Y-94434000D01*
G37*
G36*
X135344000Y-93633000D02*
X132944000Y-93633000D01*
X132944000Y-91533000D01*
X135344000Y-91533000D01*
X135344000Y-93633000D01*
X135344000Y-93633000D01*
G37*
G36*
X139344000Y-93633000D02*
X136944000Y-93633000D01*
X136944000Y-91533000D01*
X139344000Y-91533000D01*
X139344000Y-93633000D01*
X139344000Y-93633000D01*
G37*
G36*
X137925518Y-88720084D02*
X137925541Y-88720091D01*
X137925616Y-88720099D01*
X138046722Y-88757587D01*
X138158241Y-88817885D01*
X138255923Y-88898695D01*
X138336049Y-88996939D01*
X138395567Y-89108875D01*
X138432209Y-89230240D01*
X138444580Y-89356411D01*
X138444580Y-89967663D01*
X138444546Y-89972603D01*
X138444545Y-89972611D01*
X138444517Y-89976659D01*
X138430385Y-90102644D01*
X138392052Y-90223486D01*
X138330977Y-90334580D01*
X138249487Y-90431696D01*
X138150686Y-90511134D01*
X138038337Y-90569869D01*
X137916719Y-90605663D01*
X137916658Y-90605669D01*
X137916629Y-90605677D01*
X137790470Y-90617158D01*
X137664482Y-90603916D01*
X137664459Y-90603909D01*
X137664384Y-90603901D01*
X137543278Y-90566413D01*
X137431759Y-90506115D01*
X137334077Y-90425305D01*
X137253951Y-90327061D01*
X137246893Y-90313788D01*
X137231367Y-90292485D01*
X137209113Y-90275263D01*
X137182943Y-90264923D01*
X137154928Y-90262282D01*
X137127286Y-90267552D01*
X137102207Y-90280313D01*
X137081676Y-90299556D01*
X137073576Y-90311663D01*
X137060977Y-90334580D01*
X136979487Y-90431696D01*
X136880686Y-90511134D01*
X136768337Y-90569869D01*
X136646719Y-90605663D01*
X136646658Y-90605669D01*
X136646629Y-90605677D01*
X136520470Y-90617158D01*
X136394482Y-90603916D01*
X136394459Y-90603909D01*
X136394384Y-90603901D01*
X136273278Y-90566413D01*
X136161759Y-90506115D01*
X136064077Y-90425305D01*
X135983951Y-90327061D01*
X135976893Y-90313788D01*
X135961367Y-90292485D01*
X135939113Y-90275263D01*
X135912943Y-90264923D01*
X135884928Y-90262282D01*
X135857286Y-90267552D01*
X135832207Y-90280313D01*
X135811676Y-90299556D01*
X135803576Y-90311663D01*
X135790977Y-90334580D01*
X135709487Y-90431696D01*
X135610686Y-90511134D01*
X135498337Y-90569869D01*
X135376719Y-90605663D01*
X135376658Y-90605669D01*
X135376629Y-90605677D01*
X135250470Y-90617158D01*
X135124482Y-90603916D01*
X135124459Y-90603909D01*
X135124384Y-90603901D01*
X135003278Y-90566413D01*
X134891759Y-90506115D01*
X134794077Y-90425305D01*
X134713951Y-90327061D01*
X134654433Y-90215125D01*
X134617791Y-90093760D01*
X134605420Y-89967589D01*
X134605420Y-89356337D01*
X134605454Y-89351397D01*
X134605455Y-89351389D01*
X134605483Y-89347341D01*
X134619615Y-89221356D01*
X134657948Y-89100514D01*
X134719023Y-88989420D01*
X134800513Y-88892304D01*
X134899314Y-88812866D01*
X135011663Y-88754131D01*
X135133281Y-88718337D01*
X135133342Y-88718331D01*
X135133371Y-88718323D01*
X135259530Y-88706842D01*
X135385518Y-88720084D01*
X135385541Y-88720091D01*
X135385616Y-88720099D01*
X135506722Y-88757587D01*
X135618241Y-88817885D01*
X135715923Y-88898695D01*
X135796049Y-88996939D01*
X135803107Y-89010212D01*
X135818633Y-89031515D01*
X135840887Y-89048737D01*
X135867057Y-89059077D01*
X135895072Y-89061718D01*
X135922714Y-89056448D01*
X135947793Y-89043687D01*
X135968324Y-89024444D01*
X135976424Y-89012337D01*
X135989023Y-88989420D01*
X136070513Y-88892304D01*
X136169314Y-88812866D01*
X136281663Y-88754131D01*
X136403281Y-88718337D01*
X136403342Y-88718331D01*
X136403371Y-88718323D01*
X136529530Y-88706842D01*
X136655518Y-88720084D01*
X136655541Y-88720091D01*
X136655616Y-88720099D01*
X136776722Y-88757587D01*
X136888241Y-88817885D01*
X136985923Y-88898695D01*
X137066049Y-88996939D01*
X137073107Y-89010212D01*
X137088633Y-89031515D01*
X137110887Y-89048737D01*
X137137057Y-89059077D01*
X137165072Y-89061718D01*
X137192714Y-89056448D01*
X137217793Y-89043687D01*
X137238324Y-89024444D01*
X137246424Y-89012337D01*
X137259023Y-88989420D01*
X137340513Y-88892304D01*
X137439314Y-88812866D01*
X137551663Y-88754131D01*
X137673281Y-88718337D01*
X137673342Y-88718331D01*
X137673371Y-88718323D01*
X137799530Y-88706842D01*
X137925518Y-88720084D01*
X137925518Y-88720084D01*
G37*
M02*
