G04 #@! TF.FileFunction,Copper,L1,Top,Signal*
%FSLAX46Y46*%
G04 Gerber Fmt 4.6, Leading zero omitted, Abs format (unit mm)*
G04 Created by KiCad (PCBNEW 4.0.2-stable) date 23-Jul-16 5:25:39 PM*
%MOMM*%
G01*
G04 APERTURE LIST*
%ADD10C,0.100000*%
%ADD11R,1.524000X1.524000*%
%ADD12C,1.778000*%
%ADD13R,1.300000X1.300000*%
%ADD14C,1.300000*%
%ADD15R,1.500000X1.250000*%
%ADD16R,3.657600X2.032000*%
%ADD17R,1.016000X2.032000*%
%ADD18R,1.727200X1.727200*%
%ADD19O,1.727200X1.727200*%
%ADD20R,2.032000X2.032000*%
%ADD21O,2.032000X2.032000*%
%ADD22C,2.032000*%
%ADD23R,2.000000X1.700000*%
%ADD24O,0.899160X1.501140*%
%ADD25C,0.600000*%
%ADD26C,0.250000*%
G04 APERTURE END LIST*
D10*
D11*
X178816000Y-93472000D03*
D12*
X176276000Y-93472000D03*
X173736000Y-93472000D03*
X171196000Y-93472000D03*
X171196000Y-96012000D03*
X173736000Y-96012000D03*
X176276000Y-96012000D03*
X178816000Y-96012000D03*
D13*
X172974000Y-125730000D03*
D14*
X170974000Y-125730000D03*
D15*
X173462000Y-115316000D03*
X170962000Y-115316000D03*
X173462000Y-118491000D03*
X170962000Y-118491000D03*
X178542000Y-115316000D03*
X176042000Y-115316000D03*
X178542000Y-118491000D03*
X176042000Y-118491000D03*
D16*
X173736000Y-104902000D03*
D17*
X173736000Y-111506000D03*
X176022000Y-111506000D03*
X171450000Y-111506000D03*
D18*
X136779000Y-130810000D03*
D19*
X134239000Y-130810000D03*
X136779000Y-128270000D03*
X134239000Y-128270000D03*
X136779000Y-125730000D03*
X134239000Y-125730000D03*
X136779000Y-123190000D03*
X134239000Y-123190000D03*
X136779000Y-120650000D03*
X134239000Y-120650000D03*
X136779000Y-118110000D03*
X134239000Y-118110000D03*
X136779000Y-115570000D03*
X134239000Y-115570000D03*
X136779000Y-113030000D03*
X134239000Y-113030000D03*
X136779000Y-110490000D03*
X134239000Y-110490000D03*
X136779000Y-107950000D03*
X134239000Y-107950000D03*
X136779000Y-105410000D03*
X134239000Y-105410000D03*
X136779000Y-102870000D03*
X134239000Y-102870000D03*
X136779000Y-100330000D03*
X134239000Y-100330000D03*
X136779000Y-97790000D03*
X134239000Y-97790000D03*
X136779000Y-95250000D03*
X134239000Y-95250000D03*
D18*
X159893000Y-95250000D03*
D19*
X162433000Y-95250000D03*
X159893000Y-97790000D03*
X162433000Y-97790000D03*
X159893000Y-100330000D03*
X162433000Y-100330000D03*
X159893000Y-102870000D03*
X162433000Y-102870000D03*
X159893000Y-105410000D03*
X162433000Y-105410000D03*
X159893000Y-107950000D03*
X162433000Y-107950000D03*
X159893000Y-110490000D03*
X162433000Y-110490000D03*
X159893000Y-113030000D03*
X162433000Y-113030000D03*
X159893000Y-115570000D03*
X162433000Y-115570000D03*
X159893000Y-118110000D03*
X162433000Y-118110000D03*
X159893000Y-120650000D03*
X162433000Y-120650000D03*
X159893000Y-123190000D03*
X162433000Y-123190000D03*
X159893000Y-125730000D03*
X162433000Y-125730000D03*
X159893000Y-128270000D03*
X162433000Y-128270000D03*
X159893000Y-130810000D03*
X162433000Y-130810000D03*
D20*
X176149000Y-131699000D03*
D21*
X176149000Y-129159000D03*
D22*
X178689000Y-129159000D03*
D21*
X178689000Y-131699000D03*
D23*
X138144000Y-92583000D03*
X134144000Y-92583000D03*
D24*
X136525000Y-89662000D03*
X137795000Y-89662000D03*
X135255000Y-89662000D03*
D20*
X165608000Y-130810000D03*
D21*
X165608000Y-128270000D03*
D12*
X140970000Y-95250000D03*
X140970000Y-97790000D03*
X140970000Y-100330000D03*
X140970000Y-102870000D03*
X140970000Y-105410000D03*
X140970000Y-107950000D03*
X140970000Y-110490000D03*
X140970000Y-113030000D03*
X140970000Y-115570000D03*
X140970000Y-118110000D03*
X140970000Y-120650000D03*
X140970000Y-123190000D03*
X140970000Y-125730000D03*
X140970000Y-128270000D03*
X140970000Y-130810000D03*
X156210000Y-130810000D03*
X156210000Y-128270000D03*
X156210000Y-125730000D03*
X156210000Y-123190000D03*
X156210000Y-120650000D03*
X156210000Y-118110000D03*
X156210000Y-115570000D03*
X156210000Y-113030000D03*
X156210000Y-110490000D03*
X156210000Y-107950000D03*
X156210000Y-105410000D03*
X156210000Y-102870000D03*
X156210000Y-100330000D03*
X156210000Y-97790000D03*
X156210000Y-95250000D03*
X177546000Y-123952000D03*
X177546000Y-103886000D03*
D25*
X177165000Y-97663000D03*
X176022000Y-120396000D03*
X171450000Y-113665000D03*
X146685000Y-103886000D03*
X144662980Y-101614884D03*
X135636000Y-93853000D03*
X153354003Y-94788952D03*
X180467000Y-98298000D03*
D26*
X172974000Y-130937000D02*
X172974000Y-130810000D01*
X172974000Y-130810000D02*
X172974000Y-125730000D01*
X165608000Y-130810000D02*
X166874000Y-130810000D01*
X166874000Y-130810000D02*
X172974000Y-130810000D01*
X172974000Y-123571000D02*
X172974000Y-125730000D01*
X172212000Y-122809000D02*
X172974000Y-123571000D01*
X169926000Y-122809000D02*
X172212000Y-122809000D01*
X167640000Y-120523000D02*
X169926000Y-122809000D01*
X167640000Y-103378000D02*
X167640000Y-120523000D01*
X170053000Y-100965000D02*
X167640000Y-103378000D01*
X173863000Y-100965000D02*
X170053000Y-100965000D01*
X177165000Y-97663000D02*
X173863000Y-100965000D01*
X176149000Y-131699000D02*
X173736000Y-131699000D01*
X173736000Y-131699000D02*
X172974000Y-130937000D01*
X176042000Y-118491000D02*
X176042000Y-120376000D01*
X176042000Y-120376000D02*
X176022000Y-120396000D01*
X176042000Y-118491000D02*
X176042000Y-115316000D01*
X171450000Y-111506000D02*
X171450000Y-113665000D01*
X171450000Y-113665000D02*
X171450000Y-114828000D01*
X170962000Y-118491000D02*
X170962000Y-115316000D01*
X170962000Y-115316000D02*
X171450000Y-114828000D01*
X178689000Y-129159000D02*
X179705000Y-119654000D01*
X179705000Y-119654000D02*
X178542000Y-118491000D01*
X178542000Y-115316000D02*
X178542000Y-118491000D01*
X176022000Y-111506000D02*
X177673000Y-111506000D01*
X178542000Y-112375000D02*
X178542000Y-115316000D01*
X177673000Y-111506000D02*
X178542000Y-112375000D01*
X155554867Y-93472000D02*
X146685000Y-102341867D01*
X146685000Y-103461736D02*
X146685000Y-103886000D01*
X146685000Y-102341867D02*
X146685000Y-103461736D01*
X171196000Y-93472000D02*
X155554867Y-93472000D01*
X140970000Y-130810000D02*
X136779000Y-130810000D01*
X136779000Y-130810000D02*
X134239000Y-130810000D01*
X134239000Y-128270000D02*
X136779000Y-128270000D01*
X136779000Y-128270000D02*
X140970000Y-128270000D01*
X134239000Y-125730000D02*
X136779000Y-125730000D01*
X140970000Y-125730000D02*
X136779000Y-125730000D01*
X174611988Y-91807988D02*
X154469876Y-91807988D01*
X154469876Y-91807988D02*
X144962979Y-101314885D01*
X144962979Y-101314885D02*
X144662980Y-101614884D01*
X176276000Y-93472000D02*
X174611988Y-91807988D01*
X176276000Y-93472000D02*
X174950001Y-93472000D01*
X134239000Y-123190000D02*
X136779000Y-123190000D01*
X136779000Y-123190000D02*
X140970000Y-123190000D01*
X140970000Y-120650000D02*
X136779000Y-120650000D01*
X136779000Y-120650000D02*
X134239000Y-120650000D01*
X134239000Y-118110000D02*
X136779000Y-118110000D01*
X136779000Y-118110000D02*
X140970000Y-118110000D01*
X140970000Y-115570000D02*
X136779000Y-115570000D01*
X136779000Y-115570000D02*
X134239000Y-115570000D01*
X134239000Y-113030000D02*
X136779000Y-113030000D01*
X136779000Y-113030000D02*
X140970000Y-113030000D01*
X140970000Y-110490000D02*
X136779000Y-110490000D01*
X136779000Y-110490000D02*
X134239000Y-110490000D01*
X134239000Y-107950000D02*
X136779000Y-107950000D01*
X136779000Y-107950000D02*
X140970000Y-107950000D01*
X148272500Y-104076500D02*
X146939000Y-105410000D01*
X146939000Y-105410000D02*
X140970000Y-105410000D01*
X148272500Y-101390778D02*
X148272500Y-104076500D01*
X171196000Y-96012000D02*
X169219999Y-94035999D01*
X169219999Y-94035999D02*
X155627279Y-94035999D01*
X155627279Y-94035999D02*
X148272500Y-101390778D01*
X140970000Y-105410000D02*
X136779000Y-105410000D01*
X136779000Y-105410000D02*
X134239000Y-105410000D01*
X135636000Y-93853000D02*
X134366000Y-92583000D01*
X134366000Y-92583000D02*
X134144000Y-92583000D01*
X136525000Y-89662000D02*
X136525000Y-91567000D01*
X135509000Y-92583000D02*
X134144000Y-92583000D01*
X136525000Y-91567000D02*
X135509000Y-92583000D01*
X134239000Y-100330000D02*
X136779000Y-100330000D01*
X136779000Y-100330000D02*
X140970000Y-100330000D01*
X140970000Y-97790000D02*
X136779000Y-97790000D01*
X136779000Y-97790000D02*
X134239000Y-97790000D01*
X134239000Y-95250000D02*
X136779000Y-95250000D01*
X136779000Y-95250000D02*
X140970000Y-95250000D01*
X162433000Y-95250000D02*
X159893000Y-95250000D01*
X159893000Y-95250000D02*
X156210000Y-95250000D01*
X162433000Y-100330000D02*
X159893000Y-100330000D01*
X159893000Y-100330000D02*
X156210000Y-100330000D01*
X156210000Y-105410000D02*
X159893000Y-105410000D01*
X159893000Y-105410000D02*
X162433000Y-105410000D01*
X162433000Y-107950000D02*
X159893000Y-107950000D01*
X159893000Y-107950000D02*
X156210000Y-107950000D01*
X156210000Y-110490000D02*
X159893000Y-110490000D01*
X159893000Y-110490000D02*
X162433000Y-110490000D01*
X162433000Y-113030000D02*
X159893000Y-113030000D01*
X159893000Y-113030000D02*
X156210000Y-113030000D01*
X156210000Y-115570000D02*
X159893000Y-115570000D01*
X159893000Y-115570000D02*
X162433000Y-115570000D01*
X162433000Y-118110000D02*
X159893000Y-118110000D01*
X159893000Y-118110000D02*
X156210000Y-118110000D01*
X156210000Y-120650000D02*
X159893000Y-120650000D01*
X159893000Y-120650000D02*
X162433000Y-120650000D01*
X162433000Y-123190000D02*
X159893000Y-123190000D01*
X159893000Y-123190000D02*
X156210000Y-123190000D01*
X156210000Y-125730000D02*
X159893000Y-125730000D01*
X159893000Y-125730000D02*
X162433000Y-125730000D01*
X153654002Y-94488953D02*
X153354003Y-94788952D01*
X172521999Y-92257999D02*
X155884956Y-92257999D01*
X155884956Y-92257999D02*
X153654002Y-94488953D01*
X173736000Y-93472000D02*
X172521999Y-92257999D01*
X156210000Y-130810000D02*
X159893000Y-130810000D01*
X159893000Y-130810000D02*
X162433000Y-130810000D01*
X177927000Y-124333000D02*
X177546000Y-123952000D01*
X180721000Y-90932000D02*
X180721000Y-98044000D01*
X137922000Y-89535000D02*
X179324000Y-89535000D01*
X180721000Y-90932000D02*
X179324000Y-89535000D01*
X180721000Y-98044000D02*
X180467000Y-98298000D01*
X137922000Y-89535000D02*
X137795000Y-89662000D01*
X137795000Y-89662000D02*
X137795000Y-92234000D01*
X137795000Y-92234000D02*
X138144000Y-92583000D01*
X156210000Y-102870000D02*
X159893000Y-102870000D01*
X162433000Y-102870000D02*
X159893000Y-102870000D01*
X176149000Y-129159000D02*
X176149000Y-125349000D01*
X173462000Y-122662000D02*
X173462000Y-118491000D01*
X176149000Y-125349000D02*
X173462000Y-122662000D01*
X173736000Y-104902000D02*
X173736000Y-104267000D01*
X173462000Y-118491000D02*
X173462000Y-115316000D01*
X173462000Y-115316000D02*
X173736000Y-115042000D01*
X173736000Y-115042000D02*
X173736000Y-111506000D01*
X173736000Y-104902000D02*
X173736000Y-111506000D01*
X162433000Y-128270000D02*
X163654314Y-128270000D01*
X163654314Y-128270000D02*
X165608000Y-128270000D01*
X162433000Y-128270000D02*
X159893000Y-128270000D01*
X159893000Y-128270000D02*
X156210000Y-128270000D01*
M02*
