G04 #@! TF.FileFunction,Legend,Top*
%FSLAX46Y46*%
G04 Gerber Fmt 4.6, Leading zero omitted, Abs format (unit mm)*
G04 Created by KiCad (PCBNEW 4.0.2-stable) date 12-Jun-16 1:17:00 PM*
%MOMM*%
G01*
G04 APERTURE LIST*
%ADD10C,0.100000*%
%ADD11C,0.150000*%
G04 APERTURE END LIST*
D10*
D11*
X171899000Y-128229000D02*
X171899000Y-123231000D01*
X171759000Y-128221000D02*
X171759000Y-125884000D01*
X171759000Y-125576000D02*
X171759000Y-123239000D01*
X171619000Y-128205000D02*
X171619000Y-126203000D01*
X171619000Y-125257000D02*
X171619000Y-123255000D01*
X171479000Y-128181000D02*
X171479000Y-126350000D01*
X171479000Y-125110000D02*
X171479000Y-123279000D01*
X171339000Y-128148000D02*
X171339000Y-126442000D01*
X171339000Y-125018000D02*
X171339000Y-123312000D01*
X171199000Y-128107000D02*
X171199000Y-126498000D01*
X171199000Y-124962000D02*
X171199000Y-123353000D01*
X171059000Y-128057000D02*
X171059000Y-126525000D01*
X171059000Y-124935000D02*
X171059000Y-123403000D01*
X170919000Y-127996000D02*
X170919000Y-126528000D01*
X170919000Y-124932000D02*
X170919000Y-123464000D01*
X170779000Y-127926000D02*
X170779000Y-126506000D01*
X170779000Y-124954000D02*
X170779000Y-123534000D01*
X170639000Y-127844000D02*
X170639000Y-126456000D01*
X170639000Y-125004000D02*
X170639000Y-123616000D01*
X170499000Y-127749000D02*
X170499000Y-126374000D01*
X170499000Y-125086000D02*
X170499000Y-123711000D01*
X170359000Y-127638000D02*
X170359000Y-126242000D01*
X170359000Y-125218000D02*
X170359000Y-123822000D01*
X170219000Y-127510000D02*
X170219000Y-125995000D01*
X170219000Y-125465000D02*
X170219000Y-123950000D01*
X170079000Y-127361000D02*
X170079000Y-124099000D01*
X169939000Y-127182000D02*
X169939000Y-124278000D01*
X169799000Y-126963000D02*
X169799000Y-124497000D01*
X169659000Y-126674000D02*
X169659000Y-124786000D01*
X169519000Y-126202000D02*
X169519000Y-125258000D01*
X171774000Y-125730000D02*
G75*
G03X171774000Y-125730000I-800000J0D01*
G01*
X174511500Y-125730000D02*
G75*
G03X174511500Y-125730000I-2537500J0D01*
G01*
X171712000Y-116166000D02*
X172712000Y-116166000D01*
X172712000Y-114466000D02*
X171712000Y-114466000D01*
X171712000Y-119341000D02*
X172712000Y-119341000D01*
X172712000Y-117641000D02*
X171712000Y-117641000D01*
X176792000Y-116166000D02*
X177792000Y-116166000D01*
X177792000Y-114466000D02*
X176792000Y-114466000D01*
X176792000Y-119341000D02*
X177792000Y-119341000D01*
X177792000Y-117641000D02*
X176792000Y-117641000D01*
X170180000Y-109728000D02*
X170180000Y-112776000D01*
X170180000Y-112776000D02*
X177292000Y-112776000D01*
X177292000Y-112776000D02*
X177292000Y-109728000D01*
X170180000Y-106680000D02*
X170180000Y-105918000D01*
X170180000Y-105918000D02*
X171704000Y-103632000D01*
X171704000Y-103632000D02*
X175768000Y-103632000D01*
X175768000Y-103632000D02*
X177292000Y-105918000D01*
X177292000Y-105918000D02*
X177292000Y-106680000D01*
X181356000Y-90932000D02*
X166116000Y-90932000D01*
X166116000Y-90932000D02*
X166116000Y-121412000D01*
X166116000Y-121412000D02*
X181356000Y-121412000D01*
X181356000Y-121412000D02*
X181356000Y-90932000D01*
X146050000Y-92710000D02*
X146050000Y-96520000D01*
X146050000Y-96520000D02*
X151130000Y-96520000D01*
X151130000Y-96520000D02*
X151130000Y-92710000D01*
X151130000Y-92710000D02*
X146050000Y-92710000D01*
X146050000Y-92710000D02*
X147320000Y-92710000D01*
X151130000Y-129540000D02*
X144780000Y-129540000D01*
X144780000Y-129540000D02*
X144780000Y-137160000D01*
X144780000Y-137160000D02*
X152400000Y-137160000D01*
X152400000Y-137160000D02*
X152400000Y-129540000D01*
X152400000Y-129540000D02*
X151130000Y-129540000D01*
X157480000Y-91440000D02*
X139700000Y-91440000D01*
X139700000Y-91440000D02*
X139700000Y-134620000D01*
X139700000Y-134620000D02*
X157480000Y-134620000D01*
X157480000Y-134620000D02*
X157480000Y-91440000D01*
X132969000Y-93980000D02*
X132969000Y-132080000D01*
X138049000Y-129540000D02*
X138049000Y-93980000D01*
X132969000Y-93980000D02*
X138049000Y-93980000D01*
X132969000Y-132080000D02*
X135509000Y-132080000D01*
X136779000Y-132360000D02*
X138329000Y-132360000D01*
X135509000Y-132080000D02*
X135509000Y-129540000D01*
X135509000Y-129540000D02*
X138049000Y-129540000D01*
X138329000Y-132360000D02*
X138329000Y-130810000D01*
X163703000Y-132080000D02*
X163703000Y-93980000D01*
X158623000Y-96520000D02*
X158623000Y-132080000D01*
X163703000Y-132080000D02*
X158623000Y-132080000D01*
X163703000Y-93980000D02*
X161163000Y-93980000D01*
X159893000Y-93700000D02*
X158343000Y-93700000D01*
X161163000Y-93980000D02*
X161163000Y-96520000D01*
X161163000Y-96520000D02*
X158623000Y-96520000D01*
X158343000Y-93700000D02*
X158343000Y-95250000D01*
X174879000Y-130429000D02*
X174879000Y-127889000D01*
X174599000Y-133249000D02*
X174599000Y-131699000D01*
X174879000Y-130429000D02*
X177419000Y-130429000D01*
X177699000Y-131699000D02*
X177699000Y-133249000D01*
X177699000Y-133249000D02*
X174599000Y-133249000D01*
X177419000Y-130429000D02*
X177419000Y-127889000D01*
X177419000Y-127889000D02*
X174879000Y-127889000D01*
X180975000Y-130429000D02*
X180975000Y-132969000D01*
X181255000Y-127609000D02*
X181255000Y-129159000D01*
X180975000Y-130429000D02*
X178435000Y-130429000D01*
X178155000Y-129159000D02*
X178155000Y-127609000D01*
X178155000Y-127609000D02*
X181255000Y-127609000D01*
X178435000Y-130429000D02*
X178435000Y-132969000D01*
X178435000Y-132969000D02*
X180975000Y-132969000D01*
X135144000Y-91508000D02*
X137144000Y-91508000D01*
X137144000Y-93658000D02*
X135144000Y-93658000D01*
X134825000Y-91362000D02*
X138225000Y-91362000D01*
X134827944Y-91359056D02*
G75*
G02X136525000Y-87262000I1697056J1697056D01*
G01*
X138222056Y-91359056D02*
G75*
G03X136525000Y-87262000I-1697056J1697056D01*
G01*
X171807334Y-129887143D02*
X171759715Y-129934762D01*
X171616858Y-129982381D01*
X171521620Y-129982381D01*
X171378762Y-129934762D01*
X171283524Y-129839524D01*
X171235905Y-129744286D01*
X171188286Y-129553810D01*
X171188286Y-129410952D01*
X171235905Y-129220476D01*
X171283524Y-129125238D01*
X171378762Y-129030000D01*
X171521620Y-128982381D01*
X171616858Y-128982381D01*
X171759715Y-129030000D01*
X171807334Y-129077619D01*
X172759715Y-129982381D02*
X172188286Y-129982381D01*
X172474000Y-129982381D02*
X172474000Y-128982381D01*
X172378762Y-129125238D01*
X172283524Y-129220476D01*
X172188286Y-129268095D01*
X172045334Y-117773143D02*
X171997715Y-117820762D01*
X171854858Y-117868381D01*
X171759620Y-117868381D01*
X171616762Y-117820762D01*
X171521524Y-117725524D01*
X171473905Y-117630286D01*
X171426286Y-117439810D01*
X171426286Y-117296952D01*
X171473905Y-117106476D01*
X171521524Y-117011238D01*
X171616762Y-116916000D01*
X171759620Y-116868381D01*
X171854858Y-116868381D01*
X171997715Y-116916000D01*
X172045334Y-116963619D01*
X172426286Y-116963619D02*
X172473905Y-116916000D01*
X172569143Y-116868381D01*
X172807239Y-116868381D01*
X172902477Y-116916000D01*
X172950096Y-116963619D01*
X172997715Y-117058857D01*
X172997715Y-117154095D01*
X172950096Y-117296952D01*
X172378667Y-117868381D01*
X172997715Y-117868381D01*
X172045334Y-120948143D02*
X171997715Y-120995762D01*
X171854858Y-121043381D01*
X171759620Y-121043381D01*
X171616762Y-120995762D01*
X171521524Y-120900524D01*
X171473905Y-120805286D01*
X171426286Y-120614810D01*
X171426286Y-120471952D01*
X171473905Y-120281476D01*
X171521524Y-120186238D01*
X171616762Y-120091000D01*
X171759620Y-120043381D01*
X171854858Y-120043381D01*
X171997715Y-120091000D01*
X172045334Y-120138619D01*
X172378667Y-120043381D02*
X172997715Y-120043381D01*
X172664381Y-120424333D01*
X172807239Y-120424333D01*
X172902477Y-120471952D01*
X172950096Y-120519571D01*
X172997715Y-120614810D01*
X172997715Y-120852905D01*
X172950096Y-120948143D01*
X172902477Y-120995762D01*
X172807239Y-121043381D01*
X172521524Y-121043381D01*
X172426286Y-120995762D01*
X172378667Y-120948143D01*
X177125334Y-117773143D02*
X177077715Y-117820762D01*
X176934858Y-117868381D01*
X176839620Y-117868381D01*
X176696762Y-117820762D01*
X176601524Y-117725524D01*
X176553905Y-117630286D01*
X176506286Y-117439810D01*
X176506286Y-117296952D01*
X176553905Y-117106476D01*
X176601524Y-117011238D01*
X176696762Y-116916000D01*
X176839620Y-116868381D01*
X176934858Y-116868381D01*
X177077715Y-116916000D01*
X177125334Y-116963619D01*
X177982477Y-117201714D02*
X177982477Y-117868381D01*
X177744381Y-116820762D02*
X177506286Y-117535048D01*
X178125334Y-117535048D01*
X177125334Y-120948143D02*
X177077715Y-120995762D01*
X176934858Y-121043381D01*
X176839620Y-121043381D01*
X176696762Y-120995762D01*
X176601524Y-120900524D01*
X176553905Y-120805286D01*
X176506286Y-120614810D01*
X176506286Y-120471952D01*
X176553905Y-120281476D01*
X176601524Y-120186238D01*
X176696762Y-120091000D01*
X176839620Y-120043381D01*
X176934858Y-120043381D01*
X177077715Y-120091000D01*
X177125334Y-120138619D01*
X178030096Y-120043381D02*
X177553905Y-120043381D01*
X177506286Y-120519571D01*
X177553905Y-120471952D01*
X177649143Y-120424333D01*
X177887239Y-120424333D01*
X177982477Y-120471952D01*
X178030096Y-120519571D01*
X178077715Y-120614810D01*
X178077715Y-120852905D01*
X178030096Y-120948143D01*
X177982477Y-120995762D01*
X177887239Y-121043381D01*
X177649143Y-121043381D01*
X177553905Y-120995762D01*
X177506286Y-120948143D01*
X172759810Y-107894381D02*
X172759810Y-106894381D01*
X173807429Y-107799143D02*
X173759810Y-107846762D01*
X173616953Y-107894381D01*
X173521715Y-107894381D01*
X173378857Y-107846762D01*
X173283619Y-107751524D01*
X173236000Y-107656286D01*
X173188381Y-107465810D01*
X173188381Y-107322952D01*
X173236000Y-107132476D01*
X173283619Y-107037238D01*
X173378857Y-106942000D01*
X173521715Y-106894381D01*
X173616953Y-106894381D01*
X173759810Y-106942000D01*
X173807429Y-106989619D01*
X174759810Y-107894381D02*
X174188381Y-107894381D01*
X174474095Y-107894381D02*
X174474095Y-106894381D01*
X174378857Y-107037238D01*
X174283619Y-107132476D01*
X174188381Y-107180095D01*
X173188381Y-106933905D02*
X173997905Y-106933905D01*
X174093143Y-106886286D01*
X174140762Y-106838667D01*
X174188381Y-106743429D01*
X174188381Y-106552952D01*
X174140762Y-106457714D01*
X174093143Y-106410095D01*
X173997905Y-106362476D01*
X173188381Y-106362476D01*
X174188381Y-105362476D02*
X174188381Y-105933905D01*
X174188381Y-105648191D02*
X173188381Y-105648191D01*
X173331238Y-105743429D01*
X173426476Y-105838667D01*
X173474095Y-105933905D01*
X147828095Y-113752381D02*
X147828095Y-114561905D01*
X147875714Y-114657143D01*
X147923333Y-114704762D01*
X148018571Y-114752381D01*
X148209048Y-114752381D01*
X148304286Y-114704762D01*
X148351905Y-114657143D01*
X148399524Y-114561905D01*
X148399524Y-113752381D01*
X148828095Y-113847619D02*
X148875714Y-113800000D01*
X148970952Y-113752381D01*
X149209048Y-113752381D01*
X149304286Y-113800000D01*
X149351905Y-113847619D01*
X149399524Y-113942857D01*
X149399524Y-114038095D01*
X149351905Y-114180952D01*
X148780476Y-114752381D01*
X149399524Y-114752381D01*
X136040905Y-136362381D02*
X136040905Y-135362381D01*
X136421858Y-135362381D01*
X136517096Y-135410000D01*
X136564715Y-135457619D01*
X136612334Y-135552857D01*
X136612334Y-135695714D01*
X136564715Y-135790952D01*
X136517096Y-135838571D01*
X136421858Y-135886190D01*
X136040905Y-135886190D01*
X137564715Y-136362381D02*
X136993286Y-136362381D01*
X137279000Y-136362381D02*
X137279000Y-135362381D01*
X137183762Y-135505238D01*
X137088524Y-135600476D01*
X136993286Y-135648095D01*
X159154905Y-90602381D02*
X159154905Y-89602381D01*
X159535858Y-89602381D01*
X159631096Y-89650000D01*
X159678715Y-89697619D01*
X159726334Y-89792857D01*
X159726334Y-89935714D01*
X159678715Y-90030952D01*
X159631096Y-90078571D01*
X159535858Y-90126190D01*
X159154905Y-90126190D01*
X160107286Y-89697619D02*
X160154905Y-89650000D01*
X160250143Y-89602381D01*
X160488239Y-89602381D01*
X160583477Y-89650000D01*
X160631096Y-89697619D01*
X160678715Y-89792857D01*
X160678715Y-89888095D01*
X160631096Y-90030952D01*
X160059667Y-90602381D01*
X160678715Y-90602381D01*
X134056381Y-90717666D02*
X133580190Y-91051000D01*
X134056381Y-91289095D02*
X133056381Y-91289095D01*
X133056381Y-90908142D01*
X133104000Y-90812904D01*
X133151619Y-90765285D01*
X133246857Y-90717666D01*
X133389714Y-90717666D01*
X133484952Y-90765285D01*
X133532571Y-90812904D01*
X133580190Y-90908142D01*
X133580190Y-91289095D01*
X134056381Y-89765285D02*
X134056381Y-90336714D01*
X134056381Y-90051000D02*
X133056381Y-90051000D01*
X133199238Y-90146238D01*
X133294476Y-90241476D01*
X133342095Y-90336714D01*
X134493095Y-85114381D02*
X134493095Y-85923905D01*
X134540714Y-86019143D01*
X134588333Y-86066762D01*
X134683571Y-86114381D01*
X134874048Y-86114381D01*
X134969286Y-86066762D01*
X135016905Y-86019143D01*
X135064524Y-85923905D01*
X135064524Y-85114381D01*
X135445476Y-85114381D02*
X136064524Y-85114381D01*
X135731190Y-85495333D01*
X135874048Y-85495333D01*
X135969286Y-85542952D01*
X136016905Y-85590571D01*
X136064524Y-85685810D01*
X136064524Y-85923905D01*
X136016905Y-86019143D01*
X135969286Y-86066762D01*
X135874048Y-86114381D01*
X135588333Y-86114381D01*
X135493095Y-86066762D01*
X135445476Y-86019143D01*
M02*
