G04 #@! TF.FileFunction,Copper,L2,Bot,Signal*
%FSLAX46Y46*%
G04 Gerber Fmt 4.6, Leading zero omitted, Abs format (unit mm)*
G04 Created by KiCad (PCBNEW 4.0.2-stable) date 23-Jul-16 5:25:39 PM*
%MOMM*%
G01*
G04 APERTURE LIST*
%ADD10C,0.100000*%
%ADD11R,1.524000X1.524000*%
%ADD12C,1.778000*%
%ADD13R,1.300000X1.300000*%
%ADD14C,1.300000*%
%ADD15R,1.727200X1.727200*%
%ADD16O,1.727200X1.727200*%
%ADD17R,2.032000X2.032000*%
%ADD18O,2.032000X2.032000*%
%ADD19C,2.032000*%
%ADD20O,0.899160X1.501140*%
%ADD21C,0.600000*%
%ADD22C,0.250000*%
%ADD23C,0.254000*%
G04 APERTURE END LIST*
D10*
D11*
X178816000Y-93472000D03*
D12*
X176276000Y-93472000D03*
X173736000Y-93472000D03*
X171196000Y-93472000D03*
X171196000Y-96012000D03*
X173736000Y-96012000D03*
X176276000Y-96012000D03*
X178816000Y-96012000D03*
D13*
X172974000Y-125730000D03*
D14*
X170974000Y-125730000D03*
D15*
X136779000Y-130810000D03*
D16*
X134239000Y-130810000D03*
X136779000Y-128270000D03*
X134239000Y-128270000D03*
X136779000Y-125730000D03*
X134239000Y-125730000D03*
X136779000Y-123190000D03*
X134239000Y-123190000D03*
X136779000Y-120650000D03*
X134239000Y-120650000D03*
X136779000Y-118110000D03*
X134239000Y-118110000D03*
X136779000Y-115570000D03*
X134239000Y-115570000D03*
X136779000Y-113030000D03*
X134239000Y-113030000D03*
X136779000Y-110490000D03*
X134239000Y-110490000D03*
X136779000Y-107950000D03*
X134239000Y-107950000D03*
X136779000Y-105410000D03*
X134239000Y-105410000D03*
X136779000Y-102870000D03*
X134239000Y-102870000D03*
X136779000Y-100330000D03*
X134239000Y-100330000D03*
X136779000Y-97790000D03*
X134239000Y-97790000D03*
X136779000Y-95250000D03*
X134239000Y-95250000D03*
D15*
X159893000Y-95250000D03*
D16*
X162433000Y-95250000D03*
X159893000Y-97790000D03*
X162433000Y-97790000D03*
X159893000Y-100330000D03*
X162433000Y-100330000D03*
X159893000Y-102870000D03*
X162433000Y-102870000D03*
X159893000Y-105410000D03*
X162433000Y-105410000D03*
X159893000Y-107950000D03*
X162433000Y-107950000D03*
X159893000Y-110490000D03*
X162433000Y-110490000D03*
X159893000Y-113030000D03*
X162433000Y-113030000D03*
X159893000Y-115570000D03*
X162433000Y-115570000D03*
X159893000Y-118110000D03*
X162433000Y-118110000D03*
X159893000Y-120650000D03*
X162433000Y-120650000D03*
X159893000Y-123190000D03*
X162433000Y-123190000D03*
X159893000Y-125730000D03*
X162433000Y-125730000D03*
X159893000Y-128270000D03*
X162433000Y-128270000D03*
X159893000Y-130810000D03*
X162433000Y-130810000D03*
D17*
X176149000Y-131699000D03*
D18*
X176149000Y-129159000D03*
D19*
X178689000Y-129159000D03*
D18*
X178689000Y-131699000D03*
D20*
X136525000Y-89662000D03*
X137795000Y-89662000D03*
X135255000Y-89662000D03*
D17*
X165608000Y-130810000D03*
D18*
X165608000Y-128270000D03*
D12*
X140970000Y-95250000D03*
X140970000Y-97790000D03*
X140970000Y-100330000D03*
X140970000Y-102870000D03*
X140970000Y-105410000D03*
X140970000Y-107950000D03*
X140970000Y-110490000D03*
X140970000Y-113030000D03*
X140970000Y-115570000D03*
X140970000Y-118110000D03*
X140970000Y-120650000D03*
X140970000Y-123190000D03*
X140970000Y-125730000D03*
X140970000Y-128270000D03*
X140970000Y-130810000D03*
X156210000Y-130810000D03*
X156210000Y-128270000D03*
X156210000Y-125730000D03*
X156210000Y-123190000D03*
X156210000Y-120650000D03*
X156210000Y-118110000D03*
X156210000Y-115570000D03*
X156210000Y-113030000D03*
X156210000Y-110490000D03*
X156210000Y-107950000D03*
X156210000Y-105410000D03*
X156210000Y-102870000D03*
X156210000Y-100330000D03*
X156210000Y-97790000D03*
X156210000Y-95250000D03*
X177546000Y-123952000D03*
X177546000Y-103886000D03*
D21*
X177165000Y-97663000D03*
X176022000Y-120396000D03*
X171450000Y-113665000D03*
X146685000Y-103886000D03*
X144662980Y-101614884D03*
X135636000Y-93853000D03*
X153354003Y-94788952D03*
X180467000Y-98298000D03*
D22*
X178816000Y-96012000D02*
X178816000Y-97155000D01*
X178308000Y-97663000D02*
X177165000Y-97663000D01*
X178816000Y-97155000D02*
X178308000Y-97663000D01*
X179070000Y-95758000D02*
X178816000Y-96012000D01*
X165608000Y-131445000D02*
X165608000Y-131826000D01*
X146685000Y-103886000D02*
X146385001Y-104185999D01*
X146385001Y-104185999D02*
X146385001Y-125394999D01*
X146385001Y-125394999D02*
X141858999Y-129921001D01*
X141858999Y-129921001D02*
X140970000Y-130810000D01*
X153215611Y-94035999D02*
X169963277Y-94035999D01*
X172521999Y-94797999D02*
X172847001Y-95123001D01*
X140970000Y-128270000D02*
X145865009Y-123374991D01*
X145865009Y-123374991D02*
X145865009Y-101386601D01*
X145865009Y-101386601D02*
X153215611Y-94035999D01*
X169963277Y-94035999D02*
X170725277Y-94797999D01*
X172847001Y-95123001D02*
X173736000Y-96012000D01*
X170725277Y-94797999D02*
X172521999Y-94797999D01*
X173736000Y-96012000D02*
X173736000Y-96266000D01*
X145288000Y-121412000D02*
X145288000Y-101327199D01*
X175387001Y-95123001D02*
X176276000Y-96012000D01*
X175061999Y-94797999D02*
X175387001Y-95123001D01*
X175061999Y-93001277D02*
X175061999Y-94797999D01*
X154921199Y-91694000D02*
X173754722Y-91694000D01*
X140970000Y-125730000D02*
X145288000Y-121412000D01*
X145288000Y-101327199D02*
X154921199Y-91694000D01*
X173754722Y-91694000D02*
X175061999Y-93001277D01*
X141478000Y-125730000D02*
X140970000Y-125730000D01*
X144662980Y-102039148D02*
X144662980Y-101614884D01*
X144662980Y-119497020D02*
X144662980Y-102039148D01*
X140970000Y-123190000D02*
X144662980Y-119497020D01*
X140970000Y-100330000D02*
X140335000Y-100330000D01*
X140335000Y-100330000D02*
X139065000Y-99060000D01*
X137414000Y-93853000D02*
X135636000Y-93853000D01*
X139065000Y-95504000D02*
X137414000Y-93853000D01*
X139065000Y-99060000D02*
X139065000Y-95504000D01*
X153354003Y-95213216D02*
X153354003Y-94788952D01*
X156210000Y-130810000D02*
X153354003Y-127954003D01*
X153354003Y-127954003D02*
X153354003Y-95213216D01*
X162433000Y-102870000D02*
X163830000Y-102870000D01*
X163830000Y-102870000D02*
X167640000Y-106680000D01*
X167640000Y-106680000D02*
X167640000Y-128651000D01*
X167640000Y-128651000D02*
X172085000Y-133096000D01*
X172085000Y-133096000D02*
X177292000Y-133096000D01*
X177292000Y-133096000D02*
X178689000Y-131699000D01*
X180657500Y-127063500D02*
X180657500Y-129730500D01*
X180657500Y-129730500D02*
X178689000Y-131699000D01*
X177546000Y-123952000D02*
X180657500Y-127063500D01*
X175895000Y-102870000D02*
X180530500Y-98234500D01*
X175895000Y-102870000D02*
X162433000Y-102870000D01*
X180467000Y-98298000D02*
X180530500Y-98234500D01*
D23*
G36*
X181406800Y-127009708D02*
X181359648Y-126772661D01*
X181263668Y-126629016D01*
X181194901Y-126526098D01*
X179027350Y-124358547D01*
X179069735Y-124256472D01*
X179070264Y-123650188D01*
X178838738Y-123089851D01*
X178410404Y-122660769D01*
X177850472Y-122428265D01*
X177244188Y-122427736D01*
X176683851Y-122659262D01*
X176254769Y-123087596D01*
X176022265Y-123647528D01*
X176021736Y-124253812D01*
X176253262Y-124814149D01*
X176681596Y-125243231D01*
X177241528Y-125475735D01*
X177847812Y-125476264D01*
X177952292Y-125433094D01*
X179897500Y-127378303D01*
X179897500Y-128032704D01*
X179625437Y-127760166D01*
X179018845Y-127508287D01*
X178362037Y-127507714D01*
X177755005Y-127758534D01*
X177417915Y-128095037D01*
X177348778Y-127991567D01*
X176813155Y-127633675D01*
X176181345Y-127508000D01*
X176116655Y-127508000D01*
X175484845Y-127633675D01*
X174949222Y-127991567D01*
X174591330Y-128527190D01*
X174465655Y-129159000D01*
X174591330Y-129790810D01*
X174818499Y-130130792D01*
X174681559Y-130218910D01*
X174536569Y-130431110D01*
X174485560Y-130683000D01*
X174485560Y-132336000D01*
X172399802Y-132336000D01*
X168400000Y-128336198D01*
X168400000Y-125549078D01*
X169676378Y-125549078D01*
X169705917Y-126059428D01*
X169844389Y-126393729D01*
X170074984Y-126449410D01*
X170794395Y-125730000D01*
X170074984Y-125010590D01*
X169844389Y-125066271D01*
X169676378Y-125549078D01*
X168400000Y-125549078D01*
X168400000Y-124830984D01*
X170254590Y-124830984D01*
X170974000Y-125550395D01*
X170988142Y-125536252D01*
X171167748Y-125715858D01*
X171153605Y-125730000D01*
X171167748Y-125744142D01*
X170988142Y-125923748D01*
X170974000Y-125909605D01*
X170254590Y-126629016D01*
X170310271Y-126859611D01*
X170793078Y-127027622D01*
X171303428Y-126998083D01*
X171637729Y-126859611D01*
X171693410Y-126629018D01*
X171795072Y-126730680D01*
X171859910Y-126831441D01*
X172072110Y-126976431D01*
X172324000Y-127027440D01*
X173624000Y-127027440D01*
X173859317Y-126983162D01*
X174075441Y-126844090D01*
X174220431Y-126631890D01*
X174271440Y-126380000D01*
X174271440Y-125080000D01*
X174227162Y-124844683D01*
X174088090Y-124628559D01*
X173875890Y-124483569D01*
X173624000Y-124432560D01*
X172324000Y-124432560D01*
X172088683Y-124476838D01*
X171872559Y-124615910D01*
X171795063Y-124729329D01*
X171693410Y-124830982D01*
X171637729Y-124600389D01*
X171154922Y-124432378D01*
X170644572Y-124461917D01*
X170310271Y-124600389D01*
X170254590Y-124830984D01*
X168400000Y-124830984D01*
X168400000Y-106680000D01*
X168342148Y-106389161D01*
X168177401Y-106142599D01*
X166992998Y-104958196D01*
X176653409Y-104958196D01*
X176738467Y-105213539D01*
X177307965Y-105421516D01*
X177913700Y-105395723D01*
X178353533Y-105213539D01*
X178438591Y-104958196D01*
X177546000Y-104065605D01*
X176653409Y-104958196D01*
X166992998Y-104958196D01*
X165664802Y-103630000D01*
X175895000Y-103630000D01*
X176026605Y-103603822D01*
X176010484Y-103647965D01*
X176036277Y-104253700D01*
X176218461Y-104693533D01*
X176473804Y-104778591D01*
X177366395Y-103886000D01*
X177725605Y-103886000D01*
X178618196Y-104778591D01*
X178873539Y-104693533D01*
X179081516Y-104124035D01*
X179055723Y-103518300D01*
X178873539Y-103078467D01*
X178618196Y-102993409D01*
X177725605Y-103886000D01*
X177366395Y-103886000D01*
X177352253Y-103871858D01*
X177531858Y-103692253D01*
X177546000Y-103706395D01*
X178438591Y-102813804D01*
X178353533Y-102558461D01*
X177784035Y-102350484D01*
X177476210Y-102363592D01*
X180606680Y-99233122D01*
X180652167Y-99233162D01*
X180995943Y-99091117D01*
X181259192Y-98828327D01*
X181401838Y-98484799D01*
X181402162Y-98112833D01*
X181260117Y-97769057D01*
X180997327Y-97505808D01*
X180653799Y-97363162D01*
X180281833Y-97362838D01*
X179938057Y-97504883D01*
X179674808Y-97767673D01*
X179532162Y-98111201D01*
X179532121Y-98158077D01*
X175580198Y-102110000D01*
X163722262Y-102110000D01*
X163522029Y-101810330D01*
X163207248Y-101600000D01*
X163522029Y-101389670D01*
X163846885Y-100903489D01*
X163960959Y-100330000D01*
X163846885Y-99756511D01*
X163522029Y-99270330D01*
X163198772Y-99054336D01*
X163321490Y-98996821D01*
X163715688Y-98564947D01*
X163887958Y-98149026D01*
X163766817Y-97917000D01*
X162560000Y-97917000D01*
X162560000Y-97937000D01*
X162306000Y-97937000D01*
X162306000Y-97917000D01*
X160020000Y-97917000D01*
X160020000Y-97937000D01*
X159766000Y-97937000D01*
X159766000Y-97917000D01*
X158559183Y-97917000D01*
X158438042Y-98149026D01*
X158610312Y-98564947D01*
X159004510Y-98996821D01*
X159127228Y-99054336D01*
X158803971Y-99270330D01*
X158479115Y-99756511D01*
X158365041Y-100330000D01*
X158479115Y-100903489D01*
X158803971Y-101389670D01*
X159118752Y-101600000D01*
X158803971Y-101810330D01*
X158479115Y-102296511D01*
X158365041Y-102870000D01*
X158479115Y-103443489D01*
X158803971Y-103929670D01*
X159118752Y-104140000D01*
X158803971Y-104350330D01*
X158479115Y-104836511D01*
X158365041Y-105410000D01*
X158479115Y-105983489D01*
X158803971Y-106469670D01*
X159118752Y-106680000D01*
X158803971Y-106890330D01*
X158479115Y-107376511D01*
X158365041Y-107950000D01*
X158479115Y-108523489D01*
X158803971Y-109009670D01*
X159118752Y-109220000D01*
X158803971Y-109430330D01*
X158479115Y-109916511D01*
X158365041Y-110490000D01*
X158479115Y-111063489D01*
X158803971Y-111549670D01*
X159118752Y-111760000D01*
X158803971Y-111970330D01*
X158479115Y-112456511D01*
X158365041Y-113030000D01*
X158479115Y-113603489D01*
X158803971Y-114089670D01*
X159118752Y-114300000D01*
X158803971Y-114510330D01*
X158479115Y-114996511D01*
X158365041Y-115570000D01*
X158479115Y-116143489D01*
X158803971Y-116629670D01*
X159118752Y-116840000D01*
X158803971Y-117050330D01*
X158479115Y-117536511D01*
X158365041Y-118110000D01*
X158479115Y-118683489D01*
X158803971Y-119169670D01*
X159118752Y-119380000D01*
X158803971Y-119590330D01*
X158479115Y-120076511D01*
X158365041Y-120650000D01*
X158479115Y-121223489D01*
X158803971Y-121709670D01*
X159118752Y-121920000D01*
X158803971Y-122130330D01*
X158479115Y-122616511D01*
X158365041Y-123190000D01*
X158479115Y-123763489D01*
X158803971Y-124249670D01*
X159118752Y-124460000D01*
X158803971Y-124670330D01*
X158479115Y-125156511D01*
X158365041Y-125730000D01*
X158479115Y-126303489D01*
X158803971Y-126789670D01*
X159118752Y-127000000D01*
X158803971Y-127210330D01*
X158479115Y-127696511D01*
X158365041Y-128270000D01*
X158479115Y-128843489D01*
X158803971Y-129329670D01*
X159118752Y-129540000D01*
X158803971Y-129750330D01*
X158479115Y-130236511D01*
X158365041Y-130810000D01*
X158479115Y-131383489D01*
X158803971Y-131869670D01*
X159290152Y-132194526D01*
X159863641Y-132308600D01*
X159922359Y-132308600D01*
X160495848Y-132194526D01*
X160982029Y-131869670D01*
X161163000Y-131598828D01*
X161343971Y-131869670D01*
X161830152Y-132194526D01*
X162403641Y-132308600D01*
X162462359Y-132308600D01*
X163035848Y-132194526D01*
X163522029Y-131869670D01*
X163846885Y-131383489D01*
X163944560Y-130892443D01*
X163944560Y-131826000D01*
X163988838Y-132061317D01*
X164127910Y-132277441D01*
X164340110Y-132422431D01*
X164592000Y-132473440D01*
X165235284Y-132473440D01*
X165317161Y-132528148D01*
X165608000Y-132586000D01*
X165898839Y-132528148D01*
X165980716Y-132473440D01*
X166624000Y-132473440D01*
X166859317Y-132429162D01*
X167075441Y-132290090D01*
X167220431Y-132077890D01*
X167271440Y-131826000D01*
X167271440Y-129794000D01*
X167227162Y-129558683D01*
X167088090Y-129342559D01*
X166939163Y-129240802D01*
X167038388Y-129092302D01*
X167102599Y-129188401D01*
X171547599Y-133633401D01*
X171794160Y-133798148D01*
X172085000Y-133856000D01*
X177292000Y-133856000D01*
X177582839Y-133798148D01*
X177829401Y-133633401D01*
X178203033Y-133259769D01*
X178656655Y-133350000D01*
X178721345Y-133350000D01*
X179353155Y-133224325D01*
X179888778Y-132866433D01*
X180246670Y-132330810D01*
X180372345Y-131699000D01*
X180271381Y-131191421D01*
X181194901Y-130267901D01*
X181359648Y-130021340D01*
X181406800Y-129784292D01*
X181406800Y-133908800D01*
X133172200Y-133908800D01*
X133172200Y-131884523D01*
X133636152Y-132194526D01*
X134209641Y-132308600D01*
X134268359Y-132308600D01*
X134841848Y-132194526D01*
X135307442Y-131883426D01*
X135312238Y-131908917D01*
X135451310Y-132125041D01*
X135663510Y-132270031D01*
X135915400Y-132321040D01*
X137642600Y-132321040D01*
X137877917Y-132276762D01*
X138094041Y-132137690D01*
X138239031Y-131925490D01*
X138290040Y-131673600D01*
X138290040Y-129946400D01*
X138245762Y-129711083D01*
X138106690Y-129494959D01*
X137894490Y-129349969D01*
X137850869Y-129341136D01*
X137868029Y-129329670D01*
X138192885Y-128843489D01*
X138306959Y-128270000D01*
X138192885Y-127696511D01*
X137868029Y-127210330D01*
X137553248Y-127000000D01*
X137868029Y-126789670D01*
X138192885Y-126303489D01*
X138306959Y-125730000D01*
X138192885Y-125156511D01*
X137868029Y-124670330D01*
X137553248Y-124460000D01*
X137868029Y-124249670D01*
X138192885Y-123763489D01*
X138306959Y-123190000D01*
X138192885Y-122616511D01*
X137868029Y-122130330D01*
X137553248Y-121920000D01*
X137868029Y-121709670D01*
X138192885Y-121223489D01*
X138306959Y-120650000D01*
X138192885Y-120076511D01*
X137868029Y-119590330D01*
X137553248Y-119380000D01*
X137868029Y-119169670D01*
X138192885Y-118683489D01*
X138306959Y-118110000D01*
X138192885Y-117536511D01*
X137868029Y-117050330D01*
X137553248Y-116840000D01*
X137868029Y-116629670D01*
X138192885Y-116143489D01*
X138306959Y-115570000D01*
X138192885Y-114996511D01*
X137868029Y-114510330D01*
X137553248Y-114300000D01*
X137868029Y-114089670D01*
X138192885Y-113603489D01*
X138306959Y-113030000D01*
X138192885Y-112456511D01*
X137868029Y-111970330D01*
X137553248Y-111760000D01*
X137868029Y-111549670D01*
X138192885Y-111063489D01*
X138306959Y-110490000D01*
X138192885Y-109916511D01*
X137868029Y-109430330D01*
X137553248Y-109220000D01*
X137868029Y-109009670D01*
X138192885Y-108523489D01*
X138306959Y-107950000D01*
X138192885Y-107376511D01*
X137868029Y-106890330D01*
X137553248Y-106680000D01*
X137868029Y-106469670D01*
X138192885Y-105983489D01*
X138246924Y-105711812D01*
X139445736Y-105711812D01*
X139677262Y-106272149D01*
X140084737Y-106680336D01*
X139678769Y-107085596D01*
X139446265Y-107645528D01*
X139445736Y-108251812D01*
X139677262Y-108812149D01*
X140084737Y-109220336D01*
X139678769Y-109625596D01*
X139446265Y-110185528D01*
X139445736Y-110791812D01*
X139677262Y-111352149D01*
X140084737Y-111760336D01*
X139678769Y-112165596D01*
X139446265Y-112725528D01*
X139445736Y-113331812D01*
X139677262Y-113892149D01*
X140084737Y-114300336D01*
X139678769Y-114705596D01*
X139446265Y-115265528D01*
X139445736Y-115871812D01*
X139677262Y-116432149D01*
X140084737Y-116840336D01*
X139678769Y-117245596D01*
X139446265Y-117805528D01*
X139445736Y-118411812D01*
X139677262Y-118972149D01*
X140084737Y-119380336D01*
X139678769Y-119785596D01*
X139446265Y-120345528D01*
X139445736Y-120951812D01*
X139677262Y-121512149D01*
X140084737Y-121920336D01*
X139678769Y-122325596D01*
X139446265Y-122885528D01*
X139445736Y-123491812D01*
X139677262Y-124052149D01*
X140084737Y-124460336D01*
X139678769Y-124865596D01*
X139446265Y-125425528D01*
X139445736Y-126031812D01*
X139677262Y-126592149D01*
X140084737Y-127000336D01*
X139678769Y-127405596D01*
X139446265Y-127965528D01*
X139445736Y-128571812D01*
X139677262Y-129132149D01*
X140084737Y-129540336D01*
X139678769Y-129945596D01*
X139446265Y-130505528D01*
X139445736Y-131111812D01*
X139677262Y-131672149D01*
X140105596Y-132101231D01*
X140665528Y-132333735D01*
X141271812Y-132334264D01*
X141832149Y-132102738D01*
X142261231Y-131674404D01*
X142493735Y-131114472D01*
X142494264Y-130508188D01*
X142451094Y-130403708D01*
X146922402Y-125932400D01*
X147087149Y-125685839D01*
X147096747Y-125637585D01*
X147145001Y-125394999D01*
X147145001Y-104707603D01*
X147213943Y-104679117D01*
X147477192Y-104416327D01*
X147619838Y-104072799D01*
X147620162Y-103700833D01*
X147478117Y-103357057D01*
X147215327Y-103093808D01*
X146871799Y-102951162D01*
X146625009Y-102950947D01*
X146625009Y-101701403D01*
X152594003Y-95732409D01*
X152594003Y-127954003D01*
X152651855Y-128244842D01*
X152816602Y-128491404D01*
X154728650Y-130403452D01*
X154686265Y-130505528D01*
X154685736Y-131111812D01*
X154917262Y-131672149D01*
X155345596Y-132101231D01*
X155905528Y-132333735D01*
X156511812Y-132334264D01*
X157072149Y-132102738D01*
X157501231Y-131674404D01*
X157733735Y-131114472D01*
X157734264Y-130508188D01*
X157502738Y-129947851D01*
X157095263Y-129539664D01*
X157501231Y-129134404D01*
X157733735Y-128574472D01*
X157734264Y-127968188D01*
X157502738Y-127407851D01*
X157095263Y-126999664D01*
X157501231Y-126594404D01*
X157733735Y-126034472D01*
X157734264Y-125428188D01*
X157502738Y-124867851D01*
X157095263Y-124459664D01*
X157501231Y-124054404D01*
X157733735Y-123494472D01*
X157734264Y-122888188D01*
X157502738Y-122327851D01*
X157095263Y-121919664D01*
X157501231Y-121514404D01*
X157733735Y-120954472D01*
X157734264Y-120348188D01*
X157502738Y-119787851D01*
X157095263Y-119379664D01*
X157501231Y-118974404D01*
X157733735Y-118414472D01*
X157734264Y-117808188D01*
X157502738Y-117247851D01*
X157095263Y-116839664D01*
X157501231Y-116434404D01*
X157733735Y-115874472D01*
X157734264Y-115268188D01*
X157502738Y-114707851D01*
X157095263Y-114299664D01*
X157501231Y-113894404D01*
X157733735Y-113334472D01*
X157734264Y-112728188D01*
X157502738Y-112167851D01*
X157095263Y-111759664D01*
X157501231Y-111354404D01*
X157733735Y-110794472D01*
X157734264Y-110188188D01*
X157502738Y-109627851D01*
X157095263Y-109219664D01*
X157501231Y-108814404D01*
X157733735Y-108254472D01*
X157734264Y-107648188D01*
X157502738Y-107087851D01*
X157095263Y-106679664D01*
X157501231Y-106274404D01*
X157733735Y-105714472D01*
X157734264Y-105108188D01*
X157502738Y-104547851D01*
X157095263Y-104139664D01*
X157501231Y-103734404D01*
X157733735Y-103174472D01*
X157734264Y-102568188D01*
X157502738Y-102007851D01*
X157095263Y-101599664D01*
X157501231Y-101194404D01*
X157733735Y-100634472D01*
X157734264Y-100028188D01*
X157502738Y-99467851D01*
X157074404Y-99038769D01*
X157047494Y-99027595D01*
X157102591Y-98862196D01*
X156210000Y-97969605D01*
X155317409Y-98862196D01*
X155372353Y-99027138D01*
X155347851Y-99037262D01*
X154918769Y-99465596D01*
X154686265Y-100025528D01*
X154685736Y-100631812D01*
X154917262Y-101192149D01*
X155324737Y-101600336D01*
X154918769Y-102005596D01*
X154686265Y-102565528D01*
X154685736Y-103171812D01*
X154917262Y-103732149D01*
X155324737Y-104140336D01*
X154918769Y-104545596D01*
X154686265Y-105105528D01*
X154685736Y-105711812D01*
X154917262Y-106272149D01*
X155324737Y-106680336D01*
X154918769Y-107085596D01*
X154686265Y-107645528D01*
X154685736Y-108251812D01*
X154917262Y-108812149D01*
X155324737Y-109220336D01*
X154918769Y-109625596D01*
X154686265Y-110185528D01*
X154685736Y-110791812D01*
X154917262Y-111352149D01*
X155324737Y-111760336D01*
X154918769Y-112165596D01*
X154686265Y-112725528D01*
X154685736Y-113331812D01*
X154917262Y-113892149D01*
X155324737Y-114300336D01*
X154918769Y-114705596D01*
X154686265Y-115265528D01*
X154685736Y-115871812D01*
X154917262Y-116432149D01*
X155324737Y-116840336D01*
X154918769Y-117245596D01*
X154686265Y-117805528D01*
X154685736Y-118411812D01*
X154917262Y-118972149D01*
X155324737Y-119380336D01*
X154918769Y-119785596D01*
X154686265Y-120345528D01*
X154685736Y-120951812D01*
X154917262Y-121512149D01*
X155324737Y-121920336D01*
X154918769Y-122325596D01*
X154686265Y-122885528D01*
X154685736Y-123491812D01*
X154917262Y-124052149D01*
X155324737Y-124460336D01*
X154918769Y-124865596D01*
X154686265Y-125425528D01*
X154685736Y-126031812D01*
X154917262Y-126592149D01*
X155324737Y-127000336D01*
X154918769Y-127405596D01*
X154686265Y-127965528D01*
X154686051Y-128211249D01*
X154114003Y-127639201D01*
X154114003Y-97551965D01*
X154674484Y-97551965D01*
X154700277Y-98157700D01*
X154882461Y-98597533D01*
X155137804Y-98682591D01*
X156030395Y-97790000D01*
X156389605Y-97790000D01*
X157282196Y-98682591D01*
X157537539Y-98597533D01*
X157745516Y-98028035D01*
X157719723Y-97422300D01*
X157537539Y-96982467D01*
X157282196Y-96897409D01*
X156389605Y-97790000D01*
X156030395Y-97790000D01*
X155137804Y-96897409D01*
X154882461Y-96982467D01*
X154674484Y-97551965D01*
X154114003Y-97551965D01*
X154114003Y-95351415D01*
X154146195Y-95319279D01*
X154288841Y-94975751D01*
X154288998Y-94795999D01*
X154748355Y-94795999D01*
X154686265Y-94945528D01*
X154685736Y-95551812D01*
X154917262Y-96112149D01*
X155345596Y-96541231D01*
X155372506Y-96552405D01*
X155317409Y-96717804D01*
X156210000Y-97610395D01*
X157102591Y-96717804D01*
X157047647Y-96552862D01*
X157072149Y-96542738D01*
X157501231Y-96114404D01*
X157733735Y-95554472D01*
X157734264Y-94948188D01*
X157671381Y-94795999D01*
X158381960Y-94795999D01*
X158381960Y-96113600D01*
X158426238Y-96348917D01*
X158565310Y-96565041D01*
X158777510Y-96710031D01*
X158871375Y-96729039D01*
X158610312Y-97015053D01*
X158438042Y-97430974D01*
X158559183Y-97663000D01*
X159766000Y-97663000D01*
X159766000Y-97643000D01*
X160020000Y-97643000D01*
X160020000Y-97663000D01*
X162306000Y-97663000D01*
X162306000Y-97643000D01*
X162560000Y-97643000D01*
X162560000Y-97663000D01*
X163766817Y-97663000D01*
X163887958Y-97430974D01*
X163715688Y-97015053D01*
X163321490Y-96583179D01*
X163198772Y-96525664D01*
X163522029Y-96309670D01*
X163846885Y-95823489D01*
X163960959Y-95250000D01*
X163870653Y-94795999D01*
X169648475Y-94795999D01*
X169952462Y-95099986D01*
X169904769Y-95147596D01*
X169672265Y-95707528D01*
X169671736Y-96313812D01*
X169903262Y-96874149D01*
X170331596Y-97303231D01*
X170891528Y-97535735D01*
X171497812Y-97536264D01*
X172058149Y-97304738D01*
X172466336Y-96897263D01*
X172871596Y-97303231D01*
X173431528Y-97535735D01*
X174037812Y-97536264D01*
X174598149Y-97304738D01*
X175006336Y-96897263D01*
X175411596Y-97303231D01*
X175971528Y-97535735D01*
X176230110Y-97535961D01*
X176229838Y-97848167D01*
X176371883Y-98191943D01*
X176634673Y-98455192D01*
X176978201Y-98597838D01*
X177350167Y-98598162D01*
X177693943Y-98456117D01*
X177727118Y-98423000D01*
X178308000Y-98423000D01*
X178598839Y-98365148D01*
X178845401Y-98200401D01*
X179353401Y-97692401D01*
X179373046Y-97663000D01*
X179518148Y-97445839D01*
X179534400Y-97364134D01*
X179678149Y-97304738D01*
X180107231Y-96876404D01*
X180339735Y-96316472D01*
X180340264Y-95710188D01*
X180108738Y-95149851D01*
X179792083Y-94832643D01*
X179937699Y-94772327D01*
X180116327Y-94593698D01*
X180213000Y-94360309D01*
X180213000Y-93757750D01*
X180054250Y-93599000D01*
X178943000Y-93599000D01*
X178943000Y-93619000D01*
X178689000Y-93619000D01*
X178689000Y-93599000D01*
X178669000Y-93599000D01*
X178669000Y-93345000D01*
X178689000Y-93345000D01*
X178689000Y-92233750D01*
X178943000Y-92233750D01*
X178943000Y-93345000D01*
X180054250Y-93345000D01*
X180213000Y-93186250D01*
X180213000Y-92583691D01*
X180116327Y-92350302D01*
X179937699Y-92171673D01*
X179704310Y-92075000D01*
X179101750Y-92075000D01*
X178943000Y-92233750D01*
X178689000Y-92233750D01*
X178530250Y-92075000D01*
X177927690Y-92075000D01*
X177694301Y-92171673D01*
X177515673Y-92350302D01*
X177455253Y-92496168D01*
X177140404Y-92180769D01*
X176580472Y-91948265D01*
X175974188Y-91947736D01*
X175413851Y-92179262D01*
X175364275Y-92228751D01*
X174292123Y-91156599D01*
X174045561Y-90991852D01*
X173754722Y-90934000D01*
X154921199Y-90934000D01*
X154630360Y-90991852D01*
X154383798Y-91156599D01*
X144857249Y-100683148D01*
X144849779Y-100680046D01*
X144477813Y-100679722D01*
X144134037Y-100821767D01*
X143870788Y-101084557D01*
X143728142Y-101428085D01*
X143727818Y-101800051D01*
X143869863Y-102143827D01*
X143902980Y-102177002D01*
X143902980Y-119182218D01*
X142494052Y-120591146D01*
X142494264Y-120348188D01*
X142262738Y-119787851D01*
X141855263Y-119379664D01*
X142261231Y-118974404D01*
X142493735Y-118414472D01*
X142494264Y-117808188D01*
X142262738Y-117247851D01*
X141855263Y-116839664D01*
X142261231Y-116434404D01*
X142493735Y-115874472D01*
X142494264Y-115268188D01*
X142262738Y-114707851D01*
X141855263Y-114299664D01*
X142261231Y-113894404D01*
X142493735Y-113334472D01*
X142494264Y-112728188D01*
X142262738Y-112167851D01*
X141855263Y-111759664D01*
X142261231Y-111354404D01*
X142493735Y-110794472D01*
X142494264Y-110188188D01*
X142262738Y-109627851D01*
X141855263Y-109219664D01*
X142261231Y-108814404D01*
X142493735Y-108254472D01*
X142494264Y-107648188D01*
X142262738Y-107087851D01*
X141855263Y-106679664D01*
X142261231Y-106274404D01*
X142493735Y-105714472D01*
X142494264Y-105108188D01*
X142262738Y-104547851D01*
X141834404Y-104118769D01*
X141807494Y-104107595D01*
X141862591Y-103942196D01*
X140970000Y-103049605D01*
X140077409Y-103942196D01*
X140132353Y-104107138D01*
X140107851Y-104117262D01*
X139678769Y-104545596D01*
X139446265Y-105105528D01*
X139445736Y-105711812D01*
X138246924Y-105711812D01*
X138306959Y-105410000D01*
X138192885Y-104836511D01*
X137868029Y-104350330D01*
X137544772Y-104134336D01*
X137667490Y-104076821D01*
X138061688Y-103644947D01*
X138233958Y-103229026D01*
X138112817Y-102997000D01*
X136906000Y-102997000D01*
X136906000Y-103017000D01*
X136652000Y-103017000D01*
X136652000Y-102997000D01*
X134366000Y-102997000D01*
X134366000Y-103017000D01*
X134112000Y-103017000D01*
X134112000Y-102997000D01*
X134092000Y-102997000D01*
X134092000Y-102743000D01*
X134112000Y-102743000D01*
X134112000Y-102723000D01*
X134366000Y-102723000D01*
X134366000Y-102743000D01*
X136652000Y-102743000D01*
X136652000Y-102723000D01*
X136906000Y-102723000D01*
X136906000Y-102743000D01*
X138112817Y-102743000D01*
X138170788Y-102631965D01*
X139434484Y-102631965D01*
X139460277Y-103237700D01*
X139642461Y-103677533D01*
X139897804Y-103762591D01*
X140790395Y-102870000D01*
X141149605Y-102870000D01*
X142042196Y-103762591D01*
X142297539Y-103677533D01*
X142505516Y-103108035D01*
X142479723Y-102502300D01*
X142297539Y-102062467D01*
X142042196Y-101977409D01*
X141149605Y-102870000D01*
X140790395Y-102870000D01*
X139897804Y-101977409D01*
X139642461Y-102062467D01*
X139434484Y-102631965D01*
X138170788Y-102631965D01*
X138233958Y-102510974D01*
X138061688Y-102095053D01*
X137667490Y-101663179D01*
X137544772Y-101605664D01*
X137868029Y-101389670D01*
X138192885Y-100903489D01*
X138306959Y-100330000D01*
X138192885Y-99756511D01*
X137868029Y-99270330D01*
X137553248Y-99060000D01*
X137868029Y-98849670D01*
X138192885Y-98363489D01*
X138305000Y-97799849D01*
X138305000Y-99060000D01*
X138362852Y-99350839D01*
X138527599Y-99597401D01*
X139445837Y-100515639D01*
X139445736Y-100631812D01*
X139677262Y-101192149D01*
X140105596Y-101621231D01*
X140132506Y-101632405D01*
X140077409Y-101797804D01*
X140970000Y-102690395D01*
X141862591Y-101797804D01*
X141807647Y-101632862D01*
X141832149Y-101622738D01*
X142261231Y-101194404D01*
X142493735Y-100634472D01*
X142494264Y-100028188D01*
X142262738Y-99467851D01*
X141855263Y-99059664D01*
X142261231Y-98654404D01*
X142493735Y-98094472D01*
X142494264Y-97488188D01*
X142262738Y-96927851D01*
X141855263Y-96519664D01*
X142261231Y-96114404D01*
X142493735Y-95554472D01*
X142494264Y-94948188D01*
X142262738Y-94387851D01*
X141834404Y-93958769D01*
X141274472Y-93726265D01*
X140668188Y-93725736D01*
X140107851Y-93957262D01*
X139678769Y-94385596D01*
X139485894Y-94850092D01*
X137951401Y-93315599D01*
X137704839Y-93150852D01*
X137414000Y-93093000D01*
X136198463Y-93093000D01*
X136166327Y-93060808D01*
X135822799Y-92918162D01*
X135450833Y-92917838D01*
X135107057Y-93059883D01*
X134843808Y-93322673D01*
X134701162Y-93666201D01*
X134701013Y-93837460D01*
X134268359Y-93751400D01*
X134209641Y-93751400D01*
X133636152Y-93865474D01*
X133172200Y-94175477D01*
X133172200Y-89789000D01*
X134170420Y-89789000D01*
X134170420Y-90089990D01*
X134301580Y-90495373D01*
X134577889Y-90819706D01*
X134961065Y-91006981D01*
X135128000Y-90880068D01*
X135128000Y-89789000D01*
X134170420Y-89789000D01*
X133172200Y-89789000D01*
X133172200Y-89234010D01*
X134170420Y-89234010D01*
X134170420Y-89535000D01*
X135128000Y-89535000D01*
X135128000Y-88443932D01*
X135382000Y-88443932D01*
X135382000Y-89535000D01*
X135402000Y-89535000D01*
X135402000Y-89789000D01*
X135382000Y-89789000D01*
X135382000Y-90880068D01*
X135548935Y-91006981D01*
X135885762Y-90842359D01*
X136109949Y-90992156D01*
X136525000Y-91074715D01*
X136940051Y-90992156D01*
X137160000Y-90845191D01*
X137379949Y-90992156D01*
X137795000Y-91074715D01*
X138210051Y-90992156D01*
X138561914Y-90757049D01*
X138797021Y-90405186D01*
X138879580Y-89990135D01*
X138879580Y-89333865D01*
X138797021Y-88918814D01*
X138561914Y-88566951D01*
X138210051Y-88331844D01*
X137795000Y-88249285D01*
X137379949Y-88331844D01*
X137160000Y-88478809D01*
X136940051Y-88331844D01*
X136525000Y-88249285D01*
X136109949Y-88331844D01*
X135885762Y-88481641D01*
X135548935Y-88317019D01*
X135382000Y-88443932D01*
X135128000Y-88443932D01*
X134961065Y-88317019D01*
X134577889Y-88504294D01*
X134301580Y-88828627D01*
X134170420Y-89234010D01*
X133172200Y-89234010D01*
X133172200Y-87706200D01*
X181406800Y-87706200D01*
X181406800Y-127009708D01*
X181406800Y-127009708D01*
G37*
X181406800Y-127009708D02*
X181359648Y-126772661D01*
X181263668Y-126629016D01*
X181194901Y-126526098D01*
X179027350Y-124358547D01*
X179069735Y-124256472D01*
X179070264Y-123650188D01*
X178838738Y-123089851D01*
X178410404Y-122660769D01*
X177850472Y-122428265D01*
X177244188Y-122427736D01*
X176683851Y-122659262D01*
X176254769Y-123087596D01*
X176022265Y-123647528D01*
X176021736Y-124253812D01*
X176253262Y-124814149D01*
X176681596Y-125243231D01*
X177241528Y-125475735D01*
X177847812Y-125476264D01*
X177952292Y-125433094D01*
X179897500Y-127378303D01*
X179897500Y-128032704D01*
X179625437Y-127760166D01*
X179018845Y-127508287D01*
X178362037Y-127507714D01*
X177755005Y-127758534D01*
X177417915Y-128095037D01*
X177348778Y-127991567D01*
X176813155Y-127633675D01*
X176181345Y-127508000D01*
X176116655Y-127508000D01*
X175484845Y-127633675D01*
X174949222Y-127991567D01*
X174591330Y-128527190D01*
X174465655Y-129159000D01*
X174591330Y-129790810D01*
X174818499Y-130130792D01*
X174681559Y-130218910D01*
X174536569Y-130431110D01*
X174485560Y-130683000D01*
X174485560Y-132336000D01*
X172399802Y-132336000D01*
X168400000Y-128336198D01*
X168400000Y-125549078D01*
X169676378Y-125549078D01*
X169705917Y-126059428D01*
X169844389Y-126393729D01*
X170074984Y-126449410D01*
X170794395Y-125730000D01*
X170074984Y-125010590D01*
X169844389Y-125066271D01*
X169676378Y-125549078D01*
X168400000Y-125549078D01*
X168400000Y-124830984D01*
X170254590Y-124830984D01*
X170974000Y-125550395D01*
X170988142Y-125536252D01*
X171167748Y-125715858D01*
X171153605Y-125730000D01*
X171167748Y-125744142D01*
X170988142Y-125923748D01*
X170974000Y-125909605D01*
X170254590Y-126629016D01*
X170310271Y-126859611D01*
X170793078Y-127027622D01*
X171303428Y-126998083D01*
X171637729Y-126859611D01*
X171693410Y-126629018D01*
X171795072Y-126730680D01*
X171859910Y-126831441D01*
X172072110Y-126976431D01*
X172324000Y-127027440D01*
X173624000Y-127027440D01*
X173859317Y-126983162D01*
X174075441Y-126844090D01*
X174220431Y-126631890D01*
X174271440Y-126380000D01*
X174271440Y-125080000D01*
X174227162Y-124844683D01*
X174088090Y-124628559D01*
X173875890Y-124483569D01*
X173624000Y-124432560D01*
X172324000Y-124432560D01*
X172088683Y-124476838D01*
X171872559Y-124615910D01*
X171795063Y-124729329D01*
X171693410Y-124830982D01*
X171637729Y-124600389D01*
X171154922Y-124432378D01*
X170644572Y-124461917D01*
X170310271Y-124600389D01*
X170254590Y-124830984D01*
X168400000Y-124830984D01*
X168400000Y-106680000D01*
X168342148Y-106389161D01*
X168177401Y-106142599D01*
X166992998Y-104958196D01*
X176653409Y-104958196D01*
X176738467Y-105213539D01*
X177307965Y-105421516D01*
X177913700Y-105395723D01*
X178353533Y-105213539D01*
X178438591Y-104958196D01*
X177546000Y-104065605D01*
X176653409Y-104958196D01*
X166992998Y-104958196D01*
X165664802Y-103630000D01*
X175895000Y-103630000D01*
X176026605Y-103603822D01*
X176010484Y-103647965D01*
X176036277Y-104253700D01*
X176218461Y-104693533D01*
X176473804Y-104778591D01*
X177366395Y-103886000D01*
X177725605Y-103886000D01*
X178618196Y-104778591D01*
X178873539Y-104693533D01*
X179081516Y-104124035D01*
X179055723Y-103518300D01*
X178873539Y-103078467D01*
X178618196Y-102993409D01*
X177725605Y-103886000D01*
X177366395Y-103886000D01*
X177352253Y-103871858D01*
X177531858Y-103692253D01*
X177546000Y-103706395D01*
X178438591Y-102813804D01*
X178353533Y-102558461D01*
X177784035Y-102350484D01*
X177476210Y-102363592D01*
X180606680Y-99233122D01*
X180652167Y-99233162D01*
X180995943Y-99091117D01*
X181259192Y-98828327D01*
X181401838Y-98484799D01*
X181402162Y-98112833D01*
X181260117Y-97769057D01*
X180997327Y-97505808D01*
X180653799Y-97363162D01*
X180281833Y-97362838D01*
X179938057Y-97504883D01*
X179674808Y-97767673D01*
X179532162Y-98111201D01*
X179532121Y-98158077D01*
X175580198Y-102110000D01*
X163722262Y-102110000D01*
X163522029Y-101810330D01*
X163207248Y-101600000D01*
X163522029Y-101389670D01*
X163846885Y-100903489D01*
X163960959Y-100330000D01*
X163846885Y-99756511D01*
X163522029Y-99270330D01*
X163198772Y-99054336D01*
X163321490Y-98996821D01*
X163715688Y-98564947D01*
X163887958Y-98149026D01*
X163766817Y-97917000D01*
X162560000Y-97917000D01*
X162560000Y-97937000D01*
X162306000Y-97937000D01*
X162306000Y-97917000D01*
X160020000Y-97917000D01*
X160020000Y-97937000D01*
X159766000Y-97937000D01*
X159766000Y-97917000D01*
X158559183Y-97917000D01*
X158438042Y-98149026D01*
X158610312Y-98564947D01*
X159004510Y-98996821D01*
X159127228Y-99054336D01*
X158803971Y-99270330D01*
X158479115Y-99756511D01*
X158365041Y-100330000D01*
X158479115Y-100903489D01*
X158803971Y-101389670D01*
X159118752Y-101600000D01*
X158803971Y-101810330D01*
X158479115Y-102296511D01*
X158365041Y-102870000D01*
X158479115Y-103443489D01*
X158803971Y-103929670D01*
X159118752Y-104140000D01*
X158803971Y-104350330D01*
X158479115Y-104836511D01*
X158365041Y-105410000D01*
X158479115Y-105983489D01*
X158803971Y-106469670D01*
X159118752Y-106680000D01*
X158803971Y-106890330D01*
X158479115Y-107376511D01*
X158365041Y-107950000D01*
X158479115Y-108523489D01*
X158803971Y-109009670D01*
X159118752Y-109220000D01*
X158803971Y-109430330D01*
X158479115Y-109916511D01*
X158365041Y-110490000D01*
X158479115Y-111063489D01*
X158803971Y-111549670D01*
X159118752Y-111760000D01*
X158803971Y-111970330D01*
X158479115Y-112456511D01*
X158365041Y-113030000D01*
X158479115Y-113603489D01*
X158803971Y-114089670D01*
X159118752Y-114300000D01*
X158803971Y-114510330D01*
X158479115Y-114996511D01*
X158365041Y-115570000D01*
X158479115Y-116143489D01*
X158803971Y-116629670D01*
X159118752Y-116840000D01*
X158803971Y-117050330D01*
X158479115Y-117536511D01*
X158365041Y-118110000D01*
X158479115Y-118683489D01*
X158803971Y-119169670D01*
X159118752Y-119380000D01*
X158803971Y-119590330D01*
X158479115Y-120076511D01*
X158365041Y-120650000D01*
X158479115Y-121223489D01*
X158803971Y-121709670D01*
X159118752Y-121920000D01*
X158803971Y-122130330D01*
X158479115Y-122616511D01*
X158365041Y-123190000D01*
X158479115Y-123763489D01*
X158803971Y-124249670D01*
X159118752Y-124460000D01*
X158803971Y-124670330D01*
X158479115Y-125156511D01*
X158365041Y-125730000D01*
X158479115Y-126303489D01*
X158803971Y-126789670D01*
X159118752Y-127000000D01*
X158803971Y-127210330D01*
X158479115Y-127696511D01*
X158365041Y-128270000D01*
X158479115Y-128843489D01*
X158803971Y-129329670D01*
X159118752Y-129540000D01*
X158803971Y-129750330D01*
X158479115Y-130236511D01*
X158365041Y-130810000D01*
X158479115Y-131383489D01*
X158803971Y-131869670D01*
X159290152Y-132194526D01*
X159863641Y-132308600D01*
X159922359Y-132308600D01*
X160495848Y-132194526D01*
X160982029Y-131869670D01*
X161163000Y-131598828D01*
X161343971Y-131869670D01*
X161830152Y-132194526D01*
X162403641Y-132308600D01*
X162462359Y-132308600D01*
X163035848Y-132194526D01*
X163522029Y-131869670D01*
X163846885Y-131383489D01*
X163944560Y-130892443D01*
X163944560Y-131826000D01*
X163988838Y-132061317D01*
X164127910Y-132277441D01*
X164340110Y-132422431D01*
X164592000Y-132473440D01*
X165235284Y-132473440D01*
X165317161Y-132528148D01*
X165608000Y-132586000D01*
X165898839Y-132528148D01*
X165980716Y-132473440D01*
X166624000Y-132473440D01*
X166859317Y-132429162D01*
X167075441Y-132290090D01*
X167220431Y-132077890D01*
X167271440Y-131826000D01*
X167271440Y-129794000D01*
X167227162Y-129558683D01*
X167088090Y-129342559D01*
X166939163Y-129240802D01*
X167038388Y-129092302D01*
X167102599Y-129188401D01*
X171547599Y-133633401D01*
X171794160Y-133798148D01*
X172085000Y-133856000D01*
X177292000Y-133856000D01*
X177582839Y-133798148D01*
X177829401Y-133633401D01*
X178203033Y-133259769D01*
X178656655Y-133350000D01*
X178721345Y-133350000D01*
X179353155Y-133224325D01*
X179888778Y-132866433D01*
X180246670Y-132330810D01*
X180372345Y-131699000D01*
X180271381Y-131191421D01*
X181194901Y-130267901D01*
X181359648Y-130021340D01*
X181406800Y-129784292D01*
X181406800Y-133908800D01*
X133172200Y-133908800D01*
X133172200Y-131884523D01*
X133636152Y-132194526D01*
X134209641Y-132308600D01*
X134268359Y-132308600D01*
X134841848Y-132194526D01*
X135307442Y-131883426D01*
X135312238Y-131908917D01*
X135451310Y-132125041D01*
X135663510Y-132270031D01*
X135915400Y-132321040D01*
X137642600Y-132321040D01*
X137877917Y-132276762D01*
X138094041Y-132137690D01*
X138239031Y-131925490D01*
X138290040Y-131673600D01*
X138290040Y-129946400D01*
X138245762Y-129711083D01*
X138106690Y-129494959D01*
X137894490Y-129349969D01*
X137850869Y-129341136D01*
X137868029Y-129329670D01*
X138192885Y-128843489D01*
X138306959Y-128270000D01*
X138192885Y-127696511D01*
X137868029Y-127210330D01*
X137553248Y-127000000D01*
X137868029Y-126789670D01*
X138192885Y-126303489D01*
X138306959Y-125730000D01*
X138192885Y-125156511D01*
X137868029Y-124670330D01*
X137553248Y-124460000D01*
X137868029Y-124249670D01*
X138192885Y-123763489D01*
X138306959Y-123190000D01*
X138192885Y-122616511D01*
X137868029Y-122130330D01*
X137553248Y-121920000D01*
X137868029Y-121709670D01*
X138192885Y-121223489D01*
X138306959Y-120650000D01*
X138192885Y-120076511D01*
X137868029Y-119590330D01*
X137553248Y-119380000D01*
X137868029Y-119169670D01*
X138192885Y-118683489D01*
X138306959Y-118110000D01*
X138192885Y-117536511D01*
X137868029Y-117050330D01*
X137553248Y-116840000D01*
X137868029Y-116629670D01*
X138192885Y-116143489D01*
X138306959Y-115570000D01*
X138192885Y-114996511D01*
X137868029Y-114510330D01*
X137553248Y-114300000D01*
X137868029Y-114089670D01*
X138192885Y-113603489D01*
X138306959Y-113030000D01*
X138192885Y-112456511D01*
X137868029Y-111970330D01*
X137553248Y-111760000D01*
X137868029Y-111549670D01*
X138192885Y-111063489D01*
X138306959Y-110490000D01*
X138192885Y-109916511D01*
X137868029Y-109430330D01*
X137553248Y-109220000D01*
X137868029Y-109009670D01*
X138192885Y-108523489D01*
X138306959Y-107950000D01*
X138192885Y-107376511D01*
X137868029Y-106890330D01*
X137553248Y-106680000D01*
X137868029Y-106469670D01*
X138192885Y-105983489D01*
X138246924Y-105711812D01*
X139445736Y-105711812D01*
X139677262Y-106272149D01*
X140084737Y-106680336D01*
X139678769Y-107085596D01*
X139446265Y-107645528D01*
X139445736Y-108251812D01*
X139677262Y-108812149D01*
X140084737Y-109220336D01*
X139678769Y-109625596D01*
X139446265Y-110185528D01*
X139445736Y-110791812D01*
X139677262Y-111352149D01*
X140084737Y-111760336D01*
X139678769Y-112165596D01*
X139446265Y-112725528D01*
X139445736Y-113331812D01*
X139677262Y-113892149D01*
X140084737Y-114300336D01*
X139678769Y-114705596D01*
X139446265Y-115265528D01*
X139445736Y-115871812D01*
X139677262Y-116432149D01*
X140084737Y-116840336D01*
X139678769Y-117245596D01*
X139446265Y-117805528D01*
X139445736Y-118411812D01*
X139677262Y-118972149D01*
X140084737Y-119380336D01*
X139678769Y-119785596D01*
X139446265Y-120345528D01*
X139445736Y-120951812D01*
X139677262Y-121512149D01*
X140084737Y-121920336D01*
X139678769Y-122325596D01*
X139446265Y-122885528D01*
X139445736Y-123491812D01*
X139677262Y-124052149D01*
X140084737Y-124460336D01*
X139678769Y-124865596D01*
X139446265Y-125425528D01*
X139445736Y-126031812D01*
X139677262Y-126592149D01*
X140084737Y-127000336D01*
X139678769Y-127405596D01*
X139446265Y-127965528D01*
X139445736Y-128571812D01*
X139677262Y-129132149D01*
X140084737Y-129540336D01*
X139678769Y-129945596D01*
X139446265Y-130505528D01*
X139445736Y-131111812D01*
X139677262Y-131672149D01*
X140105596Y-132101231D01*
X140665528Y-132333735D01*
X141271812Y-132334264D01*
X141832149Y-132102738D01*
X142261231Y-131674404D01*
X142493735Y-131114472D01*
X142494264Y-130508188D01*
X142451094Y-130403708D01*
X146922402Y-125932400D01*
X147087149Y-125685839D01*
X147096747Y-125637585D01*
X147145001Y-125394999D01*
X147145001Y-104707603D01*
X147213943Y-104679117D01*
X147477192Y-104416327D01*
X147619838Y-104072799D01*
X147620162Y-103700833D01*
X147478117Y-103357057D01*
X147215327Y-103093808D01*
X146871799Y-102951162D01*
X146625009Y-102950947D01*
X146625009Y-101701403D01*
X152594003Y-95732409D01*
X152594003Y-127954003D01*
X152651855Y-128244842D01*
X152816602Y-128491404D01*
X154728650Y-130403452D01*
X154686265Y-130505528D01*
X154685736Y-131111812D01*
X154917262Y-131672149D01*
X155345596Y-132101231D01*
X155905528Y-132333735D01*
X156511812Y-132334264D01*
X157072149Y-132102738D01*
X157501231Y-131674404D01*
X157733735Y-131114472D01*
X157734264Y-130508188D01*
X157502738Y-129947851D01*
X157095263Y-129539664D01*
X157501231Y-129134404D01*
X157733735Y-128574472D01*
X157734264Y-127968188D01*
X157502738Y-127407851D01*
X157095263Y-126999664D01*
X157501231Y-126594404D01*
X157733735Y-126034472D01*
X157734264Y-125428188D01*
X157502738Y-124867851D01*
X157095263Y-124459664D01*
X157501231Y-124054404D01*
X157733735Y-123494472D01*
X157734264Y-122888188D01*
X157502738Y-122327851D01*
X157095263Y-121919664D01*
X157501231Y-121514404D01*
X157733735Y-120954472D01*
X157734264Y-120348188D01*
X157502738Y-119787851D01*
X157095263Y-119379664D01*
X157501231Y-118974404D01*
X157733735Y-118414472D01*
X157734264Y-117808188D01*
X157502738Y-117247851D01*
X157095263Y-116839664D01*
X157501231Y-116434404D01*
X157733735Y-115874472D01*
X157734264Y-115268188D01*
X157502738Y-114707851D01*
X157095263Y-114299664D01*
X157501231Y-113894404D01*
X157733735Y-113334472D01*
X157734264Y-112728188D01*
X157502738Y-112167851D01*
X157095263Y-111759664D01*
X157501231Y-111354404D01*
X157733735Y-110794472D01*
X157734264Y-110188188D01*
X157502738Y-109627851D01*
X157095263Y-109219664D01*
X157501231Y-108814404D01*
X157733735Y-108254472D01*
X157734264Y-107648188D01*
X157502738Y-107087851D01*
X157095263Y-106679664D01*
X157501231Y-106274404D01*
X157733735Y-105714472D01*
X157734264Y-105108188D01*
X157502738Y-104547851D01*
X157095263Y-104139664D01*
X157501231Y-103734404D01*
X157733735Y-103174472D01*
X157734264Y-102568188D01*
X157502738Y-102007851D01*
X157095263Y-101599664D01*
X157501231Y-101194404D01*
X157733735Y-100634472D01*
X157734264Y-100028188D01*
X157502738Y-99467851D01*
X157074404Y-99038769D01*
X157047494Y-99027595D01*
X157102591Y-98862196D01*
X156210000Y-97969605D01*
X155317409Y-98862196D01*
X155372353Y-99027138D01*
X155347851Y-99037262D01*
X154918769Y-99465596D01*
X154686265Y-100025528D01*
X154685736Y-100631812D01*
X154917262Y-101192149D01*
X155324737Y-101600336D01*
X154918769Y-102005596D01*
X154686265Y-102565528D01*
X154685736Y-103171812D01*
X154917262Y-103732149D01*
X155324737Y-104140336D01*
X154918769Y-104545596D01*
X154686265Y-105105528D01*
X154685736Y-105711812D01*
X154917262Y-106272149D01*
X155324737Y-106680336D01*
X154918769Y-107085596D01*
X154686265Y-107645528D01*
X154685736Y-108251812D01*
X154917262Y-108812149D01*
X155324737Y-109220336D01*
X154918769Y-109625596D01*
X154686265Y-110185528D01*
X154685736Y-110791812D01*
X154917262Y-111352149D01*
X155324737Y-111760336D01*
X154918769Y-112165596D01*
X154686265Y-112725528D01*
X154685736Y-113331812D01*
X154917262Y-113892149D01*
X155324737Y-114300336D01*
X154918769Y-114705596D01*
X154686265Y-115265528D01*
X154685736Y-115871812D01*
X154917262Y-116432149D01*
X155324737Y-116840336D01*
X154918769Y-117245596D01*
X154686265Y-117805528D01*
X154685736Y-118411812D01*
X154917262Y-118972149D01*
X155324737Y-119380336D01*
X154918769Y-119785596D01*
X154686265Y-120345528D01*
X154685736Y-120951812D01*
X154917262Y-121512149D01*
X155324737Y-121920336D01*
X154918769Y-122325596D01*
X154686265Y-122885528D01*
X154685736Y-123491812D01*
X154917262Y-124052149D01*
X155324737Y-124460336D01*
X154918769Y-124865596D01*
X154686265Y-125425528D01*
X154685736Y-126031812D01*
X154917262Y-126592149D01*
X155324737Y-127000336D01*
X154918769Y-127405596D01*
X154686265Y-127965528D01*
X154686051Y-128211249D01*
X154114003Y-127639201D01*
X154114003Y-97551965D01*
X154674484Y-97551965D01*
X154700277Y-98157700D01*
X154882461Y-98597533D01*
X155137804Y-98682591D01*
X156030395Y-97790000D01*
X156389605Y-97790000D01*
X157282196Y-98682591D01*
X157537539Y-98597533D01*
X157745516Y-98028035D01*
X157719723Y-97422300D01*
X157537539Y-96982467D01*
X157282196Y-96897409D01*
X156389605Y-97790000D01*
X156030395Y-97790000D01*
X155137804Y-96897409D01*
X154882461Y-96982467D01*
X154674484Y-97551965D01*
X154114003Y-97551965D01*
X154114003Y-95351415D01*
X154146195Y-95319279D01*
X154288841Y-94975751D01*
X154288998Y-94795999D01*
X154748355Y-94795999D01*
X154686265Y-94945528D01*
X154685736Y-95551812D01*
X154917262Y-96112149D01*
X155345596Y-96541231D01*
X155372506Y-96552405D01*
X155317409Y-96717804D01*
X156210000Y-97610395D01*
X157102591Y-96717804D01*
X157047647Y-96552862D01*
X157072149Y-96542738D01*
X157501231Y-96114404D01*
X157733735Y-95554472D01*
X157734264Y-94948188D01*
X157671381Y-94795999D01*
X158381960Y-94795999D01*
X158381960Y-96113600D01*
X158426238Y-96348917D01*
X158565310Y-96565041D01*
X158777510Y-96710031D01*
X158871375Y-96729039D01*
X158610312Y-97015053D01*
X158438042Y-97430974D01*
X158559183Y-97663000D01*
X159766000Y-97663000D01*
X159766000Y-97643000D01*
X160020000Y-97643000D01*
X160020000Y-97663000D01*
X162306000Y-97663000D01*
X162306000Y-97643000D01*
X162560000Y-97643000D01*
X162560000Y-97663000D01*
X163766817Y-97663000D01*
X163887958Y-97430974D01*
X163715688Y-97015053D01*
X163321490Y-96583179D01*
X163198772Y-96525664D01*
X163522029Y-96309670D01*
X163846885Y-95823489D01*
X163960959Y-95250000D01*
X163870653Y-94795999D01*
X169648475Y-94795999D01*
X169952462Y-95099986D01*
X169904769Y-95147596D01*
X169672265Y-95707528D01*
X169671736Y-96313812D01*
X169903262Y-96874149D01*
X170331596Y-97303231D01*
X170891528Y-97535735D01*
X171497812Y-97536264D01*
X172058149Y-97304738D01*
X172466336Y-96897263D01*
X172871596Y-97303231D01*
X173431528Y-97535735D01*
X174037812Y-97536264D01*
X174598149Y-97304738D01*
X175006336Y-96897263D01*
X175411596Y-97303231D01*
X175971528Y-97535735D01*
X176230110Y-97535961D01*
X176229838Y-97848167D01*
X176371883Y-98191943D01*
X176634673Y-98455192D01*
X176978201Y-98597838D01*
X177350167Y-98598162D01*
X177693943Y-98456117D01*
X177727118Y-98423000D01*
X178308000Y-98423000D01*
X178598839Y-98365148D01*
X178845401Y-98200401D01*
X179353401Y-97692401D01*
X179373046Y-97663000D01*
X179518148Y-97445839D01*
X179534400Y-97364134D01*
X179678149Y-97304738D01*
X180107231Y-96876404D01*
X180339735Y-96316472D01*
X180340264Y-95710188D01*
X180108738Y-95149851D01*
X179792083Y-94832643D01*
X179937699Y-94772327D01*
X180116327Y-94593698D01*
X180213000Y-94360309D01*
X180213000Y-93757750D01*
X180054250Y-93599000D01*
X178943000Y-93599000D01*
X178943000Y-93619000D01*
X178689000Y-93619000D01*
X178689000Y-93599000D01*
X178669000Y-93599000D01*
X178669000Y-93345000D01*
X178689000Y-93345000D01*
X178689000Y-92233750D01*
X178943000Y-92233750D01*
X178943000Y-93345000D01*
X180054250Y-93345000D01*
X180213000Y-93186250D01*
X180213000Y-92583691D01*
X180116327Y-92350302D01*
X179937699Y-92171673D01*
X179704310Y-92075000D01*
X179101750Y-92075000D01*
X178943000Y-92233750D01*
X178689000Y-92233750D01*
X178530250Y-92075000D01*
X177927690Y-92075000D01*
X177694301Y-92171673D01*
X177515673Y-92350302D01*
X177455253Y-92496168D01*
X177140404Y-92180769D01*
X176580472Y-91948265D01*
X175974188Y-91947736D01*
X175413851Y-92179262D01*
X175364275Y-92228751D01*
X174292123Y-91156599D01*
X174045561Y-90991852D01*
X173754722Y-90934000D01*
X154921199Y-90934000D01*
X154630360Y-90991852D01*
X154383798Y-91156599D01*
X144857249Y-100683148D01*
X144849779Y-100680046D01*
X144477813Y-100679722D01*
X144134037Y-100821767D01*
X143870788Y-101084557D01*
X143728142Y-101428085D01*
X143727818Y-101800051D01*
X143869863Y-102143827D01*
X143902980Y-102177002D01*
X143902980Y-119182218D01*
X142494052Y-120591146D01*
X142494264Y-120348188D01*
X142262738Y-119787851D01*
X141855263Y-119379664D01*
X142261231Y-118974404D01*
X142493735Y-118414472D01*
X142494264Y-117808188D01*
X142262738Y-117247851D01*
X141855263Y-116839664D01*
X142261231Y-116434404D01*
X142493735Y-115874472D01*
X142494264Y-115268188D01*
X142262738Y-114707851D01*
X141855263Y-114299664D01*
X142261231Y-113894404D01*
X142493735Y-113334472D01*
X142494264Y-112728188D01*
X142262738Y-112167851D01*
X141855263Y-111759664D01*
X142261231Y-111354404D01*
X142493735Y-110794472D01*
X142494264Y-110188188D01*
X142262738Y-109627851D01*
X141855263Y-109219664D01*
X142261231Y-108814404D01*
X142493735Y-108254472D01*
X142494264Y-107648188D01*
X142262738Y-107087851D01*
X141855263Y-106679664D01*
X142261231Y-106274404D01*
X142493735Y-105714472D01*
X142494264Y-105108188D01*
X142262738Y-104547851D01*
X141834404Y-104118769D01*
X141807494Y-104107595D01*
X141862591Y-103942196D01*
X140970000Y-103049605D01*
X140077409Y-103942196D01*
X140132353Y-104107138D01*
X140107851Y-104117262D01*
X139678769Y-104545596D01*
X139446265Y-105105528D01*
X139445736Y-105711812D01*
X138246924Y-105711812D01*
X138306959Y-105410000D01*
X138192885Y-104836511D01*
X137868029Y-104350330D01*
X137544772Y-104134336D01*
X137667490Y-104076821D01*
X138061688Y-103644947D01*
X138233958Y-103229026D01*
X138112817Y-102997000D01*
X136906000Y-102997000D01*
X136906000Y-103017000D01*
X136652000Y-103017000D01*
X136652000Y-102997000D01*
X134366000Y-102997000D01*
X134366000Y-103017000D01*
X134112000Y-103017000D01*
X134112000Y-102997000D01*
X134092000Y-102997000D01*
X134092000Y-102743000D01*
X134112000Y-102743000D01*
X134112000Y-102723000D01*
X134366000Y-102723000D01*
X134366000Y-102743000D01*
X136652000Y-102743000D01*
X136652000Y-102723000D01*
X136906000Y-102723000D01*
X136906000Y-102743000D01*
X138112817Y-102743000D01*
X138170788Y-102631965D01*
X139434484Y-102631965D01*
X139460277Y-103237700D01*
X139642461Y-103677533D01*
X139897804Y-103762591D01*
X140790395Y-102870000D01*
X141149605Y-102870000D01*
X142042196Y-103762591D01*
X142297539Y-103677533D01*
X142505516Y-103108035D01*
X142479723Y-102502300D01*
X142297539Y-102062467D01*
X142042196Y-101977409D01*
X141149605Y-102870000D01*
X140790395Y-102870000D01*
X139897804Y-101977409D01*
X139642461Y-102062467D01*
X139434484Y-102631965D01*
X138170788Y-102631965D01*
X138233958Y-102510974D01*
X138061688Y-102095053D01*
X137667490Y-101663179D01*
X137544772Y-101605664D01*
X137868029Y-101389670D01*
X138192885Y-100903489D01*
X138306959Y-100330000D01*
X138192885Y-99756511D01*
X137868029Y-99270330D01*
X137553248Y-99060000D01*
X137868029Y-98849670D01*
X138192885Y-98363489D01*
X138305000Y-97799849D01*
X138305000Y-99060000D01*
X138362852Y-99350839D01*
X138527599Y-99597401D01*
X139445837Y-100515639D01*
X139445736Y-100631812D01*
X139677262Y-101192149D01*
X140105596Y-101621231D01*
X140132506Y-101632405D01*
X140077409Y-101797804D01*
X140970000Y-102690395D01*
X141862591Y-101797804D01*
X141807647Y-101632862D01*
X141832149Y-101622738D01*
X142261231Y-101194404D01*
X142493735Y-100634472D01*
X142494264Y-100028188D01*
X142262738Y-99467851D01*
X141855263Y-99059664D01*
X142261231Y-98654404D01*
X142493735Y-98094472D01*
X142494264Y-97488188D01*
X142262738Y-96927851D01*
X141855263Y-96519664D01*
X142261231Y-96114404D01*
X142493735Y-95554472D01*
X142494264Y-94948188D01*
X142262738Y-94387851D01*
X141834404Y-93958769D01*
X141274472Y-93726265D01*
X140668188Y-93725736D01*
X140107851Y-93957262D01*
X139678769Y-94385596D01*
X139485894Y-94850092D01*
X137951401Y-93315599D01*
X137704839Y-93150852D01*
X137414000Y-93093000D01*
X136198463Y-93093000D01*
X136166327Y-93060808D01*
X135822799Y-92918162D01*
X135450833Y-92917838D01*
X135107057Y-93059883D01*
X134843808Y-93322673D01*
X134701162Y-93666201D01*
X134701013Y-93837460D01*
X134268359Y-93751400D01*
X134209641Y-93751400D01*
X133636152Y-93865474D01*
X133172200Y-94175477D01*
X133172200Y-89789000D01*
X134170420Y-89789000D01*
X134170420Y-90089990D01*
X134301580Y-90495373D01*
X134577889Y-90819706D01*
X134961065Y-91006981D01*
X135128000Y-90880068D01*
X135128000Y-89789000D01*
X134170420Y-89789000D01*
X133172200Y-89789000D01*
X133172200Y-89234010D01*
X134170420Y-89234010D01*
X134170420Y-89535000D01*
X135128000Y-89535000D01*
X135128000Y-88443932D01*
X135382000Y-88443932D01*
X135382000Y-89535000D01*
X135402000Y-89535000D01*
X135402000Y-89789000D01*
X135382000Y-89789000D01*
X135382000Y-90880068D01*
X135548935Y-91006981D01*
X135885762Y-90842359D01*
X136109949Y-90992156D01*
X136525000Y-91074715D01*
X136940051Y-90992156D01*
X137160000Y-90845191D01*
X137379949Y-90992156D01*
X137795000Y-91074715D01*
X138210051Y-90992156D01*
X138561914Y-90757049D01*
X138797021Y-90405186D01*
X138879580Y-89990135D01*
X138879580Y-89333865D01*
X138797021Y-88918814D01*
X138561914Y-88566951D01*
X138210051Y-88331844D01*
X137795000Y-88249285D01*
X137379949Y-88331844D01*
X137160000Y-88478809D01*
X136940051Y-88331844D01*
X136525000Y-88249285D01*
X136109949Y-88331844D01*
X135885762Y-88481641D01*
X135548935Y-88317019D01*
X135382000Y-88443932D01*
X135128000Y-88443932D01*
X134961065Y-88317019D01*
X134577889Y-88504294D01*
X134301580Y-88828627D01*
X134170420Y-89234010D01*
X133172200Y-89234010D01*
X133172200Y-87706200D01*
X181406800Y-87706200D01*
X181406800Y-127009708D01*
M02*
