G04 #@! TF.FileFunction,Legend,Bot*
%FSLAX46Y46*%
G04 Gerber Fmt 4.6, Leading zero omitted, Abs format (unit mm)*
G04 Created by KiCad (PCBNEW 4.0.2-stable) date 23-Jul-16 5:25:39 PM*
%MOMM*%
G01*
G04 APERTURE LIST*
%ADD10C,0.100000*%
%ADD11C,0.125000*%
%ADD12C,0.300000*%
%ADD13C,0.150000*%
G04 APERTURE END LIST*
D10*
D11*
X172954381Y-127937002D02*
X172978190Y-128008431D01*
X172978190Y-128127478D01*
X172954381Y-128175097D01*
X172930571Y-128198907D01*
X172882952Y-128222716D01*
X172835333Y-128222716D01*
X172787714Y-128198907D01*
X172763905Y-128175097D01*
X172740095Y-128127478D01*
X172716286Y-128032240D01*
X172692476Y-127984621D01*
X172668667Y-127960812D01*
X172621048Y-127937002D01*
X172573429Y-127937002D01*
X172525810Y-127960812D01*
X172502000Y-127984621D01*
X172478190Y-128032240D01*
X172478190Y-128151288D01*
X172502000Y-128222716D01*
X172954381Y-128627478D02*
X172978190Y-128579859D01*
X172978190Y-128484621D01*
X172954381Y-128437002D01*
X172906762Y-128413192D01*
X172716286Y-128413192D01*
X172668667Y-128437002D01*
X172644857Y-128484621D01*
X172644857Y-128579859D01*
X172668667Y-128627478D01*
X172716286Y-128651287D01*
X172763905Y-128651287D01*
X172811524Y-128413192D01*
X172954381Y-129056049D02*
X172978190Y-129008430D01*
X172978190Y-128913192D01*
X172954381Y-128865573D01*
X172906762Y-128841763D01*
X172716286Y-128841763D01*
X172668667Y-128865573D01*
X172644857Y-128913192D01*
X172644857Y-129008430D01*
X172668667Y-129056049D01*
X172716286Y-129079858D01*
X172763905Y-129079858D01*
X172811524Y-128841763D01*
X172978190Y-129889381D02*
X172478190Y-129889381D01*
X172954381Y-129889381D02*
X172978190Y-129841762D01*
X172978190Y-129746524D01*
X172954381Y-129698905D01*
X172930571Y-129675096D01*
X172882952Y-129651286D01*
X172740095Y-129651286D01*
X172692476Y-129675096D01*
X172668667Y-129698905D01*
X172644857Y-129746524D01*
X172644857Y-129841762D01*
X172668667Y-129889381D01*
X172978190Y-130198905D02*
X172954381Y-130151286D01*
X172930571Y-130127477D01*
X172882952Y-130103667D01*
X172740095Y-130103667D01*
X172692476Y-130127477D01*
X172668667Y-130151286D01*
X172644857Y-130198905D01*
X172644857Y-130270334D01*
X172668667Y-130317953D01*
X172692476Y-130341762D01*
X172740095Y-130365572D01*
X172882952Y-130365572D01*
X172930571Y-130341762D01*
X172954381Y-130317953D01*
X172978190Y-130270334D01*
X172978190Y-130198905D01*
X172954381Y-130794143D02*
X172978190Y-130746524D01*
X172978190Y-130651286D01*
X172954381Y-130603667D01*
X172930571Y-130579858D01*
X172882952Y-130556048D01*
X172740095Y-130556048D01*
X172692476Y-130579858D01*
X172668667Y-130603667D01*
X172644857Y-130651286D01*
X172644857Y-130746524D01*
X172668667Y-130794143D01*
X172954381Y-130984619D02*
X172978190Y-131032238D01*
X172978190Y-131127476D01*
X172954381Y-131175095D01*
X172906762Y-131198905D01*
X172882952Y-131198905D01*
X172835333Y-131175095D01*
X172811524Y-131127476D01*
X172811524Y-131056048D01*
X172787714Y-131008429D01*
X172740095Y-130984619D01*
X172716286Y-130984619D01*
X172668667Y-131008429D01*
X172644857Y-131056048D01*
X172644857Y-131127476D01*
X172668667Y-131175095D01*
X172978190Y-131794143D02*
X172478190Y-131794143D01*
X172668667Y-131794143D02*
X172644857Y-131841762D01*
X172644857Y-131937000D01*
X172668667Y-131984619D01*
X172692476Y-132008428D01*
X172740095Y-132032238D01*
X172882952Y-132032238D01*
X172930571Y-132008428D01*
X172954381Y-131984619D01*
X172978190Y-131937000D01*
X172978190Y-131841762D01*
X172954381Y-131794143D01*
X172954381Y-132437000D02*
X172978190Y-132389381D01*
X172978190Y-132294143D01*
X172954381Y-132246524D01*
X172906762Y-132222714D01*
X172716286Y-132222714D01*
X172668667Y-132246524D01*
X172644857Y-132294143D01*
X172644857Y-132389381D01*
X172668667Y-132437000D01*
X172716286Y-132460809D01*
X172763905Y-132460809D01*
X172811524Y-132222714D01*
X172644857Y-132603666D02*
X172644857Y-132794142D01*
X172978190Y-132675095D02*
X172549619Y-132675095D01*
X172502000Y-132698904D01*
X172478190Y-132746523D01*
X172478190Y-132794142D01*
X172978190Y-133032237D02*
X172954381Y-132984618D01*
X172930571Y-132960809D01*
X172882952Y-132936999D01*
X172740095Y-132936999D01*
X172692476Y-132960809D01*
X172668667Y-132984618D01*
X172644857Y-133032237D01*
X172644857Y-133103666D01*
X172668667Y-133151285D01*
X172692476Y-133175094D01*
X172740095Y-133198904D01*
X172882952Y-133198904D01*
X172930571Y-133175094D01*
X172954381Y-133151285D01*
X172978190Y-133103666D01*
X172978190Y-133032237D01*
X172978190Y-133413190D02*
X172644857Y-133413190D01*
X172740095Y-133413190D02*
X172692476Y-133436999D01*
X172668667Y-133460809D01*
X172644857Y-133508428D01*
X172644857Y-133556047D01*
X172954381Y-133913190D02*
X172978190Y-133865571D01*
X172978190Y-133770333D01*
X172954381Y-133722714D01*
X172906762Y-133698904D01*
X172716286Y-133698904D01*
X172668667Y-133722714D01*
X172644857Y-133770333D01*
X172644857Y-133865571D01*
X172668667Y-133913190D01*
X172716286Y-133936999D01*
X172763905Y-133936999D01*
X172811524Y-133698904D01*
X173469857Y-128484619D02*
X173803190Y-128484619D01*
X173469857Y-128270334D02*
X173731762Y-128270334D01*
X173779381Y-128294143D01*
X173803190Y-128341762D01*
X173803190Y-128413191D01*
X173779381Y-128460810D01*
X173755571Y-128484619D01*
X173779381Y-128698905D02*
X173803190Y-128746524D01*
X173803190Y-128841762D01*
X173779381Y-128889381D01*
X173731762Y-128913191D01*
X173707952Y-128913191D01*
X173660333Y-128889381D01*
X173636524Y-128841762D01*
X173636524Y-128770334D01*
X173612714Y-128722715D01*
X173565095Y-128698905D01*
X173541286Y-128698905D01*
X173493667Y-128722715D01*
X173469857Y-128770334D01*
X173469857Y-128841762D01*
X173493667Y-128889381D01*
X173803190Y-129127477D02*
X173469857Y-129127477D01*
X173303190Y-129127477D02*
X173327000Y-129103667D01*
X173350810Y-129127477D01*
X173327000Y-129151286D01*
X173303190Y-129127477D01*
X173350810Y-129127477D01*
X173469857Y-129365572D02*
X173803190Y-129365572D01*
X173517476Y-129365572D02*
X173493667Y-129389381D01*
X173469857Y-129437000D01*
X173469857Y-129508429D01*
X173493667Y-129556048D01*
X173541286Y-129579857D01*
X173803190Y-129579857D01*
X173469857Y-130032238D02*
X173874619Y-130032238D01*
X173922238Y-130008429D01*
X173946048Y-129984619D01*
X173969857Y-129937000D01*
X173969857Y-129865572D01*
X173946048Y-129817953D01*
X173779381Y-130032238D02*
X173803190Y-129984619D01*
X173803190Y-129889381D01*
X173779381Y-129841762D01*
X173755571Y-129817953D01*
X173707952Y-129794143D01*
X173565095Y-129794143D01*
X173517476Y-129817953D01*
X173493667Y-129841762D01*
X173469857Y-129889381D01*
X173469857Y-129984619D01*
X173493667Y-130032238D01*
X173469857Y-130651286D02*
X173898429Y-130651286D01*
X173946048Y-130627476D01*
X173969857Y-130579857D01*
X173969857Y-130556048D01*
X173303190Y-130651286D02*
X173327000Y-130627476D01*
X173350810Y-130651286D01*
X173327000Y-130675095D01*
X173303190Y-130651286D01*
X173350810Y-130651286D01*
X173469857Y-131103666D02*
X173803190Y-131103666D01*
X173469857Y-130889381D02*
X173731762Y-130889381D01*
X173779381Y-130913190D01*
X173803190Y-130960809D01*
X173803190Y-131032238D01*
X173779381Y-131079857D01*
X173755571Y-131103666D01*
X173803190Y-131341762D02*
X173469857Y-131341762D01*
X173517476Y-131341762D02*
X173493667Y-131365571D01*
X173469857Y-131413190D01*
X173469857Y-131484619D01*
X173493667Y-131532238D01*
X173541286Y-131556047D01*
X173803190Y-131556047D01*
X173541286Y-131556047D02*
X173493667Y-131579857D01*
X173469857Y-131627476D01*
X173469857Y-131698904D01*
X173493667Y-131746524D01*
X173541286Y-131770333D01*
X173803190Y-131770333D01*
X173469857Y-132008429D02*
X173969857Y-132008429D01*
X173493667Y-132008429D02*
X173469857Y-132056048D01*
X173469857Y-132151286D01*
X173493667Y-132198905D01*
X173517476Y-132222714D01*
X173565095Y-132246524D01*
X173707952Y-132246524D01*
X173755571Y-132222714D01*
X173779381Y-132198905D01*
X173803190Y-132151286D01*
X173803190Y-132056048D01*
X173779381Y-132008429D01*
X173779381Y-132651286D02*
X173803190Y-132603667D01*
X173803190Y-132508429D01*
X173779381Y-132460810D01*
X173731762Y-132437000D01*
X173541286Y-132437000D01*
X173493667Y-132460810D01*
X173469857Y-132508429D01*
X173469857Y-132603667D01*
X173493667Y-132651286D01*
X173541286Y-132675095D01*
X173588905Y-132675095D01*
X173636524Y-132437000D01*
X173803190Y-132889381D02*
X173469857Y-132889381D01*
X173565095Y-132889381D02*
X173517476Y-132913190D01*
X173493667Y-132937000D01*
X173469857Y-132984619D01*
X173469857Y-133032238D01*
X173779381Y-133175095D02*
X173803190Y-133222714D01*
X173803190Y-133317952D01*
X173779381Y-133365571D01*
X173731762Y-133389381D01*
X173707952Y-133389381D01*
X173660333Y-133365571D01*
X173636524Y-133317952D01*
X173636524Y-133246524D01*
X173612714Y-133198905D01*
X173565095Y-133175095D01*
X173541286Y-133175095D01*
X173493667Y-133198905D01*
X173469857Y-133246524D01*
X173469857Y-133317952D01*
X173493667Y-133365571D01*
X173755571Y-133603667D02*
X173779381Y-133627476D01*
X173803190Y-133603667D01*
X173779381Y-133579857D01*
X173755571Y-133603667D01*
X173803190Y-133603667D01*
X173612714Y-133603667D02*
X173327000Y-133579857D01*
X173303190Y-133603667D01*
X173327000Y-133627476D01*
X173612714Y-133603667D01*
X173303190Y-133603667D01*
D12*
X147503571Y-93803429D02*
X146003571Y-93803429D01*
X147075000Y-94303429D01*
X146003571Y-94803429D01*
X147503571Y-94803429D01*
X146503571Y-95374858D02*
X147503571Y-95732001D01*
X146503571Y-96089143D02*
X147503571Y-95732001D01*
X147860714Y-95589143D01*
X147932143Y-95517715D01*
X148003571Y-95374858D01*
X147432143Y-96589143D02*
X147503571Y-96803429D01*
X147503571Y-97160572D01*
X147432143Y-97303429D01*
X147360714Y-97374858D01*
X147217857Y-97446286D01*
X147075000Y-97446286D01*
X146932143Y-97374858D01*
X146860714Y-97303429D01*
X146789286Y-97160572D01*
X146717857Y-96874858D01*
X146646429Y-96732000D01*
X146575000Y-96660572D01*
X146432143Y-96589143D01*
X146289286Y-96589143D01*
X146146429Y-96660572D01*
X146075000Y-96732000D01*
X146003571Y-96874858D01*
X146003571Y-97232000D01*
X146075000Y-97446286D01*
X147432143Y-98660571D02*
X147503571Y-98517714D01*
X147503571Y-98232000D01*
X147432143Y-98089143D01*
X147289286Y-98017714D01*
X146717857Y-98017714D01*
X146575000Y-98089143D01*
X146503571Y-98232000D01*
X146503571Y-98517714D01*
X146575000Y-98660571D01*
X146717857Y-98732000D01*
X146860714Y-98732000D01*
X147003571Y-98017714D01*
X146503571Y-99374857D02*
X147503571Y-99374857D01*
X146646429Y-99374857D02*
X146575000Y-99446285D01*
X146503571Y-99589143D01*
X146503571Y-99803428D01*
X146575000Y-99946285D01*
X146717857Y-100017714D01*
X147503571Y-100017714D01*
X147432143Y-100660571D02*
X147503571Y-100803428D01*
X147503571Y-101089143D01*
X147432143Y-101232000D01*
X147289286Y-101303428D01*
X147217857Y-101303428D01*
X147075000Y-101232000D01*
X147003571Y-101089143D01*
X147003571Y-100874857D01*
X146932143Y-100732000D01*
X146789286Y-100660571D01*
X146717857Y-100660571D01*
X146575000Y-100732000D01*
X146503571Y-100874857D01*
X146503571Y-101089143D01*
X146575000Y-101232000D01*
X147503571Y-102160572D02*
X147432143Y-102017714D01*
X147360714Y-101946286D01*
X147217857Y-101874857D01*
X146789286Y-101874857D01*
X146646429Y-101946286D01*
X146575000Y-102017714D01*
X146503571Y-102160572D01*
X146503571Y-102374857D01*
X146575000Y-102517714D01*
X146646429Y-102589143D01*
X146789286Y-102660572D01*
X147217857Y-102660572D01*
X147360714Y-102589143D01*
X147432143Y-102517714D01*
X147503571Y-102374857D01*
X147503571Y-102160572D01*
X147503571Y-103303429D02*
X146503571Y-103303429D01*
X146789286Y-103303429D02*
X146646429Y-103374857D01*
X146575000Y-103446286D01*
X146503571Y-103589143D01*
X146503571Y-103732000D01*
X147432143Y-104160571D02*
X147503571Y-104303428D01*
X147503571Y-104589143D01*
X147432143Y-104732000D01*
X147289286Y-104803428D01*
X147217857Y-104803428D01*
X147075000Y-104732000D01*
X147003571Y-104589143D01*
X147003571Y-104374857D01*
X146932143Y-104232000D01*
X146789286Y-104160571D01*
X146717857Y-104160571D01*
X146575000Y-104232000D01*
X146503571Y-104374857D01*
X146503571Y-104589143D01*
X146575000Y-104732000D01*
X146717857Y-107089143D02*
X146789286Y-107303429D01*
X146860714Y-107374857D01*
X147003571Y-107446286D01*
X147217857Y-107446286D01*
X147360714Y-107374857D01*
X147432143Y-107303429D01*
X147503571Y-107160571D01*
X147503571Y-106589143D01*
X146003571Y-106589143D01*
X146003571Y-107089143D01*
X146075000Y-107232000D01*
X146146429Y-107303429D01*
X146289286Y-107374857D01*
X146432143Y-107374857D01*
X146575000Y-107303429D01*
X146646429Y-107232000D01*
X146717857Y-107089143D01*
X146717857Y-106589143D01*
X147503571Y-108732000D02*
X146717857Y-108732000D01*
X146575000Y-108660571D01*
X146503571Y-108517714D01*
X146503571Y-108232000D01*
X146575000Y-108089143D01*
X147432143Y-108732000D02*
X147503571Y-108589143D01*
X147503571Y-108232000D01*
X147432143Y-108089143D01*
X147289286Y-108017714D01*
X147146429Y-108017714D01*
X147003571Y-108089143D01*
X146932143Y-108232000D01*
X146932143Y-108589143D01*
X146860714Y-108732000D01*
X147432143Y-109374857D02*
X147503571Y-109517714D01*
X147503571Y-109803429D01*
X147432143Y-109946286D01*
X147289286Y-110017714D01*
X147217857Y-110017714D01*
X147075000Y-109946286D01*
X147003571Y-109803429D01*
X147003571Y-109589143D01*
X146932143Y-109446286D01*
X146789286Y-109374857D01*
X146717857Y-109374857D01*
X146575000Y-109446286D01*
X146503571Y-109589143D01*
X146503571Y-109803429D01*
X146575000Y-109946286D01*
X147503571Y-110660572D02*
X146503571Y-110660572D01*
X146003571Y-110660572D02*
X146075000Y-110589143D01*
X146146429Y-110660572D01*
X146075000Y-110732000D01*
X146003571Y-110660572D01*
X146146429Y-110660572D01*
X147432143Y-112017715D02*
X147503571Y-111874858D01*
X147503571Y-111589144D01*
X147432143Y-111446286D01*
X147360714Y-111374858D01*
X147217857Y-111303429D01*
X146789286Y-111303429D01*
X146646429Y-111374858D01*
X146575000Y-111446286D01*
X146503571Y-111589144D01*
X146503571Y-111874858D01*
X146575000Y-112017715D01*
X146932143Y-112660572D02*
X146932143Y-113803429D01*
X147503571Y-114517715D02*
X146003571Y-114517715D01*
X146575000Y-114517715D02*
X146503571Y-114660572D01*
X146503571Y-114946286D01*
X146575000Y-115089143D01*
X146646429Y-115160572D01*
X146789286Y-115232001D01*
X147217857Y-115232001D01*
X147360714Y-115160572D01*
X147432143Y-115089143D01*
X147503571Y-114946286D01*
X147503571Y-114660572D01*
X147432143Y-114517715D01*
X147503571Y-116089144D02*
X147432143Y-115946286D01*
X147360714Y-115874858D01*
X147217857Y-115803429D01*
X146789286Y-115803429D01*
X146646429Y-115874858D01*
X146575000Y-115946286D01*
X146503571Y-116089144D01*
X146503571Y-116303429D01*
X146575000Y-116446286D01*
X146646429Y-116517715D01*
X146789286Y-116589144D01*
X147217857Y-116589144D01*
X147360714Y-116517715D01*
X147432143Y-116446286D01*
X147503571Y-116303429D01*
X147503571Y-116089144D01*
X147503571Y-117874858D02*
X146717857Y-117874858D01*
X146575000Y-117803429D01*
X146503571Y-117660572D01*
X146503571Y-117374858D01*
X146575000Y-117232001D01*
X147432143Y-117874858D02*
X147503571Y-117732001D01*
X147503571Y-117374858D01*
X147432143Y-117232001D01*
X147289286Y-117160572D01*
X147146429Y-117160572D01*
X147003571Y-117232001D01*
X146932143Y-117374858D01*
X146932143Y-117732001D01*
X146860714Y-117874858D01*
X147503571Y-118589144D02*
X146503571Y-118589144D01*
X146789286Y-118589144D02*
X146646429Y-118660572D01*
X146575000Y-118732001D01*
X146503571Y-118874858D01*
X146503571Y-119017715D01*
X147503571Y-120160572D02*
X146003571Y-120160572D01*
X147432143Y-120160572D02*
X147503571Y-120017715D01*
X147503571Y-119732001D01*
X147432143Y-119589143D01*
X147360714Y-119517715D01*
X147217857Y-119446286D01*
X146789286Y-119446286D01*
X146646429Y-119517715D01*
X146575000Y-119589143D01*
X146503571Y-119732001D01*
X146503571Y-120017715D01*
X146575000Y-120160572D01*
X146003571Y-121803429D02*
X147503571Y-122303429D01*
X146003571Y-122803429D01*
X146003571Y-123589143D02*
X146003571Y-123732000D01*
X146075000Y-123874857D01*
X146146429Y-123946286D01*
X146289286Y-124017715D01*
X146575000Y-124089143D01*
X146932143Y-124089143D01*
X147217857Y-124017715D01*
X147360714Y-123946286D01*
X147432143Y-123874857D01*
X147503571Y-123732000D01*
X147503571Y-123589143D01*
X147432143Y-123446286D01*
X147360714Y-123374857D01*
X147217857Y-123303429D01*
X146932143Y-123232000D01*
X146575000Y-123232000D01*
X146289286Y-123303429D01*
X146146429Y-123374857D01*
X146075000Y-123446286D01*
X146003571Y-123589143D01*
X147360714Y-124732000D02*
X147432143Y-124803428D01*
X147503571Y-124732000D01*
X147432143Y-124660571D01*
X147360714Y-124732000D01*
X147503571Y-124732000D01*
X146146429Y-125374857D02*
X146075000Y-125446286D01*
X146003571Y-125589143D01*
X146003571Y-125946286D01*
X146075000Y-126089143D01*
X146146429Y-126160572D01*
X146289286Y-126232000D01*
X146432143Y-126232000D01*
X146646429Y-126160572D01*
X147503571Y-125303429D01*
X147503571Y-126232000D01*
X149117857Y-99267715D02*
X149189286Y-99482001D01*
X149260714Y-99553429D01*
X149403571Y-99624858D01*
X149617857Y-99624858D01*
X149760714Y-99553429D01*
X149832143Y-99482001D01*
X149903571Y-99339143D01*
X149903571Y-98767715D01*
X148403571Y-98767715D01*
X148403571Y-99267715D01*
X148475000Y-99410572D01*
X148546429Y-99482001D01*
X148689286Y-99553429D01*
X148832143Y-99553429D01*
X148975000Y-99482001D01*
X149046429Y-99410572D01*
X149117857Y-99267715D01*
X149117857Y-98767715D01*
X148903571Y-100124858D02*
X149903571Y-100482001D01*
X148903571Y-100839143D02*
X149903571Y-100482001D01*
X150260714Y-100339143D01*
X150332143Y-100267715D01*
X150403571Y-100124858D01*
X149903571Y-102553429D02*
X148403571Y-102553429D01*
X149475000Y-103053429D01*
X148403571Y-103553429D01*
X149903571Y-103553429D01*
X149903571Y-104910572D02*
X149117857Y-104910572D01*
X148975000Y-104839143D01*
X148903571Y-104696286D01*
X148903571Y-104410572D01*
X148975000Y-104267715D01*
X149832143Y-104910572D02*
X149903571Y-104767715D01*
X149903571Y-104410572D01*
X149832143Y-104267715D01*
X149689286Y-104196286D01*
X149546429Y-104196286D01*
X149403571Y-104267715D01*
X149332143Y-104410572D01*
X149332143Y-104767715D01*
X149260714Y-104910572D01*
X149903571Y-105624858D02*
X148903571Y-105624858D01*
X149189286Y-105624858D02*
X149046429Y-105696286D01*
X148975000Y-105767715D01*
X148903571Y-105910572D01*
X148903571Y-106053429D01*
X149832143Y-107196286D02*
X149903571Y-107053429D01*
X149903571Y-106767715D01*
X149832143Y-106624857D01*
X149760714Y-106553429D01*
X149617857Y-106482000D01*
X149189286Y-106482000D01*
X149046429Y-106553429D01*
X148975000Y-106624857D01*
X148903571Y-106767715D01*
X148903571Y-107053429D01*
X148975000Y-107196286D01*
X149903571Y-108053429D02*
X149832143Y-107910571D01*
X149760714Y-107839143D01*
X149617857Y-107767714D01*
X149189286Y-107767714D01*
X149046429Y-107839143D01*
X148975000Y-107910571D01*
X148903571Y-108053429D01*
X148903571Y-108267714D01*
X148975000Y-108410571D01*
X149046429Y-108482000D01*
X149189286Y-108553429D01*
X149617857Y-108553429D01*
X149760714Y-108482000D01*
X149832143Y-108410571D01*
X149903571Y-108267714D01*
X149903571Y-108053429D01*
X148903571Y-110196286D02*
X149903571Y-110553429D01*
X148903571Y-110910571D01*
X149903571Y-112124857D02*
X149117857Y-112124857D01*
X148975000Y-112053428D01*
X148903571Y-111910571D01*
X148903571Y-111624857D01*
X148975000Y-111482000D01*
X149832143Y-112124857D02*
X149903571Y-111982000D01*
X149903571Y-111624857D01*
X149832143Y-111482000D01*
X149689286Y-111410571D01*
X149546429Y-111410571D01*
X149403571Y-111482000D01*
X149332143Y-111624857D01*
X149332143Y-111982000D01*
X149260714Y-112124857D01*
X148903571Y-112839143D02*
X149903571Y-112839143D01*
X149046429Y-112839143D02*
X148975000Y-112910571D01*
X148903571Y-113053429D01*
X148903571Y-113267714D01*
X148975000Y-113410571D01*
X149117857Y-113482000D01*
X149903571Y-113482000D01*
X149903571Y-115339143D02*
X148403571Y-115339143D01*
X149903571Y-116196286D01*
X148403571Y-116196286D01*
X149903571Y-117124858D02*
X149832143Y-116982000D01*
X149760714Y-116910572D01*
X149617857Y-116839143D01*
X149189286Y-116839143D01*
X149046429Y-116910572D01*
X148975000Y-116982000D01*
X148903571Y-117124858D01*
X148903571Y-117339143D01*
X148975000Y-117482000D01*
X149046429Y-117553429D01*
X149189286Y-117624858D01*
X149617857Y-117624858D01*
X149760714Y-117553429D01*
X149832143Y-117482000D01*
X149903571Y-117339143D01*
X149903571Y-117124858D01*
X149903571Y-118482001D02*
X149832143Y-118339143D01*
X149760714Y-118267715D01*
X149617857Y-118196286D01*
X149189286Y-118196286D01*
X149046429Y-118267715D01*
X148975000Y-118339143D01*
X148903571Y-118482001D01*
X148903571Y-118696286D01*
X148975000Y-118839143D01*
X149046429Y-118910572D01*
X149189286Y-118982001D01*
X149617857Y-118982001D01*
X149760714Y-118910572D01*
X149832143Y-118839143D01*
X149903571Y-118696286D01*
X149903571Y-118482001D01*
X149903571Y-119624858D02*
X148903571Y-119624858D01*
X149189286Y-119624858D02*
X149046429Y-119696286D01*
X148975000Y-119767715D01*
X148903571Y-119910572D01*
X148903571Y-120053429D01*
X149903571Y-121196286D02*
X148403571Y-121196286D01*
X149832143Y-121196286D02*
X149903571Y-121053429D01*
X149903571Y-120767715D01*
X149832143Y-120624857D01*
X149760714Y-120553429D01*
X149617857Y-120482000D01*
X149189286Y-120482000D01*
X149046429Y-120553429D01*
X148975000Y-120624857D01*
X148903571Y-120767715D01*
X148903571Y-121053429D01*
X148975000Y-121196286D01*
X152232143Y-95660570D02*
X152303571Y-95803427D01*
X152303571Y-96089142D01*
X152232143Y-96231999D01*
X152089286Y-96303427D01*
X152017857Y-96303427D01*
X151875000Y-96231999D01*
X151803571Y-96089142D01*
X151803571Y-95874856D01*
X151732143Y-95731999D01*
X151589286Y-95660570D01*
X151517857Y-95660570D01*
X151375000Y-95731999D01*
X151303571Y-95874856D01*
X151303571Y-96089142D01*
X151375000Y-96231999D01*
X152232143Y-97517713D02*
X152303571Y-97374856D01*
X152303571Y-97089142D01*
X152232143Y-96946285D01*
X152089286Y-96874856D01*
X151517857Y-96874856D01*
X151375000Y-96946285D01*
X151303571Y-97089142D01*
X151303571Y-97374856D01*
X151375000Y-97517713D01*
X151517857Y-97589142D01*
X151660714Y-97589142D01*
X151803571Y-96874856D01*
X152232143Y-98803427D02*
X152303571Y-98660570D01*
X152303571Y-98374856D01*
X152232143Y-98231999D01*
X152089286Y-98160570D01*
X151517857Y-98160570D01*
X151375000Y-98231999D01*
X151303571Y-98374856D01*
X151303571Y-98660570D01*
X151375000Y-98803427D01*
X151517857Y-98874856D01*
X151660714Y-98874856D01*
X151803571Y-98160570D01*
X152160714Y-99517713D02*
X152232143Y-99589141D01*
X152303571Y-99517713D01*
X152232143Y-99446284D01*
X152160714Y-99517713D01*
X152303571Y-99517713D01*
X151375000Y-99517713D02*
X151446429Y-99589141D01*
X151517857Y-99517713D01*
X151446429Y-99446284D01*
X151375000Y-99517713D01*
X151517857Y-99517713D01*
X152303571Y-101374856D02*
X150803571Y-101374856D01*
X152303571Y-102017713D02*
X151517857Y-102017713D01*
X151375000Y-101946284D01*
X151303571Y-101803427D01*
X151303571Y-101589142D01*
X151375000Y-101446284D01*
X151446429Y-101374856D01*
X151303571Y-102517713D02*
X151303571Y-103089142D01*
X150803571Y-102731999D02*
X152089286Y-102731999D01*
X152232143Y-102803427D01*
X152303571Y-102946285D01*
X152303571Y-103089142D01*
X151303571Y-103374856D02*
X151303571Y-103946285D01*
X150803571Y-103589142D02*
X152089286Y-103589142D01*
X152232143Y-103660570D01*
X152303571Y-103803428D01*
X152303571Y-103946285D01*
X151303571Y-104446285D02*
X152803571Y-104446285D01*
X151375000Y-104446285D02*
X151303571Y-104589142D01*
X151303571Y-104874856D01*
X151375000Y-105017713D01*
X151446429Y-105089142D01*
X151589286Y-105160571D01*
X152017857Y-105160571D01*
X152160714Y-105089142D01*
X152232143Y-105017713D01*
X152303571Y-104874856D01*
X152303571Y-104589142D01*
X152232143Y-104446285D01*
X152232143Y-105731999D02*
X152303571Y-105874856D01*
X152303571Y-106160571D01*
X152232143Y-106303428D01*
X152089286Y-106374856D01*
X152017857Y-106374856D01*
X151875000Y-106303428D01*
X151803571Y-106160571D01*
X151803571Y-105946285D01*
X151732143Y-105803428D01*
X151589286Y-105731999D01*
X151517857Y-105731999D01*
X151375000Y-105803428D01*
X151303571Y-105946285D01*
X151303571Y-106160571D01*
X151375000Y-106303428D01*
X152160714Y-107017714D02*
X152232143Y-107089142D01*
X152303571Y-107017714D01*
X152232143Y-106946285D01*
X152160714Y-107017714D01*
X152303571Y-107017714D01*
X151375000Y-107017714D02*
X151446429Y-107089142D01*
X151517857Y-107017714D01*
X151446429Y-106946285D01*
X151375000Y-107017714D01*
X151517857Y-107017714D01*
X150732143Y-108803428D02*
X152660714Y-107517714D01*
X150732143Y-110374857D02*
X152660714Y-109089143D01*
X151303571Y-111517715D02*
X152517857Y-111517715D01*
X152660714Y-111446286D01*
X152732143Y-111374858D01*
X152803571Y-111232001D01*
X152803571Y-111017715D01*
X152732143Y-110874858D01*
X152232143Y-111517715D02*
X152303571Y-111374858D01*
X152303571Y-111089144D01*
X152232143Y-110946286D01*
X152160714Y-110874858D01*
X152017857Y-110803429D01*
X151589286Y-110803429D01*
X151446429Y-110874858D01*
X151375000Y-110946286D01*
X151303571Y-111089144D01*
X151303571Y-111374858D01*
X151375000Y-111517715D01*
X152303571Y-112232001D02*
X151303571Y-112232001D01*
X150803571Y-112232001D02*
X150875000Y-112160572D01*
X150946429Y-112232001D01*
X150875000Y-112303429D01*
X150803571Y-112232001D01*
X150946429Y-112232001D01*
X151303571Y-112732001D02*
X151303571Y-113303430D01*
X150803571Y-112946287D02*
X152089286Y-112946287D01*
X152232143Y-113017715D01*
X152303571Y-113160573D01*
X152303571Y-113303430D01*
X152160714Y-113803430D02*
X152232143Y-113874858D01*
X152303571Y-113803430D01*
X152232143Y-113732001D01*
X152160714Y-113803430D01*
X152303571Y-113803430D01*
X152303571Y-114517716D02*
X151303571Y-114517716D01*
X150803571Y-114517716D02*
X150875000Y-114446287D01*
X150946429Y-114517716D01*
X150875000Y-114589144D01*
X150803571Y-114517716D01*
X150946429Y-114517716D01*
X152303571Y-115446288D02*
X152232143Y-115303430D01*
X152160714Y-115232002D01*
X152017857Y-115160573D01*
X151589286Y-115160573D01*
X151446429Y-115232002D01*
X151375000Y-115303430D01*
X151303571Y-115446288D01*
X151303571Y-115660573D01*
X151375000Y-115803430D01*
X151446429Y-115874859D01*
X151589286Y-115946288D01*
X152017857Y-115946288D01*
X152160714Y-115874859D01*
X152232143Y-115803430D01*
X152303571Y-115660573D01*
X152303571Y-115446288D01*
X150732143Y-117660573D02*
X152660714Y-116374859D01*
X151303571Y-118017717D02*
X152303571Y-118374860D01*
X151303571Y-118732002D01*
X152303571Y-119303431D02*
X150803571Y-119303431D01*
X152303571Y-120160574D02*
X151446429Y-119517717D01*
X150803571Y-120160574D02*
X151660714Y-119303431D01*
X151303571Y-120660574D02*
X152303571Y-121017717D01*
X151303571Y-121374859D02*
X152303571Y-121017717D01*
X152660714Y-120874859D01*
X152732143Y-120803431D01*
X152803571Y-120660574D01*
X152303571Y-121946288D02*
X151303571Y-121946288D01*
X151589286Y-121946288D02*
X151446429Y-122017716D01*
X151375000Y-122089145D01*
X151303571Y-122232002D01*
X151303571Y-122374859D01*
X152303571Y-122874859D02*
X151303571Y-122874859D01*
X151589286Y-122874859D02*
X151446429Y-122946287D01*
X151375000Y-123017716D01*
X151303571Y-123160573D01*
X151303571Y-123303430D01*
D13*
X177546000Y-124714000D02*
X175006000Y-124714000D01*
X175006000Y-124714000D02*
X175006000Y-121920000D01*
X177546000Y-124714000D02*
X180086000Y-124714000D01*
X180086000Y-124714000D02*
X180086000Y-121920000D01*
X188470953Y-111252000D02*
G75*
G03X188470953Y-111252000I-10924953J0D01*
G01*
X178077714Y-111942571D02*
X177934857Y-111990190D01*
X177887238Y-112037810D01*
X177839619Y-112133048D01*
X177839619Y-112275905D01*
X177887238Y-112371143D01*
X177934857Y-112418762D01*
X178030095Y-112466381D01*
X178411048Y-112466381D01*
X178411048Y-111466381D01*
X178077714Y-111466381D01*
X177982476Y-111514000D01*
X177934857Y-111561619D01*
X177887238Y-111656857D01*
X177887238Y-111752095D01*
X177934857Y-111847333D01*
X177982476Y-111894952D01*
X178077714Y-111942571D01*
X178411048Y-111942571D01*
X177553905Y-111466381D02*
X176982476Y-111466381D01*
X177268191Y-112466381D02*
X177268191Y-111466381D01*
X176125333Y-112466381D02*
X176696762Y-112466381D01*
X176411048Y-112466381D02*
X176411048Y-111466381D01*
X176506286Y-111609238D01*
X176601524Y-111704476D01*
X176696762Y-111752095D01*
X177926952Y-105481429D02*
X177165047Y-105481429D01*
X177926952Y-121737429D02*
X177165047Y-121737429D01*
X177545999Y-122118381D02*
X177545999Y-121356476D01*
M02*
