G04 #@! TF.FileFunction,Copper,L2,Bot,Signal*
%FSLAX46Y46*%
G04 Gerber Fmt 4.6, Leading zero omitted, Abs format (unit mm)*
G04 Created by KiCad (PCBNEW 4.0.2-stable) date 12-Jun-16 1:17:00 PM*
%MOMM*%
G01*
G04 APERTURE LIST*
%ADD10C,0.100000*%
%ADD11R,1.300000X1.300000*%
%ADD12C,1.300000*%
%ADD13C,1.524000*%
%ADD14R,1.727200X1.727200*%
%ADD15O,1.727200X1.727200*%
%ADD16R,2.032000X2.032000*%
%ADD17O,2.032000X2.032000*%
%ADD18O,0.899160X1.501140*%
%ADD19C,0.600000*%
%ADD20C,0.250000*%
%ADD21C,0.254000*%
G04 APERTURE END LIST*
D10*
D11*
X172974000Y-125730000D03*
D12*
X170974000Y-125730000D03*
D13*
X178816000Y-93472000D03*
X176276000Y-93472000D03*
X173736000Y-93472000D03*
X171196000Y-93472000D03*
X171196000Y-96012000D03*
X173736000Y-96012000D03*
X176276000Y-96012000D03*
X178816000Y-96012000D03*
X140970000Y-95250000D03*
X140970000Y-97790000D03*
X140970000Y-100330000D03*
X140970000Y-102870000D03*
X140970000Y-105410000D03*
X140970000Y-107950000D03*
X140970000Y-110490000D03*
X140970000Y-113030000D03*
X140970000Y-115570000D03*
X140970000Y-118110000D03*
X140970000Y-120650000D03*
X140970000Y-123190000D03*
X140970000Y-125730000D03*
X140970000Y-128270000D03*
X140970000Y-130810000D03*
X156210000Y-130810000D03*
X156210000Y-128270000D03*
X156210000Y-125730000D03*
X156210000Y-123190000D03*
X156210000Y-120650000D03*
X156210000Y-118110000D03*
X156210000Y-115570000D03*
X156210000Y-113030000D03*
X156210000Y-110490000D03*
X156210000Y-107950000D03*
X156210000Y-105410000D03*
X156210000Y-102870000D03*
X156210000Y-100330000D03*
X156210000Y-97790000D03*
X156210000Y-95250000D03*
D14*
X136779000Y-130810000D03*
D15*
X134239000Y-130810000D03*
X136779000Y-128270000D03*
X134239000Y-128270000D03*
X136779000Y-125730000D03*
X134239000Y-125730000D03*
X136779000Y-123190000D03*
X134239000Y-123190000D03*
X136779000Y-120650000D03*
X134239000Y-120650000D03*
X136779000Y-118110000D03*
X134239000Y-118110000D03*
X136779000Y-115570000D03*
X134239000Y-115570000D03*
X136779000Y-113030000D03*
X134239000Y-113030000D03*
X136779000Y-110490000D03*
X134239000Y-110490000D03*
X136779000Y-107950000D03*
X134239000Y-107950000D03*
X136779000Y-105410000D03*
X134239000Y-105410000D03*
X136779000Y-102870000D03*
X134239000Y-102870000D03*
X136779000Y-100330000D03*
X134239000Y-100330000D03*
X136779000Y-97790000D03*
X134239000Y-97790000D03*
X136779000Y-95250000D03*
X134239000Y-95250000D03*
D14*
X159893000Y-95250000D03*
D15*
X162433000Y-95250000D03*
X159893000Y-97790000D03*
X162433000Y-97790000D03*
X159893000Y-100330000D03*
X162433000Y-100330000D03*
X159893000Y-102870000D03*
X162433000Y-102870000D03*
X159893000Y-105410000D03*
X162433000Y-105410000D03*
X159893000Y-107950000D03*
X162433000Y-107950000D03*
X159893000Y-110490000D03*
X162433000Y-110490000D03*
X159893000Y-113030000D03*
X162433000Y-113030000D03*
X159893000Y-115570000D03*
X162433000Y-115570000D03*
X159893000Y-118110000D03*
X162433000Y-118110000D03*
X159893000Y-120650000D03*
X162433000Y-120650000D03*
X159893000Y-123190000D03*
X162433000Y-123190000D03*
X159893000Y-125730000D03*
X162433000Y-125730000D03*
X159893000Y-128270000D03*
X162433000Y-128270000D03*
X159893000Y-130810000D03*
X162433000Y-130810000D03*
D13*
X177546000Y-123952000D03*
X177546000Y-103886000D03*
D16*
X176149000Y-131699000D03*
D17*
X176149000Y-129159000D03*
D16*
X179705000Y-129159000D03*
D17*
X179705000Y-131699000D03*
D18*
X136525000Y-89662000D03*
X137795000Y-89662000D03*
X135255000Y-89662000D03*
D19*
X177165000Y-97663000D03*
X176022000Y-120396000D03*
X171450000Y-113665000D03*
X144907000Y-122301000D03*
X144907000Y-115316000D03*
X171450000Y-98171000D03*
X167132000Y-96901000D03*
X172466000Y-92329000D03*
X135636000Y-93853000D03*
X180467000Y-98298000D03*
D20*
X178816000Y-96012000D02*
X178816000Y-97155000D01*
X178308000Y-97663000D02*
X177165000Y-97663000D01*
X178816000Y-97155000D02*
X178308000Y-97663000D01*
X179070000Y-95758000D02*
X178816000Y-96012000D01*
X173736000Y-93472000D02*
X173736000Y-92583000D01*
X144907000Y-122301000D02*
X141478000Y-125730000D01*
X145161000Y-115062000D02*
X144907000Y-115316000D01*
X145161000Y-90805000D02*
X145161000Y-115062000D01*
X145796000Y-90170000D02*
X145161000Y-90805000D01*
X162941000Y-90170000D02*
X145796000Y-90170000D01*
X164084000Y-91313000D02*
X162941000Y-90170000D01*
X164084000Y-91313000D02*
X164084000Y-91313000D01*
X164338000Y-91567000D02*
X164084000Y-91313000D01*
X172720000Y-91567000D02*
X164338000Y-91567000D01*
X173736000Y-92583000D02*
X172720000Y-91567000D01*
X141478000Y-125730000D02*
X140970000Y-125730000D01*
X173736000Y-96012000D02*
X173736000Y-96266000D01*
X173736000Y-96266000D02*
X171831000Y-98171000D01*
X171831000Y-98171000D02*
X171450000Y-98171000D01*
X167132000Y-96901000D02*
X166751000Y-96520000D01*
X166751000Y-96520000D02*
X166751000Y-95758000D01*
X143764000Y-120650000D02*
X140970000Y-120650000D01*
X146177000Y-118237000D02*
X143764000Y-120650000D01*
X146177000Y-91636002D02*
X146177000Y-118237000D01*
X146685000Y-91128002D02*
X146177000Y-91636002D01*
X162121002Y-91128002D02*
X146685000Y-91128002D01*
X166751000Y-95758000D02*
X162121002Y-91128002D01*
X166751000Y-95758000D02*
X166751000Y-95758000D01*
X176276000Y-96012000D02*
X176276000Y-98298000D01*
X143637000Y-118110000D02*
X140970000Y-118110000D01*
X145669000Y-116078000D02*
X143637000Y-118110000D01*
X145669000Y-91313000D02*
X145669000Y-116078000D01*
X146304000Y-90678000D02*
X145669000Y-91313000D01*
X162433000Y-90678000D02*
X146304000Y-90678000D01*
X163957000Y-92202000D02*
X162433000Y-90678000D01*
X163957000Y-92202000D02*
X163957000Y-92202000D01*
X171323000Y-99568000D02*
X163957000Y-92202000D01*
X175006000Y-99568000D02*
X171323000Y-99568000D01*
X176276000Y-98298000D02*
X175006000Y-99568000D01*
X140970000Y-115570000D02*
X141859000Y-115570000D01*
X176276000Y-91440000D02*
X176276000Y-93472000D01*
X175641000Y-90805000D02*
X176276000Y-91440000D01*
X164846000Y-90805000D02*
X175641000Y-90805000D01*
X163703000Y-89662000D02*
X164846000Y-90805000D01*
X145542000Y-89662000D02*
X163703000Y-89662000D01*
X144526000Y-90678000D02*
X145542000Y-89662000D01*
X144526000Y-112903000D02*
X144526000Y-90678000D01*
X141859000Y-115570000D02*
X144526000Y-112903000D01*
X172466000Y-94742000D02*
X171196000Y-96012000D01*
X172466000Y-92329000D02*
X172466000Y-94742000D01*
X140970000Y-100330000D02*
X140335000Y-100330000D01*
X140335000Y-100330000D02*
X139065000Y-99060000D01*
X137414000Y-93853000D02*
X135636000Y-93853000D01*
X139065000Y-95504000D02*
X137414000Y-93853000D01*
X139065000Y-99060000D02*
X139065000Y-95504000D01*
X175895000Y-102870000D02*
X180530500Y-98234500D01*
X175895000Y-102870000D02*
X162433000Y-102870000D01*
X180467000Y-98298000D02*
X180530500Y-98234500D01*
X162433000Y-102870000D02*
X163830000Y-102870000D01*
X163830000Y-102870000D02*
X167640000Y-106680000D01*
X167640000Y-106680000D02*
X167640000Y-128651000D01*
X167640000Y-128651000D02*
X172720000Y-133731000D01*
X172720000Y-133731000D02*
X177673000Y-133731000D01*
X177673000Y-133731000D02*
X179705000Y-131699000D01*
D21*
G36*
X181597300Y-87884000D02*
X181646603Y-88131864D01*
X181787007Y-88341993D01*
X181864000Y-88393438D01*
X181864000Y-134366000D01*
X178064333Y-134366000D01*
X178210401Y-134268401D01*
X179219033Y-133259769D01*
X179672655Y-133350000D01*
X179737345Y-133350000D01*
X180369155Y-133224325D01*
X180904778Y-132866433D01*
X181262670Y-132330810D01*
X181388345Y-131699000D01*
X181262670Y-131067190D01*
X181035501Y-130727208D01*
X181172441Y-130639090D01*
X181317431Y-130426890D01*
X181368440Y-130175000D01*
X181368440Y-128143000D01*
X181324162Y-127907683D01*
X181185090Y-127691559D01*
X180972890Y-127546569D01*
X180721000Y-127495560D01*
X178689000Y-127495560D01*
X178453683Y-127539838D01*
X178237559Y-127678910D01*
X178092569Y-127891110D01*
X178041560Y-128143000D01*
X178041560Y-130175000D01*
X178085838Y-130410317D01*
X178224910Y-130626441D01*
X178373837Y-130728198D01*
X178147330Y-131067190D01*
X178021655Y-131699000D01*
X178122619Y-132206579D01*
X177812440Y-132516758D01*
X177812440Y-130683000D01*
X177768162Y-130447683D01*
X177629090Y-130231559D01*
X177480163Y-130129802D01*
X177706670Y-129790810D01*
X177832345Y-129159000D01*
X177706670Y-128527190D01*
X177348778Y-127991567D01*
X176813155Y-127633675D01*
X176181345Y-127508000D01*
X176116655Y-127508000D01*
X175484845Y-127633675D01*
X174949222Y-127991567D01*
X174591330Y-128527190D01*
X174465655Y-129159000D01*
X174591330Y-129790810D01*
X174818499Y-130130792D01*
X174681559Y-130218910D01*
X174536569Y-130431110D01*
X174485560Y-130683000D01*
X174485560Y-132715000D01*
X174529838Y-132950317D01*
X174543147Y-132971000D01*
X173034802Y-132971000D01*
X168400000Y-128336198D01*
X168400000Y-125549078D01*
X169676378Y-125549078D01*
X169705917Y-126059428D01*
X169844389Y-126393729D01*
X170074984Y-126449410D01*
X170794395Y-125730000D01*
X170074984Y-125010590D01*
X169844389Y-125066271D01*
X169676378Y-125549078D01*
X168400000Y-125549078D01*
X168400000Y-124830984D01*
X170254590Y-124830984D01*
X170974000Y-125550395D01*
X170988142Y-125536252D01*
X171167748Y-125715858D01*
X171153605Y-125730000D01*
X171167748Y-125744142D01*
X170988142Y-125923748D01*
X170974000Y-125909605D01*
X170254590Y-126629016D01*
X170310271Y-126859611D01*
X170793078Y-127027622D01*
X171303428Y-126998083D01*
X171637729Y-126859611D01*
X171693410Y-126629018D01*
X171795072Y-126730680D01*
X171859910Y-126831441D01*
X172072110Y-126976431D01*
X172324000Y-127027440D01*
X173624000Y-127027440D01*
X173859317Y-126983162D01*
X174075441Y-126844090D01*
X174220431Y-126631890D01*
X174271440Y-126380000D01*
X174271440Y-125080000D01*
X174227162Y-124844683D01*
X174088090Y-124628559D01*
X173875890Y-124483569D01*
X173624000Y-124432560D01*
X172324000Y-124432560D01*
X172088683Y-124476838D01*
X171872559Y-124615910D01*
X171795063Y-124729329D01*
X171693410Y-124830982D01*
X171637729Y-124600389D01*
X171154922Y-124432378D01*
X170644572Y-124461917D01*
X170310271Y-124600389D01*
X170254590Y-124830984D01*
X168400000Y-124830984D01*
X168400000Y-124228661D01*
X176148758Y-124228661D01*
X176360990Y-124742303D01*
X176753630Y-125135629D01*
X177266900Y-125348757D01*
X177822661Y-125349242D01*
X178336303Y-125137010D01*
X178729629Y-124744370D01*
X178942757Y-124231100D01*
X178943242Y-123675339D01*
X178731010Y-123161697D01*
X178338370Y-122768371D01*
X177825100Y-122555243D01*
X177269339Y-122554758D01*
X176755697Y-122766990D01*
X176362371Y-123159630D01*
X176149243Y-123672900D01*
X176148758Y-124228661D01*
X168400000Y-124228661D01*
X168400000Y-106680000D01*
X168342148Y-106389161D01*
X168177401Y-106142599D01*
X166901015Y-104866213D01*
X176745392Y-104866213D01*
X176814857Y-105108397D01*
X177338302Y-105295144D01*
X177893368Y-105267362D01*
X178277143Y-105108397D01*
X178346608Y-104866213D01*
X177546000Y-104065605D01*
X176745392Y-104866213D01*
X166901015Y-104866213D01*
X165664802Y-103630000D01*
X175895000Y-103630000D01*
X176173879Y-103574527D01*
X176136856Y-103678302D01*
X176164638Y-104233368D01*
X176323603Y-104617143D01*
X176565787Y-104686608D01*
X177366395Y-103886000D01*
X177725605Y-103886000D01*
X178526213Y-104686608D01*
X178768397Y-104617143D01*
X178955144Y-104093698D01*
X178927362Y-103538632D01*
X178768397Y-103154857D01*
X178526213Y-103085392D01*
X177725605Y-103886000D01*
X177366395Y-103886000D01*
X177352253Y-103871858D01*
X177531858Y-103692253D01*
X177546000Y-103706395D01*
X178346608Y-102905787D01*
X178277143Y-102663603D01*
X177753698Y-102476856D01*
X177342358Y-102497444D01*
X180606680Y-99233122D01*
X180652167Y-99233162D01*
X180995943Y-99091117D01*
X181259192Y-98828327D01*
X181401838Y-98484799D01*
X181402162Y-98112833D01*
X181260117Y-97769057D01*
X180997327Y-97505808D01*
X180653799Y-97363162D01*
X180281833Y-97362838D01*
X179938057Y-97504883D01*
X179674808Y-97767673D01*
X179532162Y-98111201D01*
X179532121Y-98158077D01*
X175580198Y-102110000D01*
X163722262Y-102110000D01*
X163522029Y-101810330D01*
X163207248Y-101600000D01*
X163522029Y-101389670D01*
X163846885Y-100903489D01*
X163960959Y-100330000D01*
X163846885Y-99756511D01*
X163522029Y-99270330D01*
X163198772Y-99054336D01*
X163321490Y-98996821D01*
X163715688Y-98564947D01*
X163887958Y-98149026D01*
X163766817Y-97917000D01*
X162560000Y-97917000D01*
X162560000Y-97937000D01*
X162306000Y-97937000D01*
X162306000Y-97917000D01*
X160020000Y-97917000D01*
X160020000Y-97937000D01*
X159766000Y-97937000D01*
X159766000Y-97917000D01*
X158559183Y-97917000D01*
X158438042Y-98149026D01*
X158610312Y-98564947D01*
X159004510Y-98996821D01*
X159127228Y-99054336D01*
X158803971Y-99270330D01*
X158479115Y-99756511D01*
X158365041Y-100330000D01*
X158479115Y-100903489D01*
X158803971Y-101389670D01*
X159118752Y-101600000D01*
X158803971Y-101810330D01*
X158479115Y-102296511D01*
X158365041Y-102870000D01*
X158479115Y-103443489D01*
X158803971Y-103929670D01*
X159118752Y-104140000D01*
X158803971Y-104350330D01*
X158479115Y-104836511D01*
X158365041Y-105410000D01*
X158479115Y-105983489D01*
X158803971Y-106469670D01*
X159118752Y-106680000D01*
X158803971Y-106890330D01*
X158479115Y-107376511D01*
X158365041Y-107950000D01*
X158479115Y-108523489D01*
X158803971Y-109009670D01*
X159118752Y-109220000D01*
X158803971Y-109430330D01*
X158479115Y-109916511D01*
X158365041Y-110490000D01*
X158479115Y-111063489D01*
X158803971Y-111549670D01*
X159118752Y-111760000D01*
X158803971Y-111970330D01*
X158479115Y-112456511D01*
X158365041Y-113030000D01*
X158479115Y-113603489D01*
X158803971Y-114089670D01*
X159118752Y-114300000D01*
X158803971Y-114510330D01*
X158479115Y-114996511D01*
X158365041Y-115570000D01*
X158479115Y-116143489D01*
X158803971Y-116629670D01*
X159118752Y-116840000D01*
X158803971Y-117050330D01*
X158479115Y-117536511D01*
X158365041Y-118110000D01*
X158479115Y-118683489D01*
X158803971Y-119169670D01*
X159118752Y-119380000D01*
X158803971Y-119590330D01*
X158479115Y-120076511D01*
X158365041Y-120650000D01*
X158479115Y-121223489D01*
X158803971Y-121709670D01*
X159118752Y-121920000D01*
X158803971Y-122130330D01*
X158479115Y-122616511D01*
X158365041Y-123190000D01*
X158479115Y-123763489D01*
X158803971Y-124249670D01*
X159118752Y-124460000D01*
X158803971Y-124670330D01*
X158479115Y-125156511D01*
X158365041Y-125730000D01*
X158479115Y-126303489D01*
X158803971Y-126789670D01*
X159118752Y-127000000D01*
X158803971Y-127210330D01*
X158479115Y-127696511D01*
X158365041Y-128270000D01*
X158479115Y-128843489D01*
X158803971Y-129329670D01*
X159118752Y-129540000D01*
X158803971Y-129750330D01*
X158479115Y-130236511D01*
X158365041Y-130810000D01*
X158479115Y-131383489D01*
X158803971Y-131869670D01*
X159290152Y-132194526D01*
X159863641Y-132308600D01*
X159922359Y-132308600D01*
X160495848Y-132194526D01*
X160982029Y-131869670D01*
X161163000Y-131598828D01*
X161343971Y-131869670D01*
X161830152Y-132194526D01*
X162403641Y-132308600D01*
X162462359Y-132308600D01*
X163035848Y-132194526D01*
X163522029Y-131869670D01*
X163846885Y-131383489D01*
X163960959Y-130810000D01*
X163846885Y-130236511D01*
X163522029Y-129750330D01*
X163207248Y-129540000D01*
X163522029Y-129329670D01*
X163846885Y-128843489D01*
X163960959Y-128270000D01*
X163846885Y-127696511D01*
X163522029Y-127210330D01*
X163207248Y-127000000D01*
X163522029Y-126789670D01*
X163846885Y-126303489D01*
X163960959Y-125730000D01*
X163846885Y-125156511D01*
X163522029Y-124670330D01*
X163207248Y-124460000D01*
X163522029Y-124249670D01*
X163846885Y-123763489D01*
X163960959Y-123190000D01*
X163846885Y-122616511D01*
X163522029Y-122130330D01*
X163207248Y-121920000D01*
X163522029Y-121709670D01*
X163846885Y-121223489D01*
X163960959Y-120650000D01*
X163846885Y-120076511D01*
X163522029Y-119590330D01*
X163207248Y-119380000D01*
X163522029Y-119169670D01*
X163846885Y-118683489D01*
X163960959Y-118110000D01*
X163846885Y-117536511D01*
X163522029Y-117050330D01*
X163207248Y-116840000D01*
X163522029Y-116629670D01*
X163846885Y-116143489D01*
X163960959Y-115570000D01*
X163846885Y-114996511D01*
X163522029Y-114510330D01*
X163207248Y-114300000D01*
X163522029Y-114089670D01*
X163846885Y-113603489D01*
X163960959Y-113030000D01*
X163846885Y-112456511D01*
X163522029Y-111970330D01*
X163207248Y-111760000D01*
X163522029Y-111549670D01*
X163846885Y-111063489D01*
X163960959Y-110490000D01*
X163846885Y-109916511D01*
X163522029Y-109430330D01*
X163207248Y-109220000D01*
X163522029Y-109009670D01*
X163846885Y-108523489D01*
X163960959Y-107950000D01*
X163846885Y-107376511D01*
X163522029Y-106890330D01*
X163207248Y-106680000D01*
X163522029Y-106469670D01*
X163846885Y-105983489D01*
X163960959Y-105410000D01*
X163846885Y-104836511D01*
X163522029Y-104350330D01*
X163207248Y-104140000D01*
X163522029Y-103929670D01*
X163639324Y-103754126D01*
X166880000Y-106994802D01*
X166880000Y-128651000D01*
X166937852Y-128941839D01*
X167102599Y-129188401D01*
X172182599Y-134268401D01*
X172328667Y-134366000D01*
X157349370Y-134366000D01*
X157501231Y-134214404D01*
X157733735Y-133654472D01*
X157734264Y-133048188D01*
X157502738Y-132487851D01*
X157074404Y-132058769D01*
X156960481Y-132011464D01*
X157000303Y-131995010D01*
X157393629Y-131602370D01*
X157606757Y-131089100D01*
X157607242Y-130533339D01*
X157395010Y-130019697D01*
X157002370Y-129626371D01*
X156794488Y-129540051D01*
X157000303Y-129455010D01*
X157393629Y-129062370D01*
X157606757Y-128549100D01*
X157607242Y-127993339D01*
X157395010Y-127479697D01*
X157002370Y-127086371D01*
X156794488Y-127000051D01*
X157000303Y-126915010D01*
X157393629Y-126522370D01*
X157606757Y-126009100D01*
X157607242Y-125453339D01*
X157395010Y-124939697D01*
X157002370Y-124546371D01*
X156794488Y-124460051D01*
X157000303Y-124375010D01*
X157393629Y-123982370D01*
X157606757Y-123469100D01*
X157607242Y-122913339D01*
X157395010Y-122399697D01*
X157002370Y-122006371D01*
X156794488Y-121920051D01*
X157000303Y-121835010D01*
X157393629Y-121442370D01*
X157606757Y-120929100D01*
X157607242Y-120373339D01*
X157395010Y-119859697D01*
X157002370Y-119466371D01*
X156794488Y-119380051D01*
X157000303Y-119295010D01*
X157393629Y-118902370D01*
X157606757Y-118389100D01*
X157607242Y-117833339D01*
X157395010Y-117319697D01*
X157002370Y-116926371D01*
X156794488Y-116840051D01*
X157000303Y-116755010D01*
X157393629Y-116362370D01*
X157606757Y-115849100D01*
X157607242Y-115293339D01*
X157395010Y-114779697D01*
X157002370Y-114386371D01*
X156794488Y-114300051D01*
X157000303Y-114215010D01*
X157393629Y-113822370D01*
X157606757Y-113309100D01*
X157607242Y-112753339D01*
X157395010Y-112239697D01*
X157002370Y-111846371D01*
X156794488Y-111760051D01*
X157000303Y-111675010D01*
X157393629Y-111282370D01*
X157606757Y-110769100D01*
X157607242Y-110213339D01*
X157395010Y-109699697D01*
X157002370Y-109306371D01*
X156794488Y-109220051D01*
X157000303Y-109135010D01*
X157393629Y-108742370D01*
X157606757Y-108229100D01*
X157607242Y-107673339D01*
X157395010Y-107159697D01*
X157002370Y-106766371D01*
X156794488Y-106680051D01*
X157000303Y-106595010D01*
X157393629Y-106202370D01*
X157606757Y-105689100D01*
X157607242Y-105133339D01*
X157395010Y-104619697D01*
X157002370Y-104226371D01*
X156794488Y-104140051D01*
X157000303Y-104055010D01*
X157393629Y-103662370D01*
X157606757Y-103149100D01*
X157607242Y-102593339D01*
X157395010Y-102079697D01*
X157002370Y-101686371D01*
X156794488Y-101600051D01*
X157000303Y-101515010D01*
X157393629Y-101122370D01*
X157606757Y-100609100D01*
X157607242Y-100053339D01*
X157395010Y-99539697D01*
X157002370Y-99146371D01*
X156810273Y-99066605D01*
X156941143Y-99012397D01*
X157010608Y-98770213D01*
X156210000Y-97969605D01*
X155409392Y-98770213D01*
X155478857Y-99012397D01*
X155619318Y-99062509D01*
X155419697Y-99144990D01*
X155026371Y-99537630D01*
X154813243Y-100050900D01*
X154812758Y-100606661D01*
X155024990Y-101120303D01*
X155417630Y-101513629D01*
X155625512Y-101599949D01*
X155419697Y-101684990D01*
X155026371Y-102077630D01*
X154813243Y-102590900D01*
X154812758Y-103146661D01*
X155024990Y-103660303D01*
X155417630Y-104053629D01*
X155625512Y-104139949D01*
X155419697Y-104224990D01*
X155026371Y-104617630D01*
X154813243Y-105130900D01*
X154812758Y-105686661D01*
X155024990Y-106200303D01*
X155417630Y-106593629D01*
X155625512Y-106679949D01*
X155419697Y-106764990D01*
X155026371Y-107157630D01*
X154813243Y-107670900D01*
X154812758Y-108226661D01*
X155024990Y-108740303D01*
X155417630Y-109133629D01*
X155625512Y-109219949D01*
X155419697Y-109304990D01*
X155026371Y-109697630D01*
X154813243Y-110210900D01*
X154812758Y-110766661D01*
X155024990Y-111280303D01*
X155417630Y-111673629D01*
X155625512Y-111759949D01*
X155419697Y-111844990D01*
X155026371Y-112237630D01*
X154813243Y-112750900D01*
X154812758Y-113306661D01*
X155024990Y-113820303D01*
X155417630Y-114213629D01*
X155625512Y-114299949D01*
X155419697Y-114384990D01*
X155026371Y-114777630D01*
X154813243Y-115290900D01*
X154812758Y-115846661D01*
X155024990Y-116360303D01*
X155417630Y-116753629D01*
X155625512Y-116839949D01*
X155419697Y-116924990D01*
X155026371Y-117317630D01*
X154813243Y-117830900D01*
X154812758Y-118386661D01*
X155024990Y-118900303D01*
X155417630Y-119293629D01*
X155625512Y-119379949D01*
X155419697Y-119464990D01*
X155026371Y-119857630D01*
X154813243Y-120370900D01*
X154812758Y-120926661D01*
X155024990Y-121440303D01*
X155417630Y-121833629D01*
X155625512Y-121919949D01*
X155419697Y-122004990D01*
X155026371Y-122397630D01*
X154813243Y-122910900D01*
X154812758Y-123466661D01*
X155024990Y-123980303D01*
X155417630Y-124373629D01*
X155625512Y-124459949D01*
X155419697Y-124544990D01*
X155026371Y-124937630D01*
X154813243Y-125450900D01*
X154812758Y-126006661D01*
X155024990Y-126520303D01*
X155417630Y-126913629D01*
X155625512Y-126999949D01*
X155419697Y-127084990D01*
X155026371Y-127477630D01*
X154813243Y-127990900D01*
X154812758Y-128546661D01*
X155024990Y-129060303D01*
X155417630Y-129453629D01*
X155625512Y-129539949D01*
X155419697Y-129624990D01*
X155026371Y-130017630D01*
X154813243Y-130530900D01*
X154812758Y-131086661D01*
X155024990Y-131600303D01*
X155417630Y-131993629D01*
X155459639Y-132011072D01*
X155347851Y-132057262D01*
X154918769Y-132485596D01*
X154686265Y-133045528D01*
X154685736Y-133651812D01*
X154917262Y-134212149D01*
X155070845Y-134366000D01*
X142109370Y-134366000D01*
X142261231Y-134214404D01*
X142493735Y-133654472D01*
X142494264Y-133048188D01*
X142262738Y-132487851D01*
X141834404Y-132058769D01*
X141720481Y-132011464D01*
X141760303Y-131995010D01*
X142153629Y-131602370D01*
X142366757Y-131089100D01*
X142367242Y-130533339D01*
X142155010Y-130019697D01*
X141762370Y-129626371D01*
X141554488Y-129540051D01*
X141760303Y-129455010D01*
X142153629Y-129062370D01*
X142366757Y-128549100D01*
X142367242Y-127993339D01*
X142155010Y-127479697D01*
X141762370Y-127086371D01*
X141554488Y-127000051D01*
X141760303Y-126915010D01*
X142153629Y-126522370D01*
X142366757Y-126009100D01*
X142366838Y-125915964D01*
X145046680Y-123236122D01*
X145092167Y-123236162D01*
X145435943Y-123094117D01*
X145699192Y-122831327D01*
X145841838Y-122487799D01*
X145842162Y-122115833D01*
X145700117Y-121772057D01*
X145437327Y-121508808D01*
X145093799Y-121366162D01*
X144721833Y-121365838D01*
X144378057Y-121507883D01*
X144114808Y-121770673D01*
X143972162Y-122114201D01*
X143972121Y-122161077D01*
X142155618Y-123977580D01*
X142366757Y-123469100D01*
X142367242Y-122913339D01*
X142155010Y-122399697D01*
X141762370Y-122006371D01*
X141554488Y-121920051D01*
X141760303Y-121835010D01*
X142153629Y-121442370D01*
X142167070Y-121410000D01*
X143764000Y-121410000D01*
X144054839Y-121352148D01*
X144301401Y-121187401D01*
X146714401Y-118774401D01*
X146879148Y-118527840D01*
X146937000Y-118237000D01*
X146937000Y-97582302D01*
X154800856Y-97582302D01*
X154828638Y-98137368D01*
X154987603Y-98521143D01*
X155229787Y-98590608D01*
X156030395Y-97790000D01*
X156389605Y-97790000D01*
X157190213Y-98590608D01*
X157432397Y-98521143D01*
X157619144Y-97997698D01*
X157591362Y-97442632D01*
X157432397Y-97058857D01*
X157190213Y-96989392D01*
X156389605Y-97790000D01*
X156030395Y-97790000D01*
X155229787Y-96989392D01*
X154987603Y-97058857D01*
X154800856Y-97582302D01*
X146937000Y-97582302D01*
X146937000Y-91950804D01*
X146999802Y-91888002D01*
X154901160Y-91888002D01*
X154686265Y-92405528D01*
X154685736Y-93011812D01*
X154917262Y-93572149D01*
X155345596Y-94001231D01*
X155459519Y-94048536D01*
X155419697Y-94064990D01*
X155026371Y-94457630D01*
X154813243Y-94970900D01*
X154812758Y-95526661D01*
X155024990Y-96040303D01*
X155417630Y-96433629D01*
X155609727Y-96513395D01*
X155478857Y-96567603D01*
X155409392Y-96809787D01*
X156210000Y-97610395D01*
X157010608Y-96809787D01*
X156941143Y-96567603D01*
X156800682Y-96517491D01*
X157000303Y-96435010D01*
X157393629Y-96042370D01*
X157606757Y-95529100D01*
X157607242Y-94973339D01*
X157395010Y-94459697D01*
X157321841Y-94386400D01*
X158381960Y-94386400D01*
X158381960Y-96113600D01*
X158426238Y-96348917D01*
X158565310Y-96565041D01*
X158777510Y-96710031D01*
X158871375Y-96729039D01*
X158610312Y-97015053D01*
X158438042Y-97430974D01*
X158559183Y-97663000D01*
X159766000Y-97663000D01*
X159766000Y-97643000D01*
X160020000Y-97643000D01*
X160020000Y-97663000D01*
X162306000Y-97663000D01*
X162306000Y-97643000D01*
X162560000Y-97643000D01*
X162560000Y-97663000D01*
X163766817Y-97663000D01*
X163887958Y-97430974D01*
X163715688Y-97015053D01*
X163321490Y-96583179D01*
X163198772Y-96525664D01*
X163522029Y-96309670D01*
X163846885Y-95823489D01*
X163960959Y-95250000D01*
X163846885Y-94676511D01*
X163522029Y-94190330D01*
X163035848Y-93865474D01*
X162462359Y-93751400D01*
X162403641Y-93751400D01*
X161830152Y-93865474D01*
X161364558Y-94176574D01*
X161359762Y-94151083D01*
X161220690Y-93934959D01*
X161008490Y-93789969D01*
X160756600Y-93738960D01*
X159029400Y-93738960D01*
X158794083Y-93783238D01*
X158577959Y-93922310D01*
X158432969Y-94134510D01*
X158381960Y-94386400D01*
X157321841Y-94386400D01*
X157002370Y-94066371D01*
X156960361Y-94048928D01*
X157072149Y-94002738D01*
X157501231Y-93574404D01*
X157733735Y-93014472D01*
X157734264Y-92408188D01*
X157519328Y-91888002D01*
X161806200Y-91888002D01*
X165991000Y-96072802D01*
X165991000Y-96520000D01*
X166048852Y-96810839D01*
X166196885Y-97032386D01*
X166196838Y-97086167D01*
X166338883Y-97429943D01*
X166601673Y-97693192D01*
X166945201Y-97835838D01*
X167317167Y-97836162D01*
X167660943Y-97694117D01*
X167924192Y-97431327D01*
X167979156Y-97298958D01*
X170785599Y-100105401D01*
X171032161Y-100270148D01*
X171323000Y-100328000D01*
X175006000Y-100328000D01*
X175296839Y-100270148D01*
X175543401Y-100105401D01*
X176813401Y-98835401D01*
X176973453Y-98595866D01*
X176978201Y-98597838D01*
X177350167Y-98598162D01*
X177693943Y-98456117D01*
X177727118Y-98423000D01*
X178308000Y-98423000D01*
X178598839Y-98365148D01*
X178845401Y-98200401D01*
X179353401Y-97692401D01*
X179392691Y-97633599D01*
X179518148Y-97445839D01*
X179564182Y-97214414D01*
X179606303Y-97197010D01*
X179999629Y-96804370D01*
X180212757Y-96291100D01*
X180213242Y-95735339D01*
X180001010Y-95221697D01*
X179608370Y-94828371D01*
X179416273Y-94748605D01*
X179547143Y-94694397D01*
X179616608Y-94452213D01*
X178816000Y-93651605D01*
X178015392Y-94452213D01*
X178084857Y-94694397D01*
X178225318Y-94744509D01*
X178025697Y-94826990D01*
X177632371Y-95219630D01*
X177546051Y-95427512D01*
X177461010Y-95221697D01*
X177068370Y-94828371D01*
X176860488Y-94742051D01*
X177066303Y-94657010D01*
X177459629Y-94264370D01*
X177539395Y-94072273D01*
X177593603Y-94203143D01*
X177835787Y-94272608D01*
X178636395Y-93472000D01*
X178995605Y-93472000D01*
X179796213Y-94272608D01*
X180038397Y-94203143D01*
X180225144Y-93679698D01*
X180197362Y-93124632D01*
X180038397Y-92740857D01*
X179796213Y-92671392D01*
X178995605Y-93472000D01*
X178636395Y-93472000D01*
X177835787Y-92671392D01*
X177593603Y-92740857D01*
X177543491Y-92881318D01*
X177461010Y-92681697D01*
X177271432Y-92491787D01*
X178015392Y-92491787D01*
X178816000Y-93292395D01*
X179616608Y-92491787D01*
X179547143Y-92249603D01*
X179023698Y-92062856D01*
X178468632Y-92090638D01*
X178084857Y-92249603D01*
X178015392Y-92491787D01*
X177271432Y-92491787D01*
X177068370Y-92288371D01*
X177036000Y-92274930D01*
X177036000Y-91440000D01*
X176978148Y-91149161D01*
X176813401Y-90902599D01*
X176178401Y-90267599D01*
X175931839Y-90102852D01*
X175641000Y-90045000D01*
X165160802Y-90045000D01*
X164240401Y-89124599D01*
X163993839Y-88959852D01*
X163703000Y-88902000D01*
X145542000Y-88902000D01*
X145251161Y-88959852D01*
X145004599Y-89124599D01*
X143988599Y-90140599D01*
X143823852Y-90387161D01*
X143766000Y-90678000D01*
X143766000Y-112588198D01*
X141865009Y-114489189D01*
X141762370Y-114386371D01*
X141554488Y-114300051D01*
X141760303Y-114215010D01*
X142153629Y-113822370D01*
X142366757Y-113309100D01*
X142367242Y-112753339D01*
X142155010Y-112239697D01*
X141762370Y-111846371D01*
X141554488Y-111760051D01*
X141760303Y-111675010D01*
X142153629Y-111282370D01*
X142366757Y-110769100D01*
X142367242Y-110213339D01*
X142155010Y-109699697D01*
X141762370Y-109306371D01*
X141554488Y-109220051D01*
X141760303Y-109135010D01*
X142153629Y-108742370D01*
X142366757Y-108229100D01*
X142367242Y-107673339D01*
X142155010Y-107159697D01*
X141762370Y-106766371D01*
X141554488Y-106680051D01*
X141760303Y-106595010D01*
X142153629Y-106202370D01*
X142366757Y-105689100D01*
X142367242Y-105133339D01*
X142155010Y-104619697D01*
X141762370Y-104226371D01*
X141570273Y-104146605D01*
X141701143Y-104092397D01*
X141770608Y-103850213D01*
X140970000Y-103049605D01*
X140169392Y-103850213D01*
X140238857Y-104092397D01*
X140379318Y-104142509D01*
X140179697Y-104224990D01*
X139786371Y-104617630D01*
X139573243Y-105130900D01*
X139572758Y-105686661D01*
X139784990Y-106200303D01*
X140177630Y-106593629D01*
X140385512Y-106679949D01*
X140179697Y-106764990D01*
X139786371Y-107157630D01*
X139573243Y-107670900D01*
X139572758Y-108226661D01*
X139784990Y-108740303D01*
X140177630Y-109133629D01*
X140385512Y-109219949D01*
X140179697Y-109304990D01*
X139786371Y-109697630D01*
X139573243Y-110210900D01*
X139572758Y-110766661D01*
X139784990Y-111280303D01*
X140177630Y-111673629D01*
X140385512Y-111759949D01*
X140179697Y-111844990D01*
X139786371Y-112237630D01*
X139573243Y-112750900D01*
X139572758Y-113306661D01*
X139784990Y-113820303D01*
X140177630Y-114213629D01*
X140385512Y-114299949D01*
X140179697Y-114384990D01*
X139786371Y-114777630D01*
X139573243Y-115290900D01*
X139572758Y-115846661D01*
X139784990Y-116360303D01*
X140177630Y-116753629D01*
X140385512Y-116839949D01*
X140179697Y-116924990D01*
X139786371Y-117317630D01*
X139573243Y-117830900D01*
X139572758Y-118386661D01*
X139784990Y-118900303D01*
X140177630Y-119293629D01*
X140385512Y-119379949D01*
X140179697Y-119464990D01*
X139786371Y-119857630D01*
X139573243Y-120370900D01*
X139572758Y-120926661D01*
X139784990Y-121440303D01*
X140177630Y-121833629D01*
X140385512Y-121919949D01*
X140179697Y-122004990D01*
X139786371Y-122397630D01*
X139573243Y-122910900D01*
X139572758Y-123466661D01*
X139784990Y-123980303D01*
X140177630Y-124373629D01*
X140385512Y-124459949D01*
X140179697Y-124544990D01*
X139786371Y-124937630D01*
X139573243Y-125450900D01*
X139572758Y-126006661D01*
X139784990Y-126520303D01*
X140177630Y-126913629D01*
X140385512Y-126999949D01*
X140179697Y-127084990D01*
X139786371Y-127477630D01*
X139573243Y-127990900D01*
X139572758Y-128546661D01*
X139784990Y-129060303D01*
X140177630Y-129453629D01*
X140385512Y-129539949D01*
X140179697Y-129624990D01*
X139786371Y-130017630D01*
X139573243Y-130530900D01*
X139572758Y-131086661D01*
X139784990Y-131600303D01*
X140177630Y-131993629D01*
X140219639Y-132011072D01*
X140107851Y-132057262D01*
X139678769Y-132485596D01*
X139446265Y-133045528D01*
X139445736Y-133651812D01*
X139677262Y-134212149D01*
X139830845Y-134366000D01*
X132715000Y-134366000D01*
X132715000Y-130829903D01*
X132825115Y-131383489D01*
X133149971Y-131869670D01*
X133636152Y-132194526D01*
X134209641Y-132308600D01*
X134268359Y-132308600D01*
X134841848Y-132194526D01*
X135307442Y-131883426D01*
X135312238Y-131908917D01*
X135451310Y-132125041D01*
X135663510Y-132270031D01*
X135915400Y-132321040D01*
X137642600Y-132321040D01*
X137877917Y-132276762D01*
X138094041Y-132137690D01*
X138239031Y-131925490D01*
X138290040Y-131673600D01*
X138290040Y-129946400D01*
X138245762Y-129711083D01*
X138106690Y-129494959D01*
X137894490Y-129349969D01*
X137850869Y-129341136D01*
X137868029Y-129329670D01*
X138192885Y-128843489D01*
X138306959Y-128270000D01*
X138192885Y-127696511D01*
X137868029Y-127210330D01*
X137553248Y-127000000D01*
X137868029Y-126789670D01*
X138192885Y-126303489D01*
X138306959Y-125730000D01*
X138192885Y-125156511D01*
X137868029Y-124670330D01*
X137553248Y-124460000D01*
X137868029Y-124249670D01*
X138192885Y-123763489D01*
X138306959Y-123190000D01*
X138192885Y-122616511D01*
X137868029Y-122130330D01*
X137553248Y-121920000D01*
X137868029Y-121709670D01*
X138192885Y-121223489D01*
X138306959Y-120650000D01*
X138192885Y-120076511D01*
X137868029Y-119590330D01*
X137553248Y-119380000D01*
X137868029Y-119169670D01*
X138192885Y-118683489D01*
X138306959Y-118110000D01*
X138192885Y-117536511D01*
X137868029Y-117050330D01*
X137553248Y-116840000D01*
X137868029Y-116629670D01*
X138192885Y-116143489D01*
X138306959Y-115570000D01*
X138192885Y-114996511D01*
X137868029Y-114510330D01*
X137553248Y-114300000D01*
X137868029Y-114089670D01*
X138192885Y-113603489D01*
X138306959Y-113030000D01*
X138192885Y-112456511D01*
X137868029Y-111970330D01*
X137553248Y-111760000D01*
X137868029Y-111549670D01*
X138192885Y-111063489D01*
X138306959Y-110490000D01*
X138192885Y-109916511D01*
X137868029Y-109430330D01*
X137553248Y-109220000D01*
X137868029Y-109009670D01*
X138192885Y-108523489D01*
X138306959Y-107950000D01*
X138192885Y-107376511D01*
X137868029Y-106890330D01*
X137553248Y-106680000D01*
X137868029Y-106469670D01*
X138192885Y-105983489D01*
X138306959Y-105410000D01*
X138192885Y-104836511D01*
X137868029Y-104350330D01*
X137544772Y-104134336D01*
X137667490Y-104076821D01*
X138061688Y-103644947D01*
X138233958Y-103229026D01*
X138112817Y-102997000D01*
X136906000Y-102997000D01*
X136906000Y-103017000D01*
X136652000Y-103017000D01*
X136652000Y-102997000D01*
X134366000Y-102997000D01*
X134366000Y-103017000D01*
X134112000Y-103017000D01*
X134112000Y-102997000D01*
X132905183Y-102997000D01*
X132784042Y-103229026D01*
X132956312Y-103644947D01*
X133350510Y-104076821D01*
X133473228Y-104134336D01*
X133149971Y-104350330D01*
X132825115Y-104836511D01*
X132715000Y-105390097D01*
X132715000Y-100349903D01*
X132825115Y-100903489D01*
X133149971Y-101389670D01*
X133473228Y-101605664D01*
X133350510Y-101663179D01*
X132956312Y-102095053D01*
X132784042Y-102510974D01*
X132905183Y-102743000D01*
X134112000Y-102743000D01*
X134112000Y-102723000D01*
X134366000Y-102723000D01*
X134366000Y-102743000D01*
X136652000Y-102743000D01*
X136652000Y-102723000D01*
X136906000Y-102723000D01*
X136906000Y-102743000D01*
X138112817Y-102743000D01*
X138154949Y-102662302D01*
X139560856Y-102662302D01*
X139588638Y-103217368D01*
X139747603Y-103601143D01*
X139989787Y-103670608D01*
X140790395Y-102870000D01*
X141149605Y-102870000D01*
X141950213Y-103670608D01*
X142192397Y-103601143D01*
X142379144Y-103077698D01*
X142351362Y-102522632D01*
X142192397Y-102138857D01*
X141950213Y-102069392D01*
X141149605Y-102870000D01*
X140790395Y-102870000D01*
X139989787Y-102069392D01*
X139747603Y-102138857D01*
X139560856Y-102662302D01*
X138154949Y-102662302D01*
X138233958Y-102510974D01*
X138061688Y-102095053D01*
X137667490Y-101663179D01*
X137544772Y-101605664D01*
X137868029Y-101389670D01*
X138192885Y-100903489D01*
X138306959Y-100330000D01*
X138192885Y-99756511D01*
X137868029Y-99270330D01*
X137553248Y-99060000D01*
X137868029Y-98849670D01*
X138192885Y-98363489D01*
X138305000Y-97799849D01*
X138305000Y-99060000D01*
X138362852Y-99350839D01*
X138527599Y-99597401D01*
X139598036Y-100667838D01*
X139784990Y-101120303D01*
X140177630Y-101513629D01*
X140369727Y-101593395D01*
X140238857Y-101647603D01*
X140169392Y-101889787D01*
X140970000Y-102690395D01*
X141770608Y-101889787D01*
X141701143Y-101647603D01*
X141560682Y-101597491D01*
X141760303Y-101515010D01*
X142153629Y-101122370D01*
X142366757Y-100609100D01*
X142367242Y-100053339D01*
X142155010Y-99539697D01*
X141762370Y-99146371D01*
X141554488Y-99060051D01*
X141760303Y-98975010D01*
X142153629Y-98582370D01*
X142366757Y-98069100D01*
X142367242Y-97513339D01*
X142155010Y-96999697D01*
X141762370Y-96606371D01*
X141554488Y-96520051D01*
X141760303Y-96435010D01*
X142153629Y-96042370D01*
X142366757Y-95529100D01*
X142367242Y-94973339D01*
X142155010Y-94459697D01*
X141762370Y-94066371D01*
X141720361Y-94048928D01*
X141832149Y-94002738D01*
X142261231Y-93574404D01*
X142493735Y-93014472D01*
X142494264Y-92408188D01*
X142262738Y-91847851D01*
X141834404Y-91418769D01*
X141274472Y-91186265D01*
X140668188Y-91185736D01*
X140107851Y-91417262D01*
X139678769Y-91845596D01*
X139446265Y-92405528D01*
X139445736Y-93011812D01*
X139677262Y-93572149D01*
X140105596Y-94001231D01*
X140219519Y-94048536D01*
X140179697Y-94064990D01*
X139786371Y-94457630D01*
X139583060Y-94947258D01*
X137951401Y-93315599D01*
X137704839Y-93150852D01*
X137414000Y-93093000D01*
X136198463Y-93093000D01*
X136166327Y-93060808D01*
X135822799Y-92918162D01*
X135450833Y-92917838D01*
X135107057Y-93059883D01*
X134843808Y-93322673D01*
X134701162Y-93666201D01*
X134701013Y-93837460D01*
X134268359Y-93751400D01*
X134209641Y-93751400D01*
X133636152Y-93865474D01*
X133149971Y-94190330D01*
X132825115Y-94676511D01*
X132715000Y-95230097D01*
X132715000Y-89789000D01*
X134170420Y-89789000D01*
X134170420Y-90089990D01*
X134301580Y-90495373D01*
X134577889Y-90819706D01*
X134961065Y-91006981D01*
X135128000Y-90880068D01*
X135128000Y-89789000D01*
X134170420Y-89789000D01*
X132715000Y-89789000D01*
X132715000Y-89234010D01*
X134170420Y-89234010D01*
X134170420Y-89535000D01*
X135128000Y-89535000D01*
X135128000Y-88443932D01*
X135382000Y-88443932D01*
X135382000Y-89535000D01*
X135402000Y-89535000D01*
X135402000Y-89789000D01*
X135382000Y-89789000D01*
X135382000Y-90880068D01*
X135548935Y-91006981D01*
X135885762Y-90842359D01*
X136109949Y-90992156D01*
X136525000Y-91074715D01*
X136940051Y-90992156D01*
X137160000Y-90845191D01*
X137379949Y-90992156D01*
X137795000Y-91074715D01*
X138210051Y-90992156D01*
X138561914Y-90757049D01*
X138797021Y-90405186D01*
X138879580Y-89990135D01*
X138879580Y-89333865D01*
X138797021Y-88918814D01*
X138561914Y-88566951D01*
X138210051Y-88331844D01*
X137795000Y-88249285D01*
X137379949Y-88331844D01*
X137160000Y-88478809D01*
X136940051Y-88331844D01*
X136525000Y-88249285D01*
X136109949Y-88331844D01*
X135885762Y-88481641D01*
X135548935Y-88317019D01*
X135382000Y-88443932D01*
X135128000Y-88443932D01*
X134961065Y-88317019D01*
X134577889Y-88504294D01*
X134301580Y-88828627D01*
X134170420Y-89234010D01*
X132715000Y-89234010D01*
X132715000Y-88393438D01*
X132791993Y-88341993D01*
X132932397Y-88131864D01*
X132981700Y-87884000D01*
X132981700Y-87249000D01*
X181597300Y-87249000D01*
X181597300Y-87884000D01*
X181597300Y-87884000D01*
G37*
X181597300Y-87884000D02*
X181646603Y-88131864D01*
X181787007Y-88341993D01*
X181864000Y-88393438D01*
X181864000Y-134366000D01*
X178064333Y-134366000D01*
X178210401Y-134268401D01*
X179219033Y-133259769D01*
X179672655Y-133350000D01*
X179737345Y-133350000D01*
X180369155Y-133224325D01*
X180904778Y-132866433D01*
X181262670Y-132330810D01*
X181388345Y-131699000D01*
X181262670Y-131067190D01*
X181035501Y-130727208D01*
X181172441Y-130639090D01*
X181317431Y-130426890D01*
X181368440Y-130175000D01*
X181368440Y-128143000D01*
X181324162Y-127907683D01*
X181185090Y-127691559D01*
X180972890Y-127546569D01*
X180721000Y-127495560D01*
X178689000Y-127495560D01*
X178453683Y-127539838D01*
X178237559Y-127678910D01*
X178092569Y-127891110D01*
X178041560Y-128143000D01*
X178041560Y-130175000D01*
X178085838Y-130410317D01*
X178224910Y-130626441D01*
X178373837Y-130728198D01*
X178147330Y-131067190D01*
X178021655Y-131699000D01*
X178122619Y-132206579D01*
X177812440Y-132516758D01*
X177812440Y-130683000D01*
X177768162Y-130447683D01*
X177629090Y-130231559D01*
X177480163Y-130129802D01*
X177706670Y-129790810D01*
X177832345Y-129159000D01*
X177706670Y-128527190D01*
X177348778Y-127991567D01*
X176813155Y-127633675D01*
X176181345Y-127508000D01*
X176116655Y-127508000D01*
X175484845Y-127633675D01*
X174949222Y-127991567D01*
X174591330Y-128527190D01*
X174465655Y-129159000D01*
X174591330Y-129790810D01*
X174818499Y-130130792D01*
X174681559Y-130218910D01*
X174536569Y-130431110D01*
X174485560Y-130683000D01*
X174485560Y-132715000D01*
X174529838Y-132950317D01*
X174543147Y-132971000D01*
X173034802Y-132971000D01*
X168400000Y-128336198D01*
X168400000Y-125549078D01*
X169676378Y-125549078D01*
X169705917Y-126059428D01*
X169844389Y-126393729D01*
X170074984Y-126449410D01*
X170794395Y-125730000D01*
X170074984Y-125010590D01*
X169844389Y-125066271D01*
X169676378Y-125549078D01*
X168400000Y-125549078D01*
X168400000Y-124830984D01*
X170254590Y-124830984D01*
X170974000Y-125550395D01*
X170988142Y-125536252D01*
X171167748Y-125715858D01*
X171153605Y-125730000D01*
X171167748Y-125744142D01*
X170988142Y-125923748D01*
X170974000Y-125909605D01*
X170254590Y-126629016D01*
X170310271Y-126859611D01*
X170793078Y-127027622D01*
X171303428Y-126998083D01*
X171637729Y-126859611D01*
X171693410Y-126629018D01*
X171795072Y-126730680D01*
X171859910Y-126831441D01*
X172072110Y-126976431D01*
X172324000Y-127027440D01*
X173624000Y-127027440D01*
X173859317Y-126983162D01*
X174075441Y-126844090D01*
X174220431Y-126631890D01*
X174271440Y-126380000D01*
X174271440Y-125080000D01*
X174227162Y-124844683D01*
X174088090Y-124628559D01*
X173875890Y-124483569D01*
X173624000Y-124432560D01*
X172324000Y-124432560D01*
X172088683Y-124476838D01*
X171872559Y-124615910D01*
X171795063Y-124729329D01*
X171693410Y-124830982D01*
X171637729Y-124600389D01*
X171154922Y-124432378D01*
X170644572Y-124461917D01*
X170310271Y-124600389D01*
X170254590Y-124830984D01*
X168400000Y-124830984D01*
X168400000Y-124228661D01*
X176148758Y-124228661D01*
X176360990Y-124742303D01*
X176753630Y-125135629D01*
X177266900Y-125348757D01*
X177822661Y-125349242D01*
X178336303Y-125137010D01*
X178729629Y-124744370D01*
X178942757Y-124231100D01*
X178943242Y-123675339D01*
X178731010Y-123161697D01*
X178338370Y-122768371D01*
X177825100Y-122555243D01*
X177269339Y-122554758D01*
X176755697Y-122766990D01*
X176362371Y-123159630D01*
X176149243Y-123672900D01*
X176148758Y-124228661D01*
X168400000Y-124228661D01*
X168400000Y-106680000D01*
X168342148Y-106389161D01*
X168177401Y-106142599D01*
X166901015Y-104866213D01*
X176745392Y-104866213D01*
X176814857Y-105108397D01*
X177338302Y-105295144D01*
X177893368Y-105267362D01*
X178277143Y-105108397D01*
X178346608Y-104866213D01*
X177546000Y-104065605D01*
X176745392Y-104866213D01*
X166901015Y-104866213D01*
X165664802Y-103630000D01*
X175895000Y-103630000D01*
X176173879Y-103574527D01*
X176136856Y-103678302D01*
X176164638Y-104233368D01*
X176323603Y-104617143D01*
X176565787Y-104686608D01*
X177366395Y-103886000D01*
X177725605Y-103886000D01*
X178526213Y-104686608D01*
X178768397Y-104617143D01*
X178955144Y-104093698D01*
X178927362Y-103538632D01*
X178768397Y-103154857D01*
X178526213Y-103085392D01*
X177725605Y-103886000D01*
X177366395Y-103886000D01*
X177352253Y-103871858D01*
X177531858Y-103692253D01*
X177546000Y-103706395D01*
X178346608Y-102905787D01*
X178277143Y-102663603D01*
X177753698Y-102476856D01*
X177342358Y-102497444D01*
X180606680Y-99233122D01*
X180652167Y-99233162D01*
X180995943Y-99091117D01*
X181259192Y-98828327D01*
X181401838Y-98484799D01*
X181402162Y-98112833D01*
X181260117Y-97769057D01*
X180997327Y-97505808D01*
X180653799Y-97363162D01*
X180281833Y-97362838D01*
X179938057Y-97504883D01*
X179674808Y-97767673D01*
X179532162Y-98111201D01*
X179532121Y-98158077D01*
X175580198Y-102110000D01*
X163722262Y-102110000D01*
X163522029Y-101810330D01*
X163207248Y-101600000D01*
X163522029Y-101389670D01*
X163846885Y-100903489D01*
X163960959Y-100330000D01*
X163846885Y-99756511D01*
X163522029Y-99270330D01*
X163198772Y-99054336D01*
X163321490Y-98996821D01*
X163715688Y-98564947D01*
X163887958Y-98149026D01*
X163766817Y-97917000D01*
X162560000Y-97917000D01*
X162560000Y-97937000D01*
X162306000Y-97937000D01*
X162306000Y-97917000D01*
X160020000Y-97917000D01*
X160020000Y-97937000D01*
X159766000Y-97937000D01*
X159766000Y-97917000D01*
X158559183Y-97917000D01*
X158438042Y-98149026D01*
X158610312Y-98564947D01*
X159004510Y-98996821D01*
X159127228Y-99054336D01*
X158803971Y-99270330D01*
X158479115Y-99756511D01*
X158365041Y-100330000D01*
X158479115Y-100903489D01*
X158803971Y-101389670D01*
X159118752Y-101600000D01*
X158803971Y-101810330D01*
X158479115Y-102296511D01*
X158365041Y-102870000D01*
X158479115Y-103443489D01*
X158803971Y-103929670D01*
X159118752Y-104140000D01*
X158803971Y-104350330D01*
X158479115Y-104836511D01*
X158365041Y-105410000D01*
X158479115Y-105983489D01*
X158803971Y-106469670D01*
X159118752Y-106680000D01*
X158803971Y-106890330D01*
X158479115Y-107376511D01*
X158365041Y-107950000D01*
X158479115Y-108523489D01*
X158803971Y-109009670D01*
X159118752Y-109220000D01*
X158803971Y-109430330D01*
X158479115Y-109916511D01*
X158365041Y-110490000D01*
X158479115Y-111063489D01*
X158803971Y-111549670D01*
X159118752Y-111760000D01*
X158803971Y-111970330D01*
X158479115Y-112456511D01*
X158365041Y-113030000D01*
X158479115Y-113603489D01*
X158803971Y-114089670D01*
X159118752Y-114300000D01*
X158803971Y-114510330D01*
X158479115Y-114996511D01*
X158365041Y-115570000D01*
X158479115Y-116143489D01*
X158803971Y-116629670D01*
X159118752Y-116840000D01*
X158803971Y-117050330D01*
X158479115Y-117536511D01*
X158365041Y-118110000D01*
X158479115Y-118683489D01*
X158803971Y-119169670D01*
X159118752Y-119380000D01*
X158803971Y-119590330D01*
X158479115Y-120076511D01*
X158365041Y-120650000D01*
X158479115Y-121223489D01*
X158803971Y-121709670D01*
X159118752Y-121920000D01*
X158803971Y-122130330D01*
X158479115Y-122616511D01*
X158365041Y-123190000D01*
X158479115Y-123763489D01*
X158803971Y-124249670D01*
X159118752Y-124460000D01*
X158803971Y-124670330D01*
X158479115Y-125156511D01*
X158365041Y-125730000D01*
X158479115Y-126303489D01*
X158803971Y-126789670D01*
X159118752Y-127000000D01*
X158803971Y-127210330D01*
X158479115Y-127696511D01*
X158365041Y-128270000D01*
X158479115Y-128843489D01*
X158803971Y-129329670D01*
X159118752Y-129540000D01*
X158803971Y-129750330D01*
X158479115Y-130236511D01*
X158365041Y-130810000D01*
X158479115Y-131383489D01*
X158803971Y-131869670D01*
X159290152Y-132194526D01*
X159863641Y-132308600D01*
X159922359Y-132308600D01*
X160495848Y-132194526D01*
X160982029Y-131869670D01*
X161163000Y-131598828D01*
X161343971Y-131869670D01*
X161830152Y-132194526D01*
X162403641Y-132308600D01*
X162462359Y-132308600D01*
X163035848Y-132194526D01*
X163522029Y-131869670D01*
X163846885Y-131383489D01*
X163960959Y-130810000D01*
X163846885Y-130236511D01*
X163522029Y-129750330D01*
X163207248Y-129540000D01*
X163522029Y-129329670D01*
X163846885Y-128843489D01*
X163960959Y-128270000D01*
X163846885Y-127696511D01*
X163522029Y-127210330D01*
X163207248Y-127000000D01*
X163522029Y-126789670D01*
X163846885Y-126303489D01*
X163960959Y-125730000D01*
X163846885Y-125156511D01*
X163522029Y-124670330D01*
X163207248Y-124460000D01*
X163522029Y-124249670D01*
X163846885Y-123763489D01*
X163960959Y-123190000D01*
X163846885Y-122616511D01*
X163522029Y-122130330D01*
X163207248Y-121920000D01*
X163522029Y-121709670D01*
X163846885Y-121223489D01*
X163960959Y-120650000D01*
X163846885Y-120076511D01*
X163522029Y-119590330D01*
X163207248Y-119380000D01*
X163522029Y-119169670D01*
X163846885Y-118683489D01*
X163960959Y-118110000D01*
X163846885Y-117536511D01*
X163522029Y-117050330D01*
X163207248Y-116840000D01*
X163522029Y-116629670D01*
X163846885Y-116143489D01*
X163960959Y-115570000D01*
X163846885Y-114996511D01*
X163522029Y-114510330D01*
X163207248Y-114300000D01*
X163522029Y-114089670D01*
X163846885Y-113603489D01*
X163960959Y-113030000D01*
X163846885Y-112456511D01*
X163522029Y-111970330D01*
X163207248Y-111760000D01*
X163522029Y-111549670D01*
X163846885Y-111063489D01*
X163960959Y-110490000D01*
X163846885Y-109916511D01*
X163522029Y-109430330D01*
X163207248Y-109220000D01*
X163522029Y-109009670D01*
X163846885Y-108523489D01*
X163960959Y-107950000D01*
X163846885Y-107376511D01*
X163522029Y-106890330D01*
X163207248Y-106680000D01*
X163522029Y-106469670D01*
X163846885Y-105983489D01*
X163960959Y-105410000D01*
X163846885Y-104836511D01*
X163522029Y-104350330D01*
X163207248Y-104140000D01*
X163522029Y-103929670D01*
X163639324Y-103754126D01*
X166880000Y-106994802D01*
X166880000Y-128651000D01*
X166937852Y-128941839D01*
X167102599Y-129188401D01*
X172182599Y-134268401D01*
X172328667Y-134366000D01*
X157349370Y-134366000D01*
X157501231Y-134214404D01*
X157733735Y-133654472D01*
X157734264Y-133048188D01*
X157502738Y-132487851D01*
X157074404Y-132058769D01*
X156960481Y-132011464D01*
X157000303Y-131995010D01*
X157393629Y-131602370D01*
X157606757Y-131089100D01*
X157607242Y-130533339D01*
X157395010Y-130019697D01*
X157002370Y-129626371D01*
X156794488Y-129540051D01*
X157000303Y-129455010D01*
X157393629Y-129062370D01*
X157606757Y-128549100D01*
X157607242Y-127993339D01*
X157395010Y-127479697D01*
X157002370Y-127086371D01*
X156794488Y-127000051D01*
X157000303Y-126915010D01*
X157393629Y-126522370D01*
X157606757Y-126009100D01*
X157607242Y-125453339D01*
X157395010Y-124939697D01*
X157002370Y-124546371D01*
X156794488Y-124460051D01*
X157000303Y-124375010D01*
X157393629Y-123982370D01*
X157606757Y-123469100D01*
X157607242Y-122913339D01*
X157395010Y-122399697D01*
X157002370Y-122006371D01*
X156794488Y-121920051D01*
X157000303Y-121835010D01*
X157393629Y-121442370D01*
X157606757Y-120929100D01*
X157607242Y-120373339D01*
X157395010Y-119859697D01*
X157002370Y-119466371D01*
X156794488Y-119380051D01*
X157000303Y-119295010D01*
X157393629Y-118902370D01*
X157606757Y-118389100D01*
X157607242Y-117833339D01*
X157395010Y-117319697D01*
X157002370Y-116926371D01*
X156794488Y-116840051D01*
X157000303Y-116755010D01*
X157393629Y-116362370D01*
X157606757Y-115849100D01*
X157607242Y-115293339D01*
X157395010Y-114779697D01*
X157002370Y-114386371D01*
X156794488Y-114300051D01*
X157000303Y-114215010D01*
X157393629Y-113822370D01*
X157606757Y-113309100D01*
X157607242Y-112753339D01*
X157395010Y-112239697D01*
X157002370Y-111846371D01*
X156794488Y-111760051D01*
X157000303Y-111675010D01*
X157393629Y-111282370D01*
X157606757Y-110769100D01*
X157607242Y-110213339D01*
X157395010Y-109699697D01*
X157002370Y-109306371D01*
X156794488Y-109220051D01*
X157000303Y-109135010D01*
X157393629Y-108742370D01*
X157606757Y-108229100D01*
X157607242Y-107673339D01*
X157395010Y-107159697D01*
X157002370Y-106766371D01*
X156794488Y-106680051D01*
X157000303Y-106595010D01*
X157393629Y-106202370D01*
X157606757Y-105689100D01*
X157607242Y-105133339D01*
X157395010Y-104619697D01*
X157002370Y-104226371D01*
X156794488Y-104140051D01*
X157000303Y-104055010D01*
X157393629Y-103662370D01*
X157606757Y-103149100D01*
X157607242Y-102593339D01*
X157395010Y-102079697D01*
X157002370Y-101686371D01*
X156794488Y-101600051D01*
X157000303Y-101515010D01*
X157393629Y-101122370D01*
X157606757Y-100609100D01*
X157607242Y-100053339D01*
X157395010Y-99539697D01*
X157002370Y-99146371D01*
X156810273Y-99066605D01*
X156941143Y-99012397D01*
X157010608Y-98770213D01*
X156210000Y-97969605D01*
X155409392Y-98770213D01*
X155478857Y-99012397D01*
X155619318Y-99062509D01*
X155419697Y-99144990D01*
X155026371Y-99537630D01*
X154813243Y-100050900D01*
X154812758Y-100606661D01*
X155024990Y-101120303D01*
X155417630Y-101513629D01*
X155625512Y-101599949D01*
X155419697Y-101684990D01*
X155026371Y-102077630D01*
X154813243Y-102590900D01*
X154812758Y-103146661D01*
X155024990Y-103660303D01*
X155417630Y-104053629D01*
X155625512Y-104139949D01*
X155419697Y-104224990D01*
X155026371Y-104617630D01*
X154813243Y-105130900D01*
X154812758Y-105686661D01*
X155024990Y-106200303D01*
X155417630Y-106593629D01*
X155625512Y-106679949D01*
X155419697Y-106764990D01*
X155026371Y-107157630D01*
X154813243Y-107670900D01*
X154812758Y-108226661D01*
X155024990Y-108740303D01*
X155417630Y-109133629D01*
X155625512Y-109219949D01*
X155419697Y-109304990D01*
X155026371Y-109697630D01*
X154813243Y-110210900D01*
X154812758Y-110766661D01*
X155024990Y-111280303D01*
X155417630Y-111673629D01*
X155625512Y-111759949D01*
X155419697Y-111844990D01*
X155026371Y-112237630D01*
X154813243Y-112750900D01*
X154812758Y-113306661D01*
X155024990Y-113820303D01*
X155417630Y-114213629D01*
X155625512Y-114299949D01*
X155419697Y-114384990D01*
X155026371Y-114777630D01*
X154813243Y-115290900D01*
X154812758Y-115846661D01*
X155024990Y-116360303D01*
X155417630Y-116753629D01*
X155625512Y-116839949D01*
X155419697Y-116924990D01*
X155026371Y-117317630D01*
X154813243Y-117830900D01*
X154812758Y-118386661D01*
X155024990Y-118900303D01*
X155417630Y-119293629D01*
X155625512Y-119379949D01*
X155419697Y-119464990D01*
X155026371Y-119857630D01*
X154813243Y-120370900D01*
X154812758Y-120926661D01*
X155024990Y-121440303D01*
X155417630Y-121833629D01*
X155625512Y-121919949D01*
X155419697Y-122004990D01*
X155026371Y-122397630D01*
X154813243Y-122910900D01*
X154812758Y-123466661D01*
X155024990Y-123980303D01*
X155417630Y-124373629D01*
X155625512Y-124459949D01*
X155419697Y-124544990D01*
X155026371Y-124937630D01*
X154813243Y-125450900D01*
X154812758Y-126006661D01*
X155024990Y-126520303D01*
X155417630Y-126913629D01*
X155625512Y-126999949D01*
X155419697Y-127084990D01*
X155026371Y-127477630D01*
X154813243Y-127990900D01*
X154812758Y-128546661D01*
X155024990Y-129060303D01*
X155417630Y-129453629D01*
X155625512Y-129539949D01*
X155419697Y-129624990D01*
X155026371Y-130017630D01*
X154813243Y-130530900D01*
X154812758Y-131086661D01*
X155024990Y-131600303D01*
X155417630Y-131993629D01*
X155459639Y-132011072D01*
X155347851Y-132057262D01*
X154918769Y-132485596D01*
X154686265Y-133045528D01*
X154685736Y-133651812D01*
X154917262Y-134212149D01*
X155070845Y-134366000D01*
X142109370Y-134366000D01*
X142261231Y-134214404D01*
X142493735Y-133654472D01*
X142494264Y-133048188D01*
X142262738Y-132487851D01*
X141834404Y-132058769D01*
X141720481Y-132011464D01*
X141760303Y-131995010D01*
X142153629Y-131602370D01*
X142366757Y-131089100D01*
X142367242Y-130533339D01*
X142155010Y-130019697D01*
X141762370Y-129626371D01*
X141554488Y-129540051D01*
X141760303Y-129455010D01*
X142153629Y-129062370D01*
X142366757Y-128549100D01*
X142367242Y-127993339D01*
X142155010Y-127479697D01*
X141762370Y-127086371D01*
X141554488Y-127000051D01*
X141760303Y-126915010D01*
X142153629Y-126522370D01*
X142366757Y-126009100D01*
X142366838Y-125915964D01*
X145046680Y-123236122D01*
X145092167Y-123236162D01*
X145435943Y-123094117D01*
X145699192Y-122831327D01*
X145841838Y-122487799D01*
X145842162Y-122115833D01*
X145700117Y-121772057D01*
X145437327Y-121508808D01*
X145093799Y-121366162D01*
X144721833Y-121365838D01*
X144378057Y-121507883D01*
X144114808Y-121770673D01*
X143972162Y-122114201D01*
X143972121Y-122161077D01*
X142155618Y-123977580D01*
X142366757Y-123469100D01*
X142367242Y-122913339D01*
X142155010Y-122399697D01*
X141762370Y-122006371D01*
X141554488Y-121920051D01*
X141760303Y-121835010D01*
X142153629Y-121442370D01*
X142167070Y-121410000D01*
X143764000Y-121410000D01*
X144054839Y-121352148D01*
X144301401Y-121187401D01*
X146714401Y-118774401D01*
X146879148Y-118527840D01*
X146937000Y-118237000D01*
X146937000Y-97582302D01*
X154800856Y-97582302D01*
X154828638Y-98137368D01*
X154987603Y-98521143D01*
X155229787Y-98590608D01*
X156030395Y-97790000D01*
X156389605Y-97790000D01*
X157190213Y-98590608D01*
X157432397Y-98521143D01*
X157619144Y-97997698D01*
X157591362Y-97442632D01*
X157432397Y-97058857D01*
X157190213Y-96989392D01*
X156389605Y-97790000D01*
X156030395Y-97790000D01*
X155229787Y-96989392D01*
X154987603Y-97058857D01*
X154800856Y-97582302D01*
X146937000Y-97582302D01*
X146937000Y-91950804D01*
X146999802Y-91888002D01*
X154901160Y-91888002D01*
X154686265Y-92405528D01*
X154685736Y-93011812D01*
X154917262Y-93572149D01*
X155345596Y-94001231D01*
X155459519Y-94048536D01*
X155419697Y-94064990D01*
X155026371Y-94457630D01*
X154813243Y-94970900D01*
X154812758Y-95526661D01*
X155024990Y-96040303D01*
X155417630Y-96433629D01*
X155609727Y-96513395D01*
X155478857Y-96567603D01*
X155409392Y-96809787D01*
X156210000Y-97610395D01*
X157010608Y-96809787D01*
X156941143Y-96567603D01*
X156800682Y-96517491D01*
X157000303Y-96435010D01*
X157393629Y-96042370D01*
X157606757Y-95529100D01*
X157607242Y-94973339D01*
X157395010Y-94459697D01*
X157321841Y-94386400D01*
X158381960Y-94386400D01*
X158381960Y-96113600D01*
X158426238Y-96348917D01*
X158565310Y-96565041D01*
X158777510Y-96710031D01*
X158871375Y-96729039D01*
X158610312Y-97015053D01*
X158438042Y-97430974D01*
X158559183Y-97663000D01*
X159766000Y-97663000D01*
X159766000Y-97643000D01*
X160020000Y-97643000D01*
X160020000Y-97663000D01*
X162306000Y-97663000D01*
X162306000Y-97643000D01*
X162560000Y-97643000D01*
X162560000Y-97663000D01*
X163766817Y-97663000D01*
X163887958Y-97430974D01*
X163715688Y-97015053D01*
X163321490Y-96583179D01*
X163198772Y-96525664D01*
X163522029Y-96309670D01*
X163846885Y-95823489D01*
X163960959Y-95250000D01*
X163846885Y-94676511D01*
X163522029Y-94190330D01*
X163035848Y-93865474D01*
X162462359Y-93751400D01*
X162403641Y-93751400D01*
X161830152Y-93865474D01*
X161364558Y-94176574D01*
X161359762Y-94151083D01*
X161220690Y-93934959D01*
X161008490Y-93789969D01*
X160756600Y-93738960D01*
X159029400Y-93738960D01*
X158794083Y-93783238D01*
X158577959Y-93922310D01*
X158432969Y-94134510D01*
X158381960Y-94386400D01*
X157321841Y-94386400D01*
X157002370Y-94066371D01*
X156960361Y-94048928D01*
X157072149Y-94002738D01*
X157501231Y-93574404D01*
X157733735Y-93014472D01*
X157734264Y-92408188D01*
X157519328Y-91888002D01*
X161806200Y-91888002D01*
X165991000Y-96072802D01*
X165991000Y-96520000D01*
X166048852Y-96810839D01*
X166196885Y-97032386D01*
X166196838Y-97086167D01*
X166338883Y-97429943D01*
X166601673Y-97693192D01*
X166945201Y-97835838D01*
X167317167Y-97836162D01*
X167660943Y-97694117D01*
X167924192Y-97431327D01*
X167979156Y-97298958D01*
X170785599Y-100105401D01*
X171032161Y-100270148D01*
X171323000Y-100328000D01*
X175006000Y-100328000D01*
X175296839Y-100270148D01*
X175543401Y-100105401D01*
X176813401Y-98835401D01*
X176973453Y-98595866D01*
X176978201Y-98597838D01*
X177350167Y-98598162D01*
X177693943Y-98456117D01*
X177727118Y-98423000D01*
X178308000Y-98423000D01*
X178598839Y-98365148D01*
X178845401Y-98200401D01*
X179353401Y-97692401D01*
X179392691Y-97633599D01*
X179518148Y-97445839D01*
X179564182Y-97214414D01*
X179606303Y-97197010D01*
X179999629Y-96804370D01*
X180212757Y-96291100D01*
X180213242Y-95735339D01*
X180001010Y-95221697D01*
X179608370Y-94828371D01*
X179416273Y-94748605D01*
X179547143Y-94694397D01*
X179616608Y-94452213D01*
X178816000Y-93651605D01*
X178015392Y-94452213D01*
X178084857Y-94694397D01*
X178225318Y-94744509D01*
X178025697Y-94826990D01*
X177632371Y-95219630D01*
X177546051Y-95427512D01*
X177461010Y-95221697D01*
X177068370Y-94828371D01*
X176860488Y-94742051D01*
X177066303Y-94657010D01*
X177459629Y-94264370D01*
X177539395Y-94072273D01*
X177593603Y-94203143D01*
X177835787Y-94272608D01*
X178636395Y-93472000D01*
X178995605Y-93472000D01*
X179796213Y-94272608D01*
X180038397Y-94203143D01*
X180225144Y-93679698D01*
X180197362Y-93124632D01*
X180038397Y-92740857D01*
X179796213Y-92671392D01*
X178995605Y-93472000D01*
X178636395Y-93472000D01*
X177835787Y-92671392D01*
X177593603Y-92740857D01*
X177543491Y-92881318D01*
X177461010Y-92681697D01*
X177271432Y-92491787D01*
X178015392Y-92491787D01*
X178816000Y-93292395D01*
X179616608Y-92491787D01*
X179547143Y-92249603D01*
X179023698Y-92062856D01*
X178468632Y-92090638D01*
X178084857Y-92249603D01*
X178015392Y-92491787D01*
X177271432Y-92491787D01*
X177068370Y-92288371D01*
X177036000Y-92274930D01*
X177036000Y-91440000D01*
X176978148Y-91149161D01*
X176813401Y-90902599D01*
X176178401Y-90267599D01*
X175931839Y-90102852D01*
X175641000Y-90045000D01*
X165160802Y-90045000D01*
X164240401Y-89124599D01*
X163993839Y-88959852D01*
X163703000Y-88902000D01*
X145542000Y-88902000D01*
X145251161Y-88959852D01*
X145004599Y-89124599D01*
X143988599Y-90140599D01*
X143823852Y-90387161D01*
X143766000Y-90678000D01*
X143766000Y-112588198D01*
X141865009Y-114489189D01*
X141762370Y-114386371D01*
X141554488Y-114300051D01*
X141760303Y-114215010D01*
X142153629Y-113822370D01*
X142366757Y-113309100D01*
X142367242Y-112753339D01*
X142155010Y-112239697D01*
X141762370Y-111846371D01*
X141554488Y-111760051D01*
X141760303Y-111675010D01*
X142153629Y-111282370D01*
X142366757Y-110769100D01*
X142367242Y-110213339D01*
X142155010Y-109699697D01*
X141762370Y-109306371D01*
X141554488Y-109220051D01*
X141760303Y-109135010D01*
X142153629Y-108742370D01*
X142366757Y-108229100D01*
X142367242Y-107673339D01*
X142155010Y-107159697D01*
X141762370Y-106766371D01*
X141554488Y-106680051D01*
X141760303Y-106595010D01*
X142153629Y-106202370D01*
X142366757Y-105689100D01*
X142367242Y-105133339D01*
X142155010Y-104619697D01*
X141762370Y-104226371D01*
X141570273Y-104146605D01*
X141701143Y-104092397D01*
X141770608Y-103850213D01*
X140970000Y-103049605D01*
X140169392Y-103850213D01*
X140238857Y-104092397D01*
X140379318Y-104142509D01*
X140179697Y-104224990D01*
X139786371Y-104617630D01*
X139573243Y-105130900D01*
X139572758Y-105686661D01*
X139784990Y-106200303D01*
X140177630Y-106593629D01*
X140385512Y-106679949D01*
X140179697Y-106764990D01*
X139786371Y-107157630D01*
X139573243Y-107670900D01*
X139572758Y-108226661D01*
X139784990Y-108740303D01*
X140177630Y-109133629D01*
X140385512Y-109219949D01*
X140179697Y-109304990D01*
X139786371Y-109697630D01*
X139573243Y-110210900D01*
X139572758Y-110766661D01*
X139784990Y-111280303D01*
X140177630Y-111673629D01*
X140385512Y-111759949D01*
X140179697Y-111844990D01*
X139786371Y-112237630D01*
X139573243Y-112750900D01*
X139572758Y-113306661D01*
X139784990Y-113820303D01*
X140177630Y-114213629D01*
X140385512Y-114299949D01*
X140179697Y-114384990D01*
X139786371Y-114777630D01*
X139573243Y-115290900D01*
X139572758Y-115846661D01*
X139784990Y-116360303D01*
X140177630Y-116753629D01*
X140385512Y-116839949D01*
X140179697Y-116924990D01*
X139786371Y-117317630D01*
X139573243Y-117830900D01*
X139572758Y-118386661D01*
X139784990Y-118900303D01*
X140177630Y-119293629D01*
X140385512Y-119379949D01*
X140179697Y-119464990D01*
X139786371Y-119857630D01*
X139573243Y-120370900D01*
X139572758Y-120926661D01*
X139784990Y-121440303D01*
X140177630Y-121833629D01*
X140385512Y-121919949D01*
X140179697Y-122004990D01*
X139786371Y-122397630D01*
X139573243Y-122910900D01*
X139572758Y-123466661D01*
X139784990Y-123980303D01*
X140177630Y-124373629D01*
X140385512Y-124459949D01*
X140179697Y-124544990D01*
X139786371Y-124937630D01*
X139573243Y-125450900D01*
X139572758Y-126006661D01*
X139784990Y-126520303D01*
X140177630Y-126913629D01*
X140385512Y-126999949D01*
X140179697Y-127084990D01*
X139786371Y-127477630D01*
X139573243Y-127990900D01*
X139572758Y-128546661D01*
X139784990Y-129060303D01*
X140177630Y-129453629D01*
X140385512Y-129539949D01*
X140179697Y-129624990D01*
X139786371Y-130017630D01*
X139573243Y-130530900D01*
X139572758Y-131086661D01*
X139784990Y-131600303D01*
X140177630Y-131993629D01*
X140219639Y-132011072D01*
X140107851Y-132057262D01*
X139678769Y-132485596D01*
X139446265Y-133045528D01*
X139445736Y-133651812D01*
X139677262Y-134212149D01*
X139830845Y-134366000D01*
X132715000Y-134366000D01*
X132715000Y-130829903D01*
X132825115Y-131383489D01*
X133149971Y-131869670D01*
X133636152Y-132194526D01*
X134209641Y-132308600D01*
X134268359Y-132308600D01*
X134841848Y-132194526D01*
X135307442Y-131883426D01*
X135312238Y-131908917D01*
X135451310Y-132125041D01*
X135663510Y-132270031D01*
X135915400Y-132321040D01*
X137642600Y-132321040D01*
X137877917Y-132276762D01*
X138094041Y-132137690D01*
X138239031Y-131925490D01*
X138290040Y-131673600D01*
X138290040Y-129946400D01*
X138245762Y-129711083D01*
X138106690Y-129494959D01*
X137894490Y-129349969D01*
X137850869Y-129341136D01*
X137868029Y-129329670D01*
X138192885Y-128843489D01*
X138306959Y-128270000D01*
X138192885Y-127696511D01*
X137868029Y-127210330D01*
X137553248Y-127000000D01*
X137868029Y-126789670D01*
X138192885Y-126303489D01*
X138306959Y-125730000D01*
X138192885Y-125156511D01*
X137868029Y-124670330D01*
X137553248Y-124460000D01*
X137868029Y-124249670D01*
X138192885Y-123763489D01*
X138306959Y-123190000D01*
X138192885Y-122616511D01*
X137868029Y-122130330D01*
X137553248Y-121920000D01*
X137868029Y-121709670D01*
X138192885Y-121223489D01*
X138306959Y-120650000D01*
X138192885Y-120076511D01*
X137868029Y-119590330D01*
X137553248Y-119380000D01*
X137868029Y-119169670D01*
X138192885Y-118683489D01*
X138306959Y-118110000D01*
X138192885Y-117536511D01*
X137868029Y-117050330D01*
X137553248Y-116840000D01*
X137868029Y-116629670D01*
X138192885Y-116143489D01*
X138306959Y-115570000D01*
X138192885Y-114996511D01*
X137868029Y-114510330D01*
X137553248Y-114300000D01*
X137868029Y-114089670D01*
X138192885Y-113603489D01*
X138306959Y-113030000D01*
X138192885Y-112456511D01*
X137868029Y-111970330D01*
X137553248Y-111760000D01*
X137868029Y-111549670D01*
X138192885Y-111063489D01*
X138306959Y-110490000D01*
X138192885Y-109916511D01*
X137868029Y-109430330D01*
X137553248Y-109220000D01*
X137868029Y-109009670D01*
X138192885Y-108523489D01*
X138306959Y-107950000D01*
X138192885Y-107376511D01*
X137868029Y-106890330D01*
X137553248Y-106680000D01*
X137868029Y-106469670D01*
X138192885Y-105983489D01*
X138306959Y-105410000D01*
X138192885Y-104836511D01*
X137868029Y-104350330D01*
X137544772Y-104134336D01*
X137667490Y-104076821D01*
X138061688Y-103644947D01*
X138233958Y-103229026D01*
X138112817Y-102997000D01*
X136906000Y-102997000D01*
X136906000Y-103017000D01*
X136652000Y-103017000D01*
X136652000Y-102997000D01*
X134366000Y-102997000D01*
X134366000Y-103017000D01*
X134112000Y-103017000D01*
X134112000Y-102997000D01*
X132905183Y-102997000D01*
X132784042Y-103229026D01*
X132956312Y-103644947D01*
X133350510Y-104076821D01*
X133473228Y-104134336D01*
X133149971Y-104350330D01*
X132825115Y-104836511D01*
X132715000Y-105390097D01*
X132715000Y-100349903D01*
X132825115Y-100903489D01*
X133149971Y-101389670D01*
X133473228Y-101605664D01*
X133350510Y-101663179D01*
X132956312Y-102095053D01*
X132784042Y-102510974D01*
X132905183Y-102743000D01*
X134112000Y-102743000D01*
X134112000Y-102723000D01*
X134366000Y-102723000D01*
X134366000Y-102743000D01*
X136652000Y-102743000D01*
X136652000Y-102723000D01*
X136906000Y-102723000D01*
X136906000Y-102743000D01*
X138112817Y-102743000D01*
X138154949Y-102662302D01*
X139560856Y-102662302D01*
X139588638Y-103217368D01*
X139747603Y-103601143D01*
X139989787Y-103670608D01*
X140790395Y-102870000D01*
X141149605Y-102870000D01*
X141950213Y-103670608D01*
X142192397Y-103601143D01*
X142379144Y-103077698D01*
X142351362Y-102522632D01*
X142192397Y-102138857D01*
X141950213Y-102069392D01*
X141149605Y-102870000D01*
X140790395Y-102870000D01*
X139989787Y-102069392D01*
X139747603Y-102138857D01*
X139560856Y-102662302D01*
X138154949Y-102662302D01*
X138233958Y-102510974D01*
X138061688Y-102095053D01*
X137667490Y-101663179D01*
X137544772Y-101605664D01*
X137868029Y-101389670D01*
X138192885Y-100903489D01*
X138306959Y-100330000D01*
X138192885Y-99756511D01*
X137868029Y-99270330D01*
X137553248Y-99060000D01*
X137868029Y-98849670D01*
X138192885Y-98363489D01*
X138305000Y-97799849D01*
X138305000Y-99060000D01*
X138362852Y-99350839D01*
X138527599Y-99597401D01*
X139598036Y-100667838D01*
X139784990Y-101120303D01*
X140177630Y-101513629D01*
X140369727Y-101593395D01*
X140238857Y-101647603D01*
X140169392Y-101889787D01*
X140970000Y-102690395D01*
X141770608Y-101889787D01*
X141701143Y-101647603D01*
X141560682Y-101597491D01*
X141760303Y-101515010D01*
X142153629Y-101122370D01*
X142366757Y-100609100D01*
X142367242Y-100053339D01*
X142155010Y-99539697D01*
X141762370Y-99146371D01*
X141554488Y-99060051D01*
X141760303Y-98975010D01*
X142153629Y-98582370D01*
X142366757Y-98069100D01*
X142367242Y-97513339D01*
X142155010Y-96999697D01*
X141762370Y-96606371D01*
X141554488Y-96520051D01*
X141760303Y-96435010D01*
X142153629Y-96042370D01*
X142366757Y-95529100D01*
X142367242Y-94973339D01*
X142155010Y-94459697D01*
X141762370Y-94066371D01*
X141720361Y-94048928D01*
X141832149Y-94002738D01*
X142261231Y-93574404D01*
X142493735Y-93014472D01*
X142494264Y-92408188D01*
X142262738Y-91847851D01*
X141834404Y-91418769D01*
X141274472Y-91186265D01*
X140668188Y-91185736D01*
X140107851Y-91417262D01*
X139678769Y-91845596D01*
X139446265Y-92405528D01*
X139445736Y-93011812D01*
X139677262Y-93572149D01*
X140105596Y-94001231D01*
X140219519Y-94048536D01*
X140179697Y-94064990D01*
X139786371Y-94457630D01*
X139583060Y-94947258D01*
X137951401Y-93315599D01*
X137704839Y-93150852D01*
X137414000Y-93093000D01*
X136198463Y-93093000D01*
X136166327Y-93060808D01*
X135822799Y-92918162D01*
X135450833Y-92917838D01*
X135107057Y-93059883D01*
X134843808Y-93322673D01*
X134701162Y-93666201D01*
X134701013Y-93837460D01*
X134268359Y-93751400D01*
X134209641Y-93751400D01*
X133636152Y-93865474D01*
X133149971Y-94190330D01*
X132825115Y-94676511D01*
X132715000Y-95230097D01*
X132715000Y-89789000D01*
X134170420Y-89789000D01*
X134170420Y-90089990D01*
X134301580Y-90495373D01*
X134577889Y-90819706D01*
X134961065Y-91006981D01*
X135128000Y-90880068D01*
X135128000Y-89789000D01*
X134170420Y-89789000D01*
X132715000Y-89789000D01*
X132715000Y-89234010D01*
X134170420Y-89234010D01*
X134170420Y-89535000D01*
X135128000Y-89535000D01*
X135128000Y-88443932D01*
X135382000Y-88443932D01*
X135382000Y-89535000D01*
X135402000Y-89535000D01*
X135402000Y-89789000D01*
X135382000Y-89789000D01*
X135382000Y-90880068D01*
X135548935Y-91006981D01*
X135885762Y-90842359D01*
X136109949Y-90992156D01*
X136525000Y-91074715D01*
X136940051Y-90992156D01*
X137160000Y-90845191D01*
X137379949Y-90992156D01*
X137795000Y-91074715D01*
X138210051Y-90992156D01*
X138561914Y-90757049D01*
X138797021Y-90405186D01*
X138879580Y-89990135D01*
X138879580Y-89333865D01*
X138797021Y-88918814D01*
X138561914Y-88566951D01*
X138210051Y-88331844D01*
X137795000Y-88249285D01*
X137379949Y-88331844D01*
X137160000Y-88478809D01*
X136940051Y-88331844D01*
X136525000Y-88249285D01*
X136109949Y-88331844D01*
X135885762Y-88481641D01*
X135548935Y-88317019D01*
X135382000Y-88443932D01*
X135128000Y-88443932D01*
X134961065Y-88317019D01*
X134577889Y-88504294D01*
X134301580Y-88828627D01*
X134170420Y-89234010D01*
X132715000Y-89234010D01*
X132715000Y-88393438D01*
X132791993Y-88341993D01*
X132932397Y-88131864D01*
X132981700Y-87884000D01*
X132981700Y-87249000D01*
X181597300Y-87249000D01*
X181597300Y-87884000D01*
M02*
