G04 #@! TF.FileFunction,Legend,Top*
%FSLAX46Y46*%
G04 Gerber Fmt 4.6, Leading zero omitted, Abs format (unit mm)*
G04 Created by KiCad (PCBNEW 4.0.2-stable) date 23-Jul-16 5:25:39 PM*
%MOMM*%
G01*
G04 APERTURE LIST*
%ADD10C,0.100000*%
%ADD11C,0.127000*%
%ADD12C,0.300000*%
%ADD13C,0.150000*%
G04 APERTURE END LIST*
D10*
D11*
X168467919Y-133452809D02*
X167451919Y-133452809D01*
X168467919Y-132872238D01*
X167451919Y-132872238D01*
X168467919Y-131953000D02*
X167935729Y-131953000D01*
X167838967Y-132001381D01*
X167790586Y-132098143D01*
X167790586Y-132291666D01*
X167838967Y-132388428D01*
X168419538Y-131953000D02*
X168467919Y-132049762D01*
X168467919Y-132291666D01*
X168419538Y-132388428D01*
X168322776Y-132436809D01*
X168226014Y-132436809D01*
X168129252Y-132388428D01*
X168080871Y-132291666D01*
X168080871Y-132049762D01*
X168032490Y-131953000D01*
X167790586Y-131469190D02*
X168467919Y-131469190D01*
X167887348Y-131469190D02*
X167838967Y-131420809D01*
X167790586Y-131324047D01*
X167790586Y-131178905D01*
X167838967Y-131082143D01*
X167935729Y-131033762D01*
X168467919Y-131033762D01*
X168467919Y-130404809D02*
X168419538Y-130501571D01*
X168371157Y-130549952D01*
X168274395Y-130598333D01*
X167984110Y-130598333D01*
X167887348Y-130549952D01*
X167838967Y-130501571D01*
X167790586Y-130404809D01*
X167790586Y-130259667D01*
X167838967Y-130162905D01*
X167887348Y-130114524D01*
X167984110Y-130066143D01*
X168274395Y-130066143D01*
X168371157Y-130114524D01*
X168419538Y-130162905D01*
X168467919Y-130259667D01*
X168467919Y-130404809D01*
X167451919Y-129727476D02*
X167451919Y-129098524D01*
X167838967Y-129437190D01*
X167838967Y-129292048D01*
X167887348Y-129195286D01*
X167935729Y-129146905D01*
X168032490Y-129098524D01*
X168274395Y-129098524D01*
X168371157Y-129146905D01*
X168419538Y-129195286D01*
X168467919Y-129292048D01*
X168467919Y-129582333D01*
X168419538Y-129679095D01*
X168371157Y-129727476D01*
X167790586Y-128759857D02*
X168467919Y-128517952D01*
X167790586Y-128276048D01*
X167451919Y-127985762D02*
X167451919Y-127356810D01*
X167838967Y-127695476D01*
X167838967Y-127550334D01*
X167887348Y-127453572D01*
X167935729Y-127405191D01*
X168032490Y-127356810D01*
X168274395Y-127356810D01*
X168371157Y-127405191D01*
X168419538Y-127453572D01*
X168467919Y-127550334D01*
X168467919Y-127840619D01*
X168419538Y-127937381D01*
X168371157Y-127985762D01*
X169339986Y-132944809D02*
X169339986Y-132557761D01*
X169001319Y-132799666D02*
X169872176Y-132799666D01*
X169968938Y-132751285D01*
X170017319Y-132654523D01*
X170017319Y-132557761D01*
X170017319Y-132073952D02*
X169968938Y-132170714D01*
X169920557Y-132219095D01*
X169823795Y-132267476D01*
X169533510Y-132267476D01*
X169436748Y-132219095D01*
X169388367Y-132170714D01*
X169339986Y-132073952D01*
X169339986Y-131928810D01*
X169388367Y-131832048D01*
X169436748Y-131783667D01*
X169533510Y-131735286D01*
X169823795Y-131735286D01*
X169920557Y-131783667D01*
X169968938Y-131832048D01*
X170017319Y-131928810D01*
X170017319Y-132073952D01*
X170017319Y-130525762D02*
X169001319Y-130525762D01*
X170017319Y-129945191D01*
X169001319Y-129945191D01*
X170017319Y-128880810D02*
X169533510Y-129219476D01*
X170017319Y-129461381D02*
X169001319Y-129461381D01*
X169001319Y-129074334D01*
X169049700Y-128977572D01*
X169098081Y-128929191D01*
X169194843Y-128880810D01*
X169339986Y-128880810D01*
X169436748Y-128929191D01*
X169485129Y-128977572D01*
X169533510Y-129074334D01*
X169533510Y-129461381D01*
X169485129Y-128106715D02*
X169485129Y-128445381D01*
X170017319Y-128445381D02*
X169001319Y-128445381D01*
X169001319Y-127961572D01*
D12*
X174942572Y-125710143D02*
X176085429Y-125710143D01*
X175514000Y-126281571D02*
X175514000Y-125138714D01*
X167830572Y-125710143D02*
X168973429Y-125710143D01*
D13*
X181356000Y-90932000D02*
X166116000Y-90932000D01*
X166116000Y-90932000D02*
X166116000Y-121412000D01*
X166116000Y-121412000D02*
X181356000Y-121412000D01*
X181356000Y-121412000D02*
X181356000Y-90932000D01*
X171899000Y-128229000D02*
X171899000Y-123231000D01*
X171759000Y-128221000D02*
X171759000Y-125884000D01*
X171759000Y-125576000D02*
X171759000Y-123239000D01*
X171619000Y-128205000D02*
X171619000Y-126203000D01*
X171619000Y-125257000D02*
X171619000Y-123255000D01*
X171479000Y-128181000D02*
X171479000Y-126350000D01*
X171479000Y-125110000D02*
X171479000Y-123279000D01*
X171339000Y-128148000D02*
X171339000Y-126442000D01*
X171339000Y-125018000D02*
X171339000Y-123312000D01*
X171199000Y-128107000D02*
X171199000Y-126498000D01*
X171199000Y-124962000D02*
X171199000Y-123353000D01*
X171059000Y-128057000D02*
X171059000Y-126525000D01*
X171059000Y-124935000D02*
X171059000Y-123403000D01*
X170919000Y-127996000D02*
X170919000Y-126528000D01*
X170919000Y-124932000D02*
X170919000Y-123464000D01*
X170779000Y-127926000D02*
X170779000Y-126506000D01*
X170779000Y-124954000D02*
X170779000Y-123534000D01*
X170639000Y-127844000D02*
X170639000Y-126456000D01*
X170639000Y-125004000D02*
X170639000Y-123616000D01*
X170499000Y-127749000D02*
X170499000Y-126374000D01*
X170499000Y-125086000D02*
X170499000Y-123711000D01*
X170359000Y-127638000D02*
X170359000Y-126242000D01*
X170359000Y-125218000D02*
X170359000Y-123822000D01*
X170219000Y-127510000D02*
X170219000Y-125995000D01*
X170219000Y-125465000D02*
X170219000Y-123950000D01*
X170079000Y-127361000D02*
X170079000Y-124099000D01*
X169939000Y-127182000D02*
X169939000Y-124278000D01*
X169799000Y-126963000D02*
X169799000Y-124497000D01*
X169659000Y-126674000D02*
X169659000Y-124786000D01*
X169519000Y-126202000D02*
X169519000Y-125258000D01*
X171774000Y-125730000D02*
G75*
G03X171774000Y-125730000I-800000J0D01*
G01*
X174511500Y-125730000D02*
G75*
G03X174511500Y-125730000I-2537500J0D01*
G01*
X171712000Y-116166000D02*
X172712000Y-116166000D01*
X172712000Y-114466000D02*
X171712000Y-114466000D01*
X171712000Y-119341000D02*
X172712000Y-119341000D01*
X172712000Y-117641000D02*
X171712000Y-117641000D01*
X176792000Y-116166000D02*
X177792000Y-116166000D01*
X177792000Y-114466000D02*
X176792000Y-114466000D01*
X176792000Y-119341000D02*
X177792000Y-119341000D01*
X177792000Y-117641000D02*
X176792000Y-117641000D01*
X170180000Y-109728000D02*
X170180000Y-112776000D01*
X170180000Y-112776000D02*
X177292000Y-112776000D01*
X177292000Y-112776000D02*
X177292000Y-109728000D01*
X170180000Y-106680000D02*
X170180000Y-105918000D01*
X170180000Y-105918000D02*
X171704000Y-103632000D01*
X171704000Y-103632000D02*
X175768000Y-103632000D01*
X175768000Y-103632000D02*
X177292000Y-105918000D01*
X177292000Y-105918000D02*
X177292000Y-106680000D01*
X132969000Y-93980000D02*
X132969000Y-132080000D01*
X138049000Y-129540000D02*
X138049000Y-93980000D01*
X132969000Y-93980000D02*
X138049000Y-93980000D01*
X132969000Y-132080000D02*
X135509000Y-132080000D01*
X136779000Y-132360000D02*
X138329000Y-132360000D01*
X135509000Y-132080000D02*
X135509000Y-129540000D01*
X135509000Y-129540000D02*
X138049000Y-129540000D01*
X138329000Y-132360000D02*
X138329000Y-130810000D01*
X163703000Y-132080000D02*
X163703000Y-93980000D01*
X158623000Y-96520000D02*
X158623000Y-132080000D01*
X163703000Y-132080000D02*
X158623000Y-132080000D01*
X163703000Y-93980000D02*
X161163000Y-93980000D01*
X159893000Y-93700000D02*
X158343000Y-93700000D01*
X161163000Y-93980000D02*
X161163000Y-96520000D01*
X161163000Y-96520000D02*
X158623000Y-96520000D01*
X158343000Y-93700000D02*
X158343000Y-95250000D01*
X174879000Y-130429000D02*
X174879000Y-127889000D01*
X174599000Y-133249000D02*
X174599000Y-131699000D01*
X174879000Y-130429000D02*
X177419000Y-130429000D01*
X177699000Y-131699000D02*
X177699000Y-133249000D01*
X177699000Y-133249000D02*
X174599000Y-133249000D01*
X177419000Y-130429000D02*
X177419000Y-127889000D01*
X177419000Y-127889000D02*
X174879000Y-127889000D01*
X179959000Y-130429000D02*
X179959000Y-132969000D01*
X180239000Y-127609000D02*
X180239000Y-129159000D01*
X179959000Y-130429000D02*
X177419000Y-130429000D01*
X177139000Y-129159000D02*
X177139000Y-127609000D01*
X177139000Y-127609000D02*
X180239000Y-127609000D01*
X177419000Y-130429000D02*
X177419000Y-132969000D01*
X177419000Y-132969000D02*
X179959000Y-132969000D01*
X135144000Y-91508000D02*
X137144000Y-91508000D01*
X137144000Y-93658000D02*
X135144000Y-93658000D01*
X134825000Y-91362000D02*
X138225000Y-91362000D01*
X134827944Y-91359056D02*
G75*
G02X136525000Y-87262000I1697056J1697056D01*
G01*
X138222056Y-91359056D02*
G75*
G03X136525000Y-87262000I-1697056J1697056D01*
G01*
X164338000Y-129540000D02*
X164338000Y-127000000D01*
X164058000Y-132360000D02*
X164058000Y-130810000D01*
X164338000Y-129540000D02*
X166878000Y-129540000D01*
X167158000Y-130810000D02*
X167158000Y-132360000D01*
X167158000Y-132360000D02*
X164058000Y-132360000D01*
X166878000Y-129540000D02*
X166878000Y-127000000D01*
X166878000Y-127000000D02*
X164338000Y-127000000D01*
X146050000Y-92710000D02*
X146050000Y-96520000D01*
X146050000Y-96520000D02*
X151130000Y-96520000D01*
X151130000Y-96520000D02*
X151130000Y-92710000D01*
X151130000Y-92710000D02*
X146050000Y-92710000D01*
X146050000Y-92710000D02*
X147320000Y-92710000D01*
X151130000Y-129540000D02*
X144780000Y-129540000D01*
X144780000Y-129540000D02*
X144780000Y-137160000D01*
X144780000Y-137160000D02*
X152400000Y-137160000D01*
X152400000Y-137160000D02*
X152400000Y-129540000D01*
X152400000Y-129540000D02*
X151130000Y-129540000D01*
X157480000Y-91440000D02*
X139700000Y-91440000D01*
X139700000Y-91440000D02*
X139700000Y-134620000D01*
X139700000Y-134620000D02*
X157480000Y-134620000D01*
X157480000Y-134620000D02*
X157480000Y-91440000D01*
X170355143Y-100020381D02*
X170355143Y-99020381D01*
X170926572Y-100020381D01*
X170926572Y-99020381D01*
X171974191Y-100020381D02*
X171640857Y-99544190D01*
X171402762Y-100020381D02*
X171402762Y-99020381D01*
X171783715Y-99020381D01*
X171878953Y-99068000D01*
X171926572Y-99115619D01*
X171974191Y-99210857D01*
X171974191Y-99353714D01*
X171926572Y-99448952D01*
X171878953Y-99496571D01*
X171783715Y-99544190D01*
X171402762Y-99544190D01*
X172736096Y-99496571D02*
X172402762Y-99496571D01*
X172402762Y-100020381D02*
X172402762Y-99020381D01*
X172878953Y-99020381D01*
X173212286Y-99115619D02*
X173259905Y-99068000D01*
X173355143Y-99020381D01*
X173593239Y-99020381D01*
X173688477Y-99068000D01*
X173736096Y-99115619D01*
X173783715Y-99210857D01*
X173783715Y-99306095D01*
X173736096Y-99448952D01*
X173164667Y-100020381D01*
X173783715Y-100020381D01*
X174640858Y-99353714D02*
X174640858Y-100020381D01*
X174402762Y-98972762D02*
X174164667Y-99687048D01*
X174783715Y-99687048D01*
X175640858Y-100020381D02*
X175164667Y-100020381D01*
X175164667Y-99020381D01*
X176164667Y-99020381D02*
X176259906Y-99020381D01*
X176355144Y-99068000D01*
X176402763Y-99115619D01*
X176450382Y-99210857D01*
X176498001Y-99401333D01*
X176498001Y-99639429D01*
X176450382Y-99829905D01*
X176402763Y-99925143D01*
X176355144Y-99972762D01*
X176259906Y-100020381D01*
X176164667Y-100020381D01*
X176069429Y-99972762D01*
X176021810Y-99925143D01*
X175974191Y-99829905D01*
X175926572Y-99639429D01*
X175926572Y-99401333D01*
X175974191Y-99210857D01*
X176021810Y-99115619D01*
X176069429Y-99068000D01*
X176164667Y-99020381D01*
X177450382Y-100020381D02*
X176878953Y-100020381D01*
X177164667Y-100020381D02*
X177164667Y-99020381D01*
X177069429Y-99163238D01*
X176974191Y-99258476D01*
X176878953Y-99306095D01*
X177878953Y-99639429D02*
X178640858Y-99639429D01*
X178259906Y-100020381D02*
X178259906Y-99258476D01*
D10*
X171376952Y-98199524D02*
X170976952Y-98199524D01*
X171376952Y-97780476D02*
X171186476Y-97913810D01*
X171376952Y-98009048D02*
X170976952Y-98009048D01*
X170976952Y-97856667D01*
X170996000Y-97818572D01*
X171015048Y-97799524D01*
X171053143Y-97780476D01*
X171110286Y-97780476D01*
X171148381Y-97799524D01*
X171167429Y-97818572D01*
X171186476Y-97856667D01*
X171186476Y-98009048D01*
X171415048Y-97342381D02*
X171396000Y-97380476D01*
X171357905Y-97418572D01*
X171300762Y-97475715D01*
X171281714Y-97513810D01*
X171281714Y-97551905D01*
X171376952Y-97532857D02*
X171357905Y-97570953D01*
X171319810Y-97609048D01*
X171243619Y-97628096D01*
X171110286Y-97628096D01*
X171034095Y-97609048D01*
X170996000Y-97570953D01*
X170976952Y-97532857D01*
X170976952Y-97456667D01*
X170996000Y-97418572D01*
X171034095Y-97380476D01*
X171110286Y-97361429D01*
X171243619Y-97361429D01*
X171319810Y-97380476D01*
X171357905Y-97418572D01*
X171376952Y-97456667D01*
X171376952Y-97532857D01*
X171376952Y-92402571D02*
X170976952Y-92402571D01*
X171262667Y-92269238D01*
X170976952Y-92135904D01*
X171376952Y-92135904D01*
X171376952Y-91945428D02*
X170976952Y-91945428D01*
X171357905Y-91774000D02*
X171376952Y-91716857D01*
X171376952Y-91621619D01*
X171357905Y-91583523D01*
X171338857Y-91564476D01*
X171300762Y-91545428D01*
X171262667Y-91545428D01*
X171224571Y-91564476D01*
X171205524Y-91583523D01*
X171186476Y-91621619D01*
X171167429Y-91697809D01*
X171148381Y-91735904D01*
X171129333Y-91754952D01*
X171091238Y-91774000D01*
X171053143Y-91774000D01*
X171015048Y-91754952D01*
X170996000Y-91735904D01*
X170976952Y-91697809D01*
X170976952Y-91602571D01*
X170996000Y-91545428D01*
X170976952Y-91297809D02*
X170976952Y-91221619D01*
X170996000Y-91183524D01*
X171034095Y-91145428D01*
X171110286Y-91126381D01*
X171243619Y-91126381D01*
X171319810Y-91145428D01*
X171357905Y-91183524D01*
X171376952Y-91221619D01*
X171376952Y-91297809D01*
X171357905Y-91335905D01*
X171319810Y-91374000D01*
X171243619Y-91393048D01*
X171110286Y-91393048D01*
X171034095Y-91374000D01*
X170996000Y-91335905D01*
X170976952Y-91297809D01*
X173916952Y-98418571D02*
X173516952Y-98418571D01*
X173802667Y-98285238D01*
X173516952Y-98151904D01*
X173916952Y-98151904D01*
X173516952Y-97885237D02*
X173516952Y-97809047D01*
X173536000Y-97770952D01*
X173574095Y-97732856D01*
X173650286Y-97713809D01*
X173783619Y-97713809D01*
X173859810Y-97732856D01*
X173897905Y-97770952D01*
X173916952Y-97809047D01*
X173916952Y-97885237D01*
X173897905Y-97923333D01*
X173859810Y-97961428D01*
X173783619Y-97980476D01*
X173650286Y-97980476D01*
X173574095Y-97961428D01*
X173536000Y-97923333D01*
X173516952Y-97885237D01*
X173897905Y-97561428D02*
X173916952Y-97504285D01*
X173916952Y-97409047D01*
X173897905Y-97370951D01*
X173878857Y-97351904D01*
X173840762Y-97332856D01*
X173802667Y-97332856D01*
X173764571Y-97351904D01*
X173745524Y-97370951D01*
X173726476Y-97409047D01*
X173707429Y-97485237D01*
X173688381Y-97523332D01*
X173669333Y-97542380D01*
X173631238Y-97561428D01*
X173593143Y-97561428D01*
X173555048Y-97542380D01*
X173536000Y-97523332D01*
X173516952Y-97485237D01*
X173516952Y-97389999D01*
X173536000Y-97332856D01*
X173916952Y-97161428D02*
X173516952Y-97161428D01*
X173897905Y-92288286D02*
X173916952Y-92231143D01*
X173916952Y-92135905D01*
X173897905Y-92097809D01*
X173878857Y-92078762D01*
X173840762Y-92059714D01*
X173802667Y-92059714D01*
X173764571Y-92078762D01*
X173745524Y-92097809D01*
X173726476Y-92135905D01*
X173707429Y-92212095D01*
X173688381Y-92250190D01*
X173669333Y-92269238D01*
X173631238Y-92288286D01*
X173593143Y-92288286D01*
X173555048Y-92269238D01*
X173536000Y-92250190D01*
X173516952Y-92212095D01*
X173516952Y-92116857D01*
X173536000Y-92059714D01*
X173878857Y-91659714D02*
X173897905Y-91678762D01*
X173916952Y-91735905D01*
X173916952Y-91774000D01*
X173897905Y-91831143D01*
X173859810Y-91869238D01*
X173821714Y-91888286D01*
X173745524Y-91907334D01*
X173688381Y-91907334D01*
X173612190Y-91888286D01*
X173574095Y-91869238D01*
X173536000Y-91831143D01*
X173516952Y-91774000D01*
X173516952Y-91735905D01*
X173536000Y-91678762D01*
X173555048Y-91659714D01*
X173916952Y-91488286D02*
X173516952Y-91488286D01*
X173916952Y-91259714D02*
X173688381Y-91431143D01*
X173516952Y-91259714D02*
X173745524Y-91488286D01*
X176418857Y-98066190D02*
X176437905Y-98085238D01*
X176456952Y-98142381D01*
X176456952Y-98180476D01*
X176437905Y-98237619D01*
X176399810Y-98275714D01*
X176361714Y-98294762D01*
X176285524Y-98313810D01*
X176228381Y-98313810D01*
X176152190Y-98294762D01*
X176114095Y-98275714D01*
X176076000Y-98237619D01*
X176056952Y-98180476D01*
X176056952Y-98142381D01*
X176076000Y-98085238D01*
X176095048Y-98066190D01*
X176437905Y-97913810D02*
X176456952Y-97856667D01*
X176456952Y-97761429D01*
X176437905Y-97723333D01*
X176418857Y-97704286D01*
X176380762Y-97685238D01*
X176342667Y-97685238D01*
X176304571Y-97704286D01*
X176285524Y-97723333D01*
X176266476Y-97761429D01*
X176247429Y-97837619D01*
X176228381Y-97875714D01*
X176209333Y-97894762D01*
X176171238Y-97913810D01*
X176133143Y-97913810D01*
X176095048Y-97894762D01*
X176076000Y-97875714D01*
X176056952Y-97837619D01*
X176056952Y-97742381D01*
X176076000Y-97685238D01*
X176456952Y-97513810D02*
X176056952Y-97513810D01*
X176456952Y-97285238D01*
X176056952Y-97285238D01*
X176418857Y-91831142D02*
X176437905Y-91850190D01*
X176456952Y-91907333D01*
X176456952Y-91945428D01*
X176437905Y-92002571D01*
X176399810Y-92040666D01*
X176361714Y-92059714D01*
X176285524Y-92078762D01*
X176228381Y-92078762D01*
X176152190Y-92059714D01*
X176114095Y-92040666D01*
X176076000Y-92002571D01*
X176056952Y-91945428D01*
X176056952Y-91907333D01*
X176076000Y-91850190D01*
X176095048Y-91831142D01*
X176247429Y-91659714D02*
X176247429Y-91526381D01*
X176456952Y-91469238D02*
X176456952Y-91659714D01*
X176056952Y-91659714D01*
X176056952Y-91469238D01*
X178596952Y-98323333D02*
X178996952Y-98189999D01*
X178596952Y-98056666D01*
X178958857Y-97694761D02*
X178977905Y-97713809D01*
X178996952Y-97770952D01*
X178996952Y-97809047D01*
X178977905Y-97866190D01*
X178939810Y-97904285D01*
X178901714Y-97923333D01*
X178825524Y-97942381D01*
X178768381Y-97942381D01*
X178692190Y-97923333D01*
X178654095Y-97904285D01*
X178616000Y-97866190D01*
X178596952Y-97809047D01*
X178596952Y-97770952D01*
X178616000Y-97713809D01*
X178635048Y-97694761D01*
X178958857Y-97294761D02*
X178977905Y-97313809D01*
X178996952Y-97370952D01*
X178996952Y-97409047D01*
X178977905Y-97466190D01*
X178939810Y-97504285D01*
X178901714Y-97523333D01*
X178825524Y-97542381D01*
X178768381Y-97542381D01*
X178692190Y-97523333D01*
X178654095Y-97504285D01*
X178616000Y-97466190D01*
X178596952Y-97409047D01*
X178596952Y-97370952D01*
X178616000Y-97313809D01*
X178635048Y-97294761D01*
X178616000Y-92078762D02*
X178596952Y-92116857D01*
X178596952Y-92174000D01*
X178616000Y-92231143D01*
X178654095Y-92269238D01*
X178692190Y-92288286D01*
X178768381Y-92307334D01*
X178825524Y-92307334D01*
X178901714Y-92288286D01*
X178939810Y-92269238D01*
X178977905Y-92231143D01*
X178996952Y-92174000D01*
X178996952Y-92135905D01*
X178977905Y-92078762D01*
X178958857Y-92059714D01*
X178825524Y-92059714D01*
X178825524Y-92135905D01*
X178996952Y-91888286D02*
X178596952Y-91888286D01*
X178996952Y-91659714D01*
X178596952Y-91659714D01*
X178996952Y-91469238D02*
X178596952Y-91469238D01*
X178596952Y-91374000D01*
X178616000Y-91316857D01*
X178654095Y-91278762D01*
X178692190Y-91259714D01*
X178768381Y-91240666D01*
X178825524Y-91240666D01*
X178901714Y-91259714D01*
X178939810Y-91278762D01*
X178977905Y-91316857D01*
X178996952Y-91374000D01*
X178996952Y-91469238D01*
D13*
X171807334Y-129887143D02*
X171759715Y-129934762D01*
X171616858Y-129982381D01*
X171521620Y-129982381D01*
X171378762Y-129934762D01*
X171283524Y-129839524D01*
X171235905Y-129744286D01*
X171188286Y-129553810D01*
X171188286Y-129410952D01*
X171235905Y-129220476D01*
X171283524Y-129125238D01*
X171378762Y-129030000D01*
X171521620Y-128982381D01*
X171616858Y-128982381D01*
X171759715Y-129030000D01*
X171807334Y-129077619D01*
X172759715Y-129982381D02*
X172188286Y-129982381D01*
X172474000Y-129982381D02*
X172474000Y-128982381D01*
X172378762Y-129125238D01*
X172283524Y-129220476D01*
X172188286Y-129268095D01*
X168870334Y-115673143D02*
X168822715Y-115720762D01*
X168679858Y-115768381D01*
X168584620Y-115768381D01*
X168441762Y-115720762D01*
X168346524Y-115625524D01*
X168298905Y-115530286D01*
X168251286Y-115339810D01*
X168251286Y-115196952D01*
X168298905Y-115006476D01*
X168346524Y-114911238D01*
X168441762Y-114816000D01*
X168584620Y-114768381D01*
X168679858Y-114768381D01*
X168822715Y-114816000D01*
X168870334Y-114863619D01*
X169251286Y-114863619D02*
X169298905Y-114816000D01*
X169394143Y-114768381D01*
X169632239Y-114768381D01*
X169727477Y-114816000D01*
X169775096Y-114863619D01*
X169822715Y-114958857D01*
X169822715Y-115054095D01*
X169775096Y-115196952D01*
X169203667Y-115768381D01*
X169822715Y-115768381D01*
X168870334Y-118975143D02*
X168822715Y-119022762D01*
X168679858Y-119070381D01*
X168584620Y-119070381D01*
X168441762Y-119022762D01*
X168346524Y-118927524D01*
X168298905Y-118832286D01*
X168251286Y-118641810D01*
X168251286Y-118498952D01*
X168298905Y-118308476D01*
X168346524Y-118213238D01*
X168441762Y-118118000D01*
X168584620Y-118070381D01*
X168679858Y-118070381D01*
X168822715Y-118118000D01*
X168870334Y-118165619D01*
X169203667Y-118070381D02*
X169822715Y-118070381D01*
X169489381Y-118451333D01*
X169632239Y-118451333D01*
X169727477Y-118498952D01*
X169775096Y-118546571D01*
X169822715Y-118641810D01*
X169822715Y-118879905D01*
X169775096Y-118975143D01*
X169727477Y-119022762D01*
X169632239Y-119070381D01*
X169346524Y-119070381D01*
X169251286Y-119022762D01*
X169203667Y-118975143D01*
X180300334Y-115673143D02*
X180252715Y-115720762D01*
X180109858Y-115768381D01*
X180014620Y-115768381D01*
X179871762Y-115720762D01*
X179776524Y-115625524D01*
X179728905Y-115530286D01*
X179681286Y-115339810D01*
X179681286Y-115196952D01*
X179728905Y-115006476D01*
X179776524Y-114911238D01*
X179871762Y-114816000D01*
X180014620Y-114768381D01*
X180109858Y-114768381D01*
X180252715Y-114816000D01*
X180300334Y-114863619D01*
X181157477Y-115101714D02*
X181157477Y-115768381D01*
X180919381Y-114720762D02*
X180681286Y-115435048D01*
X181300334Y-115435048D01*
X180173334Y-118848143D02*
X180125715Y-118895762D01*
X179982858Y-118943381D01*
X179887620Y-118943381D01*
X179744762Y-118895762D01*
X179649524Y-118800524D01*
X179601905Y-118705286D01*
X179554286Y-118514810D01*
X179554286Y-118371952D01*
X179601905Y-118181476D01*
X179649524Y-118086238D01*
X179744762Y-117991000D01*
X179887620Y-117943381D01*
X179982858Y-117943381D01*
X180125715Y-117991000D01*
X180173334Y-118038619D01*
X181078096Y-117943381D02*
X180601905Y-117943381D01*
X180554286Y-118419571D01*
X180601905Y-118371952D01*
X180697143Y-118324333D01*
X180935239Y-118324333D01*
X181030477Y-118371952D01*
X181078096Y-118419571D01*
X181125715Y-118514810D01*
X181125715Y-118752905D01*
X181078096Y-118848143D01*
X181030477Y-118895762D01*
X180935239Y-118943381D01*
X180697143Y-118943381D01*
X180601905Y-118895762D01*
X180554286Y-118848143D01*
X170545524Y-107608667D02*
X171021715Y-107608667D01*
X170450286Y-107894381D02*
X170783619Y-106894381D01*
X171116953Y-107894381D01*
X171450286Y-107894381D02*
X171450286Y-106894381D01*
X171783620Y-107608667D01*
X172116953Y-106894381D01*
X172116953Y-107894381D01*
X172545524Y-107846762D02*
X172688381Y-107894381D01*
X172926477Y-107894381D01*
X173021715Y-107846762D01*
X173069334Y-107799143D01*
X173116953Y-107703905D01*
X173116953Y-107608667D01*
X173069334Y-107513429D01*
X173021715Y-107465810D01*
X172926477Y-107418190D01*
X172736000Y-107370571D01*
X172640762Y-107322952D01*
X172593143Y-107275333D01*
X172545524Y-107180095D01*
X172545524Y-107084857D01*
X172593143Y-106989619D01*
X172640762Y-106942000D01*
X172736000Y-106894381D01*
X172974096Y-106894381D01*
X173116953Y-106942000D01*
X174069334Y-107894381D02*
X173497905Y-107894381D01*
X173783619Y-107894381D02*
X173783619Y-106894381D01*
X173688381Y-107037238D01*
X173593143Y-107132476D01*
X173497905Y-107180095D01*
X175021715Y-107894381D02*
X174450286Y-107894381D01*
X174736000Y-107894381D02*
X174736000Y-106894381D01*
X174640762Y-107037238D01*
X174545524Y-107132476D01*
X174450286Y-107180095D01*
X175974096Y-107894381D02*
X175402667Y-107894381D01*
X175688381Y-107894381D02*
X175688381Y-106894381D01*
X175593143Y-107037238D01*
X175497905Y-107132476D01*
X175402667Y-107180095D01*
X176307429Y-106894381D02*
X176974096Y-106894381D01*
X176545524Y-107894381D01*
X134056381Y-90717666D02*
X133580190Y-91051000D01*
X134056381Y-91289095D02*
X133056381Y-91289095D01*
X133056381Y-90908142D01*
X133104000Y-90812904D01*
X133151619Y-90765285D01*
X133246857Y-90717666D01*
X133389714Y-90717666D01*
X133484952Y-90765285D01*
X133532571Y-90812904D01*
X133580190Y-90908142D01*
X133580190Y-91289095D01*
X134056381Y-89765285D02*
X134056381Y-90336714D01*
X134056381Y-90051000D02*
X133056381Y-90051000D01*
X133199238Y-90146238D01*
X133294476Y-90241476D01*
X133342095Y-90336714D01*
X139160809Y-87590381D02*
X139732238Y-87590381D01*
X139446523Y-88590381D02*
X139446523Y-87590381D01*
X140589381Y-88590381D02*
X140017952Y-88590381D01*
X140303666Y-88590381D02*
X140303666Y-87590381D01*
X140208428Y-87733238D01*
X140113190Y-87828476D01*
X140017952Y-87876095D01*
X141779857Y-88590381D02*
X141779857Y-87590381D01*
X142017952Y-87590381D01*
X142160810Y-87638000D01*
X142256048Y-87733238D01*
X142303667Y-87828476D01*
X142351286Y-88018952D01*
X142351286Y-88161810D01*
X142303667Y-88352286D01*
X142256048Y-88447524D01*
X142160810Y-88542762D01*
X142017952Y-88590381D01*
X141779857Y-88590381D01*
X142732238Y-88542762D02*
X142875095Y-88590381D01*
X143113191Y-88590381D01*
X143208429Y-88542762D01*
X143256048Y-88495143D01*
X143303667Y-88399905D01*
X143303667Y-88304667D01*
X143256048Y-88209429D01*
X143208429Y-88161810D01*
X143113191Y-88114190D01*
X142922714Y-88066571D01*
X142827476Y-88018952D01*
X142779857Y-87971333D01*
X142732238Y-87876095D01*
X142732238Y-87780857D01*
X142779857Y-87685619D01*
X142827476Y-87638000D01*
X142922714Y-87590381D01*
X143160810Y-87590381D01*
X143303667Y-87638000D01*
X144256048Y-88590381D02*
X143684619Y-88590381D01*
X143970333Y-88590381D02*
X143970333Y-87590381D01*
X143875095Y-87733238D01*
X143779857Y-87828476D01*
X143684619Y-87876095D01*
X144827476Y-88018952D02*
X144732238Y-87971333D01*
X144684619Y-87923714D01*
X144637000Y-87828476D01*
X144637000Y-87780857D01*
X144684619Y-87685619D01*
X144732238Y-87638000D01*
X144827476Y-87590381D01*
X145017953Y-87590381D01*
X145113191Y-87638000D01*
X145160810Y-87685619D01*
X145208429Y-87780857D01*
X145208429Y-87828476D01*
X145160810Y-87923714D01*
X145113191Y-87971333D01*
X145017953Y-88018952D01*
X144827476Y-88018952D01*
X144732238Y-88066571D01*
X144684619Y-88114190D01*
X144637000Y-88209429D01*
X144637000Y-88399905D01*
X144684619Y-88495143D01*
X144732238Y-88542762D01*
X144827476Y-88590381D01*
X145017953Y-88590381D01*
X145113191Y-88542762D01*
X145160810Y-88495143D01*
X145208429Y-88399905D01*
X145208429Y-88209429D01*
X145160810Y-88114190D01*
X145113191Y-88066571D01*
X145017953Y-88018952D01*
X145637000Y-88590381D02*
X145637000Y-87590381D01*
X145637000Y-87971333D02*
X145732238Y-87923714D01*
X145922715Y-87923714D01*
X146017953Y-87971333D01*
X146065572Y-88018952D01*
X146113191Y-88114190D01*
X146113191Y-88399905D01*
X146065572Y-88495143D01*
X146017953Y-88542762D01*
X145922715Y-88590381D01*
X145732238Y-88590381D01*
X145637000Y-88542762D01*
X146494143Y-87685619D02*
X146541762Y-87638000D01*
X146637000Y-87590381D01*
X146875096Y-87590381D01*
X146970334Y-87638000D01*
X147017953Y-87685619D01*
X147065572Y-87780857D01*
X147065572Y-87876095D01*
X147017953Y-88018952D01*
X146446524Y-88590381D01*
X147065572Y-88590381D01*
X147684619Y-87590381D02*
X147779858Y-87590381D01*
X147875096Y-87638000D01*
X147922715Y-87685619D01*
X147970334Y-87780857D01*
X148017953Y-87971333D01*
X148017953Y-88209429D01*
X147970334Y-88399905D01*
X147922715Y-88495143D01*
X147875096Y-88542762D01*
X147779858Y-88590381D01*
X147684619Y-88590381D01*
X147589381Y-88542762D01*
X147541762Y-88495143D01*
X147494143Y-88399905D01*
X147446524Y-88209429D01*
X147446524Y-87971333D01*
X147494143Y-87780857D01*
X147541762Y-87685619D01*
X147589381Y-87638000D01*
X147684619Y-87590381D01*
X148756667Y-119157143D02*
X148756667Y-118680952D01*
X149042381Y-119252381D02*
X148042381Y-118919048D01*
X149042381Y-118585714D01*
X149042381Y-118252381D02*
X148375714Y-118252381D01*
X148566190Y-118252381D02*
X148470952Y-118204762D01*
X148423333Y-118157143D01*
X148375714Y-118061905D01*
X148375714Y-117966666D01*
X149042381Y-117204761D02*
X148042381Y-117204761D01*
X148994762Y-117204761D02*
X149042381Y-117299999D01*
X149042381Y-117490476D01*
X148994762Y-117585714D01*
X148947143Y-117633333D01*
X148851905Y-117680952D01*
X148566190Y-117680952D01*
X148470952Y-117633333D01*
X148423333Y-117585714D01*
X148375714Y-117490476D01*
X148375714Y-117299999D01*
X148423333Y-117204761D01*
X148375714Y-116299999D02*
X149042381Y-116299999D01*
X148375714Y-116728571D02*
X148899524Y-116728571D01*
X148994762Y-116680952D01*
X149042381Y-116585714D01*
X149042381Y-116442856D01*
X148994762Y-116347618D01*
X148947143Y-116299999D01*
X149042381Y-115823809D02*
X148375714Y-115823809D01*
X148042381Y-115823809D02*
X148090000Y-115871428D01*
X148137619Y-115823809D01*
X148090000Y-115776190D01*
X148042381Y-115823809D01*
X148137619Y-115823809D01*
X148375714Y-115347619D02*
X149042381Y-115347619D01*
X148470952Y-115347619D02*
X148423333Y-115300000D01*
X148375714Y-115204762D01*
X148375714Y-115061904D01*
X148423333Y-114966666D01*
X148518571Y-114919047D01*
X149042381Y-114919047D01*
X149042381Y-114300000D02*
X148994762Y-114395238D01*
X148947143Y-114442857D01*
X148851905Y-114490476D01*
X148566190Y-114490476D01*
X148470952Y-114442857D01*
X148423333Y-114395238D01*
X148375714Y-114300000D01*
X148375714Y-114157142D01*
X148423333Y-114061904D01*
X148470952Y-114014285D01*
X148566190Y-113966666D01*
X148851905Y-113966666D01*
X148947143Y-114014285D01*
X148994762Y-114061904D01*
X149042381Y-114157142D01*
X149042381Y-114300000D01*
X149042381Y-112776190D02*
X148042381Y-112776190D01*
X149042381Y-112204761D01*
X148042381Y-112204761D01*
X149042381Y-111299999D02*
X148518571Y-111299999D01*
X148423333Y-111347618D01*
X148375714Y-111442856D01*
X148375714Y-111633333D01*
X148423333Y-111728571D01*
X148994762Y-111299999D02*
X149042381Y-111395237D01*
X149042381Y-111633333D01*
X148994762Y-111728571D01*
X148899524Y-111776190D01*
X148804286Y-111776190D01*
X148709048Y-111728571D01*
X148661429Y-111633333D01*
X148661429Y-111395237D01*
X148613810Y-111299999D01*
X148375714Y-110823809D02*
X149042381Y-110823809D01*
X148470952Y-110823809D02*
X148423333Y-110776190D01*
X148375714Y-110680952D01*
X148375714Y-110538094D01*
X148423333Y-110442856D01*
X148518571Y-110395237D01*
X149042381Y-110395237D01*
X149042381Y-109776190D02*
X148994762Y-109871428D01*
X148947143Y-109919047D01*
X148851905Y-109966666D01*
X148566190Y-109966666D01*
X148470952Y-109919047D01*
X148423333Y-109871428D01*
X148375714Y-109776190D01*
X148375714Y-109633332D01*
X148423333Y-109538094D01*
X148470952Y-109490475D01*
X148566190Y-109442856D01*
X148851905Y-109442856D01*
X148947143Y-109490475D01*
X148994762Y-109538094D01*
X149042381Y-109633332D01*
X149042381Y-109776190D01*
X142748095Y-94702381D02*
X143319524Y-94702381D01*
X143033809Y-95702381D02*
X143033809Y-94702381D01*
X143557619Y-94702381D02*
X144224286Y-95702381D01*
X144224286Y-94702381D02*
X143557619Y-95702381D01*
X143343334Y-98242381D02*
X143010000Y-97766190D01*
X142771905Y-98242381D02*
X142771905Y-97242381D01*
X143152858Y-97242381D01*
X143248096Y-97290000D01*
X143295715Y-97337619D01*
X143343334Y-97432857D01*
X143343334Y-97575714D01*
X143295715Y-97670952D01*
X143248096Y-97718571D01*
X143152858Y-97766190D01*
X142771905Y-97766190D01*
X143676667Y-97242381D02*
X144343334Y-98242381D01*
X144343334Y-97242381D02*
X143676667Y-98242381D01*
X152646191Y-94702381D02*
X152979524Y-95702381D01*
X153312858Y-94702381D01*
X153646191Y-95702381D02*
X153646191Y-95035714D01*
X153646191Y-94702381D02*
X153598572Y-94750000D01*
X153646191Y-94797619D01*
X153693810Y-94750000D01*
X153646191Y-94702381D01*
X153646191Y-94797619D01*
X154122381Y-95035714D02*
X154122381Y-95702381D01*
X154122381Y-95130952D02*
X154170000Y-95083333D01*
X154265238Y-95035714D01*
X154408096Y-95035714D01*
X154503334Y-95083333D01*
X154550953Y-95178571D01*
X154550953Y-95702381D01*
X142962381Y-100782381D02*
X142629047Y-100306190D01*
X142390952Y-100782381D02*
X142390952Y-99782381D01*
X142771905Y-99782381D01*
X142867143Y-99830000D01*
X142914762Y-99877619D01*
X142962381Y-99972857D01*
X142962381Y-100115714D01*
X142914762Y-100210952D01*
X142867143Y-100258571D01*
X142771905Y-100306190D01*
X142390952Y-100306190D01*
X143343333Y-100734762D02*
X143486190Y-100782381D01*
X143724286Y-100782381D01*
X143819524Y-100734762D01*
X143867143Y-100687143D01*
X143914762Y-100591905D01*
X143914762Y-100496667D01*
X143867143Y-100401429D01*
X143819524Y-100353810D01*
X143724286Y-100306190D01*
X143533809Y-100258571D01*
X143438571Y-100210952D01*
X143390952Y-100163333D01*
X143343333Y-100068095D01*
X143343333Y-99972857D01*
X143390952Y-99877619D01*
X143438571Y-99830000D01*
X143533809Y-99782381D01*
X143771905Y-99782381D01*
X143914762Y-99830000D01*
X144200476Y-99782381D02*
X144771905Y-99782381D01*
X144486190Y-100782381D02*
X144486190Y-99782381D01*
X153122381Y-100782381D02*
X152789047Y-100306190D01*
X152550952Y-100782381D02*
X152550952Y-99782381D01*
X152931905Y-99782381D01*
X153027143Y-99830000D01*
X153074762Y-99877619D01*
X153122381Y-99972857D01*
X153122381Y-100115714D01*
X153074762Y-100210952D01*
X153027143Y-100258571D01*
X152931905Y-100306190D01*
X152550952Y-100306190D01*
X153503333Y-100734762D02*
X153646190Y-100782381D01*
X153884286Y-100782381D01*
X153979524Y-100734762D01*
X154027143Y-100687143D01*
X154074762Y-100591905D01*
X154074762Y-100496667D01*
X154027143Y-100401429D01*
X153979524Y-100353810D01*
X153884286Y-100306190D01*
X153693809Y-100258571D01*
X153598571Y-100210952D01*
X153550952Y-100163333D01*
X153503333Y-100068095D01*
X153503333Y-99972857D01*
X153550952Y-99877619D01*
X153598571Y-99830000D01*
X153693809Y-99782381D01*
X153931905Y-99782381D01*
X154074762Y-99830000D01*
X154360476Y-99782381D02*
X154931905Y-99782381D01*
X154646190Y-100782381D02*
X154646190Y-99782381D01*
X142748096Y-102370000D02*
X142652858Y-102322381D01*
X142510001Y-102322381D01*
X142367143Y-102370000D01*
X142271905Y-102465238D01*
X142224286Y-102560476D01*
X142176667Y-102750952D01*
X142176667Y-102893810D01*
X142224286Y-103084286D01*
X142271905Y-103179524D01*
X142367143Y-103274762D01*
X142510001Y-103322381D01*
X142605239Y-103322381D01*
X142748096Y-103274762D01*
X142795715Y-103227143D01*
X142795715Y-102893810D01*
X142605239Y-102893810D01*
X143224286Y-103322381D02*
X143224286Y-102322381D01*
X143795715Y-103322381D01*
X143795715Y-102322381D01*
X144271905Y-103322381D02*
X144271905Y-102322381D01*
X144510000Y-102322381D01*
X144652858Y-102370000D01*
X144748096Y-102465238D01*
X144795715Y-102560476D01*
X144843334Y-102750952D01*
X144843334Y-102893810D01*
X144795715Y-103084286D01*
X144748096Y-103179524D01*
X144652858Y-103274762D01*
X144510000Y-103322381D01*
X144271905Y-103322381D01*
X152431905Y-102941429D02*
X153193810Y-102941429D01*
X152812858Y-103322381D02*
X152812858Y-102560476D01*
X154146191Y-102322381D02*
X153670000Y-102322381D01*
X153622381Y-102798571D01*
X153670000Y-102750952D01*
X153765238Y-102703333D01*
X154003334Y-102703333D01*
X154098572Y-102750952D01*
X154146191Y-102798571D01*
X154193810Y-102893810D01*
X154193810Y-103131905D01*
X154146191Y-103227143D01*
X154098572Y-103274762D01*
X154003334Y-103322381D01*
X153765238Y-103322381D01*
X153670000Y-103274762D01*
X153622381Y-103227143D01*
X154527143Y-102655714D02*
X154765238Y-103322381D01*
X155003334Y-102655714D01*
X142771905Y-105862381D02*
X142771905Y-104862381D01*
X143010000Y-104862381D01*
X143152858Y-104910000D01*
X143248096Y-105005238D01*
X143295715Y-105100476D01*
X143343334Y-105290952D01*
X143343334Y-105433810D01*
X143295715Y-105624286D01*
X143248096Y-105719524D01*
X143152858Y-105814762D01*
X143010000Y-105862381D01*
X142771905Y-105862381D01*
X143724286Y-104957619D02*
X143771905Y-104910000D01*
X143867143Y-104862381D01*
X144105239Y-104862381D01*
X144200477Y-104910000D01*
X144248096Y-104957619D01*
X144295715Y-105052857D01*
X144295715Y-105148095D01*
X144248096Y-105290952D01*
X143676667Y-105862381D01*
X144295715Y-105862381D01*
X152955714Y-105576667D02*
X153431905Y-105576667D01*
X152860476Y-105862381D02*
X153193809Y-104862381D01*
X153527143Y-105862381D01*
X153765238Y-104862381D02*
X154431905Y-104862381D01*
X154003333Y-105862381D01*
X142771905Y-108402381D02*
X142771905Y-107402381D01*
X143010000Y-107402381D01*
X143152858Y-107450000D01*
X143248096Y-107545238D01*
X143295715Y-107640476D01*
X143343334Y-107830952D01*
X143343334Y-107973810D01*
X143295715Y-108164286D01*
X143248096Y-108259524D01*
X143152858Y-108354762D01*
X143010000Y-108402381D01*
X142771905Y-108402381D01*
X143676667Y-107402381D02*
X144295715Y-107402381D01*
X143962381Y-107783333D01*
X144105239Y-107783333D01*
X144200477Y-107830952D01*
X144248096Y-107878571D01*
X144295715Y-107973810D01*
X144295715Y-108211905D01*
X144248096Y-108307143D01*
X144200477Y-108354762D01*
X144105239Y-108402381D01*
X143819524Y-108402381D01*
X143724286Y-108354762D01*
X143676667Y-108307143D01*
X152955714Y-108116667D02*
X153431905Y-108116667D01*
X152860476Y-108402381D02*
X153193809Y-107402381D01*
X153527143Y-108402381D01*
X154289048Y-107402381D02*
X154098571Y-107402381D01*
X154003333Y-107450000D01*
X153955714Y-107497619D01*
X153860476Y-107640476D01*
X153812857Y-107830952D01*
X153812857Y-108211905D01*
X153860476Y-108307143D01*
X153908095Y-108354762D01*
X154003333Y-108402381D01*
X154193810Y-108402381D01*
X154289048Y-108354762D01*
X154336667Y-108307143D01*
X154384286Y-108211905D01*
X154384286Y-107973810D01*
X154336667Y-107878571D01*
X154289048Y-107830952D01*
X154193810Y-107783333D01*
X154003333Y-107783333D01*
X153908095Y-107830952D01*
X153860476Y-107878571D01*
X153812857Y-107973810D01*
X142771905Y-110942381D02*
X142771905Y-109942381D01*
X143010000Y-109942381D01*
X143152858Y-109990000D01*
X143248096Y-110085238D01*
X143295715Y-110180476D01*
X143343334Y-110370952D01*
X143343334Y-110513810D01*
X143295715Y-110704286D01*
X143248096Y-110799524D01*
X143152858Y-110894762D01*
X143010000Y-110942381D01*
X142771905Y-110942381D01*
X144200477Y-110275714D02*
X144200477Y-110942381D01*
X143962381Y-109894762D02*
X143724286Y-110609048D01*
X144343334Y-110609048D01*
X152955714Y-110656667D02*
X153431905Y-110656667D01*
X152860476Y-110942381D02*
X153193809Y-109942381D01*
X153527143Y-110942381D01*
X154336667Y-109942381D02*
X153860476Y-109942381D01*
X153812857Y-110418571D01*
X153860476Y-110370952D01*
X153955714Y-110323333D01*
X154193810Y-110323333D01*
X154289048Y-110370952D01*
X154336667Y-110418571D01*
X154384286Y-110513810D01*
X154384286Y-110751905D01*
X154336667Y-110847143D01*
X154289048Y-110894762D01*
X154193810Y-110942381D01*
X153955714Y-110942381D01*
X153860476Y-110894762D01*
X153812857Y-110847143D01*
X142771905Y-113482381D02*
X142771905Y-112482381D01*
X143010000Y-112482381D01*
X143152858Y-112530000D01*
X143248096Y-112625238D01*
X143295715Y-112720476D01*
X143343334Y-112910952D01*
X143343334Y-113053810D01*
X143295715Y-113244286D01*
X143248096Y-113339524D01*
X143152858Y-113434762D01*
X143010000Y-113482381D01*
X142771905Y-113482381D01*
X144248096Y-112482381D02*
X143771905Y-112482381D01*
X143724286Y-112958571D01*
X143771905Y-112910952D01*
X143867143Y-112863333D01*
X144105239Y-112863333D01*
X144200477Y-112910952D01*
X144248096Y-112958571D01*
X144295715Y-113053810D01*
X144295715Y-113291905D01*
X144248096Y-113387143D01*
X144200477Y-113434762D01*
X144105239Y-113482381D01*
X143867143Y-113482381D01*
X143771905Y-113434762D01*
X143724286Y-113387143D01*
X152955714Y-113196667D02*
X153431905Y-113196667D01*
X152860476Y-113482381D02*
X153193809Y-112482381D01*
X153527143Y-113482381D01*
X154289048Y-112815714D02*
X154289048Y-113482381D01*
X154050952Y-112434762D02*
X153812857Y-113149048D01*
X154431905Y-113149048D01*
X142771905Y-116022381D02*
X142771905Y-115022381D01*
X143010000Y-115022381D01*
X143152858Y-115070000D01*
X143248096Y-115165238D01*
X143295715Y-115260476D01*
X143343334Y-115450952D01*
X143343334Y-115593810D01*
X143295715Y-115784286D01*
X143248096Y-115879524D01*
X143152858Y-115974762D01*
X143010000Y-116022381D01*
X142771905Y-116022381D01*
X144200477Y-115022381D02*
X144010000Y-115022381D01*
X143914762Y-115070000D01*
X143867143Y-115117619D01*
X143771905Y-115260476D01*
X143724286Y-115450952D01*
X143724286Y-115831905D01*
X143771905Y-115927143D01*
X143819524Y-115974762D01*
X143914762Y-116022381D01*
X144105239Y-116022381D01*
X144200477Y-115974762D01*
X144248096Y-115927143D01*
X144295715Y-115831905D01*
X144295715Y-115593810D01*
X144248096Y-115498571D01*
X144200477Y-115450952D01*
X144105239Y-115403333D01*
X143914762Y-115403333D01*
X143819524Y-115450952D01*
X143771905Y-115498571D01*
X143724286Y-115593810D01*
X152955714Y-115736667D02*
X153431905Y-115736667D01*
X152860476Y-116022381D02*
X153193809Y-115022381D01*
X153527143Y-116022381D01*
X153765238Y-115022381D02*
X154384286Y-115022381D01*
X154050952Y-115403333D01*
X154193810Y-115403333D01*
X154289048Y-115450952D01*
X154336667Y-115498571D01*
X154384286Y-115593810D01*
X154384286Y-115831905D01*
X154336667Y-115927143D01*
X154289048Y-115974762D01*
X154193810Y-116022381D01*
X153908095Y-116022381D01*
X153812857Y-115974762D01*
X153765238Y-115927143D01*
X142771905Y-118562381D02*
X142771905Y-117562381D01*
X143010000Y-117562381D01*
X143152858Y-117610000D01*
X143248096Y-117705238D01*
X143295715Y-117800476D01*
X143343334Y-117990952D01*
X143343334Y-118133810D01*
X143295715Y-118324286D01*
X143248096Y-118419524D01*
X143152858Y-118514762D01*
X143010000Y-118562381D01*
X142771905Y-118562381D01*
X143676667Y-117562381D02*
X144343334Y-117562381D01*
X143914762Y-118562381D01*
X152955714Y-118276667D02*
X153431905Y-118276667D01*
X152860476Y-118562381D02*
X153193809Y-117562381D01*
X153527143Y-118562381D01*
X153812857Y-117657619D02*
X153860476Y-117610000D01*
X153955714Y-117562381D01*
X154193810Y-117562381D01*
X154289048Y-117610000D01*
X154336667Y-117657619D01*
X154384286Y-117752857D01*
X154384286Y-117848095D01*
X154336667Y-117990952D01*
X153765238Y-118562381D01*
X154384286Y-118562381D01*
X142771905Y-121102381D02*
X142771905Y-120102381D01*
X143010000Y-120102381D01*
X143152858Y-120150000D01*
X143248096Y-120245238D01*
X143295715Y-120340476D01*
X143343334Y-120530952D01*
X143343334Y-120673810D01*
X143295715Y-120864286D01*
X143248096Y-120959524D01*
X143152858Y-121054762D01*
X143010000Y-121102381D01*
X142771905Y-121102381D01*
X143914762Y-120530952D02*
X143819524Y-120483333D01*
X143771905Y-120435714D01*
X143724286Y-120340476D01*
X143724286Y-120292857D01*
X143771905Y-120197619D01*
X143819524Y-120150000D01*
X143914762Y-120102381D01*
X144105239Y-120102381D01*
X144200477Y-120150000D01*
X144248096Y-120197619D01*
X144295715Y-120292857D01*
X144295715Y-120340476D01*
X144248096Y-120435714D01*
X144200477Y-120483333D01*
X144105239Y-120530952D01*
X143914762Y-120530952D01*
X143819524Y-120578571D01*
X143771905Y-120626190D01*
X143724286Y-120721429D01*
X143724286Y-120911905D01*
X143771905Y-121007143D01*
X143819524Y-121054762D01*
X143914762Y-121102381D01*
X144105239Y-121102381D01*
X144200477Y-121054762D01*
X144248096Y-121007143D01*
X144295715Y-120911905D01*
X144295715Y-120721429D01*
X144248096Y-120626190D01*
X144200477Y-120578571D01*
X144105239Y-120530952D01*
X152955714Y-120816667D02*
X153431905Y-120816667D01*
X152860476Y-121102381D02*
X153193809Y-120102381D01*
X153527143Y-121102381D01*
X154384286Y-121102381D02*
X153812857Y-121102381D01*
X154098571Y-121102381D02*
X154098571Y-120102381D01*
X154003333Y-120245238D01*
X153908095Y-120340476D01*
X153812857Y-120388095D01*
X142771905Y-123642381D02*
X142771905Y-122642381D01*
X143010000Y-122642381D01*
X143152858Y-122690000D01*
X143248096Y-122785238D01*
X143295715Y-122880476D01*
X143343334Y-123070952D01*
X143343334Y-123213810D01*
X143295715Y-123404286D01*
X143248096Y-123499524D01*
X143152858Y-123594762D01*
X143010000Y-123642381D01*
X142771905Y-123642381D01*
X143819524Y-123642381D02*
X144010000Y-123642381D01*
X144105239Y-123594762D01*
X144152858Y-123547143D01*
X144248096Y-123404286D01*
X144295715Y-123213810D01*
X144295715Y-122832857D01*
X144248096Y-122737619D01*
X144200477Y-122690000D01*
X144105239Y-122642381D01*
X143914762Y-122642381D01*
X143819524Y-122690000D01*
X143771905Y-122737619D01*
X143724286Y-122832857D01*
X143724286Y-123070952D01*
X143771905Y-123166190D01*
X143819524Y-123213810D01*
X143914762Y-123261429D01*
X144105239Y-123261429D01*
X144200477Y-123213810D01*
X144248096Y-123166190D01*
X144295715Y-123070952D01*
X152955714Y-123356667D02*
X153431905Y-123356667D01*
X152860476Y-123642381D02*
X153193809Y-122642381D01*
X153527143Y-123642381D01*
X154050952Y-122642381D02*
X154146191Y-122642381D01*
X154241429Y-122690000D01*
X154289048Y-122737619D01*
X154336667Y-122832857D01*
X154384286Y-123023333D01*
X154384286Y-123261429D01*
X154336667Y-123451905D01*
X154289048Y-123547143D01*
X154241429Y-123594762D01*
X154146191Y-123642381D01*
X154050952Y-123642381D01*
X153955714Y-123594762D01*
X153908095Y-123547143D01*
X153860476Y-123451905D01*
X153812857Y-123261429D01*
X153812857Y-123023333D01*
X153860476Y-122832857D01*
X153908095Y-122737619D01*
X153955714Y-122690000D01*
X154050952Y-122642381D01*
X142295714Y-126182381D02*
X142295714Y-125182381D01*
X142533809Y-125182381D01*
X142676667Y-125230000D01*
X142771905Y-125325238D01*
X142819524Y-125420476D01*
X142867143Y-125610952D01*
X142867143Y-125753810D01*
X142819524Y-125944286D01*
X142771905Y-126039524D01*
X142676667Y-126134762D01*
X142533809Y-126182381D01*
X142295714Y-126182381D01*
X143819524Y-126182381D02*
X143248095Y-126182381D01*
X143533809Y-126182381D02*
X143533809Y-125182381D01*
X143438571Y-125325238D01*
X143343333Y-125420476D01*
X143248095Y-125468095D01*
X144438571Y-125182381D02*
X144533810Y-125182381D01*
X144629048Y-125230000D01*
X144676667Y-125277619D01*
X144724286Y-125372857D01*
X144771905Y-125563333D01*
X144771905Y-125801429D01*
X144724286Y-125991905D01*
X144676667Y-126087143D01*
X144629048Y-126134762D01*
X144533810Y-126182381D01*
X144438571Y-126182381D01*
X144343333Y-126134762D01*
X144295714Y-126087143D01*
X144248095Y-125991905D01*
X144200476Y-125801429D01*
X144200476Y-125563333D01*
X144248095Y-125372857D01*
X144295714Y-125277619D01*
X144343333Y-125230000D01*
X144438571Y-125182381D01*
X152908096Y-97290000D02*
X152812858Y-97242381D01*
X152670001Y-97242381D01*
X152527143Y-97290000D01*
X152431905Y-97385238D01*
X152384286Y-97480476D01*
X152336667Y-97670952D01*
X152336667Y-97813810D01*
X152384286Y-98004286D01*
X152431905Y-98099524D01*
X152527143Y-98194762D01*
X152670001Y-98242381D01*
X152765239Y-98242381D01*
X152908096Y-98194762D01*
X152955715Y-98147143D01*
X152955715Y-97813810D01*
X152765239Y-97813810D01*
X153384286Y-98242381D02*
X153384286Y-97242381D01*
X153955715Y-98242381D01*
X153955715Y-97242381D01*
X154431905Y-98242381D02*
X154431905Y-97242381D01*
X154670000Y-97242381D01*
X154812858Y-97290000D01*
X154908096Y-97385238D01*
X154955715Y-97480476D01*
X155003334Y-97670952D01*
X155003334Y-97813810D01*
X154955715Y-98004286D01*
X154908096Y-98099524D01*
X154812858Y-98194762D01*
X154670000Y-98242381D01*
X154431905Y-98242381D01*
X142295714Y-128722381D02*
X142295714Y-127722381D01*
X142533809Y-127722381D01*
X142676667Y-127770000D01*
X142771905Y-127865238D01*
X142819524Y-127960476D01*
X142867143Y-128150952D01*
X142867143Y-128293810D01*
X142819524Y-128484286D01*
X142771905Y-128579524D01*
X142676667Y-128674762D01*
X142533809Y-128722381D01*
X142295714Y-128722381D01*
X143819524Y-128722381D02*
X143248095Y-128722381D01*
X143533809Y-128722381D02*
X143533809Y-127722381D01*
X143438571Y-127865238D01*
X143343333Y-127960476D01*
X143248095Y-128008095D01*
X144771905Y-128722381D02*
X144200476Y-128722381D01*
X144486190Y-128722381D02*
X144486190Y-127722381D01*
X144390952Y-127865238D01*
X144295714Y-127960476D01*
X144200476Y-128008095D01*
X152050952Y-125896667D02*
X152527143Y-125896667D01*
X151955714Y-126182381D02*
X152289047Y-125182381D01*
X152622381Y-126182381D01*
X153527143Y-126182381D02*
X153193809Y-125706190D01*
X152955714Y-126182381D02*
X152955714Y-125182381D01*
X153336667Y-125182381D01*
X153431905Y-125230000D01*
X153479524Y-125277619D01*
X153527143Y-125372857D01*
X153527143Y-125515714D01*
X153479524Y-125610952D01*
X153431905Y-125658571D01*
X153336667Y-125706190D01*
X152955714Y-125706190D01*
X153955714Y-125658571D02*
X154289048Y-125658571D01*
X154431905Y-126182381D02*
X153955714Y-126182381D01*
X153955714Y-125182381D01*
X154431905Y-125182381D01*
X155193810Y-125658571D02*
X154860476Y-125658571D01*
X154860476Y-126182381D02*
X154860476Y-125182381D01*
X155336667Y-125182381D01*
X142295714Y-131262381D02*
X142295714Y-130262381D01*
X142533809Y-130262381D01*
X142676667Y-130310000D01*
X142771905Y-130405238D01*
X142819524Y-130500476D01*
X142867143Y-130690952D01*
X142867143Y-130833810D01*
X142819524Y-131024286D01*
X142771905Y-131119524D01*
X142676667Y-131214762D01*
X142533809Y-131262381D01*
X142295714Y-131262381D01*
X143819524Y-131262381D02*
X143248095Y-131262381D01*
X143533809Y-131262381D02*
X143533809Y-130262381D01*
X143438571Y-130405238D01*
X143343333Y-130500476D01*
X143248095Y-130548095D01*
X144200476Y-130357619D02*
X144248095Y-130310000D01*
X144343333Y-130262381D01*
X144581429Y-130262381D01*
X144676667Y-130310000D01*
X144724286Y-130357619D01*
X144771905Y-130452857D01*
X144771905Y-130548095D01*
X144724286Y-130690952D01*
X144152857Y-131262381D01*
X144771905Y-131262381D01*
X152479524Y-127722381D02*
X153098572Y-127722381D01*
X152765238Y-128103333D01*
X152908096Y-128103333D01*
X153003334Y-128150952D01*
X153050953Y-128198571D01*
X153098572Y-128293810D01*
X153098572Y-128531905D01*
X153050953Y-128627143D01*
X153003334Y-128674762D01*
X152908096Y-128722381D01*
X152622381Y-128722381D01*
X152527143Y-128674762D01*
X152479524Y-128627143D01*
X153431905Y-128055714D02*
X153670000Y-128722381D01*
X153908096Y-128055714D01*
X154193810Y-127722381D02*
X154812858Y-127722381D01*
X154479524Y-128103333D01*
X154622382Y-128103333D01*
X154717620Y-128150952D01*
X154765239Y-128198571D01*
X154812858Y-128293810D01*
X154812858Y-128531905D01*
X154765239Y-128627143D01*
X154717620Y-128674762D01*
X154622382Y-128722381D01*
X154336667Y-128722381D01*
X154241429Y-128674762D01*
X154193810Y-128627143D01*
X152455714Y-131262381D02*
X152455714Y-130262381D01*
X152693809Y-130262381D01*
X152836667Y-130310000D01*
X152931905Y-130405238D01*
X152979524Y-130500476D01*
X153027143Y-130690952D01*
X153027143Y-130833810D01*
X152979524Y-131024286D01*
X152931905Y-131119524D01*
X152836667Y-131214762D01*
X152693809Y-131262381D01*
X152455714Y-131262381D01*
X153979524Y-131262381D02*
X153408095Y-131262381D01*
X153693809Y-131262381D02*
X153693809Y-130262381D01*
X153598571Y-130405238D01*
X153503333Y-130500476D01*
X153408095Y-130548095D01*
X154312857Y-130262381D02*
X154931905Y-130262381D01*
X154598571Y-130643333D01*
X154741429Y-130643333D01*
X154836667Y-130690952D01*
X154884286Y-130738571D01*
X154931905Y-130833810D01*
X154931905Y-131071905D01*
X154884286Y-131167143D01*
X154836667Y-131214762D01*
X154741429Y-131262381D01*
X154455714Y-131262381D01*
X154360476Y-131214762D01*
X154312857Y-131167143D01*
M02*
