G04 #@! TF.FileFunction,Legend,Bot*
%FSLAX46Y46*%
G04 Gerber Fmt 4.6, Leading zero omitted, Abs format (unit mm)*
G04 Created by KiCad (PCBNEW 4.0.2-stable) date 12-Jun-16 1:17:00 PM*
%MOMM*%
G01*
G04 APERTURE LIST*
%ADD10C,0.100000*%
%ADD11C,0.300000*%
%ADD12C,0.150000*%
G04 APERTURE END LIST*
D10*
D11*
X148703571Y-93803429D02*
X147203571Y-93803429D01*
X148275000Y-94303429D01*
X147203571Y-94803429D01*
X148703571Y-94803429D01*
X147703571Y-95374858D02*
X148703571Y-95732001D01*
X147703571Y-96089143D02*
X148703571Y-95732001D01*
X149060714Y-95589143D01*
X149132143Y-95517715D01*
X149203571Y-95374858D01*
X148632143Y-96589143D02*
X148703571Y-96803429D01*
X148703571Y-97160572D01*
X148632143Y-97303429D01*
X148560714Y-97374858D01*
X148417857Y-97446286D01*
X148275000Y-97446286D01*
X148132143Y-97374858D01*
X148060714Y-97303429D01*
X147989286Y-97160572D01*
X147917857Y-96874858D01*
X147846429Y-96732000D01*
X147775000Y-96660572D01*
X147632143Y-96589143D01*
X147489286Y-96589143D01*
X147346429Y-96660572D01*
X147275000Y-96732000D01*
X147203571Y-96874858D01*
X147203571Y-97232000D01*
X147275000Y-97446286D01*
X148632143Y-98660571D02*
X148703571Y-98517714D01*
X148703571Y-98232000D01*
X148632143Y-98089143D01*
X148489286Y-98017714D01*
X147917857Y-98017714D01*
X147775000Y-98089143D01*
X147703571Y-98232000D01*
X147703571Y-98517714D01*
X147775000Y-98660571D01*
X147917857Y-98732000D01*
X148060714Y-98732000D01*
X148203571Y-98017714D01*
X147703571Y-99374857D02*
X148703571Y-99374857D01*
X147846429Y-99374857D02*
X147775000Y-99446285D01*
X147703571Y-99589143D01*
X147703571Y-99803428D01*
X147775000Y-99946285D01*
X147917857Y-100017714D01*
X148703571Y-100017714D01*
X148632143Y-100660571D02*
X148703571Y-100803428D01*
X148703571Y-101089143D01*
X148632143Y-101232000D01*
X148489286Y-101303428D01*
X148417857Y-101303428D01*
X148275000Y-101232000D01*
X148203571Y-101089143D01*
X148203571Y-100874857D01*
X148132143Y-100732000D01*
X147989286Y-100660571D01*
X147917857Y-100660571D01*
X147775000Y-100732000D01*
X147703571Y-100874857D01*
X147703571Y-101089143D01*
X147775000Y-101232000D01*
X148703571Y-102160572D02*
X148632143Y-102017714D01*
X148560714Y-101946286D01*
X148417857Y-101874857D01*
X147989286Y-101874857D01*
X147846429Y-101946286D01*
X147775000Y-102017714D01*
X147703571Y-102160572D01*
X147703571Y-102374857D01*
X147775000Y-102517714D01*
X147846429Y-102589143D01*
X147989286Y-102660572D01*
X148417857Y-102660572D01*
X148560714Y-102589143D01*
X148632143Y-102517714D01*
X148703571Y-102374857D01*
X148703571Y-102160572D01*
X148703571Y-103303429D02*
X147703571Y-103303429D01*
X147989286Y-103303429D02*
X147846429Y-103374857D01*
X147775000Y-103446286D01*
X147703571Y-103589143D01*
X147703571Y-103732000D01*
X148632143Y-104160571D02*
X148703571Y-104303428D01*
X148703571Y-104589143D01*
X148632143Y-104732000D01*
X148489286Y-104803428D01*
X148417857Y-104803428D01*
X148275000Y-104732000D01*
X148203571Y-104589143D01*
X148203571Y-104374857D01*
X148132143Y-104232000D01*
X147989286Y-104160571D01*
X147917857Y-104160571D01*
X147775000Y-104232000D01*
X147703571Y-104374857D01*
X147703571Y-104589143D01*
X147775000Y-104732000D01*
X147917857Y-107089143D02*
X147989286Y-107303429D01*
X148060714Y-107374857D01*
X148203571Y-107446286D01*
X148417857Y-107446286D01*
X148560714Y-107374857D01*
X148632143Y-107303429D01*
X148703571Y-107160571D01*
X148703571Y-106589143D01*
X147203571Y-106589143D01*
X147203571Y-107089143D01*
X147275000Y-107232000D01*
X147346429Y-107303429D01*
X147489286Y-107374857D01*
X147632143Y-107374857D01*
X147775000Y-107303429D01*
X147846429Y-107232000D01*
X147917857Y-107089143D01*
X147917857Y-106589143D01*
X148703571Y-108732000D02*
X147917857Y-108732000D01*
X147775000Y-108660571D01*
X147703571Y-108517714D01*
X147703571Y-108232000D01*
X147775000Y-108089143D01*
X148632143Y-108732000D02*
X148703571Y-108589143D01*
X148703571Y-108232000D01*
X148632143Y-108089143D01*
X148489286Y-108017714D01*
X148346429Y-108017714D01*
X148203571Y-108089143D01*
X148132143Y-108232000D01*
X148132143Y-108589143D01*
X148060714Y-108732000D01*
X148632143Y-109374857D02*
X148703571Y-109517714D01*
X148703571Y-109803429D01*
X148632143Y-109946286D01*
X148489286Y-110017714D01*
X148417857Y-110017714D01*
X148275000Y-109946286D01*
X148203571Y-109803429D01*
X148203571Y-109589143D01*
X148132143Y-109446286D01*
X147989286Y-109374857D01*
X147917857Y-109374857D01*
X147775000Y-109446286D01*
X147703571Y-109589143D01*
X147703571Y-109803429D01*
X147775000Y-109946286D01*
X148703571Y-110660572D02*
X147703571Y-110660572D01*
X147203571Y-110660572D02*
X147275000Y-110589143D01*
X147346429Y-110660572D01*
X147275000Y-110732000D01*
X147203571Y-110660572D01*
X147346429Y-110660572D01*
X148632143Y-112017715D02*
X148703571Y-111874858D01*
X148703571Y-111589144D01*
X148632143Y-111446286D01*
X148560714Y-111374858D01*
X148417857Y-111303429D01*
X147989286Y-111303429D01*
X147846429Y-111374858D01*
X147775000Y-111446286D01*
X147703571Y-111589144D01*
X147703571Y-111874858D01*
X147775000Y-112017715D01*
X148132143Y-112660572D02*
X148132143Y-113803429D01*
X148703571Y-114517715D02*
X147203571Y-114517715D01*
X147775000Y-114517715D02*
X147703571Y-114660572D01*
X147703571Y-114946286D01*
X147775000Y-115089143D01*
X147846429Y-115160572D01*
X147989286Y-115232001D01*
X148417857Y-115232001D01*
X148560714Y-115160572D01*
X148632143Y-115089143D01*
X148703571Y-114946286D01*
X148703571Y-114660572D01*
X148632143Y-114517715D01*
X148703571Y-116089144D02*
X148632143Y-115946286D01*
X148560714Y-115874858D01*
X148417857Y-115803429D01*
X147989286Y-115803429D01*
X147846429Y-115874858D01*
X147775000Y-115946286D01*
X147703571Y-116089144D01*
X147703571Y-116303429D01*
X147775000Y-116446286D01*
X147846429Y-116517715D01*
X147989286Y-116589144D01*
X148417857Y-116589144D01*
X148560714Y-116517715D01*
X148632143Y-116446286D01*
X148703571Y-116303429D01*
X148703571Y-116089144D01*
X148703571Y-117874858D02*
X147917857Y-117874858D01*
X147775000Y-117803429D01*
X147703571Y-117660572D01*
X147703571Y-117374858D01*
X147775000Y-117232001D01*
X148632143Y-117874858D02*
X148703571Y-117732001D01*
X148703571Y-117374858D01*
X148632143Y-117232001D01*
X148489286Y-117160572D01*
X148346429Y-117160572D01*
X148203571Y-117232001D01*
X148132143Y-117374858D01*
X148132143Y-117732001D01*
X148060714Y-117874858D01*
X148703571Y-118589144D02*
X147703571Y-118589144D01*
X147989286Y-118589144D02*
X147846429Y-118660572D01*
X147775000Y-118732001D01*
X147703571Y-118874858D01*
X147703571Y-119017715D01*
X148703571Y-120160572D02*
X147203571Y-120160572D01*
X148632143Y-120160572D02*
X148703571Y-120017715D01*
X148703571Y-119732001D01*
X148632143Y-119589143D01*
X148560714Y-119517715D01*
X148417857Y-119446286D01*
X147989286Y-119446286D01*
X147846429Y-119517715D01*
X147775000Y-119589143D01*
X147703571Y-119732001D01*
X147703571Y-120017715D01*
X147775000Y-120160572D01*
X147203571Y-121803429D02*
X148703571Y-122303429D01*
X147203571Y-122803429D01*
X147203571Y-123589143D02*
X147203571Y-123732000D01*
X147275000Y-123874857D01*
X147346429Y-123946286D01*
X147489286Y-124017715D01*
X147775000Y-124089143D01*
X148132143Y-124089143D01*
X148417857Y-124017715D01*
X148560714Y-123946286D01*
X148632143Y-123874857D01*
X148703571Y-123732000D01*
X148703571Y-123589143D01*
X148632143Y-123446286D01*
X148560714Y-123374857D01*
X148417857Y-123303429D01*
X148132143Y-123232000D01*
X147775000Y-123232000D01*
X147489286Y-123303429D01*
X147346429Y-123374857D01*
X147275000Y-123446286D01*
X147203571Y-123589143D01*
X148560714Y-124732000D02*
X148632143Y-124803428D01*
X148703571Y-124732000D01*
X148632143Y-124660571D01*
X148560714Y-124732000D01*
X148703571Y-124732000D01*
X148703571Y-126232000D02*
X148703571Y-125374857D01*
X148703571Y-125803429D02*
X147203571Y-125803429D01*
X147417857Y-125660572D01*
X147560714Y-125517714D01*
X147632143Y-125374857D01*
X150317857Y-99267715D02*
X150389286Y-99482001D01*
X150460714Y-99553429D01*
X150603571Y-99624858D01*
X150817857Y-99624858D01*
X150960714Y-99553429D01*
X151032143Y-99482001D01*
X151103571Y-99339143D01*
X151103571Y-98767715D01*
X149603571Y-98767715D01*
X149603571Y-99267715D01*
X149675000Y-99410572D01*
X149746429Y-99482001D01*
X149889286Y-99553429D01*
X150032143Y-99553429D01*
X150175000Y-99482001D01*
X150246429Y-99410572D01*
X150317857Y-99267715D01*
X150317857Y-98767715D01*
X150103571Y-100124858D02*
X151103571Y-100482001D01*
X150103571Y-100839143D02*
X151103571Y-100482001D01*
X151460714Y-100339143D01*
X151532143Y-100267715D01*
X151603571Y-100124858D01*
X151103571Y-102553429D02*
X149603571Y-102553429D01*
X150675000Y-103053429D01*
X149603571Y-103553429D01*
X151103571Y-103553429D01*
X151103571Y-104910572D02*
X150317857Y-104910572D01*
X150175000Y-104839143D01*
X150103571Y-104696286D01*
X150103571Y-104410572D01*
X150175000Y-104267715D01*
X151032143Y-104910572D02*
X151103571Y-104767715D01*
X151103571Y-104410572D01*
X151032143Y-104267715D01*
X150889286Y-104196286D01*
X150746429Y-104196286D01*
X150603571Y-104267715D01*
X150532143Y-104410572D01*
X150532143Y-104767715D01*
X150460714Y-104910572D01*
X151103571Y-105624858D02*
X150103571Y-105624858D01*
X150389286Y-105624858D02*
X150246429Y-105696286D01*
X150175000Y-105767715D01*
X150103571Y-105910572D01*
X150103571Y-106053429D01*
X151032143Y-107196286D02*
X151103571Y-107053429D01*
X151103571Y-106767715D01*
X151032143Y-106624857D01*
X150960714Y-106553429D01*
X150817857Y-106482000D01*
X150389286Y-106482000D01*
X150246429Y-106553429D01*
X150175000Y-106624857D01*
X150103571Y-106767715D01*
X150103571Y-107053429D01*
X150175000Y-107196286D01*
X151103571Y-108053429D02*
X151032143Y-107910571D01*
X150960714Y-107839143D01*
X150817857Y-107767714D01*
X150389286Y-107767714D01*
X150246429Y-107839143D01*
X150175000Y-107910571D01*
X150103571Y-108053429D01*
X150103571Y-108267714D01*
X150175000Y-108410571D01*
X150246429Y-108482000D01*
X150389286Y-108553429D01*
X150817857Y-108553429D01*
X150960714Y-108482000D01*
X151032143Y-108410571D01*
X151103571Y-108267714D01*
X151103571Y-108053429D01*
X150103571Y-110196286D02*
X151103571Y-110553429D01*
X150103571Y-110910571D01*
X151103571Y-112124857D02*
X150317857Y-112124857D01*
X150175000Y-112053428D01*
X150103571Y-111910571D01*
X150103571Y-111624857D01*
X150175000Y-111482000D01*
X151032143Y-112124857D02*
X151103571Y-111982000D01*
X151103571Y-111624857D01*
X151032143Y-111482000D01*
X150889286Y-111410571D01*
X150746429Y-111410571D01*
X150603571Y-111482000D01*
X150532143Y-111624857D01*
X150532143Y-111982000D01*
X150460714Y-112124857D01*
X150103571Y-112839143D02*
X151103571Y-112839143D01*
X150246429Y-112839143D02*
X150175000Y-112910571D01*
X150103571Y-113053429D01*
X150103571Y-113267714D01*
X150175000Y-113410571D01*
X150317857Y-113482000D01*
X151103571Y-113482000D01*
X151103571Y-115339143D02*
X149603571Y-115339143D01*
X151103571Y-116196286D01*
X149603571Y-116196286D01*
X151103571Y-117124858D02*
X151032143Y-116982000D01*
X150960714Y-116910572D01*
X150817857Y-116839143D01*
X150389286Y-116839143D01*
X150246429Y-116910572D01*
X150175000Y-116982000D01*
X150103571Y-117124858D01*
X150103571Y-117339143D01*
X150175000Y-117482000D01*
X150246429Y-117553429D01*
X150389286Y-117624858D01*
X150817857Y-117624858D01*
X150960714Y-117553429D01*
X151032143Y-117482000D01*
X151103571Y-117339143D01*
X151103571Y-117124858D01*
X151103571Y-118482001D02*
X151032143Y-118339143D01*
X150960714Y-118267715D01*
X150817857Y-118196286D01*
X150389286Y-118196286D01*
X150246429Y-118267715D01*
X150175000Y-118339143D01*
X150103571Y-118482001D01*
X150103571Y-118696286D01*
X150175000Y-118839143D01*
X150246429Y-118910572D01*
X150389286Y-118982001D01*
X150817857Y-118982001D01*
X150960714Y-118910572D01*
X151032143Y-118839143D01*
X151103571Y-118696286D01*
X151103571Y-118482001D01*
X151103571Y-119624858D02*
X150103571Y-119624858D01*
X150389286Y-119624858D02*
X150246429Y-119696286D01*
X150175000Y-119767715D01*
X150103571Y-119910572D01*
X150103571Y-120053429D01*
X151103571Y-121196286D02*
X149603571Y-121196286D01*
X151032143Y-121196286D02*
X151103571Y-121053429D01*
X151103571Y-120767715D01*
X151032143Y-120624857D01*
X150960714Y-120553429D01*
X150817857Y-120482000D01*
X150389286Y-120482000D01*
X150246429Y-120553429D01*
X150175000Y-120624857D01*
X150103571Y-120767715D01*
X150103571Y-121053429D01*
X150175000Y-121196286D01*
D12*
X177546000Y-124714000D02*
X175006000Y-124714000D01*
X175006000Y-124714000D02*
X175006000Y-121920000D01*
X177546000Y-124714000D02*
X180086000Y-124714000D01*
X180086000Y-124714000D02*
X180086000Y-121920000D01*
X188470953Y-111252000D02*
G75*
G03X188470953Y-111252000I-10924953J0D01*
G01*
X178077714Y-111942571D02*
X177934857Y-111990190D01*
X177887238Y-112037810D01*
X177839619Y-112133048D01*
X177839619Y-112275905D01*
X177887238Y-112371143D01*
X177934857Y-112418762D01*
X178030095Y-112466381D01*
X178411048Y-112466381D01*
X178411048Y-111466381D01*
X178077714Y-111466381D01*
X177982476Y-111514000D01*
X177934857Y-111561619D01*
X177887238Y-111656857D01*
X177887238Y-111752095D01*
X177934857Y-111847333D01*
X177982476Y-111894952D01*
X178077714Y-111942571D01*
X178411048Y-111942571D01*
X177553905Y-111466381D02*
X176982476Y-111466381D01*
X177268191Y-112466381D02*
X177268191Y-111466381D01*
X176125333Y-112466381D02*
X176696762Y-112466381D01*
X176411048Y-112466381D02*
X176411048Y-111466381D01*
X176506286Y-111609238D01*
X176601524Y-111704476D01*
X176696762Y-111752095D01*
M02*
